G04 ================== begin FILE IDENTIFICATION RECORD ==================*
G04 Layout Name:  STEVAL-STLCR01V1.brd*
G04 Film Name:    STEVAL-STLCR01V1-08SSB.GBR*
G04 File Format:  Gerber RS274X*
G04 File Origin:  Cadence Allegro 16.5-P002*
G04 Origin Date:  Wed May 18 11:18:33 2016*
G04 *
G04 Layer:  REF DES/SILKSCREEN_BOTTOM*
G04 Layer:  PACKAGE GEOMETRY/SILKSCREEN_BOTTOM*
G04 Layer:  BOARD GEOMETRY/TOOLING_CORNERS*
G04 Layer:  BOARD GEOMETRY/SILKSCREEN_BOTTOM*
G04 *
G04 Offset:    (0.0000 0.0000)*
G04 Mirror:    No*
G04 Mode:      Positive*
G04 Rotation:  0*
G04 FullContactRelief:  No*
G04 UndefLineWidth:     0.1500*
G04 ================== end FILE IDENTIFICATION RECORD ====================*
%FSLAX25Y25*MOMM*%
%IR0*IPPOS*OFA0.00000B0.00000*MIA0B0*SFA1.00000B1.00000*%
%ADD10C,.1*%
%ADD11C,.2*%
%ADD12C,.3*%
%ADD13C,.1524*%
%ADD14C,.15*%
%ADD15C,.0381*%
G75*
%LPD*%
G75*
G36*
G01X343110Y2756080D02*
Y2763950D01*
X284950D01*
Y2744140D01*
X295870Y2732960D01*
X283930Y2721030D01*
Y2701980D01*
X343110D01*
Y2721030D01*
X315940D01*
X327110Y2731950D01*
X314920Y2744140D01*
X343110D01*
Y2756080D01*
G37*
G54D10*
G01X1615000Y190000D02*
X1065000D01*
Y15000D01*
X1615000D01*
Y190000D01*
G54D11*
G01X875010Y20000D02*
X1000000D01*
Y570000D01*
X0D01*
Y20000D01*
X124990D01*
G01X1150000Y1580000D02*
X1090000D01*
X1030000Y1520000D01*
Y1130000D01*
X1090000Y1070000D01*
X1150000D01*
X1170000Y1090000D01*
Y1120000D01*
X1150000Y1140000D01*
X1120000D01*
X1100000Y1160000D01*
Y1490000D01*
X1120000Y1510000D01*
X1150000D01*
X1170000Y1530000D01*
Y1560000D01*
X1150000Y1580000D01*
G54D12*
G01X0Y0D02*
X1750000D01*
Y410000D01*
X1830000D01*
Y0D01*
X2150000D01*
Y1310000D01*
X1830000D01*
Y950000D01*
X1750000D01*
Y3000000D01*
X1460000D01*
Y2860000D01*
X1400000Y2800000D01*
X1090000D01*
X1070000Y2780000D01*
Y2170000D01*
X650000D01*
Y2830000D01*
X480000Y3000000D01*
X0D01*
Y0D01*
G01X1830000Y530000D02*
X1750000D01*
Y820000D01*
X1830000D01*
Y530000D01*
G54D13*
G01X1620000Y1000000D02*
Y2050000D01*
X1670000D01*
Y2275000D01*
X-55000D01*
Y925000D01*
X1620000D01*
Y1000000D01*
G54D14*
G01X655000Y2835000D02*
X1065000D01*
Y2170000D01*
X655000D01*
Y2835000D01*
G01X1040000Y315000D02*
Y765000D01*
X1580000D01*
Y315000D01*
X1040000D01*
G01X1878000Y1295000D02*
Y25000D01*
X2132000D01*
Y1295000D01*
X1878000D01*
G54D15*
G01X147280Y2317420D02*
Y2297100D01*
G01Y2487600D02*
Y2413940D01*
G01X144740Y2317420D02*
Y2297100D01*
G01Y2490140D02*
Y2421560D01*
G01X142200Y2317420D02*
Y2297100D01*
G01Y2490140D02*
Y2431720D01*
G01X139660Y2317420D02*
Y2297100D01*
G01Y2426640D02*
Y2393620D01*
G01X137120Y2317420D02*
Y2297100D01*
G01Y2426640D02*
Y2386000D01*
G01X134580Y2317420D02*
Y2297100D01*
G01Y2429180D02*
Y2386000D01*
G01X132040Y2317420D02*
Y2297100D01*
G01Y2429180D02*
Y2386000D01*
G01X129500Y2317420D02*
Y2297100D01*
G01Y2431720D02*
Y2388540D01*
G01X126960Y2317420D02*
Y2297100D01*
G01Y2434260D02*
Y2388540D01*
G01X124420Y2317420D02*
Y2297100D01*
G01Y2487600D02*
Y2388540D01*
G01X121880Y2317420D02*
Y2297100D01*
G01Y2485060D02*
Y2391080D01*
G01X119340Y2317420D02*
Y2297100D01*
G01Y2485060D02*
Y2391080D01*
G01X116800Y2317420D02*
Y2297100D01*
G01Y2482520D02*
Y2393620D01*
G01X114260Y2317420D02*
Y2297100D01*
G01Y2479980D02*
Y2396160D01*
G01X111720Y2317420D02*
Y2297100D01*
G01Y2477440D02*
Y2398700D01*
G01X109180Y2317420D02*
Y2297100D01*
G01Y2472360D02*
Y2403780D01*
G01X106640Y2317420D02*
Y2297100D01*
G01Y2467280D02*
Y2408860D01*
G01X104100Y2317420D02*
Y2297100D01*
G01Y2457120D02*
Y2419020D01*
G01X101560Y2317420D02*
Y2297100D01*
G01X99020Y2317420D02*
Y2297100D01*
G01X96480Y2317420D02*
Y2297100D01*
G01X93940Y2317420D02*
Y2297100D01*
G01X91400Y2317420D02*
Y2297100D01*
G01X88860Y2317420D02*
Y2297100D01*
G01X86320Y2317420D02*
Y2297100D01*
G01X83780Y2317420D02*
Y2297100D01*
G01X81240Y2317420D02*
Y2297100D01*
G01X78700Y2317420D02*
Y2297100D01*
G01X76160Y2317420D02*
Y2297100D01*
G01X73620Y2317420D02*
Y2297100D01*
G01X71080Y2317420D02*
Y2297100D01*
G01X68540Y2317420D02*
Y2297100D01*
G01X66000Y2317420D02*
Y2297100D01*
G01X63460Y2317420D02*
Y2297100D01*
G01X60920Y2317420D02*
Y2297100D01*
G01X58380Y2317420D02*
Y2297100D01*
G01X55840Y2317420D02*
Y2297100D01*
G01X53300Y2317420D02*
Y2297100D01*
G01X50760Y2317420D02*
Y2297100D01*
G01X48220Y2317420D02*
Y2297100D01*
G01X45680Y2957500D02*
Y2297100D01*
G01X43140Y2957500D02*
Y2297100D01*
G01X40600Y2957500D02*
Y2297100D01*
G01X38060Y2957500D02*
Y2297100D01*
G01X35520Y2957500D02*
Y2297100D01*
G01X32980Y2957500D02*
Y2297100D01*
G01X30440Y2957500D02*
Y2297100D01*
G01X27900Y2957500D02*
Y2297100D01*
G01X147280Y2622220D02*
Y2510460D01*
G01Y2726360D02*
Y2650160D01*
G01Y2792400D02*
Y2749220D01*
G01Y2858440D02*
Y2817800D01*
G01Y2957500D02*
Y2934640D01*
G01X144740Y2551100D02*
Y2510460D01*
G01Y2622220D02*
Y2581580D01*
G01Y2723820D02*
Y2652700D01*
G01Y2789860D02*
Y2749220D01*
G01Y2858440D02*
Y2817800D01*
G01Y2957500D02*
Y2934640D01*
G01X142200Y2551100D02*
Y2510460D01*
G01Y2622220D02*
Y2581580D01*
G01Y2721280D02*
Y2655240D01*
G01Y2789860D02*
Y2749220D01*
G01Y2858440D02*
Y2817800D01*
G01Y2957500D02*
Y2934640D01*
G01X139660Y2490140D02*
Y2441880D01*
G01Y2551100D02*
Y2510460D01*
G01Y2622220D02*
Y2581580D01*
G01Y2716200D02*
Y2657780D01*
G01Y2789860D02*
Y2749220D01*
G01Y2858440D02*
Y2817800D01*
G01Y2957500D02*
Y2934640D01*
G01X137120Y2490140D02*
Y2446960D01*
G01Y2551100D02*
Y2510460D01*
G01Y2622220D02*
Y2581580D01*
G01Y2711120D02*
Y2665400D01*
G01Y2792400D02*
Y2749220D01*
G01Y2858440D02*
Y2817800D01*
G01Y2957500D02*
Y2934640D01*
G01X134580Y2490140D02*
Y2449500D01*
G01Y2551100D02*
Y2510460D01*
G01Y2622220D02*
Y2581580D01*
G01Y2703500D02*
Y2673020D01*
G01Y2797480D02*
Y2749220D01*
G01Y2858440D02*
Y2817800D01*
G01Y2957500D02*
Y2934640D01*
G01X132040Y2490140D02*
Y2449500D01*
G01Y2551100D02*
Y2510460D01*
G01Y2622220D02*
Y2581580D01*
G01Y2858440D02*
Y2749220D01*
G01Y2957500D02*
Y2934640D01*
G01X129500Y2490140D02*
Y2446960D01*
G01Y2551100D02*
Y2510460D01*
G01Y2622220D02*
Y2581580D01*
G01Y2858440D02*
Y2749220D01*
G01Y2957500D02*
Y2934640D01*
G01X126960Y2487600D02*
Y2444420D01*
G01Y2551100D02*
Y2510460D01*
G01Y2622220D02*
Y2581580D01*
G01Y2858440D02*
Y2751760D01*
G01Y2957500D02*
Y2934640D01*
G01X124420Y2551100D02*
Y2510460D01*
G01Y2622220D02*
Y2581580D01*
G01Y2858440D02*
Y2751760D01*
G01Y2957500D02*
Y2934640D01*
G01X121880Y2551100D02*
Y2510460D01*
G01Y2622220D02*
Y2581580D01*
G01Y2858440D02*
Y2754300D01*
G01Y2957500D02*
Y2934640D01*
G01X119340Y2551100D02*
Y2510460D01*
G01Y2622220D02*
Y2581580D01*
G01Y2858440D02*
Y2754300D01*
G01Y2957500D02*
Y2934640D01*
G01X116800Y2551100D02*
Y2510460D01*
G01Y2622220D02*
Y2581580D01*
G01Y2858440D02*
Y2756840D01*
G01Y2957500D02*
Y2934640D01*
G01X114260Y2551100D02*
Y2510460D01*
G01Y2622220D02*
Y2581580D01*
G01Y2858440D02*
Y2759380D01*
G01Y2957500D02*
Y2934640D01*
G01X111720Y2551100D02*
Y2510460D01*
G01Y2622220D02*
Y2581580D01*
G01Y2858440D02*
Y2761920D01*
G01Y2957500D02*
Y2934640D01*
G01X109180Y2551100D02*
Y2510460D01*
G01Y2622220D02*
Y2581580D01*
G01Y2858440D02*
Y2767000D01*
G01Y2957500D02*
Y2934640D01*
G01X106640Y2551100D02*
Y2510460D01*
G01Y2622220D02*
Y2581580D01*
G01Y2858440D02*
Y2774620D01*
G01Y2957500D02*
Y2934640D01*
G01X104100Y2957500D02*
Y2934640D01*
G01X101560Y2957500D02*
Y2934640D01*
G01X99020Y2957500D02*
Y2934640D01*
G01X96480Y2957500D02*
Y2934640D01*
G01X93940Y2957500D02*
Y2934640D01*
G01X91400Y2957500D02*
Y2934640D01*
G01X88860Y2957500D02*
Y2934640D01*
G01X86320Y2957500D02*
Y2934640D01*
G01X83780Y2957500D02*
Y2934640D01*
G01X81240Y2957500D02*
Y2934640D01*
G01X78700Y2957500D02*
Y2934640D01*
G01X76160Y2957500D02*
Y2934640D01*
G01X73620Y2957500D02*
Y2934640D01*
G01X71080Y2957500D02*
Y2934640D01*
G01X68540Y2957500D02*
Y2934640D01*
G01X66000Y2957500D02*
Y2934640D01*
G01X63460Y2957500D02*
Y2934640D01*
G01X60920Y2957500D02*
Y2934640D01*
G01X58380Y2957500D02*
Y2934640D01*
G01X55840Y2957500D02*
Y2934640D01*
G01X53300Y2957500D02*
Y2934640D01*
G01X50760Y2957500D02*
Y2934640D01*
G01X48220Y2957500D02*
Y2934640D01*
G01X472400Y2317420D02*
Y2297100D01*
G01X469860Y2317420D02*
Y2297100D01*
G01X467320Y2317420D02*
Y2297100D01*
G01X464780Y2317420D02*
Y2297100D01*
G01X462240Y2317420D02*
Y2297100D01*
G01X459700Y2317420D02*
Y2297100D01*
G01X457160Y2317420D02*
Y2297100D01*
G01X454620Y2317420D02*
Y2297100D01*
G01X452080Y2317420D02*
Y2297100D01*
G01X449540Y2317420D02*
Y2297100D01*
G01X447000Y2317420D02*
Y2297100D01*
G01X444460Y2317420D02*
Y2297100D01*
G01X441920Y2317420D02*
Y2297100D01*
G01X439380Y2317420D02*
Y2297100D01*
G01X436840Y2317420D02*
Y2297100D01*
G01X434300Y2317420D02*
Y2297100D01*
G01Y2434260D02*
Y2421560D01*
G01X431760Y2317420D02*
Y2297100D01*
G01Y2441880D02*
Y2413940D01*
G01X429220Y2317420D02*
Y2297100D01*
G01Y2446960D02*
Y2411400D01*
G01X426680Y2317420D02*
Y2297100D01*
G01Y2446960D02*
Y2408860D01*
G01X424140Y2317420D02*
Y2297100D01*
G01Y2449500D02*
Y2406320D01*
G01X421600Y2317420D02*
Y2297100D01*
G01Y2424100D02*
Y2406320D01*
G01X419060Y2317420D02*
Y2297100D01*
G01Y2421560D02*
Y2403780D01*
G01X416520Y2317420D02*
Y2297100D01*
G01Y2421560D02*
Y2408860D01*
G01X413980Y2317420D02*
Y2297100D01*
G01Y2421560D02*
Y2419020D01*
G01X411440Y2317420D02*
Y2297100D01*
G01X408900Y2317420D02*
Y2297100D01*
G01X406360Y2317420D02*
Y2297100D01*
G01X403820Y2317420D02*
Y2297100D01*
G01X401280Y2317420D02*
Y2297100D01*
G01X398740Y2317420D02*
Y2297100D01*
G01Y2421560D02*
Y2419020D01*
G01X396200Y2317420D02*
Y2297100D01*
G01Y2421560D02*
Y2406320D01*
G01X393660Y2317420D02*
Y2297100D01*
G01Y2424100D02*
Y2406320D01*
G01X391120Y2317420D02*
Y2297100D01*
G01Y2449500D02*
Y2406320D01*
G01X388580Y2317420D02*
Y2297100D01*
G01Y2449500D02*
Y2408860D01*
G01X386040Y2317420D02*
Y2297100D01*
G01Y2446960D02*
Y2411400D01*
G01X383500Y2317420D02*
Y2297100D01*
G01Y2441880D02*
Y2413940D01*
G01X380960Y2317420D02*
Y2297100D01*
G01Y2434260D02*
Y2421560D01*
G01X378420Y2317420D02*
Y2297100D01*
G01X375880Y2317420D02*
Y2297100D01*
G01X373340Y2317420D02*
Y2297100D01*
G01X370800Y2317420D02*
Y2297100D01*
G01X368260Y2317420D02*
Y2297100D01*
G01X365720Y2317420D02*
Y2297100D01*
G01X363180Y2317420D02*
Y2297100D01*
G01X360640Y2317420D02*
Y2297100D01*
G01X358100Y2317420D02*
Y2297100D01*
G01X355560Y2317420D02*
Y2297100D01*
G01X353020Y2317420D02*
Y2297100D01*
G01X350480Y2317420D02*
Y2297100D01*
G01X347940Y2317420D02*
Y2297100D01*
G01X345400Y2317420D02*
Y2297100D01*
G01X342860Y2317420D02*
Y2297100D01*
G01X340320Y2317420D02*
Y2297100D01*
G01X342350Y2381680D02*
Y2361360D01*
G01Y2424860D02*
Y2407080D01*
G01X337780Y2317420D02*
Y2297100D01*
G01X339810Y2381680D02*
Y2361360D01*
G01Y2427400D02*
Y2407080D01*
G01X335240Y2317420D02*
Y2297100D01*
G01X337270Y2381680D02*
Y2361360D01*
G01Y2429940D02*
Y2407080D01*
G01X332700Y2317420D02*
Y2297100D01*
G01X334730Y2381680D02*
Y2361360D01*
G01Y2429940D02*
Y2407080D01*
G01X330160Y2317420D02*
Y2297100D01*
G01X332190Y2381680D02*
Y2361360D01*
G01Y2432480D02*
Y2407080D01*
G01X327620Y2317420D02*
Y2297100D01*
G01X329650Y2381680D02*
Y2361360D01*
G01Y2435020D02*
Y2407080D01*
G01X325080Y2317420D02*
Y2297100D01*
G01X327110Y2381680D02*
Y2361360D01*
G01Y2435020D02*
Y2407080D01*
G01X322540Y2317420D02*
Y2297100D01*
G01X324570Y2381680D02*
Y2361360D01*
G01Y2437560D02*
Y2407080D01*
G01X320000Y2317420D02*
Y2297100D01*
G01X322030Y2381680D02*
Y2361360D01*
G01Y2440100D02*
Y2407080D01*
G01X317460Y2317420D02*
Y2297100D01*
G01X319490Y2381680D02*
Y2361360D01*
G01Y2442640D02*
Y2407080D01*
G01X314920Y2317420D02*
Y2297100D01*
G01X316950Y2381680D02*
Y2361360D01*
G01Y2442640D02*
Y2407080D01*
G01X312380Y2317420D02*
Y2297100D01*
G01X314410Y2381680D02*
Y2361360D01*
G01Y2424860D02*
Y2407080D01*
G01Y2445180D02*
Y2427400D01*
G01X309840Y2317420D02*
Y2297100D01*
G01X311870Y2381680D02*
Y2361360D01*
G01Y2424860D02*
Y2407080D01*
G01Y2465500D02*
Y2429940D01*
G01X307300Y2317420D02*
Y2297100D01*
G01X309330Y2381680D02*
Y2361360D01*
G01Y2424860D02*
Y2407080D01*
G01Y2465500D02*
Y2429940D01*
G01X304760Y2317420D02*
Y2297100D01*
G01X306790Y2381680D02*
Y2361360D01*
G01Y2424860D02*
Y2407080D01*
G01Y2465500D02*
Y2432480D01*
G01X302220Y2317420D02*
Y2297100D01*
G01X304250Y2381680D02*
Y2361360D01*
G01Y2424860D02*
Y2407080D01*
G01X299680Y2317420D02*
Y2297100D01*
G01X301710Y2381680D02*
Y2361360D01*
G01Y2424860D02*
Y2407080D01*
G01X297140Y2317420D02*
Y2297100D01*
G01X299170Y2381680D02*
Y2361360D01*
G01Y2424860D02*
Y2407080D01*
G01X294600Y2317420D02*
Y2297100D01*
G01X296630Y2399460D02*
Y2343580D01*
G01Y2424860D02*
Y2407080D01*
G01X292060Y2317420D02*
Y2297100D01*
G01X294090Y2399460D02*
Y2343580D01*
G01Y2424860D02*
Y2407080D01*
G01X289520Y2317420D02*
Y2297100D01*
G01X291550Y2399460D02*
Y2343580D01*
G01Y2424860D02*
Y2407080D01*
G01X286980Y2317420D02*
Y2297100D01*
G01X289010Y2399460D02*
Y2343580D01*
G01Y2424860D02*
Y2407080D01*
G01X284440Y2317420D02*
Y2297100D01*
G01X286470Y2399460D02*
Y2343580D01*
G01Y2424860D02*
Y2407080D01*
G01X281900Y2317420D02*
Y2297100D01*
G01X279360Y2317420D02*
Y2297100D01*
G01X276820Y2317420D02*
Y2297100D01*
G01X274280Y2317420D02*
Y2297100D01*
G01X271740Y2317420D02*
Y2297100D01*
G01X269200Y2317420D02*
Y2297100D01*
G01X266660Y2317420D02*
Y2297100D01*
G01X264120Y2317420D02*
Y2297100D01*
G01X261580Y2317420D02*
Y2297100D01*
G01X259040Y2317420D02*
Y2297100D01*
G01X256500Y2317420D02*
Y2297100D01*
G01X253960Y2317420D02*
Y2297100D01*
G01X251420Y2317420D02*
Y2297100D01*
G01X248880Y2317420D02*
Y2297100D01*
G01X246340Y2317420D02*
Y2297100D01*
G01X243800Y2317420D02*
Y2297100D01*
G01X241260Y2317420D02*
Y2297100D01*
G01X238720Y2317420D02*
Y2297100D01*
G01X236180Y2317420D02*
Y2297100D01*
G01X233640Y2317420D02*
Y2297100D01*
G01X231100Y2317420D02*
Y2297100D01*
G01X228560Y2317420D02*
Y2297100D01*
G01X226020Y2317420D02*
Y2297100D01*
G01X223480Y2317420D02*
Y2297100D01*
G01Y2459660D02*
Y2419020D01*
G01X220940Y2317420D02*
Y2297100D01*
G01Y2467280D02*
Y2411400D01*
G01X218400Y2317420D02*
Y2297100D01*
G01Y2474900D02*
Y2406320D01*
G01X215860Y2317420D02*
Y2297100D01*
G01Y2477440D02*
Y2401240D01*
G01X213320Y2317420D02*
Y2297100D01*
G01Y2482520D02*
Y2398700D01*
G01X210780Y2317420D02*
Y2297100D01*
G01Y2482520D02*
Y2393620D01*
G01X208240Y2317420D02*
Y2297100D01*
G01Y2485060D02*
Y2393620D01*
G01X205700Y2317420D02*
Y2297100D01*
G01Y2487600D02*
Y2391080D01*
G01X203160Y2317420D02*
Y2297100D01*
G01Y2490140D02*
Y2388540D01*
G01X200620Y2317420D02*
Y2297100D01*
G01Y2490140D02*
Y2388540D01*
G01X198080Y2317420D02*
Y2297100D01*
G01Y2492680D02*
Y2386000D01*
G01X195540Y2317420D02*
Y2297100D01*
G01Y2431720D02*
Y2386000D01*
G01X193000Y2317420D02*
Y2297100D01*
G01Y2426640D02*
Y2383460D01*
G01X190460Y2317420D02*
Y2297100D01*
G01Y2426640D02*
Y2383460D01*
G01X187920Y2317420D02*
Y2297100D01*
G01Y2424100D02*
Y2383460D01*
G01X185380Y2317420D02*
Y2297100D01*
G01Y2424100D02*
Y2383460D01*
G01X182840Y2317420D02*
Y2297100D01*
G01Y2424100D02*
Y2383460D01*
G01X180300Y2317420D02*
Y2297100D01*
G01Y2426640D02*
Y2383460D01*
G01X177760Y2317420D02*
Y2297100D01*
G01Y2431720D02*
Y2383460D01*
G01X175220Y2317420D02*
Y2297100D01*
G01Y2436800D02*
Y2383460D01*
G01X172680Y2317420D02*
Y2297100D01*
G01Y2449500D02*
Y2386000D01*
G01X170140Y2317420D02*
Y2297100D01*
G01Y2457120D02*
Y2386000D01*
G01X167600Y2317420D02*
Y2297100D01*
G01Y2464740D02*
Y2386000D01*
G01X165060Y2317420D02*
Y2297100D01*
G01Y2469820D02*
Y2388540D01*
G01X162520Y2317420D02*
Y2297100D01*
G01Y2474900D02*
Y2391080D01*
G01X159980Y2317420D02*
Y2297100D01*
G01Y2479980D02*
Y2391080D01*
G01X157440Y2317420D02*
Y2297100D01*
G01Y2482520D02*
Y2393620D01*
G01X154900Y2317420D02*
Y2297100D01*
G01Y2485060D02*
Y2398700D01*
G01X152360Y2317420D02*
Y2297100D01*
G01Y2485060D02*
Y2401240D01*
G01X149820Y2317420D02*
Y2297100D01*
G01Y2487600D02*
Y2406320D01*
G01X507960Y2957500D02*
Y2297100D01*
G01X505420Y2957500D02*
Y2297100D01*
G01X502880Y2957500D02*
Y2297100D01*
G01X500340Y2957500D02*
Y2297100D01*
G01X497800Y2957500D02*
Y2297100D01*
G01X495260Y2957500D02*
Y2297100D01*
G01X492720Y2957500D02*
Y2297100D01*
G01X490180Y2957500D02*
Y2297100D01*
G01X487640Y2957500D02*
Y2297100D01*
G01X485100Y2957500D02*
Y2297100D01*
G01X482560Y2957500D02*
Y2297100D01*
G01X480020Y2317420D02*
Y2297100D01*
G01X477480Y2317420D02*
Y2297100D01*
G01X474940Y2317420D02*
Y2297100D01*
G01X472400Y2957500D02*
Y2934640D01*
G01X469860Y2957500D02*
Y2934640D01*
G01X467320Y2957500D02*
Y2934640D01*
G01X464780Y2957500D02*
Y2934640D01*
G01X462240Y2957500D02*
Y2934640D01*
G01X459700Y2957500D02*
Y2934640D01*
G01X457160Y2957500D02*
Y2934640D01*
G01X454620Y2957500D02*
Y2934640D01*
G01X452080Y2957500D02*
Y2934640D01*
G01X449540Y2957500D02*
Y2934640D01*
G01X447000Y2957500D02*
Y2934640D01*
G01X444460Y2957500D02*
Y2934640D01*
G01X441920Y2957500D02*
Y2934640D01*
G01X439380Y2957500D02*
Y2934640D01*
G01X436840Y2957500D02*
Y2934640D01*
G01X434300Y2507920D02*
Y2462200D01*
G01Y2533320D02*
Y2525700D01*
G01Y2566340D02*
Y2553640D01*
G01Y2619680D02*
Y2606980D01*
G01Y2655240D02*
Y2647620D01*
G01Y2703500D02*
Y2660320D01*
G01Y2739060D02*
Y2726360D01*
G01Y2789860D02*
Y2777160D01*
G01Y2855900D02*
Y2812720D01*
G01Y2957500D02*
Y2934640D01*
G01X431760Y2507920D02*
Y2462200D01*
G01Y2530780D02*
Y2525700D01*
G01Y2573960D02*
Y2546020D01*
G01Y2624760D02*
Y2599360D01*
G01Y2652700D02*
Y2647620D01*
G01Y2700960D02*
Y2660320D01*
G01Y2744140D02*
Y2718740D01*
G01Y2794940D02*
Y2769540D01*
G01Y2853360D02*
Y2812720D01*
G01Y2957500D02*
Y2934640D01*
G01X429220Y2507920D02*
Y2462200D01*
G01Y2530780D02*
Y2525700D01*
G01Y2576500D02*
Y2543480D01*
G01Y2627300D02*
Y2596820D01*
G01Y2652700D02*
Y2647620D01*
G01Y2700960D02*
Y2660320D01*
G01Y2749220D02*
Y2716200D01*
G01Y2800020D02*
Y2767000D01*
G01Y2853360D02*
Y2812720D01*
G01Y2957500D02*
Y2934640D01*
G01X426680Y2507920D02*
Y2462200D01*
G01Y2530780D02*
Y2523160D01*
G01Y2579040D02*
Y2543480D01*
G01Y2629840D02*
Y2594280D01*
G01Y2652700D02*
Y2645080D01*
G01Y2700960D02*
Y2660320D01*
G01Y2749220D02*
Y2716200D01*
G01Y2800020D02*
Y2767000D01*
G01Y2853360D02*
Y2812720D01*
G01Y2957500D02*
Y2934640D01*
G01X424140Y2507920D02*
Y2462200D01*
G01Y2530780D02*
Y2523160D01*
G01Y2556180D02*
Y2540940D01*
G01Y2579040D02*
Y2563800D01*
G01Y2606980D02*
Y2594280D01*
G01Y2629840D02*
Y2617140D01*
G01Y2652700D02*
Y2645080D01*
G01Y2698420D02*
Y2660320D01*
G01Y2728900D02*
Y2713660D01*
G01Y2751760D02*
Y2736520D01*
G01Y2779700D02*
Y2764460D01*
G01Y2802560D02*
Y2787320D01*
G01Y2850820D02*
Y2812720D01*
G01Y2957500D02*
Y2934640D01*
G01X421600Y2452040D02*
Y2434260D01*
G01Y2507920D02*
Y2490140D01*
G01Y2528240D02*
Y2523160D01*
G01Y2553640D02*
Y2540940D01*
G01Y2579040D02*
Y2566340D01*
G01Y2606980D02*
Y2591740D01*
G01Y2622220D02*
Y2617140D01*
G01Y2650160D02*
Y2645080D01*
G01Y2698420D02*
Y2683180D01*
G01Y2726360D02*
Y2713660D01*
G01Y2751760D02*
Y2739060D01*
G01Y2777160D02*
Y2764460D01*
G01Y2802560D02*
Y2789860D01*
G01Y2850820D02*
Y2835580D01*
G01Y2957500D02*
Y2934640D01*
G01X419060Y2452040D02*
Y2436800D01*
G01Y2507920D02*
Y2490140D01*
G01Y2528240D02*
Y2523160D01*
G01Y2553640D02*
Y2538400D01*
G01Y2568880D02*
Y2566340D01*
G01Y2604440D02*
Y2591740D01*
G01Y2650160D02*
Y2645080D01*
G01Y2695880D02*
Y2680640D01*
G01Y2726360D02*
Y2713660D01*
G01Y2751760D02*
Y2739060D01*
G01Y2777160D02*
Y2764460D01*
G01Y2802560D02*
Y2789860D01*
G01Y2848280D02*
Y2833040D01*
G01Y2957500D02*
Y2934640D01*
G01X416520Y2452040D02*
Y2436800D01*
G01Y2507920D02*
Y2490140D01*
G01Y2528240D02*
Y2523160D01*
G01Y2553640D02*
Y2538400D01*
G01Y2604440D02*
Y2591740D01*
G01Y2650160D02*
Y2645080D01*
G01Y2693340D02*
Y2675560D01*
G01Y2726360D02*
Y2713660D01*
G01Y2751760D02*
Y2739060D01*
G01Y2777160D02*
Y2764460D01*
G01Y2802560D02*
Y2789860D01*
G01Y2845740D02*
Y2827960D01*
G01Y2957500D02*
Y2934640D01*
G01X413980Y2452040D02*
Y2436800D01*
G01Y2507920D02*
Y2490140D01*
G01Y2528240D02*
Y2520620D01*
G01Y2553640D02*
Y2538400D01*
G01Y2604440D02*
Y2589200D01*
G01Y2619680D02*
Y2612060D01*
G01Y2650160D02*
Y2642540D01*
G01Y2690800D02*
Y2673020D01*
G01Y2726360D02*
Y2711120D01*
G01Y2754300D02*
Y2739060D01*
G01Y2777160D02*
Y2761920D01*
G01Y2805100D02*
Y2789860D01*
G01Y2843200D02*
Y2825420D01*
G01Y2957500D02*
Y2934640D01*
G01X411440Y2454580D02*
Y2436800D01*
G01Y2507920D02*
Y2464740D01*
G01Y2528240D02*
Y2520620D01*
G01Y2553640D02*
Y2538400D01*
G01Y2604440D02*
Y2589200D01*
G01Y2624760D02*
Y2606980D01*
G01Y2650160D02*
Y2642540D01*
G01Y2688260D02*
Y2670480D01*
G01Y2726360D02*
Y2711120D01*
G01Y2754300D02*
Y2739060D01*
G01Y2777160D02*
Y2761920D01*
G01Y2805100D02*
Y2789860D01*
G01Y2840660D02*
Y2822880D01*
G01Y2957500D02*
Y2934640D01*
G01X408900Y2454580D02*
Y2436800D01*
G01Y2507920D02*
Y2464740D01*
G01Y2525700D02*
Y2520620D01*
G01Y2556180D02*
Y2540940D01*
G01Y2576500D02*
Y2563800D01*
G01Y2627300D02*
Y2589200D01*
G01Y2647620D02*
Y2642540D01*
G01Y2683180D02*
Y2667940D01*
G01Y2726360D02*
Y2711120D01*
G01Y2754300D02*
Y2739060D01*
G01Y2777160D02*
Y2761920D01*
G01Y2805100D02*
Y2789860D01*
G01Y2835580D02*
Y2820340D01*
G01Y2957500D02*
Y2934640D01*
G01X406360Y2454580D02*
Y2436800D01*
G01Y2507920D02*
Y2464740D01*
G01Y2525700D02*
Y2520620D01*
G01Y2576500D02*
Y2540940D01*
G01Y2629840D02*
Y2589200D01*
G01Y2647620D02*
Y2642540D01*
G01Y2680640D02*
Y2665400D01*
G01Y2726360D02*
Y2711120D01*
G01Y2754300D02*
Y2739060D01*
G01Y2777160D02*
Y2761920D01*
G01Y2805100D02*
Y2789860D01*
G01Y2833040D02*
Y2817800D01*
G01Y2957500D02*
Y2934640D01*
G01X403820Y2454580D02*
Y2436800D01*
G01Y2507920D02*
Y2464740D01*
G01Y2525700D02*
Y2518080D01*
G01Y2576500D02*
Y2543480D01*
G01Y2606980D02*
Y2589200D01*
G01Y2629840D02*
Y2614600D01*
G01Y2647620D02*
Y2640000D01*
G01Y2678100D02*
Y2662860D01*
G01Y2726360D02*
Y2711120D01*
G01Y2754300D02*
Y2739060D01*
G01Y2777160D02*
Y2761920D01*
G01Y2805100D02*
Y2789860D01*
G01Y2830500D02*
Y2815260D01*
G01Y2957500D02*
Y2934640D01*
G01X401280Y2454580D02*
Y2436800D01*
G01Y2507920D02*
Y2464740D01*
G01Y2525700D02*
Y2518080D01*
G01Y2576500D02*
Y2546020D01*
G01Y2604440D02*
Y2589200D01*
G01Y2632380D02*
Y2617140D01*
G01Y2647620D02*
Y2640000D01*
G01Y2675560D02*
Y2662860D01*
G01Y2726360D02*
Y2711120D01*
G01Y2754300D02*
Y2739060D01*
G01Y2777160D02*
Y2761920D01*
G01Y2805100D02*
Y2789860D01*
G01Y2827960D02*
Y2815260D01*
G01Y2957500D02*
Y2934640D01*
G01X398740Y2452040D02*
Y2436800D01*
G01Y2507920D02*
Y2490140D01*
G01Y2523160D02*
Y2518080D01*
G01Y2558720D02*
Y2551100D01*
G01Y2576500D02*
Y2563800D01*
G01Y2604440D02*
Y2591740D01*
G01Y2632380D02*
Y2617140D01*
G01Y2645080D02*
Y2640000D01*
G01Y2675560D02*
Y2660320D01*
G01Y2726360D02*
Y2713660D01*
G01Y2751760D02*
Y2739060D01*
G01Y2777160D02*
Y2764460D01*
G01Y2802560D02*
Y2789860D01*
G01Y2827960D02*
Y2812720D01*
G01Y2957500D02*
Y2934640D01*
G01X396200Y2452040D02*
Y2434260D01*
G01Y2507920D02*
Y2490140D01*
G01Y2523160D02*
Y2518080D01*
G01Y2576500D02*
Y2563800D01*
G01Y2604440D02*
Y2591740D01*
G01Y2632380D02*
Y2617140D01*
G01Y2645080D02*
Y2640000D01*
G01Y2675560D02*
Y2660320D01*
G01Y2693340D02*
Y2688260D01*
G01Y2726360D02*
Y2713660D01*
G01Y2751760D02*
Y2739060D01*
G01Y2777160D02*
Y2764460D01*
G01Y2802560D02*
Y2789860D01*
G01Y2827960D02*
Y2812720D01*
G01Y2845740D02*
Y2840660D01*
G01Y2957500D02*
Y2934640D01*
G01X393660Y2452040D02*
Y2434260D01*
G01Y2507920D02*
Y2490140D01*
G01Y2523160D02*
Y2518080D01*
G01Y2576500D02*
Y2563800D01*
G01Y2604440D02*
Y2591740D01*
G01Y2632380D02*
Y2617140D01*
G01Y2645080D02*
Y2640000D01*
G01Y2675560D02*
Y2660320D01*
G01Y2703500D02*
Y2688260D01*
G01Y2726360D02*
Y2713660D01*
G01Y2751760D02*
Y2739060D01*
G01Y2777160D02*
Y2764460D01*
G01Y2802560D02*
Y2789860D01*
G01Y2827960D02*
Y2812720D01*
G01Y2855900D02*
Y2840660D01*
G01Y2957500D02*
Y2934640D01*
G01X391120Y2507920D02*
Y2462200D01*
G01Y2523160D02*
Y2515540D01*
G01Y2573960D02*
Y2540940D01*
G01Y2606980D02*
Y2591740D01*
G01Y2629840D02*
Y2614600D01*
G01Y2645080D02*
Y2637460D01*
G01Y2678100D02*
Y2662860D01*
G01Y2700960D02*
Y2685720D01*
G01Y2728900D02*
Y2713660D01*
G01Y2751760D02*
Y2736520D01*
G01Y2779700D02*
Y2764460D01*
G01Y2802560D02*
Y2787320D01*
G01Y2830500D02*
Y2815260D01*
G01Y2853360D02*
Y2838120D01*
G01Y2957500D02*
Y2934640D01*
G01X388580Y2507920D02*
Y2462200D01*
G01Y2523160D02*
Y2515540D01*
G01Y2573960D02*
Y2540940D01*
G01Y2629840D02*
Y2594280D01*
G01Y2645080D02*
Y2637460D01*
G01Y2700960D02*
Y2662860D01*
G01Y2749220D02*
Y2716200D01*
G01Y2800020D02*
Y2767000D01*
G01Y2853360D02*
Y2815260D01*
G01Y2957500D02*
Y2934640D01*
G01X386040Y2507920D02*
Y2462200D01*
G01Y2520620D02*
Y2515540D01*
G01Y2573960D02*
Y2540940D01*
G01Y2627300D02*
Y2596820D01*
G01Y2642540D02*
Y2637460D01*
G01Y2698420D02*
Y2665400D01*
G01Y2749220D02*
Y2716200D01*
G01Y2800020D02*
Y2767000D01*
G01Y2850820D02*
Y2817800D01*
G01Y2957500D02*
Y2934640D01*
G01X383500Y2507920D02*
Y2462200D01*
G01Y2520620D02*
Y2515540D01*
G01Y2573960D02*
Y2540940D01*
G01Y2624760D02*
Y2599360D01*
G01Y2642540D02*
Y2637460D01*
G01Y2695880D02*
Y2667940D01*
G01Y2744140D02*
Y2721280D01*
G01Y2794940D02*
Y2772080D01*
G01Y2848280D02*
Y2820340D01*
G01Y2957500D02*
Y2934640D01*
G01X380960Y2507920D02*
Y2462200D01*
G01Y2520620D02*
Y2513000D01*
G01Y2573960D02*
Y2540940D01*
G01Y2617140D02*
Y2606980D01*
G01Y2642540D02*
Y2634920D01*
G01Y2688260D02*
Y2675560D01*
G01Y2739060D02*
Y2726360D01*
G01Y2789860D02*
Y2777160D01*
G01Y2840660D02*
Y2827960D01*
G01Y2957500D02*
Y2934640D01*
G01X378420Y2957500D02*
Y2934640D01*
G01X375880Y2957500D02*
Y2934640D01*
G01X373340Y2957500D02*
Y2934640D01*
G01X370800Y2957500D02*
Y2934640D01*
G01X368260Y2957500D02*
Y2934640D01*
G01X365720Y2957500D02*
Y2934640D01*
G01X363180Y2957500D02*
Y2934640D01*
G01X360640Y2957500D02*
Y2934640D01*
G01X358100Y2957500D02*
Y2934640D01*
G01X355560Y2957500D02*
Y2934640D01*
G01X353020Y2957500D02*
Y2934640D01*
G01X350480Y2957500D02*
Y2934640D01*
G01X347940Y2957500D02*
Y2934640D01*
G01X345400Y2957500D02*
Y2934640D01*
G01X342860Y2957500D02*
Y2934640D01*
G01X342350Y2465500D02*
Y2447720D01*
G01X341340Y2493440D02*
Y2473120D01*
G01Y2539160D02*
Y2518840D01*
G01Y2570400D02*
Y2550080D01*
G01Y2626280D02*
Y2580560D01*
G01Y2684700D02*
Y2664380D01*
G01Y2821610D02*
Y2798750D01*
G01Y2887650D02*
Y2864790D01*
G01X340320Y2957500D02*
Y2934640D01*
G01X339810Y2465500D02*
Y2447720D01*
G01X338800Y2495980D02*
Y2475660D01*
G01Y2536620D02*
Y2516300D01*
G01Y2570400D02*
Y2550080D01*
G01Y2626280D02*
Y2580560D01*
G01Y2684700D02*
Y2664380D01*
G01Y2826690D02*
Y2791130D01*
G01Y2892730D02*
Y2857170D01*
G01X337780Y2957500D02*
Y2934640D01*
G01X337270Y2465500D02*
Y2447720D01*
G01X336260Y2495980D02*
Y2475660D01*
G01Y2536620D02*
Y2516300D01*
G01Y2570400D02*
Y2550080D01*
G01Y2626280D02*
Y2580560D01*
G01Y2684700D02*
Y2664380D01*
G01Y2831770D02*
Y2788590D01*
G01Y2895270D02*
Y2854630D01*
G01X335240Y2957500D02*
Y2934640D01*
G01X334730Y2465500D02*
Y2447720D01*
G01X333720Y2495980D02*
Y2475660D01*
G01Y2536620D02*
Y2516300D01*
G01Y2570400D02*
Y2550080D01*
G01Y2626280D02*
Y2580560D01*
G01Y2684700D02*
Y2664380D01*
G01Y2834310D02*
Y2786050D01*
G01Y2897810D02*
Y2852090D01*
G01X332700Y2957500D02*
Y2934640D01*
G01X332190Y2465500D02*
Y2447720D01*
G01X331180Y2534080D02*
Y2478200D01*
G01Y2570400D02*
Y2550080D01*
G01Y2626280D02*
Y2580560D01*
G01Y2684700D02*
Y2664380D01*
G01Y2836850D02*
Y2783510D01*
G01Y2900350D02*
Y2852090D01*
G01X330160Y2957500D02*
Y2934640D01*
G01X329650Y2465500D02*
Y2447720D01*
G01X328640Y2534080D02*
Y2478200D01*
G01Y2570400D02*
Y2550080D01*
G01Y2626280D02*
Y2580560D01*
G01Y2684700D02*
Y2664380D01*
G01Y2803830D02*
Y2783510D01*
G01Y2836850D02*
Y2813990D01*
G01Y2872410D02*
Y2849550D01*
G01Y2900350D02*
Y2880030D01*
G01X327620Y2957500D02*
Y2934640D01*
G01X327110Y2465500D02*
Y2447720D01*
G01X326100Y2534080D02*
Y2478200D01*
G01Y2570400D02*
Y2550080D01*
G01Y2626280D02*
Y2605960D01*
G01Y2684700D02*
Y2664380D01*
G01Y2801290D02*
Y2780970D01*
G01Y2839390D02*
Y2819070D01*
G01Y2869870D02*
Y2849550D01*
G01Y2902890D02*
Y2882570D01*
G01X325080Y2957500D02*
Y2934640D01*
G01X324570Y2465500D02*
Y2447720D01*
G01X323560Y2531540D02*
Y2480740D01*
G01Y2570400D02*
Y2550080D01*
G01Y2626280D02*
Y2605960D01*
G01Y2684700D02*
Y2664380D01*
G01Y2798750D02*
Y2780970D01*
G01Y2839390D02*
Y2821610D01*
G01Y2867330D02*
Y2847010D01*
G01Y2902890D02*
Y2885110D01*
G01X322540Y2957500D02*
Y2934640D01*
G01X322030Y2465500D02*
Y2447720D01*
G01X321020Y2531540D02*
Y2480740D01*
G01Y2570400D02*
Y2550080D01*
G01Y2626280D02*
Y2605960D01*
G01Y2684700D02*
Y2646600D01*
G01Y2798750D02*
Y2780970D01*
G01Y2839390D02*
Y2821610D01*
G01Y2867330D02*
Y2852090D01*
G01Y2902890D02*
Y2885110D01*
G01X320000Y2957500D02*
Y2934640D01*
G01X319490Y2465500D02*
Y2447720D01*
G01X318480Y2531540D02*
Y2480740D01*
G01Y2570400D02*
Y2550080D01*
G01Y2626280D02*
Y2605960D01*
G01Y2684700D02*
Y2641520D01*
G01Y2798750D02*
Y2778430D01*
G01Y2841930D02*
Y2821610D01*
G01Y2867330D02*
Y2859710D01*
G01Y2905430D02*
Y2885110D01*
G01X317460Y2957500D02*
Y2934640D01*
G01X316950Y2465500D02*
Y2447720D01*
G01X315940Y2501060D02*
Y2483280D01*
G01Y2529000D02*
Y2511220D01*
G01Y2570400D02*
Y2550080D01*
G01Y2626280D02*
Y2605960D01*
G01Y2684700D02*
Y2638980D01*
G01Y2798750D02*
Y2778430D01*
G01Y2841930D02*
Y2821610D01*
G01Y2905430D02*
Y2885110D01*
G01X314920Y2957500D02*
Y2934640D01*
G01X314410Y2465500D02*
Y2447720D01*
G01X313400Y2501060D02*
Y2483280D01*
G01Y2529000D02*
Y2511220D01*
G01Y2570400D02*
Y2550080D01*
G01Y2626280D02*
Y2605960D01*
G01Y2684700D02*
Y2636440D01*
G01Y2798750D02*
Y2778430D01*
G01Y2841930D02*
Y2821610D01*
G01Y2905430D02*
Y2885110D01*
G01X312380Y2957500D02*
Y2934640D01*
G01X310860Y2503600D02*
Y2483280D01*
G01Y2529000D02*
Y2508680D01*
G01Y2570400D02*
Y2550080D01*
G01Y2626280D02*
Y2605960D01*
G01Y2684700D02*
Y2636440D01*
G01Y2798750D02*
Y2778430D01*
G01Y2841930D02*
Y2821610D01*
G01Y2905430D02*
Y2885110D01*
G01X309840Y2957500D02*
Y2934640D01*
G01X308320Y2503600D02*
Y2485820D01*
G01Y2526460D02*
Y2508680D01*
G01Y2570400D02*
Y2550080D01*
G01Y2626280D02*
Y2605960D01*
G01Y2656760D02*
Y2636440D01*
G01Y2684700D02*
Y2664380D01*
G01Y2798750D02*
Y2778430D01*
G01Y2841930D02*
Y2821610D01*
G01Y2905430D02*
Y2885110D01*
G01X307300Y2957500D02*
Y2934640D01*
G01X305780Y2503600D02*
Y2485820D01*
G01Y2526460D02*
Y2508680D01*
G01Y2570400D02*
Y2550080D01*
G01Y2626280D02*
Y2605960D01*
G01Y2654220D02*
Y2633900D01*
G01Y2684700D02*
Y2664380D01*
G01Y2798750D02*
Y2780970D01*
G01Y2839390D02*
Y2821610D01*
G01Y2867330D02*
Y2859710D01*
G01Y2902890D02*
Y2885110D01*
G01X304760Y2957500D02*
Y2934640D01*
G01X304250Y2465500D02*
Y2435020D01*
G01X303240Y2526460D02*
Y2485820D01*
G01Y2570400D02*
Y2550080D01*
G01Y2626280D02*
Y2605960D01*
G01Y2654220D02*
Y2633900D01*
G01Y2684700D02*
Y2664380D01*
G01Y2798750D02*
Y2780970D01*
G01Y2839390D02*
Y2821610D01*
G01Y2867330D02*
Y2849550D01*
G01Y2902890D02*
Y2885110D01*
G01X302220Y2957500D02*
Y2934640D01*
G01X301710Y2465500D02*
Y2437560D01*
G01X300700Y2523920D02*
Y2488360D01*
G01Y2570400D02*
Y2550080D01*
G01Y2626280D02*
Y2605960D01*
G01Y2654220D02*
Y2633900D01*
G01Y2684700D02*
Y2664380D01*
G01Y2801290D02*
Y2780970D01*
G01Y2839390D02*
Y2819070D01*
G01Y2869870D02*
Y2849550D01*
G01Y2902890D02*
Y2882570D01*
G01X299680Y2957500D02*
Y2934640D01*
G01X299170Y2465500D02*
Y2437560D01*
G01X298160Y2523920D02*
Y2488360D01*
G01Y2570400D02*
Y2550080D01*
G01Y2626280D02*
Y2605960D01*
G01Y2656760D02*
Y2633900D01*
G01Y2684700D02*
Y2664380D01*
G01Y2806370D02*
Y2783510D01*
G01Y2836850D02*
Y2813990D01*
G01Y2872410D02*
Y2849550D01*
G01Y2900350D02*
Y2880030D01*
G01X297140Y2957500D02*
Y2934640D01*
G01X296630Y2465500D02*
Y2440100D01*
G01X295620Y2523920D02*
Y2488360D01*
G01Y2570400D02*
Y2550080D01*
G01Y2626280D02*
Y2605960D01*
G01Y2684700D02*
Y2636440D01*
G01Y2836850D02*
Y2783510D01*
G01Y2900350D02*
Y2852090D01*
G01X294600Y2957500D02*
Y2934640D01*
G01X294090Y2465500D02*
Y2442640D01*
G01X293080Y2521380D02*
Y2490900D01*
G01Y2570400D02*
Y2550080D01*
G01Y2626280D02*
Y2605960D01*
G01Y2684700D02*
Y2636440D01*
G01Y2834310D02*
Y2786050D01*
G01Y2897810D02*
Y2852090D01*
G01X292060Y2957500D02*
Y2934640D01*
G01X291550Y2465500D02*
Y2442640D01*
G01X290540Y2521380D02*
Y2490900D01*
G01Y2570400D02*
Y2550080D01*
G01Y2626280D02*
Y2605960D01*
G01Y2684700D02*
Y2638980D01*
G01Y2831770D02*
Y2788590D01*
G01Y2895270D02*
Y2854630D01*
G01X289520Y2957500D02*
Y2934640D01*
G01X289010Y2465500D02*
Y2445180D01*
G01X288000Y2521380D02*
Y2490900D01*
G01Y2570400D02*
Y2550080D01*
G01Y2626280D02*
Y2605960D01*
G01Y2684700D02*
Y2641520D01*
G01Y2826690D02*
Y2793670D01*
G01Y2892730D02*
Y2857170D01*
G01X286980Y2957500D02*
Y2934640D01*
G01X286470Y2465500D02*
Y2447720D01*
G01X285460Y2518840D02*
Y2493440D01*
G01Y2570400D02*
Y2550080D01*
G01Y2626280D02*
Y2605960D01*
G01Y2684700D02*
Y2644060D01*
G01Y2821610D02*
Y2798750D01*
G01Y2885110D02*
Y2864790D01*
G01X284440Y2957500D02*
Y2934640D01*
G01X281900Y2957500D02*
Y2934640D01*
G01X279360Y2957500D02*
Y2934640D01*
G01X276820Y2957500D02*
Y2934640D01*
G01X274280Y2957500D02*
Y2934640D01*
G01X271740Y2957500D02*
Y2934640D01*
G01X269200Y2957500D02*
Y2934640D01*
G01X266660Y2957500D02*
Y2934640D01*
G01X264120Y2957500D02*
Y2934640D01*
G01X261580Y2957500D02*
Y2934640D01*
G01X259040Y2957500D02*
Y2934640D01*
G01X256500Y2957500D02*
Y2934640D01*
G01X253960Y2957500D02*
Y2934640D01*
G01X251420Y2957500D02*
Y2934640D01*
G01X248880Y2957500D02*
Y2934640D01*
G01X246340Y2957500D02*
Y2934640D01*
G01X243800Y2957500D02*
Y2934640D01*
G01X241260Y2957500D02*
Y2934640D01*
G01X238720Y2957500D02*
Y2934640D01*
G01X236180Y2957500D02*
Y2934640D01*
G01X233640Y2957500D02*
Y2934640D01*
G01X231100Y2957500D02*
Y2934640D01*
G01X228560Y2957500D02*
Y2934640D01*
G01X226020Y2957500D02*
Y2934640D01*
G01X223480Y2703500D02*
Y2673020D01*
G01Y2957500D02*
Y2934640D01*
G01X220940Y2551100D02*
Y2510460D01*
G01Y2622220D02*
Y2581580D01*
G01Y2711120D02*
Y2665400D01*
G01Y2784780D02*
Y2741600D01*
G01Y2858440D02*
Y2817800D01*
G01Y2957500D02*
Y2934640D01*
G01X218400Y2551100D02*
Y2510460D01*
G01Y2622220D02*
Y2581580D01*
G01Y2716200D02*
Y2660320D01*
G01Y2784780D02*
Y2739060D01*
G01Y2858440D02*
Y2817800D01*
G01Y2957500D02*
Y2934640D01*
G01X215860Y2551100D02*
Y2510460D01*
G01Y2622220D02*
Y2581580D01*
G01Y2721280D02*
Y2655240D01*
G01Y2787320D02*
Y2741600D01*
G01Y2858440D02*
Y2817800D01*
G01Y2957500D02*
Y2934640D01*
G01X213320Y2551100D02*
Y2510460D01*
G01Y2622220D02*
Y2581580D01*
G01Y2723820D02*
Y2652700D01*
G01Y2789860D02*
Y2744140D01*
G01Y2858440D02*
Y2817800D01*
G01Y2957500D02*
Y2934640D01*
G01X210780Y2551100D02*
Y2510460D01*
G01Y2622220D02*
Y2581580D01*
G01Y2726360D02*
Y2650160D01*
G01Y2789860D02*
Y2744140D01*
G01Y2858440D02*
Y2817800D01*
G01Y2957500D02*
Y2934640D01*
G01X208240Y2551100D02*
Y2510460D01*
G01Y2622220D02*
Y2581580D01*
G01Y2728900D02*
Y2647620D01*
G01Y2792400D02*
Y2746680D01*
G01Y2858440D02*
Y2817800D01*
G01Y2957500D02*
Y2934640D01*
G01X205700Y2551100D02*
Y2510460D01*
G01Y2622220D02*
Y2581580D01*
G01Y2731440D02*
Y2645080D01*
G01Y2792400D02*
Y2746680D01*
G01Y2858440D02*
Y2817800D01*
G01Y2957500D02*
Y2934640D01*
G01X203160Y2551100D02*
Y2510460D01*
G01Y2622220D02*
Y2581580D01*
G01Y2733980D02*
Y2642540D01*
G01Y2794940D02*
Y2749220D01*
G01Y2858440D02*
Y2817800D01*
G01Y2957500D02*
Y2934640D01*
G01X200620Y2551100D02*
Y2510460D01*
G01Y2622220D02*
Y2581580D01*
G01Y2685720D02*
Y2642540D01*
G01Y2733980D02*
Y2690800D01*
G01Y2797480D02*
Y2751760D01*
G01Y2858440D02*
Y2817800D01*
G01Y2957500D02*
Y2934640D01*
G01X198080Y2551100D02*
Y2510460D01*
G01Y2622220D02*
Y2581580D01*
G01Y2680640D02*
Y2640000D01*
G01Y2736520D02*
Y2695880D01*
G01Y2797480D02*
Y2751760D01*
G01Y2858440D02*
Y2817800D01*
G01Y2957500D02*
Y2934640D01*
G01X195540Y2492680D02*
Y2441880D01*
G01Y2551100D02*
Y2510460D01*
G01Y2622220D02*
Y2581580D01*
G01Y2678100D02*
Y2640000D01*
G01Y2736520D02*
Y2698420D01*
G01Y2800020D02*
Y2754300D01*
G01Y2858440D02*
Y2817800D01*
G01Y2957500D02*
Y2934640D01*
G01X193000Y2492680D02*
Y2446960D01*
G01Y2551100D02*
Y2510460D01*
G01Y2622220D02*
Y2581580D01*
G01Y2678100D02*
Y2640000D01*
G01Y2736520D02*
Y2698420D01*
G01Y2800020D02*
Y2754300D01*
G01Y2858440D02*
Y2817800D01*
G01Y2957500D02*
Y2934640D01*
G01X190460Y2495220D02*
Y2449500D01*
G01Y2551100D02*
Y2510460D01*
G01Y2622220D02*
Y2581580D01*
G01Y2678100D02*
Y2637460D01*
G01Y2739060D02*
Y2698420D01*
G01Y2802560D02*
Y2756840D01*
G01Y2858440D02*
Y2817800D01*
G01Y2957500D02*
Y2934640D01*
G01X187920Y2495220D02*
Y2452040D01*
G01Y2551100D02*
Y2510460D01*
G01Y2622220D02*
Y2581580D01*
G01Y2675560D02*
Y2637460D01*
G01Y2739060D02*
Y2700960D01*
G01Y2802560D02*
Y2756840D01*
G01Y2858440D02*
Y2817800D01*
G01Y2957500D02*
Y2934640D01*
G01X185380Y2495220D02*
Y2452040D01*
G01Y2551100D02*
Y2510460D01*
G01Y2622220D02*
Y2581580D01*
G01Y2675560D02*
Y2637460D01*
G01Y2739060D02*
Y2700960D01*
G01Y2805100D02*
Y2759380D01*
G01Y2858440D02*
Y2817800D01*
G01Y2957500D02*
Y2934640D01*
G01X182840Y2495220D02*
Y2454580D01*
G01Y2551100D02*
Y2510460D01*
G01Y2622220D02*
Y2581580D01*
G01Y2675560D02*
Y2637460D01*
G01Y2739060D02*
Y2700960D01*
G01Y2807640D02*
Y2761920D01*
G01Y2858440D02*
Y2817800D01*
G01Y2957500D02*
Y2934640D01*
G01X180300Y2490140D02*
Y2454580D01*
G01Y2551100D02*
Y2510460D01*
G01Y2622220D02*
Y2581580D01*
G01Y2675560D02*
Y2637460D01*
G01Y2739060D02*
Y2700960D01*
G01Y2807640D02*
Y2764460D01*
G01Y2858440D02*
Y2817800D01*
G01Y2957500D02*
Y2934640D01*
G01X177760Y2551100D02*
Y2510460D01*
G01Y2622220D02*
Y2581580D01*
G01Y2675560D02*
Y2637460D01*
G01Y2739060D02*
Y2700960D01*
G01Y2812720D02*
Y2764460D01*
G01Y2858440D02*
Y2817800D01*
G01Y2957500D02*
Y2934640D01*
G01X175220Y2622220D02*
Y2510460D01*
G01Y2675560D02*
Y2637460D01*
G01Y2739060D02*
Y2700960D01*
G01Y2858440D02*
Y2767000D01*
G01Y2957500D02*
Y2934640D01*
G01X172680Y2622220D02*
Y2510460D01*
G01Y2675560D02*
Y2637460D01*
G01Y2739060D02*
Y2700960D01*
G01Y2858440D02*
Y2772080D01*
G01Y2957500D02*
Y2934640D01*
G01X170140Y2622220D02*
Y2510460D01*
G01Y2675560D02*
Y2637460D01*
G01Y2739060D02*
Y2700960D01*
G01Y2858440D02*
Y2769540D01*
G01Y2957500D02*
Y2934640D01*
G01X167600Y2622220D02*
Y2510460D01*
G01Y2678100D02*
Y2637460D01*
G01Y2739060D02*
Y2698420D01*
G01Y2858440D02*
Y2764460D01*
G01Y2957500D02*
Y2934640D01*
G01X165060Y2622220D02*
Y2510460D01*
G01Y2678100D02*
Y2640000D01*
G01Y2736520D02*
Y2698420D01*
G01Y2858440D02*
Y2761920D01*
G01Y2957500D02*
Y2934640D01*
G01X162520Y2622220D02*
Y2510460D01*
G01Y2678100D02*
Y2640000D01*
G01Y2736520D02*
Y2698420D01*
G01Y2858440D02*
Y2759380D01*
G01Y2957500D02*
Y2934640D01*
G01X159980Y2622220D02*
Y2510460D01*
G01Y2680640D02*
Y2640000D01*
G01Y2736520D02*
Y2695880D01*
G01Y2858440D02*
Y2756840D01*
G01Y2957500D02*
Y2934640D01*
G01X157440Y2622220D02*
Y2510460D01*
G01Y2685720D02*
Y2642540D01*
G01Y2733980D02*
Y2690800D01*
G01Y2858440D02*
Y2754300D01*
G01Y2957500D02*
Y2934640D01*
G01X154900Y2622220D02*
Y2510460D01*
G01Y2733980D02*
Y2642540D01*
G01Y2858440D02*
Y2751760D01*
G01Y2957500D02*
Y2934640D01*
G01X152360Y2622220D02*
Y2510460D01*
G01Y2731440D02*
Y2645080D01*
G01Y2858440D02*
Y2751760D01*
G01Y2957500D02*
Y2934640D01*
G01X149820Y2622220D02*
Y2510460D01*
G01Y2728900D02*
Y2647620D01*
G01Y2800020D02*
Y2751760D01*
G01Y2858440D02*
Y2817800D01*
G01Y2957500D02*
Y2934640D01*
G01X480020Y2957500D02*
Y2934640D01*
G01X477480Y2957500D02*
Y2934640D01*
G01X474940Y2957500D02*
Y2934640D01*
G01X1442080Y2417920D02*
X1203320D01*
G01X1444620Y2420460D02*
X1200780D01*
G01X1447160Y2423000D02*
X1198240D01*
G01X1449700Y2425540D02*
X1195700D01*
G01X1452240Y2428080D02*
X1193160D01*
G01X1320160Y2430620D02*
X1190620D01*
G01X1454780D02*
X1325240D01*
G01X1297300Y2433160D02*
X1188080D01*
G01X1457320D02*
X1348100D01*
G01Y2374740D02*
X1294760D01*
G01X1360800Y2377280D02*
X1284600D01*
G01X1373500Y2379820D02*
X1274440D01*
G01X1381120Y2382360D02*
X1264280D01*
G01X1386200Y2384900D02*
X1256660D01*
G01X1393820Y2387440D02*
X1251580D01*
G01X1401440Y2389980D02*
X1246500D01*
G01X1403980Y2392520D02*
X1241420D01*
G01X1409060Y2395060D02*
X1236340D01*
G01X1414140Y2397600D02*
X1231260D01*
G01X1416680Y2400140D02*
X1228720D01*
G01X1421760Y2402680D02*
X1223640D01*
G01X1424300Y2405220D02*
X1218560D01*
G01X1429380Y2407760D02*
X1216020D01*
G01X1431920Y2410300D02*
X1213480D01*
G01X1437000Y2412840D02*
X1208400D01*
G01X1439540Y2415380D02*
X1205860D01*
G01X1289680Y2435700D02*
X1185540D01*
G01X1459860D02*
X1358260D01*
G01X1279520Y2438240D02*
X1183000D01*
G01X1462400D02*
X1365880D01*
G01X1271900Y2440780D02*
X1180460D01*
G01X1464940D02*
X1373500D01*
G01X1266820Y2443320D02*
X1177920D01*
G01X1467480D02*
X1376040D01*
G01X1261740Y2445860D02*
X1177920D01*
G01X1467480D02*
X1381120D01*
G01X1259200Y2448400D02*
X1175380D01*
G01X1470020D02*
X1386200D01*
G01X1254120Y2450940D02*
X1172840D01*
G01X1472560D02*
X1391280D01*
G01X1249040Y2453480D02*
X1172840D01*
G01X1472560D02*
X1393820D01*
G01X1246500Y2456020D02*
X1170300D01*
G01X1475100D02*
X1398900D01*
G01X1243960Y2458560D02*
X1167760D01*
G01X1477640D02*
X1401440D01*
G01X1241420Y2461100D02*
X1167760D01*
G01X1477640D02*
X1403980D01*
G01X1238880Y2463640D02*
X1165220D01*
G01X1480180D02*
X1409060D01*
G01X1236340Y2466180D02*
X1162680D01*
G01X1482720D02*
X1409060D01*
G01X1231260Y2468720D02*
X1162680D01*
G01X1482720D02*
X1414140D01*
G01X1231260Y2471260D02*
X1160140D01*
G01X1327780D02*
X1315080D01*
G01X1485260D02*
X1414140D01*
G01X1228720Y2473800D02*
X1160140D01*
G01X1345560D02*
X1299840D01*
G01X1485260D02*
X1416680D01*
G01X1226180Y2476340D02*
X1157600D01*
G01X1353180D02*
X1292220D01*
G01X1487800D02*
X1419220D01*
G01X1223640Y2478880D02*
X1157600D01*
G01X1358260D02*
X1287140D01*
G01X1487800D02*
X1421760D01*
G01X1221100Y2481420D02*
X1155060D01*
G01X1363340D02*
X1282060D01*
G01X1472560D02*
X1424300D01*
G01X1490340D02*
X1477640D01*
G01X1221100Y2483960D02*
X1155060D01*
G01X1365880D02*
X1276980D01*
G01X1470020D02*
X1424300D01*
G01X1490340D02*
X1480180D01*
G01X1218560Y2486500D02*
X1152520D01*
G01X1370960D02*
X1274440D01*
G01X1467480D02*
X1426840D01*
G01X1490340D02*
X1482720D01*
G01X1218560Y2489040D02*
X1152520D01*
G01X1373500D02*
X1271900D01*
G01X1464940D02*
X1429380D01*
G01X1492880D02*
X1485260D01*
G01X1216020Y2491580D02*
X1152520D01*
G01X1376040D02*
X1269360D01*
G01X1462400D02*
X1429380D01*
G01X1492880D02*
X1487800D01*
G01X1213480Y2494120D02*
X1152520D01*
G01X1302380D02*
X1264280D01*
G01X1378580D02*
X1312540D01*
G01X1459860D02*
X1431920D01*
G01X1492880D02*
X1490340D01*
G01X1210940Y2496660D02*
X1149980D01*
G01X1287140D02*
X1261740D01*
G01X1383660D02*
X1327780D01*
G01X1457320D02*
X1431920D01*
G01X1477640D02*
X1472560D01*
G01X1210940Y2499200D02*
X1149980D01*
G01X1282060D02*
X1259200D01*
G01X1383660D02*
X1332860D01*
G01X1454780D02*
X1434460D01*
G01X1480180D02*
X1470020D01*
G01X1210940Y2501740D02*
X1147440D01*
G01X1276980D02*
X1256660D01*
G01X1386200D02*
X1340480D01*
G01X1452240D02*
X1434460D01*
G01X1482720D02*
X1467480D01*
G01X1208400Y2504280D02*
X1147440D01*
G01X1271900D02*
X1256660D01*
G01X1388740D02*
X1343020D01*
G01X1449700D02*
X1437000D01*
G01X1485260D02*
X1464940D01*
G01X1208400Y2506820D02*
X1147440D01*
G01X1269360D02*
X1254120D01*
G01X1391280D02*
X1345560D01*
G01X1447160D02*
X1437000D01*
G01X1487800D02*
X1462400D01*
G01X1205860Y2509360D02*
X1144900D01*
G01X1266820D02*
X1251580D01*
G01X1391280D02*
X1348100D01*
G01X1444620D02*
X1439540D01*
G01X1490340D02*
X1459860D01*
G01X1205860Y2511900D02*
X1144900D01*
G01X1264280D02*
X1251580D01*
G01X1393820D02*
X1350640D01*
G01X1492880D02*
X1457320D01*
G01X1205860Y2514440D02*
X1144900D01*
G01X1261740D02*
X1249040D01*
G01X1396360D02*
X1353180D01*
G01X1495420D02*
X1454780D01*
G01X1203320Y2516980D02*
X1144900D01*
G01X1259200D02*
X1249040D01*
G01X1396360D02*
X1355720D01*
G01X1497960D02*
X1449700D01*
G01X1203320Y2519520D02*
X1144900D01*
G01X1256660D02*
X1246500D01*
G01X1398900D02*
X1358260D01*
G01X1500500D02*
X1449700D01*
G01X1203320Y2522060D02*
X1144900D01*
G01X1256660D02*
X1246500D01*
G01X1398900D02*
X1360800D01*
G01X1503040D02*
X1447160D01*
G01X1200780Y2524600D02*
X1142360D01*
G01X1398900D02*
X1360800D01*
G01X1505580D02*
X1444620D01*
G01X1200780Y2527140D02*
X1142360D01*
G01X1401440D02*
X1363340D01*
G01X1508120D02*
X1442080D01*
G01X1200780Y2529680D02*
X1142360D01*
G01X1401440D02*
X1363340D01*
G01X1510660D02*
X1439540D01*
G01X1200780Y2532220D02*
X1142360D01*
G01X1401440D02*
X1365880D01*
G01X1513200D02*
X1437000D01*
G01X1200780Y2534760D02*
X1142360D01*
G01X1403980D02*
X1365880D01*
G01X1515740D02*
X1434460D01*
G01X1200780Y2537300D02*
X1142360D01*
G01X1403980D02*
X1365880D01*
G01X1518280D02*
X1431920D01*
G01X1198240Y2539840D02*
X1142360D01*
G01X1403980D02*
X1368420D01*
G01X1520820D02*
X1429380D01*
G01X1198240Y2542380D02*
X1142360D01*
G01X1403980D02*
X1241420D01*
G01X1523360D02*
X1426840D01*
G01X1198240Y2544920D02*
X1142360D01*
G01X1403980D02*
X1238880D01*
G01X1525900D02*
X1424300D01*
G01X1198240Y2547460D02*
X1142360D01*
G01X1406520D02*
X1238880D01*
G01X1525900D02*
X1421760D01*
G01X1198240Y2550000D02*
X1142360D01*
G01X1406520D02*
X1238880D01*
G01X1528440D02*
X1421760D01*
G01X1198240Y2552540D02*
X1142360D01*
G01X1406520D02*
X1238880D01*
G01X1530980D02*
X1419220D01*
G01X1198240Y2555080D02*
X1139820D01*
G01X1406520D02*
X1238880D01*
G01X1505580D02*
X1444620D01*
G01X1228720Y2557620D02*
X1114420D01*
G01X1406520D02*
X1238880D01*
G01X1503040D02*
X1447160D01*
G01X1228720Y2560160D02*
X1114420D01*
G01X1406520D02*
X1238880D01*
G01X1503040D02*
X1447160D01*
G01X1223640Y2562700D02*
X1116960D01*
G01X1403980D02*
X1238880D01*
G01X1503040D02*
X1447160D01*
G01X1221100Y2565240D02*
X1119500D01*
G01X1403980D02*
X1238880D01*
G01X1503040D02*
X1447160D01*
G01X1218560Y2567780D02*
X1122040D01*
G01X1279520D02*
X1241420D01*
G01X1403980D02*
X1365880D01*
G01X1503040D02*
X1447160D01*
G01X1216020Y2570320D02*
X1124580D01*
G01X1276980D02*
X1241420D01*
G01X1403980D02*
X1365880D01*
G01X1503040D02*
X1444620D01*
G01X1213480Y2572860D02*
X1127120D01*
G01X1279520D02*
X1241420D01*
G01X1403980D02*
X1365880D01*
G01X1503040D02*
X1444620D01*
G01X1210940Y2575400D02*
X1129660D01*
G01X1279520D02*
X1241420D01*
G01X1403980D02*
X1365880D01*
G01X1503040D02*
X1444620D01*
G01X1208400Y2577940D02*
X1132200D01*
G01X1282060D02*
X1243960D01*
G01X1403980D02*
X1363340D01*
G01X1503040D02*
X1444620D01*
G01X1205860Y2580480D02*
X1134740D01*
G01X1282060D02*
X1243960D01*
G01X1401440D02*
X1360800D01*
G01X1503040D02*
X1444620D01*
G01X1203320Y2583020D02*
X1137280D01*
G01X1284600D02*
X1243960D01*
G01X1398900D02*
X1360800D01*
G01X1500500D02*
X1442080D01*
G01X1200780Y2585560D02*
X1139820D01*
G01X1287140D02*
X1246500D01*
G01X1398900D02*
X1358260D01*
G01X1500500D02*
X1442080D01*
G01X1198240Y2588100D02*
X1142360D01*
G01X1289680D02*
X1246500D01*
G01X1398900D02*
X1355720D01*
G01X1500500D02*
X1442080D01*
G01X1195700Y2590640D02*
X1144900D01*
G01X1292220D02*
X1249040D01*
G01X1398900D02*
X1353180D01*
G01X1500500D02*
X1442080D01*
G01X1193160Y2593180D02*
X1147440D01*
G01X1294760D02*
X1249040D01*
G01X1396360D02*
X1350640D01*
G01X1500500D02*
X1439540D01*
G01X1190620Y2595720D02*
X1149980D01*
G01X1299840D02*
X1251580D01*
G01X1393820D02*
X1345560D01*
G01X1500500D02*
X1439540D01*
G01X1188080Y2598260D02*
X1152520D01*
G01X1304920D02*
X1251580D01*
G01X1393820D02*
X1340480D01*
G01X1497960D02*
X1439540D01*
G01X1185540Y2600800D02*
X1155060D01*
G01X1208400D02*
X1203320D01*
G01X1312540D02*
X1254120D01*
G01X1391280D02*
X1332860D01*
G01X1497960D02*
X1437000D01*
G01X1183000Y2603340D02*
X1157600D01*
G01X1208400D02*
X1200780D01*
G01X1388740D02*
X1256660D01*
G01X1497960D02*
X1437000D01*
G01X1180460Y2605880D02*
X1160140D01*
G01X1210940D02*
X1198240D01*
G01X1388740D02*
X1256660D01*
G01X1497960D02*
X1434460D01*
G01X1177920Y2608420D02*
X1162680D01*
G01X1210940D02*
X1195700D01*
G01X1386200D02*
X1259200D01*
G01X1495420D02*
X1434460D01*
G01X1175380Y2610960D02*
X1165220D01*
G01X1210940D02*
X1193160D01*
G01X1383660D02*
X1261740D01*
G01X1495420D02*
X1431920D01*
G01X1172840Y2613500D02*
X1167760D01*
G01X1213480D02*
X1190620D01*
G01X1381120D02*
X1264280D01*
G01X1495420D02*
X1431920D01*
G01X1155060Y2616040D02*
X1152520D01*
G01X1216020D02*
X1188080D01*
G01X1378580D02*
X1266820D01*
G01X1492880D02*
X1431920D01*
G01X1157600Y2618580D02*
X1152520D01*
G01X1216020D02*
X1185540D01*
G01X1376040D02*
X1269360D01*
G01X1492880D02*
X1429380D01*
G01X1160140Y2621120D02*
X1152520D01*
G01X1218560D02*
X1183000D01*
G01X1373500D02*
X1271900D01*
G01X1490340D02*
X1426840D01*
G01X1162680Y2623660D02*
X1155060D01*
G01X1221100D02*
X1180460D01*
G01X1368420D02*
X1276980D01*
G01X1490340D02*
X1426840D01*
G01X1165220Y2626200D02*
X1155060D01*
G01X1221100D02*
X1177920D01*
G01X1365880D02*
X1282060D01*
G01X1490340D02*
X1424300D01*
G01X1167760Y2628740D02*
X1157600D01*
G01X1223640D02*
X1175380D01*
G01X1360800D02*
X1284600D01*
G01X1487800D02*
X1421760D01*
G01X1223640Y2631280D02*
X1157600D01*
G01X1355720D02*
X1289680D01*
G01X1487800D02*
X1421760D01*
G01X1226180Y2633820D02*
X1160140D01*
G01X1348100D02*
X1297300D01*
G01X1487800D02*
X1419220D01*
G01X1228720Y2636360D02*
X1160140D01*
G01X1335400D02*
X1310000D01*
G01X1485260D02*
X1416680D01*
G01X1231260Y2638900D02*
X1162680D01*
G01X1482720D02*
X1414140D01*
G01X1233800Y2641440D02*
X1162680D01*
G01X1482720D02*
X1411600D01*
G01X1236340Y2643980D02*
X1165220D01*
G01X1480180D02*
X1409060D01*
G01X1238880Y2646520D02*
X1165220D01*
G01X1480180D02*
X1406520D01*
G01X1241420Y2649060D02*
X1167760D01*
G01X1477640D02*
X1403980D01*
G01X1243960Y2651600D02*
X1170300D01*
G01X1475100D02*
X1401440D01*
G01X1249040Y2654140D02*
X1170300D01*
G01X1475100D02*
X1396360D01*
G01X1251580Y2656680D02*
X1172840D01*
G01X1472560D02*
X1393820D01*
G01X1254120Y2659220D02*
X1175380D01*
G01X1470020D02*
X1391280D01*
G01X1259200Y2661760D02*
X1175380D01*
G01X1470020D02*
X1386200D01*
G01X1264280Y2664300D02*
X1177920D01*
G01X1467480D02*
X1381120D01*
G01X1269360Y2666840D02*
X1180460D01*
G01X1464940D02*
X1376040D01*
G01X1274440Y2669380D02*
X1183000D01*
G01X1462400D02*
X1370960D01*
G01X1282060Y2671920D02*
X1183000D01*
G01X1459860D02*
X1363340D01*
G01X1289680Y2674460D02*
X1185540D01*
G01X1459860D02*
X1355720D01*
G01X1299840Y2677000D02*
X1188080D01*
G01X1457320D02*
X1348100D01*
G01X1454780Y2679540D02*
X1190620D01*
G01X1452240Y2682080D02*
X1193160D01*
G01X1449700Y2684620D02*
X1195700D01*
G01X1447160Y2687160D02*
X1198240D01*
G01X1444620Y2689700D02*
X1200780D01*
G01X1439540Y2692240D02*
X1203320D01*
G01X1437000Y2694780D02*
X1208400D01*
G01X1434460Y2697320D02*
X1208400D01*
G01X1431920Y2699860D02*
X1213480D01*
G01X1429380Y2702400D02*
X1216020D01*
G01X1424300Y2704940D02*
X1221100D01*
G01X1421760Y2707480D02*
X1223640D01*
G01X1416680Y2710020D02*
X1228720D01*
G01X1414140Y2712560D02*
X1233800D01*
G01X1406520Y2715100D02*
X1236340D01*
G01X1403980Y2717640D02*
X1241420D01*
G01X1396360Y2720180D02*
X1249040D01*
G01X1391280Y2722720D02*
X1251580D01*
G01X1383660Y2725260D02*
X1259200D01*
G01X1376040Y2727800D02*
X1269360D01*
G01X1368420Y2730340D02*
X1276980D01*
G01X1358260Y2732880D02*
X1284600D01*
G01X1345560Y2735420D02*
X1304920D01*
M02*
