G04 ================== begin FILE IDENTIFICATION RECORD ==================*
G04 Layout Name:  STEVAL-STLCR01V1.brd*
G04 Film Name:    STEVAL-STLCR01V1-12PMB.GBR*
G04 File Format:  Gerber RS274X*
G04 File Origin:  Cadence Allegro 16.5-P002*
G04 Origin Date:  Wed May 18 11:18:33 2016*
G04 *
G04 Layer:  VIA CLASS/PASTEMASK_BOTTOM*
G04 Layer:  PIN/PASTEMASK_BOTTOM*
G04 Layer:  PACKAGE GEOMETRY/PASTEMASK_BOTTOM*
G04 Layer:  BOARD GEOMETRY/TOOLING_CORNERS*
G04 *
G04 Offset:    (0.0000 0.0000)*
G04 Mirror:    No*
G04 Mode:      Positive*
G04 Rotation:  0*
G04 FullContactRelief:  No*
G04 UndefLineWidth:     0.0000*
G04 ================== end FILE IDENTIFICATION RECORD ====================*
%FSLAX25Y25*MOMM*%
%IR0*IPPOS*OFA0.00000B0.00000*MIA0B0*SFA1.00000B1.00000*%
%ADD14R,1.905X.7112*%
%ADD19R,1.524X.762*%
%ADD20R,1.397X.762*%
%ADD12R,.4064X1.4478*%
%ADD11R,1.15X1.45*%
%ADD21R,1.651X1.016*%
%ADD13R,1.524X1.27*%
%ADD10R,1.75X1.9*%
%ADD17R,.7X.85*%
%ADD18R,1.016X1.4478*%
%ADD16R,.508X.635*%
%ADD15R,1.524X1.524*%
%ADD22C,.2*%
%ADD23C,.3*%
G75*
%LPD*%
G75*
G54D10*
X387500Y165000D03*
X612500D03*
G54D11*
X268000Y388000D03*
X732000D03*
G54D20*
X1307500Y2200000D03*
G54D21*
X1537500Y2160000D03*
G54D12*
X630000Y430000D03*
X565000D03*
X500000D03*
X435000D03*
X370000D03*
G54D22*
G01X1150000Y1580000D02*
X1090000D01*
X1030000Y1520000D01*
Y1130000D01*
X1090000Y1070000D01*
X1150000D01*
X1170000Y1090000D01*
Y1120000D01*
X1150000Y1140000D01*
X1120000D01*
X1100000Y1160000D01*
Y1490000D01*
X1120000Y1510000D01*
X1150000D01*
X1170000Y1530000D01*
Y1560000D01*
X1150000Y1580000D01*
G54D13*
X470000Y1030000D03*
G54D23*
G01X0Y0D02*
X1750000D01*
Y410000D01*
X1830000D01*
Y0D01*
X2150000D01*
Y1310000D01*
X1830000D01*
Y950000D01*
X1750000D01*
Y3000000D01*
X1460000D01*
Y2860000D01*
X1400000Y2800000D01*
X1090000D01*
X1070000Y2780000D01*
Y2170000D01*
X650000D01*
Y2830000D01*
X480000Y3000000D01*
X0D01*
Y0D01*
G01X1830000Y530000D02*
X1750000D01*
Y820000D01*
X1830000D01*
Y530000D01*
G54D14*
X450000Y1370000D03*
Y1260000D03*
Y1150000D03*
Y1480000D03*
Y1590000D03*
Y1700000D03*
Y1810000D03*
Y1920000D03*
G54D15*
X470000Y2165000D03*
G54D16*
X1440000Y195000D03*
X1340000D03*
X1240000D03*
G54D17*
X1075000Y715000D03*
X1545000D03*
X1190000Y340000D03*
X1310000D03*
X1430000D03*
G54D18*
X1380000Y1037500D03*
G54D19*
X1210000Y1005000D03*
M02*
