G04 ================== begin FILE IDENTIFICATION RECORD ==================*
G04 Layout Name:  STEVAL-STLCR01V1.brd*
G04 Film Name:    STEVAL-STLCR01V1-01TOP.GBR*
G04 File Format:  Gerber RS274X*
G04 File Origin:  Cadence Allegro 16.5-P002*
G04 Origin Date:  Wed May 18 11:18:33 2016*
G04 *
G04 Layer:  VIA CLASS/TOP*
G04 Layer:  PIN/TOP*
G04 Layer:  ETCH/TOP*
G04 Layer:  BOARD GEOMETRY/TOOLING_CORNERS*
G04 *
G04 Offset:    (0.0000 0.0000)*
G04 Mirror:    No*
G04 Mode:      Positive*
G04 Rotation:  0*
G04 FullContactRelief:  No*
G04 UndefLineWidth:     0.0000*
G04 ================== end FILE IDENTIFICATION RECORD ====================*
%FSLAX25Y25*MOMM*%
%IR0*IPPOS*OFA0.00000B0.00000*MIA0B0*SFA1.00000B1.00000*%
%ADD15R,1.3X.8*%
%ADD11C,.52*%
%ADD21O,.5989X1.1989*%
%ADD22R,.5989X1.1989*%
%ADD10O,1.05X1.9*%
%ADD12C,2.2*%
%ADD18R,1.6002X2.54*%
%ADD20R,.25X.9*%
%ADD13C,1.016*%
%ADD19R,.635X.508*%
%ADD16R,.508X.635*%
%ADD26C,1.778*%
%ADD24R,.381X.7874*%
%ADD25R,1.778X1.778*%
%ADD14R,.3048X.9906*%
%ADD17R,.889X.4064*%
%ADD23R,.6858X.3556*%
%ADD27C,.2*%
%ADD28C,.3*%
%ADD29C,.4*%
%ADD30C,.5*%
%ADD31C,.25*%
%ADD32O,1.5044X2.3544*%
G75*
%LPD*%
G75*
G36*
G01X30000Y30000D02*
Y521660D01*
X34320Y522310D01*
G03X218350Y823090I-34321J227688D01*
G02X232700Y835310I9634J3222D01*
G03X265430Y926120I22626J43148D01*
G01X263950Y926430D01*
X252580Y937810D01*
Y959180D01*
X285020Y991620D01*
Y998990D01*
X292350D01*
X293870Y997320D01*
G03X338580Y982040I36134J32679D01*
G02X350530Y972040I1791J-10000D01*
G01Y801080D01*
X387320D01*
X428420Y759980D01*
X447280D01*
Y517280D01*
X447500D01*
Y473640D01*
G03X449270Y460460I50019J8D01*
G01X449410Y459950D01*
X450210Y446090D01*
X454180Y442540D01*
Y435000D01*
G03X455900Y421980I50022J-15D01*
G01X456080Y421330D01*
Y380530D01*
X488650D01*
X548470Y320710D01*
X734930D01*
X789750Y375530D01*
X860250D01*
X948430Y287350D01*
Y287340D01*
X1066010Y169760D01*
X1075530D01*
Y151080D01*
X1105250D01*
X1151350Y104980D01*
X1222340D01*
Y67340D01*
X1327750D01*
G02X1343030Y74770I10077J-1298D01*
G03X1408610Y84180I26975J45231D01*
G02X1424500Y82920I7447J-6912D01*
G03X1511340Y94990I40493J27091D01*
G03X1517660Y120000I-46349J25016D01*
G01Y180000D01*
G03X1425180Y214470I-52664J0D01*
G02X1409810I-7685J6654D01*
G03X1343030Y225230I-39811J-34472D01*
G02X1327750Y232660I-5203J8728D01*
G01X1222340D01*
Y195020D01*
X1188650D01*
X1185020Y198650D01*
Y228640D01*
X1184470Y229190D01*
Y418510D01*
G02X1193340Y421890I5080J-2D01*
G01X1201400Y412880D01*
X1222340Y391930D01*
Y350000D01*
G03X1327660I52660J0D01*
G01Y410000D01*
G03X1325250Y425760I-52662J11D01*
G01X1325020Y426500D01*
Y430720D01*
X1322040Y433700D01*
X1321680Y434390D01*
G03X1299400Y456670I-46675J-24395D01*
G01X1298710Y457030D01*
X1274120Y481620D01*
X1255480Y502490D01*
X1255410Y502570D01*
X1237650Y522390D01*
X1180020Y525630D01*
Y560530D01*
X1278920D01*
Y574980D01*
X1291080D01*
Y560530D01*
X1295070D01*
Y523420D01*
X1412320Y406170D01*
Y350100D01*
G03X1517660I52670J0D01*
G01Y410100D01*
G03X1470820Y462440I-52663J0D01*
G01X1469050Y462640D01*
X1388500Y543190D01*
G02X1395680Y560530I7186J7181D01*
G01X1488920D01*
Y669470D01*
X1291080D01*
Y655020D01*
X1278920D01*
Y669470D01*
X1179220D01*
Y680530D01*
X1278920D01*
Y694980D01*
X1291080D01*
Y680530D01*
X1488920D01*
Y704970D01*
X1588430D01*
X1639980Y653420D01*
Y519720D01*
G02X1629200Y509580I-10159J0D01*
G03X1646850Y416820I-2997J-48629D01*
G01X1650070Y418330D01*
X1658420Y409980D01*
X1720000D01*
Y30000D01*
X30000D01*
G37*
G36*
G01X630020Y1619220D02*
Y1657110D01*
G03X634140Y1705520I-40020J27786D01*
G02X643350Y1719980I9205J4300D01*
G01X768860D01*
G02X776040Y1702640I-6J-10159D01*
G01X749980Y1676580D01*
Y1652720D01*
X654780D01*
Y1517280D01*
X748420D01*
G02X752010Y1508610I-2J-5079D01*
G01X749980Y1506580D01*
Y1492720D01*
X654780D01*
Y1446380D01*
X649760Y1441360D01*
Y1362350D01*
X647680Y1360270D01*
X629470D01*
Y1458920D01*
X520530D01*
Y1261080D01*
X630380D01*
Y1251330D01*
X828220D01*
Y1254980D01*
X851350D01*
X852240Y1254630D01*
G03X898110Y1260210I17755J45369D01*
G02X914130Y1251910I5860J-8301D01*
G01Y1211080D01*
X928580D01*
Y1187540D01*
G02X911240Y1180360I-10159J6D01*
G01X861580Y1230020D01*
X772790D01*
G03X698450Y1175640I-27786J-40019D01*
G02X691290Y1162810I-9709J-2994D01*
G03X658020Y1098260I12241J-47158D01*
G02X648530Y1084470I-9489J-3630D01*
G01X493920D01*
Y1099500D01*
X499520D01*
X500030Y1099390D01*
G03X482110Y1187120I9869J47711D01*
G01X451320D01*
X443670Y1179470D01*
X296080D01*
Y1064970D01*
G03X294300Y1063160I33836J-35055D01*
G02X285500Y1066610I-3722J3455D01*
G01Y1093710D01*
X285020Y1094190D01*
Y1117290D01*
X270020Y1132290D01*
Y1150000D01*
G03X268190Y1161960I-40019J-3D01*
G01X267960Y1162700D01*
Y1222250D01*
X92040D01*
Y1162700D01*
X91810Y1161960D01*
G03X89980Y1150000I38189J-11963D01*
G01Y1132290D01*
X64980Y1107290D01*
Y993420D01*
X82030Y976380D01*
X82340Y974900D01*
G03X82700Y973340I47643J10173D01*
G02X76090Y967330I-4932J-1216D01*
G03X34320Y977690I-76074J-217334D01*
G01X30000Y978340D01*
Y1509740D01*
G02X43580Y1519310I10159J4D01*
G03X72680Y1512740I41412J115692D01*
G02X78850Y1495450I-1016J-10108D01*
G01X53520Y1470120D01*
Y1364170D01*
X89980Y1327710D01*
Y1310000D01*
G03X91810Y1298040I40019J3D01*
G01X92040Y1297300D01*
Y1237750D01*
X267960D01*
Y1297300D01*
X268190Y1298040D01*
G03X270020Y1310000I-38189J11963D01*
G01Y1372950D01*
X280770Y1383700D01*
Y1426080D01*
X346780D01*
X350900Y1421960D01*
Y1300600D01*
G03X430940I40020J-27790D01*
G01Y1436080D01*
X435450Y1436590D01*
G03X470020Y1512790I-5449J48414D01*
G01Y1652520D01*
G02X486190Y1660710I10159J-1D01*
G03X515410Y1651280I28811J39289D01*
G02X520530Y1646200I41J-5079D01*
G01Y1471080D01*
X629470D01*
Y1618670D01*
X630020Y1619220D01*
G37*
G36*
G01X67280Y2149880D02*
X47340Y2129940D01*
G02X30000Y2137120I-7181J7186D01*
G01Y2970000D01*
X67280D01*
Y2821840D01*
G03Y2760160I37720J-30840D01*
G01Y2149880D01*
G37*
G36*
G01X932150Y452930D02*
X930870Y475790D01*
G02X941700Y486490I10143J565D01*
G03X993480Y539920I3299J48608D01*
G02X1003590Y551080I10111J1000D01*
G01X1014470D01*
Y748920D01*
X973670D01*
X973020Y749100D01*
G03X951510Y750090I-13001J-48301D01*
G01X951080Y750020D01*
X892170D01*
Y849630D01*
G02X909510Y856820I10159J4D01*
G01X930310Y836020D01*
X1058230D01*
X1084180Y810070D01*
Y789470D01*
X1081080D01*
Y748670D01*
X1080900Y748020D01*
G03X1079180Y735000I48302J-13005D01*
G01Y615000D01*
G03X1079910Y606510I50018J24D01*
G01X1079980Y606080D01*
Y518920D01*
X1075530D01*
Y312110D01*
G02X1058190Y304920I-10159J-4D01*
G01X1038470Y324640D01*
Y324650D01*
X925820Y437300D01*
Y445840D01*
X932150Y452930D01*
G37*
G36*
G01X826200Y500530D02*
X829950Y496330D01*
X829730Y492500D01*
X829950Y488670D01*
X826200Y484470D01*
X726080D01*
Y439200D01*
X697630Y410750D01*
X653920D01*
Y489470D01*
X551810D01*
X549830Y491240D01*
G02X549820Y498810I3382J3789D01*
G01X551730Y500530D01*
X653920D01*
Y609470D01*
X618170D01*
G02X608350Y622230I1J10160D01*
G03X610010Y635010I-48365J12780D01*
G01Y645570D01*
G03X602720Y671570I-50010J0D01*
G01Y752720D01*
X592170D01*
Y933040D01*
X459470D01*
Y989980D01*
X486080D01*
Y975530D01*
X770780D01*
Y933040D01*
X757830D01*
Y656960D01*
X799510D01*
G03X825000Y649980I25490J43053D01*
G01X875510D01*
G02X882700Y632640I3J-10159D01*
G01X859530Y609470D01*
X726080D01*
Y500530D01*
X826200D01*
G37*
G36*
G01X480000Y550000D02*
Y720000D01*
X570000D01*
Y630000D01*
X530000Y590000D01*
Y550000D01*
X480000D01*
G37*
G36*
G01X1712650Y693950D02*
X1621590Y785010D01*
X1488920D01*
Y789470D01*
X1476880D01*
X1475600Y790320D01*
G03X1421560I-27020J-40540D01*
G01X1420280Y789470D01*
X1400780D01*
Y799850D01*
G03X1399380Y805000I-10162J3D01*
G02X1401560Y817880I8761J5142D01*
G03X1418710Y853850I-31559J37120D01*
G02X1435440Y861350I10155J-242D01*
G03X1612280Y879920I79561J93649D01*
G02X1627500Y880900I8041J-6206D01*
G01X1683420Y824980D01*
X1729990D01*
Y701130D01*
G02X1712650Y693950I-10159J6D01*
G37*
G36*
G01X1010060Y985510D02*
Y996200D01*
G02X1015130Y1001280I5080J0D01*
G03X1063450Y1044850I-128J48721D01*
G02X1080730Y1050950I10099J-1083D01*
G01X1081710Y1049980D01*
X1158290D01*
X1178310Y1070000D01*
X1221080D01*
Y955530D01*
X1329980D01*
Y895020D01*
X1288420D01*
X1287940Y894540D01*
X1199700D01*
X1119990Y974250D01*
X1021320D01*
X1010060Y985510D01*
G37*
G36*
G01X1702660Y2677940D02*
X1676580Y2704020D01*
X1652720D01*
Y2970000D01*
X1720000D01*
Y2685120D01*
G02X1702660Y2677940I-10159J6D01*
G37*
G36*
G01X2101090Y462790D02*
G03X1962710Y509300I-96093J-56789D01*
G01X1959580Y508020D01*
X1937500Y530100D01*
X1850010D01*
Y824980D01*
X1937660D01*
G03X2101090Y857210I67337J89020D01*
G02X2120000Y852040I8749J-5166D01*
G01Y721960D01*
G02X2101090Y716790I-10161J-4D01*
G03Y603210I-96090J-56790D01*
G02X2120000Y598040I8749J-5166D01*
G01Y467960D01*
G02X2101090Y462790I-10161J-4D01*
G37*
%LPC*%
G75*
G54D32*
X857500Y165000D03*
X142500D03*
%LPD*%
G75*
G54D10*
X142500Y165000D03*
X857500D03*
G54D20*
X890000Y1425000D03*
X840000D03*
X790000D03*
X740000D03*
X690000D03*
Y1585000D03*
X740000D03*
X790000D03*
X840000D03*
X890000D03*
G54D11*
X100000Y450000D03*
X65000Y340000D03*
X59520Y1230000D03*
X130000Y985000D03*
X165000Y1420000D03*
X95000Y2410000D03*
X120000Y1810000D03*
X155000Y2283000D03*
X120000Y2537000D03*
X105000Y2791000D03*
X285000Y640000D03*
X210000Y540000D03*
X705000Y629300D03*
X795000Y630000D03*
X705000Y555000D03*
X675000Y885000D03*
Y705000D03*
Y795000D03*
X255330Y878460D03*
X559990Y635010D03*
X745000Y1190000D03*
X870000Y1300000D03*
X600000Y1115000D03*
X703530Y1115650D03*
X730000Y1695000D03*
X475000Y1370000D03*
X390920Y1272810D03*
X509900Y1147100D03*
X590000Y1684900D03*
X430000Y1485000D03*
X515000Y1700000D03*
X310000Y1580000D03*
X180000Y1050000D03*
X330000Y1030000D03*
X305000Y1250000D03*
X463030Y1804190D03*
X1010000Y160000D03*
X1464990Y110010D03*
X1448580Y749780D03*
X1135210Y214780D03*
X960000Y235000D03*
X945000Y535100D03*
X1015000Y815000D03*
X1675000Y350000D03*
X1635000Y830000D03*
X1270000Y920000D03*
X1370000Y855000D03*
X1626200Y460950D03*
X1515000Y265000D03*
X1015000Y455000D03*
X1075000Y1005000D03*
X1015000Y1050000D03*
X1242760Y1610000D03*
X1316420Y1624330D03*
X1575000Y1760000D03*
X1195000Y1735000D03*
X1265000Y2100000D03*
X1580000Y2410000D03*
X1550000Y2275000D03*
X1565000Y2920000D03*
Y2791000D03*
X1570000Y2535000D03*
G54D30*
G01X155000Y2537000D02*
Y2664000D01*
G54D12*
X0Y750000D03*
X1750000Y1580000D03*
G54D21*
X1464990Y150000D03*
X1370000D03*
X1275000Y380000D03*
X1464990Y380100D03*
G54D31*
G01X155000Y2791000D02*
X105000D01*
G01X605800Y435000D02*
X659000D01*
G01X605800D02*
Y494550D01*
G01Y555000D02*
X659000D01*
G01X605800Y495450D02*
Y555000D01*
G01X721000D02*
X774200D01*
G01D02*
Y614550D01*
G01Y495450D02*
Y555000D01*
G01X525000Y890000D02*
X597250D01*
G01X525000D02*
Y938120D01*
G01X649700Y1585000D02*
X690000D01*
G01D02*
Y1657800D01*
G01Y1512200D02*
Y1585000D01*
G01X291000Y1125000D02*
X344200D01*
G01D02*
Y1184550D01*
G01X575000Y1410800D02*
X634550D01*
G01X515450D02*
X575000D01*
G01X515450Y1519200D02*
X575000D01*
G01X300000Y1575800D02*
X304200Y1580000D01*
X310000D01*
G01X306350Y1575800D02*
X300000D01*
G01X1440800Y615000D02*
X1494000D01*
G01X1440800Y555450D02*
Y615000D01*
G01X1216000Y1010000D02*
X1269200D01*
G01Y950450D02*
Y1010000D01*
G01X1565000Y2791000D02*
X1657800D01*
G01X1565000Y2918000D02*
X1657800D01*
G01X1917400Y747600D02*
X2005000Y660000D01*
G01D02*
X2092600Y747600D01*
G01X1917400Y572400D02*
X2005000Y660000D01*
G01X1888300D02*
X2005000D01*
G01D02*
Y776700D01*
G01Y543300D02*
Y660000D01*
G54D13*
X85000Y1635000D03*
X1515000Y955000D03*
G54D22*
X1275000Y150000D03*
G54D23*
X1185000Y1370000D03*
Y1270000D03*
X1375000Y1370000D03*
Y1270000D03*
G54D14*
X130000Y1150000D03*
Y1310000D03*
X230000Y1150000D03*
X180000D03*
Y1310000D03*
X230000D03*
G54D24*
X1280000Y1410000D03*
Y1230000D03*
G54D15*
X155000Y2410000D03*
Y2283000D03*
Y2156000D03*
Y2029000D03*
Y1902000D03*
Y2918000D03*
Y2791000D03*
Y2664000D03*
Y2537000D03*
X1565000Y1902000D03*
Y2029000D03*
Y2156000D03*
Y2283000D03*
Y2410000D03*
Y2537000D03*
Y2664000D03*
Y2791000D03*
Y2918000D03*
G54D25*
X2005000Y152000D03*
G54D16*
X774200Y430000D03*
X875800D03*
X605800Y435000D03*
X504200D03*
X605800Y555000D03*
X504200D03*
X774200D03*
X875800D03*
X780100Y1305800D03*
X678500D03*
X810800Y1030000D03*
X709200D03*
X445800Y1125000D03*
X344200D03*
X635800Y1030000D03*
X534200D03*
X1440800Y735000D03*
X1339200D03*
X1230800D03*
X1129200D03*
Y615000D03*
X1230800D03*
X1339200D03*
X1440800D03*
X1269200Y1010000D03*
X1370800D03*
G54D17*
X825000Y700000D03*
Y795000D03*
Y890000D03*
X525000D03*
Y795000D03*
Y700000D03*
G54D26*
X2005000Y406000D03*
Y660000D03*
Y914000D03*
Y1168000D03*
G54D27*
G01X155000Y2156000D02*
X130000D01*
X57500Y2083500D01*
Y1782500D01*
X92140Y1747860D01*
X96120D01*
X117920Y1743530D01*
X138460Y1735020D01*
X156950Y1722670D01*
X172670Y1706950D01*
X185020Y1688460D01*
X193530Y1667920D01*
X197860Y1646120D01*
Y1623880D01*
X193530Y1602080D01*
X185020Y1581540D01*
X172670Y1563050D01*
X138440Y1528820D01*
Y1517270D01*
X135000Y1514970D01*
Y1495000D01*
X93540Y1453540D01*
Y1380750D01*
X130000Y1344290D01*
Y1310000D01*
G01Y985000D02*
X105000Y1010000D01*
Y1090710D01*
X130000Y1115710D01*
Y1150000D01*
G01X55000Y2410000D02*
X95000D01*
G01X390920Y1272810D02*
Y1438540D01*
X369520Y1459940D01*
Y1510060D01*
X370000Y1510540D01*
Y1674130D01*
X241220Y1802910D01*
Y1840780D01*
X180000Y1902000D01*
X155000D01*
G01X430000Y1485000D02*
Y1680000D01*
X300000Y1810000D01*
Y1855000D01*
X275000Y1880000D01*
Y2004000D01*
X250000Y2029000D01*
X155000D01*
G01X95000Y2410000D02*
X155000D01*
G01X120000Y1810000D02*
X162770Y1767230D01*
X168960D01*
X203740Y1732450D01*
X206140Y1728860D01*
X220470Y1714530D01*
Y1707410D01*
X232000Y1679590D01*
X237860Y1650060D01*
Y1619940D01*
X232000Y1590410D01*
X220470Y1562590D01*
X203740Y1537550D01*
Y1478870D01*
X240750Y1441860D01*
Y1400280D01*
X230000Y1389530D01*
Y1310000D01*
G01X525000Y890000D02*
X464200Y950800D01*
G01X628660Y748660D02*
X675000Y795000D01*
G01X620990Y609740D02*
Y615990D01*
X625000Y620000D01*
G01X605800Y555000D02*
Y594550D01*
X620990Y609740D01*
G01X810800Y1030000D02*
Y954520D01*
X825000Y940320D01*
Y890000D01*
G01X525000Y795000D02*
X520000Y800000D01*
X445000D01*
X405000Y840000D01*
Y849200D01*
G01X675000Y705000D02*
Y795000D01*
G01X255330Y878460D02*
X212560Y921230D01*
Y975760D01*
X245000Y1008200D01*
Y1022390D01*
X245480Y1022870D01*
Y1077130D01*
X245000Y1077610D01*
Y1100710D01*
X230000Y1115710D01*
Y1150000D01*
G01X305000Y1250000D02*
X360480Y1194520D01*
G01X180000Y1310000D02*
Y1230000D01*
G01X690000Y1585000D02*
X650000Y1545000D01*
G01X300000Y1474200D02*
Y1418800D01*
G01D02*
X305000Y1413800D01*
Y1250000D01*
G01X650000Y1545000D02*
Y1535000D01*
X634200Y1519200D01*
G01D02*
X575000D01*
G01X340000Y950000D02*
X340800Y950800D01*
G01X790000Y1425000D02*
Y1490000D01*
X805000Y1505000D01*
X945000D01*
X968600Y1481400D01*
Y1360800D01*
G01X690000Y1425000D02*
X689780Y1424780D01*
Y1345770D01*
X678500Y1334490D01*
Y1305800D01*
G01X790000Y1585000D02*
Y1660000D01*
X845000Y1715000D01*
X1110000D01*
X1146000Y1679000D01*
X1261750D01*
X1316420Y1624330D01*
G01X840000Y1585000D02*
Y1640000D01*
X865000Y1665000D01*
X1084970D01*
X1139970Y1610000D01*
X1242760D01*
G01X745000Y1190000D02*
X845000D01*
X954000Y1081000D01*
Y1024730D01*
X970040Y1008680D01*
Y968930D01*
X1004740Y934230D01*
X1103410D01*
X1183120Y854520D01*
X1304520D01*
X1305000Y855000D01*
X1370000D01*
G01X575000Y1309200D02*
X675100D01*
X678500Y1305800D01*
G01X709200Y1030000D02*
X729200D01*
G01X635800D02*
X709200D01*
G01X445800Y1125000D02*
X467900Y1147100D01*
X509900D01*
G01X590000Y1684900D02*
Y1635800D01*
X575000Y1620800D01*
G01Y1410800D02*
Y1519200D01*
G01X534200Y1030000D02*
X330000D01*
G01X180000Y1150000D02*
Y1050000D01*
G01Y1310000D02*
Y1405000D01*
X165000Y1420000D01*
G01X515000Y1700000D02*
X575000Y1760000D01*
X1070000D01*
X1212000Y1902000D01*
X1565000D01*
G01X463030Y1804190D02*
X869190D01*
X1094000Y2029000D01*
X1565000D01*
G01X1464990Y150000D02*
Y110010D01*
G01X1660000Y800000D02*
Y805000D01*
X1635000Y830000D01*
G01X1246340Y943660D02*
X1270000Y920000D01*
G01X1515000Y265000D02*
X1468740D01*
X1426140Y222400D01*
X1412400D01*
G01D02*
X1370000Y180000D01*
G01X2005000Y914000D02*
X1956000Y865000D01*
X1700000D01*
X1645000Y920000D01*
Y1260000D01*
X1475000Y1430000D01*
Y1790000D01*
X1510000Y1825000D01*
X1573730D01*
X1574730Y1826000D01*
X1661000D01*
X1685000Y1850000D01*
Y2639000D01*
X1660000Y2664000D01*
X1565000D01*
G01X2005000Y406000D02*
X1920920Y490080D01*
X1709920D01*
X1680000Y520000D01*
Y670000D01*
X1605010Y744990D01*
X1450790D01*
X1440800Y735000D01*
G01X1448580Y749780D02*
X1446190Y747390D01*
X1440290D01*
X1439090Y746190D01*
Y743810D01*
X1440800Y742100D01*
Y735000D01*
G01X1370800Y1010000D02*
Y941710D01*
X1370000Y940910D01*
Y855000D01*
G01X2005000Y152000D02*
X1881100Y275900D01*
Y418900D01*
X1850000Y450000D01*
X1675000D01*
X1664050Y460950D01*
X1626200D01*
G01X1339200Y615000D02*
X1335090Y610890D01*
Y540000D01*
X1464990Y410100D01*
Y380100D01*
G01X1230800Y735000D02*
X1339200D01*
G01X1230800Y615000D02*
X1339200D01*
G01X2005000Y1168000D02*
X1886100Y1049100D01*
Y951100D01*
X1880000Y945000D01*
X1881100Y943900D01*
Y920000D01*
X1866100Y905000D01*
X1725000D01*
X1695000Y935000D01*
Y1285000D01*
X1525000Y1455000D01*
Y1710000D01*
X1575000Y1760000D01*
G01X1015000Y1050000D02*
Y1090000D01*
X968600Y1136400D01*
Y1259200D01*
G01X1370800Y1010000D02*
Y1118880D01*
X1280000Y1209680D01*
Y1230000D01*
G01X1185000Y1270000D02*
Y1180000D01*
X1269200Y1095800D01*
Y1010000D01*
G01X1185000Y1370000D02*
Y1417780D01*
X1242760Y1475540D01*
Y1610000D01*
G01X1150000Y1580000D02*
X1090000D01*
X1030000Y1520000D01*
Y1130000D01*
X1090000Y1070000D01*
X1150000D01*
X1170000Y1090000D01*
Y1120000D01*
X1150000Y1140000D01*
X1120000D01*
X1100000Y1160000D01*
Y1490000D01*
X1120000Y1510000D01*
X1150000D01*
X1170000Y1530000D01*
Y1560000D01*
X1150000Y1580000D01*
G01X1316420Y1624330D02*
Y1563850D01*
X1315000Y1562430D01*
Y1500000D01*
X1375000Y1440000D01*
Y1370000D01*
G01Y1270000D02*
X1320000D01*
X1280000Y1230000D01*
G01X1550000Y2275000D02*
X1558000Y2283000D01*
X1565000D01*
G01Y2410000D02*
X1580000D01*
G01X1265000Y2100000D02*
X1321000Y2156000D01*
X1565000D01*
G01Y2791000D02*
Y2918000D01*
G01X1570000Y2535000D02*
X1565000Y2530000D01*
X1558000D01*
X1565000Y2537000D01*
G54D18*
X675000Y795000D03*
G54D28*
G01X0Y0D02*
X1750000D01*
Y410000D01*
X1830000D01*
Y0D01*
X2150000D01*
Y1310000D01*
X1830000D01*
Y950000D01*
X1750000D01*
Y3000000D01*
X1460000D01*
Y2860000D01*
X1400000Y2800000D01*
X1090000D01*
X1070000Y2780000D01*
Y2170000D01*
X650000D01*
Y2830000D01*
X480000Y3000000D01*
X0D01*
Y0D01*
G01X155000Y2537000D02*
X120000D01*
G01X597250Y938120D02*
Y872750D01*
X675000Y795000D01*
G01X1135210Y214780D02*
X1084660D01*
X993450Y305990D01*
Y306000D01*
X875800Y423650D01*
Y430000D01*
G01X504200Y435000D02*
Y428650D01*
X567120Y365730D01*
X716280D01*
X774200Y423650D01*
Y430000D01*
G01X875800Y555000D02*
X930000D01*
X945000Y540000D01*
Y535100D01*
G01X1129200Y735000D02*
Y828720D01*
X1076880Y881040D01*
X948960D01*
X910000Y920000D01*
Y990000D01*
X890000Y1010000D01*
Y1067920D01*
X842270Y1115650D01*
X798160D01*
X797960Y1115450D01*
X764730D01*
X764530Y1115650D01*
X703530D01*
G01X464200Y950800D02*
X405000D01*
G01X490000Y955000D02*
X485800Y950800D01*
X464200D01*
G01X340800D02*
X405000D01*
G01X890000Y1425000D02*
X840000D01*
G01D02*
Y1360000D01*
X785800Y1305800D01*
G01D02*
X780100D01*
G01X870000Y1300000D02*
X800000D01*
X794200Y1305800D01*
X785800D01*
G01X1370000Y150000D02*
Y180000D01*
G01X1135210Y214780D02*
X1140000Y209990D01*
Y180000D01*
X1170000Y150000D01*
X1275000D01*
G01X1060000Y325000D02*
X1084200Y300800D01*
X1130000D01*
G01Y369200D02*
X1070450D01*
G01X1370000Y200000D02*
Y255000D01*
G01X1325000Y245000D02*
X1370000Y200000D01*
G01X1205000Y305000D02*
X1200800Y300800D01*
G01X1130000Y369200D02*
X1189550D01*
G01X1200800Y300800D02*
X1130000D01*
G01X1370000Y180000D02*
Y200000D01*
G01X1130000Y199200D02*
Y209570D01*
X1135210Y214780D01*
G01X1130000Y300800D02*
Y369200D01*
G01X1830000Y530000D02*
X1750000D01*
Y820000D01*
X1830000D01*
Y530000D01*
G54D19*
X405000Y849200D03*
X575000Y1309200D03*
Y1410800D03*
Y1519200D03*
Y1620800D03*
X300000Y1474200D03*
Y1575800D03*
X405000Y950800D03*
X960000Y700800D03*
Y599200D03*
X1130000Y199200D03*
Y300800D03*
Y470800D03*
Y369200D03*
X968600Y1360800D03*
Y1259200D03*
G54D29*
G01X875800Y430000D02*
Y464920D01*
X881050Y470800D01*
X879830Y492500D01*
X881050Y514200D01*
X875800Y520080D01*
Y555000D01*
G01X960000Y599200D02*
X920000D01*
X875800Y555000D01*
G01X825000Y700000D02*
X959200D01*
X960000Y700800D01*
G01X559990Y635010D02*
Y645570D01*
X547170Y656180D01*
Y677830D01*
X525000Y700000D01*
G01X500210Y551010D02*
Y521510D01*
X498950Y520380D01*
Y517940D01*
X498800Y517790D01*
X497520Y516360D01*
Y473640D01*
X498800Y472200D01*
X498950Y469620D01*
X504200Y464930D01*
Y435000D01*
G01X500210Y551010D02*
X504200Y555000D01*
G01X1370000Y150000D02*
Y50000D01*
G01X1129200Y615000D02*
Y735000D01*
G01X1130000Y470800D02*
Y614200D01*
X1129200Y615000D01*
G01X1130000Y470800D02*
X1164920D01*
X1170800Y476050D01*
X1214200Y473610D01*
X1217560Y469860D01*
X1217610Y469800D01*
X1237760Y447250D01*
X1275000Y410000D01*
Y380000D01*
M02*
