G04 ================== begin FILE IDENTIFICATION RECORD ==================*
G04 Layout Name:  STEVAL-STLCR01V1.brd*
G04 Film Name:    STEVAL-STLCR01V1-OUTLINE*
G04 File Format:  Gerber RS274X*
G04 File Origin:  Cadence Allegro 16.5-P002*
G04 Origin Date:  Wed May 18 11:18:33 2016*
G04 *
G04 Layer:  BOARD GEOMETRY/TOOLING_CORNERS*
G04 Layer:  BOARD GEOMETRY/OUTLINE*
G04 *
G04 Offset:    (0.0000 0.0000)*
G04 Mirror:    No*
G04 Mode:      Positive*
G04 Rotation:  0*
G04 FullContactRelief:  No*
G04 UndefLineWidth:     0.0050*
G04 ================== end FILE IDENTIFICATION RECORD ====================*
%FSLAX25Y25*MOMM*%
%IR0*IPPOS*OFA0.00000B0.00000*MIA0B0*SFA1.00000B1.00000*%
%ADD10C,.2*%
%ADD11C,.3*%
%ADD12C,.005*%
G75*
%LPD*%
G75*
G54D10*
G01X1090000Y1580000D02*
X1150000D01*
X1170000Y1560000D01*
Y1530000D01*
X1150000Y1510000D01*
X1120000D01*
X1100000Y1490000D01*
Y1160000D01*
X1120000Y1140000D01*
X1150000D01*
X1170000Y1120000D01*
Y1090000D01*
X1150000Y1070000D01*
X1090000D01*
X1030000Y1130000D01*
Y1520000D01*
X1090000Y1580000D01*
G01X1150000D02*
X1090000D01*
X1030000Y1520000D01*
Y1130000D01*
X1090000Y1070000D01*
X1150000D01*
X1170000Y1090000D01*
Y1120000D01*
X1150000Y1140000D01*
X1120000D01*
X1100000Y1160000D01*
Y1490000D01*
X1120000Y1510000D01*
X1150000D01*
X1170000Y1530000D01*
Y1560000D01*
X1150000Y1580000D01*
G54D11*
G01X0Y0D02*
Y3000000D01*
X480000D01*
X650000Y2830000D01*
Y2170000D01*
X1070000D01*
Y2780000D01*
X1090000Y2800000D01*
X1400000D01*
X1460000Y2860000D01*
Y3000000D01*
X1750000D01*
Y950000D01*
X1830000D01*
Y1310000D01*
X2150000D01*
Y0D01*
X1830000D01*
Y410000D01*
X1750000D01*
Y0D01*
X0D01*
G01D02*
X1750000D01*
Y410000D01*
X1830000D01*
Y0D01*
X2150000D01*
Y1310000D01*
X1830000D01*
Y950000D01*
X1750000D01*
Y3000000D01*
X1460000D01*
Y2860000D01*
X1400000Y2800000D01*
X1090000D01*
X1070000Y2780000D01*
Y2170000D01*
X650000D01*
Y2830000D01*
X480000Y3000000D01*
X0D01*
Y0D01*
G01X1750000Y820000D02*
X1830000D01*
Y530000D01*
X1750000D01*
Y820000D01*
G01X1830000Y530000D02*
X1750000D01*
Y820000D01*
X1830000D01*
Y530000D01*
G54D12*
G01X655000Y2835000D02*
X1065000D01*
Y2170000D01*
X655000D01*
Y2835000D01*
M02*
