G04 ================== begin FILE IDENTIFICATION RECORD ==================*
G04 Layout Name:  STEVAL-STLCR01V1.brd*
G04 Film Name:    STEVAL-STLCR01V1-11PMT.GBR*
G04 File Format:  Gerber RS274X*
G04 File Origin:  Cadence Allegro 16.5-P002*
G04 Origin Date:  Wed May 18 11:18:33 2016*
G04 *
G04 Layer:  VIA CLASS/PASTEMASK_TOP*
G04 Layer:  PIN/PASTEMASK_TOP*
G04 Layer:  PACKAGE GEOMETRY/PASTEMASK_TOP*
G04 Layer:  BOARD GEOMETRY/TOOLING_CORNERS*
G04 *
G04 Offset:    (0.0000 0.0000)*
G04 Mirror:    No*
G04 Mode:      Positive*
G04 Rotation:  0*
G04 FullContactRelief:  No*
G04 UndefLineWidth:     0.0000*
G04 ================== end FILE IDENTIFICATION RECORD ====================*
%FSLAX25Y25*MOMM*%
%IR0*IPPOS*OFA0.00000B0.00000*MIA0B0*SFA1.00000B1.00000*%
%ADD12R,1.3X.8*%
%ADD18O,.5989X1.1989*%
%ADD19R,.5989X1.1989*%
%ADD15R,1.6002X2.54*%
%ADD17R,.25X.9*%
%ADD10C,1.016*%
%ADD16R,.635X.508*%
%ADD13R,.508X.635*%
%ADD21R,.381X.7874*%
%ADD11R,.3048X.9906*%
%ADD14R,.889X.4064*%
%ADD20R,.6858X.3556*%
%ADD22C,.2*%
%ADD23C,.3*%
G75*
%LPD*%
G75*
G54D10*
X85000Y1635000D03*
X1515000Y955000D03*
G54D20*
X1185000Y1370000D03*
Y1270000D03*
X1375000Y1370000D03*
Y1270000D03*
G54D11*
X130000Y1150000D03*
Y1310000D03*
X230000Y1150000D03*
X180000D03*
Y1310000D03*
X230000D03*
G54D21*
X1280000Y1410000D03*
Y1230000D03*
G54D12*
X155000Y2410000D03*
Y2283000D03*
Y2156000D03*
Y2029000D03*
Y1902000D03*
Y2918000D03*
Y2791000D03*
Y2664000D03*
Y2537000D03*
X1565000Y1902000D03*
Y2029000D03*
Y2156000D03*
Y2283000D03*
Y2410000D03*
Y2537000D03*
Y2664000D03*
Y2791000D03*
Y2918000D03*
G54D22*
G01X1150000Y1580000D02*
X1090000D01*
X1030000Y1520000D01*
Y1130000D01*
X1090000Y1070000D01*
X1150000D01*
X1170000Y1090000D01*
Y1120000D01*
X1150000Y1140000D01*
X1120000D01*
X1100000Y1160000D01*
Y1490000D01*
X1120000Y1510000D01*
X1150000D01*
X1170000Y1530000D01*
Y1560000D01*
X1150000Y1580000D01*
G54D13*
X774200Y430000D03*
X875800D03*
X605800Y435000D03*
X504200D03*
X605800Y555000D03*
X504200D03*
X774200D03*
X875800D03*
X780100Y1305800D03*
X678500D03*
X810800Y1030000D03*
X709200D03*
X445800Y1125000D03*
X344200D03*
X635800Y1030000D03*
X534200D03*
X1440800Y735000D03*
X1339200D03*
X1230800D03*
X1129200D03*
Y615000D03*
X1230800D03*
X1339200D03*
X1440800D03*
X1269200Y1010000D03*
X1370800D03*
G54D23*
G01X0Y0D02*
X1750000D01*
Y410000D01*
X1830000D01*
Y0D01*
X2150000D01*
Y1310000D01*
X1830000D01*
Y950000D01*
X1750000D01*
Y3000000D01*
X1460000D01*
Y2860000D01*
X1400000Y2800000D01*
X1090000D01*
X1070000Y2780000D01*
Y2170000D01*
X650000D01*
Y2830000D01*
X480000Y3000000D01*
X0D01*
Y0D01*
G01X1830000Y530000D02*
X1750000D01*
Y820000D01*
X1830000D01*
Y530000D01*
G54D14*
X825000Y700000D03*
Y795000D03*
Y890000D03*
X525000D03*
Y795000D03*
Y700000D03*
G54D15*
X675000Y795000D03*
G54D16*
X405000Y849200D03*
X575000Y1309200D03*
Y1410800D03*
Y1519200D03*
Y1620800D03*
X300000Y1474200D03*
Y1575800D03*
X405000Y950800D03*
X960000Y700800D03*
Y599200D03*
X1130000Y199200D03*
Y300800D03*
Y470800D03*
Y369200D03*
X968600Y1360800D03*
Y1259200D03*
G54D17*
X890000Y1425000D03*
X840000D03*
X790000D03*
X740000D03*
X690000D03*
Y1585000D03*
X740000D03*
X790000D03*
X840000D03*
X890000D03*
G54D18*
X1464990Y150000D03*
X1370000D03*
X1275000Y380000D03*
X1464990Y380100D03*
G54D19*
X1275000Y150000D03*
M02*
