G04 ================== begin FILE IDENTIFICATION RECORD ==================*
G04 Layout Name:  STEVAL-STLCR01V1.brd*
G04 Film Name:    STEVAL-STLCR01V1-07SST.GBR*
G04 File Format:  Gerber RS274X*
G04 File Origin:  Cadence Allegro 16.5-P002*
G04 Origin Date:  Wed May 18 11:18:33 2016*
G04 *
G04 Layer:  REF DES/SILKSCREEN_TOP*
G04 Layer:  PACKAGE GEOMETRY/SILKSCREEN_TOP*
G04 Layer:  BOARD GEOMETRY/TOOLING_CORNERS*
G04 Layer:  BOARD GEOMETRY/SILKSCREEN_TOP*
G04 *
G04 Offset:    (0.0000 0.0000)*
G04 Mirror:    No*
G04 Mode:      Positive*
G04 Rotation:  0*
G04 FullContactRelief:  No*
G04 UndefLineWidth:     0.1500*
G04 ================== end FILE IDENTIFICATION RECORD ====================*
%FSLAX25Y25*MOMM*%
%IR0*IPPOS*OFA0.00000B0.00000*MIA0B0*SFA1.00000B1.00000*%
%ADD10C,.1*%
%ADD11C,.2*%
%ADD12C,.3*%
%ADD13C,.15*%
%ADD14C,.1524*%
G75*
%LPD*%
G75*
G36*
G01X633510Y223800D02*
X633240Y223560D01*
X633100Y223460D01*
X632970Y223370D01*
X632830Y223300D01*
X632690Y223250D01*
X632550Y223200D01*
X632420Y223180D01*
X632280Y223170D01*
X631940Y223120D01*
X631760Y223040D01*
X631560Y222930D01*
X631330Y222760D01*
X631070Y222550D01*
X630770Y222280D01*
X630430Y221950D01*
X630030Y221550D01*
X629300Y220800D01*
X629030Y220500D01*
X628820Y220240D01*
X628660Y220020D01*
X628550Y219820D01*
X628470Y219640D01*
X628430Y219470D01*
X628420Y219300D01*
X628390Y219030D01*
X628360Y218890D01*
X628310Y218760D01*
X628250Y218640D01*
X628180Y218510D01*
X628100Y218400D01*
X628000Y218280D01*
X627900Y218180D01*
X627710Y217960D01*
X627620Y217850D01*
X627550Y217730D01*
X627490Y217600D01*
X627440Y217480D01*
X627410Y217360D01*
X627390Y217240D01*
X627380Y217140D01*
X627340Y216900D01*
X627300Y216770D01*
X627240Y216640D01*
X627170Y216500D01*
X627080Y216360D01*
X626980Y216230D01*
X626870Y216100D01*
X626750Y215970D01*
X626500Y215700D01*
X626400Y215570D01*
X626320Y215430D01*
X626250Y215290D01*
X626200Y215150D01*
X626160Y215010D01*
X626130Y214870D01*
Y214720D01*
X626100Y214440D01*
X626060Y214310D01*
X626000Y214170D01*
X625930Y214030D01*
X625850Y213890D01*
X625750Y213760D01*
X625630Y213630D01*
X625500Y213490D01*
X625200Y213180D01*
X625100Y213030D01*
X625020Y212880D01*
X624960Y212710D01*
X624920Y212520D01*
X624890Y212300D01*
X624880Y212040D01*
Y211720D01*
X624860Y211170D01*
X624840Y210950D01*
X624800Y210760D01*
X624750Y210600D01*
X624680Y210460D01*
X624600Y210320D01*
X624490Y210190D01*
X624350Y210060D01*
X624150Y209840D01*
X624070Y209720D01*
X624000Y209600D01*
X623940Y209470D01*
X623890Y209340D01*
X623860Y209200D01*
X623840Y209060D01*
X623830Y208910D01*
X623800Y208620D01*
X623770Y208480D01*
X623720Y208340D01*
X623650Y208210D01*
X623560Y208070D01*
X623460Y207940D01*
X623340Y207800D01*
X623210Y207670D01*
X622910Y207350D01*
X622800Y207200D01*
X622720Y207050D01*
X622660Y206880D01*
X622620Y206690D01*
X622600Y206470D01*
X622590Y206210D01*
X622580Y205900D01*
X622570Y205340D01*
X622540Y205120D01*
X622510Y204940D01*
X622460Y204770D01*
X622390Y204630D01*
X622300Y204500D01*
X622190Y204370D01*
X622060Y204230D01*
X621870Y204020D01*
X621790Y203900D01*
X621710Y203780D01*
X621650Y203650D01*
X621610Y203530D01*
X621570Y203400D01*
X621550Y203280D01*
X621540Y203170D01*
X621510Y202910D01*
X621470Y202770D01*
X621410Y202630D01*
X621340Y202490D01*
X621250Y202350D01*
X621150Y202210D01*
X621040Y202080D01*
X620910Y201940D01*
X620620Y201600D01*
X620510Y201450D01*
X620430Y201290D01*
X620370Y201120D01*
X620330Y200920D01*
X620310Y200700D01*
X620290Y200430D01*
Y200110D01*
X620270Y199500D01*
X620250Y199270D01*
X620210Y199080D01*
X620160Y198910D01*
X620080Y198760D01*
X619970Y198610D01*
X619830Y198460D01*
X619660Y198300D01*
X619420Y198030D01*
X619320Y197900D01*
X619230Y197760D01*
X619160Y197630D01*
X619110Y197490D01*
X619070Y197360D01*
X619050Y197220D01*
X619040Y197090D01*
X619010Y196830D01*
X618980Y196700D01*
X618930Y196570D01*
X618870Y196450D01*
X618800Y196330D01*
X618720Y196210D01*
X618620Y196100D01*
X618520Y195990D01*
X618320Y195780D01*
X618240Y195660D01*
X618170Y195540D01*
X618110Y195420D01*
X618060Y195290D01*
X618030Y195160D01*
X618000Y195030D01*
Y194910D01*
X617960Y194650D01*
X617930Y194520D01*
X617870Y194390D01*
X617800Y194250D01*
X617720Y194120D01*
X617620Y193990D01*
X617500Y193850D01*
X617370Y193720D01*
X617060Y193410D01*
X616960Y193260D01*
X616880Y193110D01*
X616820Y192940D01*
X616780Y192740D01*
X616760Y192510D01*
X616750Y192240D01*
X616740Y191910D01*
X616730Y191320D01*
X616700Y191100D01*
X616660Y190900D01*
X616600Y190730D01*
X616520Y190570D01*
X616420Y190420D01*
X616280Y190250D01*
X616120Y190080D01*
X615880Y189810D01*
X615780Y189670D01*
X615700Y189530D01*
X615620Y189390D01*
X615570Y189250D01*
X615530Y189110D01*
X615500Y188980D01*
X615490Y188850D01*
X615460Y188610D01*
X615430Y188490D01*
X615380Y188370D01*
X615320Y188240D01*
X615250Y188120D01*
X615160Y188000D01*
X615070Y187890D01*
X614970Y187790D01*
X614730Y187520D01*
X614640Y187390D01*
X614570Y187240D01*
X614520Y187070D01*
X614490Y186870D01*
X614470Y186640D01*
X614450Y186370D01*
Y186040D01*
X614430Y185410D01*
X614400Y185170D01*
X614360Y184980D01*
X614300Y184820D01*
X614220Y184670D01*
X614120Y184540D01*
X613990Y184400D01*
X613830Y184250D01*
X613560Y184020D01*
X613460Y183900D01*
X613380Y183780D01*
X613310Y183650D01*
X613260Y183530D01*
X613230Y183390D01*
X613210Y183250D01*
X613200Y183100D01*
X613170Y182820D01*
X613140Y182680D01*
X613090Y182550D01*
X613030Y182420D01*
X612960Y182300D01*
X612880Y182180D01*
X612780Y182070D01*
X612680Y181960D01*
X612490Y181750D01*
X612400Y181630D01*
X612330Y181510D01*
X612270Y181380D01*
X612220Y181260D01*
X612190Y181130D01*
X612170Y181010D01*
X612160Y180900D01*
X612120Y180640D01*
X612080Y180500D01*
X612030Y180360D01*
X611960Y180220D01*
X611870Y180080D01*
X611770Y179940D01*
X611660Y179800D01*
X611530Y179670D01*
X611230Y179330D01*
X611130Y179180D01*
X611050Y179020D01*
X610990Y178850D01*
X610950Y178650D01*
X610920Y178430D01*
X610910Y178160D01*
Y177840D01*
X610890Y177230D01*
X610870Y177000D01*
X610830Y176810D01*
X610770Y176640D01*
X610690Y176490D01*
X610590Y176340D01*
X610450Y176190D01*
X610280Y176030D01*
X609980Y175710D01*
X609880Y175560D01*
X609800Y175410D01*
X609740Y175250D01*
X609700Y175060D01*
X609670Y174830D01*
X609660Y174570D01*
Y174260D01*
X609640Y173700D01*
X609620Y173480D01*
X609580Y173300D01*
X609530Y173140D01*
X609460Y172990D01*
X609380Y172860D01*
X609270Y172730D01*
X609130Y172590D01*
X608930Y172370D01*
X608850Y172260D01*
X608780Y172130D01*
X608720Y172000D01*
X608670Y171870D01*
X608640Y171730D01*
X608620Y171590D01*
X608610Y171450D01*
X608590Y171160D01*
X608550Y171030D01*
X608500Y170900D01*
X608440Y170780D01*
X608350Y170660D01*
X608250Y170540D01*
X608130Y170420D01*
X607990Y170300D01*
X607730Y170050D01*
X607630Y169930D01*
X607550Y169800D01*
X607480Y169670D01*
X607430Y169530D01*
X607400Y169390D01*
X607370Y169230D01*
X607360Y169060D01*
X607330Y168730D01*
X607290Y168580D01*
X607240Y168440D01*
X607180Y168310D01*
X607100Y168190D01*
X607000Y168060D01*
X606880Y167940D01*
X606740Y167810D01*
X606430Y167530D01*
X606320Y167400D01*
X606240Y167260D01*
X606190Y167100D01*
X606150Y166920D01*
X606130Y166690D01*
X606110Y166410D01*
Y166080D01*
X606100Y165480D01*
X606070Y165250D01*
X606040Y165060D01*
X605990Y164890D01*
X605920Y164750D01*
X605830Y164620D01*
X605720Y164490D01*
X605590Y164350D01*
X605350Y164090D01*
X605260Y163960D01*
X605190Y163810D01*
X605140Y163650D01*
X605110Y163460D01*
X605080Y163230D01*
X605070Y162960D01*
Y162640D01*
X605050Y162040D01*
X605030Y161810D01*
X604990Y161620D01*
X604940Y161460D01*
X604860Y161300D01*
X604750Y161160D01*
X604610Y161000D01*
X604440Y160830D01*
X604200Y160570D01*
X604100Y160430D01*
X604010Y160300D01*
X603940Y160170D01*
X603890Y160030D01*
X603850Y159900D01*
X603830Y159770D01*
X603820Y159650D01*
X603790Y159390D01*
X603750Y159270D01*
X603700Y159140D01*
X603640Y159010D01*
X603570Y158890D01*
X603490Y158780D01*
X603400Y158670D01*
X603300Y158570D01*
X603100Y158350D01*
X603010Y158230D01*
X602940Y158110D01*
X602880Y157980D01*
X602840Y157850D01*
X602800Y157720D01*
X602780Y157590D01*
Y157460D01*
X602740Y157200D01*
X602710Y157060D01*
X602650Y156930D01*
X602580Y156790D01*
X602500Y156660D01*
X602400Y156520D01*
X602280Y156390D01*
X602150Y156250D01*
X601840Y155930D01*
X601740Y155780D01*
X601660Y155630D01*
X601600Y155460D01*
X601560Y155260D01*
X601540Y155030D01*
X601530Y154740D01*
X601520Y154400D01*
X601500Y153770D01*
X601470Y153540D01*
X601430Y153340D01*
X601380Y153180D01*
X601300Y153030D01*
X601190Y152900D01*
X601060Y152760D01*
X600900Y152610D01*
X600640Y152380D01*
X600530Y152260D01*
X600450Y152140D01*
X600380Y152020D01*
X600330Y151890D01*
X600300Y151760D01*
X600280Y151620D01*
X600270Y151470D01*
X600250Y151180D01*
X600210Y151050D01*
X600170Y150910D01*
X600110Y150780D01*
X600040Y150660D01*
X599950Y150540D01*
X599860Y150430D01*
X599750Y150320D01*
X599510Y150060D01*
X599420Y149920D01*
X599350Y149780D01*
X599300Y149620D01*
X599270Y149430D01*
X599250Y149210D01*
X599230Y148960D01*
Y148660D01*
X599210Y148080D01*
X599190Y147860D01*
X599150Y147670D01*
X599090Y147500D01*
X599010Y147350D01*
X598900Y147200D01*
X598770Y147050D01*
X598610Y146890D01*
X598350Y146620D01*
X598250Y146480D01*
X598160Y146350D01*
X598100Y146210D01*
X598050Y146070D01*
X598010Y145930D01*
X597990Y145790D01*
X597980Y145640D01*
X597950Y145350D01*
X597920Y145210D01*
X597860Y145070D01*
X597800Y144930D01*
X597710Y144800D01*
X597610Y144660D01*
X597490Y144530D01*
X597350Y144390D01*
X597110Y144120D01*
X597010Y143990D01*
X596920Y143860D01*
X596850Y143720D01*
X596800Y143580D01*
X596760Y143450D01*
X596740Y143320D01*
X596730Y143180D01*
X596700Y142920D01*
X596670Y142790D01*
X596620Y142660D01*
X596560Y142540D01*
X596490Y142420D01*
X596410Y142300D01*
X596310Y142190D01*
X596210Y142080D01*
X595970Y141830D01*
X595880Y141690D01*
X595810Y141550D01*
X595760Y141390D01*
X595720Y141200D01*
X595700Y140970D01*
X595690Y140710D01*
Y140390D01*
X595670Y139780D01*
X595650Y139560D01*
X595610Y139370D01*
X595550Y139210D01*
X595470Y139070D01*
X595370Y138940D01*
X595230Y138810D01*
X595060Y138670D01*
X594810Y138410D01*
X594710Y138290D01*
X594630Y138160D01*
X594560Y138040D01*
X594510Y137900D01*
X594470Y137760D01*
X594450Y137610D01*
X594440Y137440D01*
X594410Y137140D01*
X594380Y137010D01*
X594340Y136880D01*
X594290Y136760D01*
X594220Y136650D01*
X594130Y136540D01*
X594030Y136430D01*
X593910Y136340D01*
X593710Y136140D01*
X593620Y136030D01*
X593550Y135920D01*
X593490Y135810D01*
X593450Y135680D01*
X593420Y135550D01*
X593400Y135410D01*
X593390Y135250D01*
X593360Y134950D01*
X593330Y134800D01*
X593280Y134660D01*
X593210Y134530D01*
X593120Y134390D01*
X593020Y134260D01*
X592900Y134120D01*
X592770Y133980D01*
X592470Y133670D01*
X592360Y133520D01*
X592280Y133370D01*
X592220Y133200D01*
X592180Y133010D01*
X592160Y132790D01*
X592150Y132530D01*
X592140Y132210D01*
X592130Y131640D01*
X592100Y131420D01*
X592060Y131230D01*
X592000Y131060D01*
X591920Y130910D01*
X591810Y130760D01*
X591680Y130610D01*
X591520Y130450D01*
X591260Y130170D01*
X591160Y130040D01*
X591080Y129900D01*
X591010Y129770D01*
X590960Y129630D01*
X590920Y129490D01*
X590900Y129350D01*
X590890Y129200D01*
X590860Y128910D01*
X590830Y128780D01*
X590780Y128640D01*
X590720Y128510D01*
X590650Y128390D01*
X590570Y128270D01*
X590480Y128160D01*
X590370Y128050D01*
X590170Y127830D01*
X590090Y127710D01*
X590020Y127590D01*
X589960Y127460D01*
X589910Y127330D01*
X589880Y127190D01*
X589860Y127060D01*
X589850Y126930D01*
X589810Y126640D01*
X589770Y126510D01*
X589720Y126380D01*
X589650Y126250D01*
X589570Y126130D01*
X589470Y126010D01*
X589350Y125890D01*
X589220Y125760D01*
X588920Y125490D01*
X588810Y125350D01*
X588730Y125210D01*
X588670Y125050D01*
X588640Y124850D01*
X588610Y124620D01*
X588600Y124330D01*
Y123970D01*
X588590Y123340D01*
X588560Y123100D01*
X588530Y122910D01*
X588480Y122750D01*
X588420Y122610D01*
X588330Y122490D01*
X588220Y122380D01*
X588080Y122270D01*
X587880Y122070D01*
X587790Y121970D01*
X587720Y121860D01*
X587660Y121740D01*
X587620Y121630D01*
X587580Y121500D01*
X587560Y121380D01*
Y121250D01*
X587520Y120980D01*
X587490Y120850D01*
X587430Y120710D01*
X587360Y120570D01*
X587280Y120440D01*
X587180Y120310D01*
X587060Y120170D01*
X586930Y120040D01*
X586670Y119770D01*
X586570Y119630D01*
X586490Y119500D01*
X586420Y119360D01*
X586370Y119220D01*
X586330Y119080D01*
X586310Y118940D01*
X586300Y118790D01*
X586280Y118500D01*
X586240Y118360D01*
X586190Y118220D01*
X586120Y118080D01*
X586040Y117950D01*
X585930Y117810D01*
X585820Y117680D01*
X585680Y117540D01*
X585380Y117230D01*
X585280Y117080D01*
X585200Y116920D01*
X585140Y116760D01*
X585100Y116570D01*
X585070Y116350D01*
X585060Y116080D01*
X585050Y115770D01*
X585040Y115220D01*
X585020Y115000D01*
X584980Y114810D01*
X584930Y114650D01*
X584860Y114510D01*
X584770Y114370D01*
X584670Y114240D01*
X584530Y114110D01*
X584330Y113890D01*
X584250Y113770D01*
X584180Y113640D01*
X584120Y113520D01*
X584070Y113380D01*
X584040Y113250D01*
X584020Y113110D01*
X584010Y112960D01*
X583980Y112670D01*
X583950Y112530D01*
X583890Y112390D01*
X583830Y112250D01*
X583740Y112120D01*
X583640Y111990D01*
X583520Y111850D01*
X583390Y111710D01*
X583090Y111400D01*
X582980Y111250D01*
X582900Y111100D01*
X582840Y110930D01*
X582800Y110740D01*
X582780Y110520D01*
X582760Y110260D01*
Y109940D01*
X582740Y109370D01*
X582720Y109150D01*
X582680Y108960D01*
X582620Y108790D01*
X582540Y108640D01*
X582430Y108490D01*
X582300Y108340D01*
X582130Y108170D01*
X581890Y107910D01*
X581790Y107770D01*
X581700Y107640D01*
X581630Y107500D01*
X581580Y107370D01*
X581540Y107230D01*
X581520Y107100D01*
X581510Y106970D01*
X581480Y106700D01*
X581450Y106580D01*
X581400Y106450D01*
X581340Y106320D01*
X581270Y106200D01*
X581190Y106080D01*
X581090Y105970D01*
X580990Y105860D01*
X580790Y105650D01*
X580700Y105540D01*
X580630Y105420D01*
X580570Y105290D01*
X580530Y105160D01*
X580490Y105040D01*
X580470Y104910D01*
Y104780D01*
X580440Y104520D01*
X580400Y104380D01*
X580340Y104250D01*
X580270Y104110D01*
X580190Y103980D01*
X580090Y103840D01*
X579970Y103710D01*
X579840Y103570D01*
X579550Y103260D01*
X579440Y103110D01*
X579360Y102960D01*
X579310Y102780D01*
X579270Y102590D01*
X579240Y102360D01*
X579230Y102090D01*
X579220Y101760D01*
X579200Y101190D01*
X579180Y100960D01*
X579140Y100770D01*
X579090Y100610D01*
X579020Y100460D01*
X578940Y100330D01*
X578830Y100210D01*
X578690Y100080D01*
X578450Y99810D01*
X578360Y99680D01*
X578300Y99530D01*
X578250Y99370D01*
X578210Y99170D01*
X578190Y98940D01*
X578180Y98660D01*
X578170Y98330D01*
X578160Y97700D01*
X578140Y97460D01*
X578100Y97270D01*
X578040Y97110D01*
X577960Y96970D01*
X577850Y96840D01*
X577720Y96700D01*
X577550Y96560D01*
X577280Y96300D01*
X577180Y96180D01*
X577100Y96050D01*
X577030Y95920D01*
X576980Y95790D01*
X576950Y95640D01*
X576930Y95490D01*
X576920Y95330D01*
X576890Y95020D01*
X576850Y94880D01*
X576800Y94750D01*
X576730Y94620D01*
X576650Y94490D01*
X576550Y94370D01*
X576430Y94250D01*
X576300Y94130D01*
X576030Y93890D01*
X575930Y93770D01*
X575850Y93650D01*
X575780Y93530D01*
X575730Y93400D01*
X575700Y93270D01*
X575680Y93130D01*
X575670Y92980D01*
X575640Y92700D01*
X575610Y92560D01*
X575560Y92430D01*
X575500Y92300D01*
X575430Y92170D01*
X575350Y92060D01*
X575260Y91940D01*
X575150Y91840D01*
X574910Y91570D01*
X574820Y91440D01*
X574750Y91290D01*
X574700Y91130D01*
X574670Y90940D01*
X574640Y90730D01*
X574630Y90470D01*
Y90170D01*
X574610Y89600D01*
X574590Y89370D01*
X574550Y89180D01*
X574490Y89020D01*
X574410Y88860D01*
X574300Y88720D01*
X574170Y88570D01*
X574000Y88400D01*
X573750Y88130D01*
X573650Y87990D01*
X573560Y87860D01*
X573490Y87720D01*
X573440Y87590D01*
X573410Y87450D01*
X573390Y87300D01*
X573380Y87150D01*
X573350Y86860D01*
X573310Y86720D01*
X573260Y86580D01*
X573190Y86450D01*
X573110Y86310D01*
X573010Y86180D01*
X572890Y86040D01*
X572750Y85900D01*
X572460Y85590D01*
X572350Y85440D01*
X572270Y85290D01*
X572210Y85120D01*
X572170Y84930D01*
X572140Y84710D01*
X572130Y84450D01*
Y84130D01*
X572110Y83580D01*
X572090Y83360D01*
X572050Y83170D01*
X572000Y83010D01*
X571940Y82870D01*
X571850Y82730D01*
X571740Y82600D01*
X571610Y82470D01*
X571410Y82250D01*
X571320Y82130D01*
X571250Y82000D01*
X571190Y81870D01*
X571150Y81740D01*
X571110Y81610D01*
X571090Y81480D01*
X571080Y81350D01*
X571050Y81060D01*
X571020Y80920D01*
X570960Y80780D01*
X570890Y80640D01*
X570810Y80500D01*
X570710Y80360D01*
X570590Y80230D01*
X570460Y80100D01*
X570210Y79830D01*
X570110Y79700D01*
X570030Y79560D01*
X569960Y79430D01*
X569900Y79290D01*
X569860Y79160D01*
X569840Y79020D01*
X569830Y78890D01*
X569810Y78640D01*
X569770Y78510D01*
X569730Y78380D01*
X569670Y78260D01*
X569600Y78130D01*
X569510Y78020D01*
X569420Y77910D01*
X569310Y77810D01*
X569070Y77540D01*
X568980Y77410D01*
X568920Y77270D01*
X568860Y77100D01*
X568830Y76910D01*
X568810Y76680D01*
X568790Y76400D01*
Y76080D01*
X568780Y75470D01*
X568750Y75240D01*
X568720Y75060D01*
X568660Y74900D01*
X568580Y74760D01*
X568470Y74630D01*
X568340Y74500D01*
X568170Y74350D01*
X567920Y74110D01*
X567820Y73990D01*
X567740Y73860D01*
X567670Y73740D01*
X567620Y73610D01*
X567580Y73480D01*
X567550Y73330D01*
X567540Y73190D01*
X567510Y72910D01*
X567470Y72770D01*
X567420Y72630D01*
X567350Y72500D01*
X567260Y72360D01*
X567160Y72230D01*
X567050Y72090D01*
X566910Y71960D01*
X566610Y71640D01*
X566500Y71490D01*
X566420Y71340D01*
X566360Y71170D01*
X566330Y70970D01*
X566300Y70740D01*
X566290Y70460D01*
Y70130D01*
X566270Y69530D01*
X566250Y69300D01*
X566220Y69110D01*
X566170Y68940D01*
X566100Y68800D01*
X566010Y68660D01*
X565900Y68530D01*
X565770Y68400D01*
X565580Y68190D01*
X565490Y68070D01*
X565420Y67950D01*
X565360Y67830D01*
X565310Y67700D01*
X565280Y67570D01*
X565250Y67440D01*
Y67320D01*
X565220Y67060D01*
X565180Y66930D01*
X565120Y66800D01*
X565050Y66660D01*
X564970Y66530D01*
X564870Y66400D01*
X564750Y66260D01*
X564620Y66130D01*
X564320Y65820D01*
X564210Y65670D01*
X564130Y65520D01*
X564070Y65350D01*
X564030Y65150D01*
X564010Y64930D01*
X564000Y64650D01*
Y64320D01*
X563980Y63730D01*
X563950Y63510D01*
X563910Y63310D01*
X563850Y63140D01*
X563770Y62980D01*
X563670Y62830D01*
X563530Y62660D01*
X563370Y62490D01*
X562900Y61900D01*
X562800Y61630D01*
X562790Y61350D01*
X562880Y61050D01*
X563080Y60720D01*
X563390Y60320D01*
X563820Y59860D01*
X564370Y59300D01*
X565980Y57700D01*
X581910D01*
X597810D01*
X598310Y58220D01*
X598590Y58480D01*
X598730Y58570D01*
X598900Y58640D01*
X599120Y58680D01*
X599380Y58710D01*
X599720Y58730D01*
X600130Y58740D01*
X600650D01*
X601620Y58750D01*
X601950Y58770D01*
X602210Y58800D01*
X602410Y58860D01*
X602570Y58940D01*
X602700Y59040D01*
X602840Y59190D01*
X602980Y59370D01*
X603260Y59690D01*
X603400Y59800D01*
X603560Y59880D01*
X603760Y59930D01*
X604010Y59960D01*
X604350Y59980D01*
X604780Y59990D01*
X605320D01*
X606250Y60000D01*
X606590Y60020D01*
X606850Y60050D01*
X607060Y60100D01*
X607230Y60160D01*
X607380Y60250D01*
X607520Y60370D01*
X607650Y60510D01*
X607920Y60750D01*
X608050Y60840D01*
X608200Y60910D01*
X608360Y60960D01*
X608560Y60990D01*
X608790Y61020D01*
X609060Y61030D01*
X609380D01*
X610000Y61050D01*
X610220Y61070D01*
X610410Y61110D01*
X610570Y61160D01*
X610710Y61240D01*
X610840Y61350D01*
X610970Y61490D01*
X611120Y61660D01*
X611360Y61910D01*
X611480Y62010D01*
X611610Y62090D01*
X611740Y62160D01*
X611870Y62210D01*
X612010Y62240D01*
X612160Y62270D01*
X612320Y62280D01*
X612640Y62310D01*
X612780Y62340D01*
X612910Y62390D01*
X613040Y62460D01*
X613170Y62540D01*
X613300Y62640D01*
X613420Y62760D01*
X613550Y62900D01*
X613830Y63210D01*
X613960Y63320D01*
X614100Y63400D01*
X614260Y63450D01*
X614450Y63490D01*
X614680Y63510D01*
X614960Y63530D01*
X615310D01*
X615970Y63540D01*
X616220Y63580D01*
X616430Y63640D01*
X616630Y63730D01*
X616840Y63880D01*
X617070Y64080D01*
X617350Y64340D01*
X617680Y64670D01*
X618180Y65170D01*
X618390Y65360D01*
X618590Y65510D01*
X618770Y65630D01*
X618930Y65720D01*
X619090Y65770D01*
X619240Y65810D01*
X619390Y65820D01*
X619670Y65850D01*
X619800Y65890D01*
X619940Y65940D01*
X620080Y66010D01*
X620210Y66100D01*
X620350Y66210D01*
X620480Y66330D01*
X620620Y66460D01*
X620900Y66720D01*
X621020Y66820D01*
X621150Y66900D01*
X621260Y66960D01*
X621380Y66990D01*
X621500Y67010D01*
X621610Y67020D01*
X621730Y67000D01*
X621980D01*
X622130Y67050D01*
X622280Y67120D01*
X622460Y67240D01*
X622660Y67390D01*
X622890Y67590D01*
X623150Y67840D01*
X623460Y68130D01*
X624010Y68650D01*
X624250Y68850D01*
X624460Y69020D01*
X624650Y69150D01*
X624820Y69240D01*
X624980Y69310D01*
X625140Y69340D01*
X625290Y69360D01*
X625620Y69420D01*
X625810Y69510D01*
X626010Y69640D01*
X626250Y69810D01*
X626520Y70050D01*
X626840Y70340D01*
X627220Y70700D01*
X627650Y71130D01*
X628450Y71920D01*
X628770Y72210D01*
X629050Y72450D01*
X629280Y72620D01*
X629490Y72750D01*
X629670Y72840D01*
X629840Y72880D01*
X630000Y72900D01*
X630380Y73000D01*
X630630Y73140D01*
X630940Y73370D01*
X631320Y73690D01*
X631790Y74120D01*
X632370Y74670D01*
X633070Y75350D01*
X633900Y76180D01*
X635400Y77700D01*
X635950Y78270D01*
X636380Y78740D01*
X636700Y79120D01*
X636930Y79430D01*
X637070Y79670D01*
X637150Y79880D01*
X637180Y80060D01*
X637240Y80380D01*
X637330Y80560D01*
X637460Y80770D01*
X637630Y81010D01*
X637870Y81290D01*
X638160Y81610D01*
X638520Y81990D01*
X638950Y82430D01*
X639710Y83210D01*
X640000Y83530D01*
X640240Y83800D01*
X640420Y84050D01*
X640560Y84260D01*
X640650Y84440D01*
X640700Y84610D01*
X640720Y84760D01*
X640770Y85040D01*
X640840Y85200D01*
X640930Y85370D01*
X641050Y85550D01*
X641210Y85760D01*
X641400Y85980D01*
X641610Y86220D01*
X641870Y86490D01*
X642360Y87000D01*
X642540Y87230D01*
X642700Y87430D01*
X642820Y87620D01*
X642910Y87790D01*
X642970Y87950D01*
X643000Y88110D01*
X643010Y88260D01*
X643050Y88510D01*
X643080Y88640D01*
X643140Y88770D01*
X643210Y88910D01*
X643290Y89040D01*
X643390Y89180D01*
X643510Y89310D01*
X643640Y89440D01*
X643900Y89720D01*
X644000Y89850D01*
X644080Y89980D01*
X644150Y90120D01*
X644200Y90260D01*
X644240Y90400D01*
X644260Y90540D01*
X644270Y90690D01*
X644290Y91000D01*
X644330Y91130D01*
X644380Y91260D01*
X644440Y91380D01*
X644520Y91490D01*
X644630Y91610D01*
X644750Y91720D01*
X644890Y91840D01*
X645150Y92070D01*
X645260Y92180D01*
X645340Y92290D01*
X645410Y92410D01*
X645460Y92540D01*
X645490Y92680D01*
X645510Y92820D01*
X645520Y92980D01*
X645540Y93270D01*
X645580Y93400D01*
X645620Y93540D01*
X645680Y93660D01*
X645750Y93790D01*
X645840Y93910D01*
X645930Y94020D01*
X646040Y94130D01*
X646240Y94350D01*
X646320Y94460D01*
X646390Y94590D01*
X646450Y94720D01*
X646500Y94850D01*
X646530Y94990D01*
X646550Y95130D01*
X646560Y95270D01*
X646590Y95560D01*
X646620Y95700D01*
X646680Y95840D01*
X646740Y95980D01*
X646830Y96110D01*
X646930Y96250D01*
X647050Y96380D01*
X647180Y96520D01*
X647420Y96780D01*
X647520Y96910D01*
X647610Y97040D01*
X647680Y97180D01*
X647740Y97310D01*
X647780Y97450D01*
X647800Y97580D01*
X647810Y97710D01*
X647840Y97950D01*
X647880Y98090D01*
X647940Y98220D01*
X648010Y98360D01*
X648100Y98500D01*
X648200Y98640D01*
X648310Y98780D01*
X648440Y98910D01*
X648730Y99250D01*
X648840Y99410D01*
X648920Y99560D01*
X648980Y99730D01*
X649020Y99930D01*
X649040Y100150D01*
X649060Y100410D01*
Y100720D01*
X649080Y101280D01*
X649100Y101490D01*
X649130Y101670D01*
X649180Y101830D01*
X649250Y101970D01*
X649340Y102110D01*
X649450Y102230D01*
X649580Y102370D01*
X649790Y102590D01*
X649870Y102710D01*
X649950Y102830D01*
X650000Y102960D01*
X650050Y103100D01*
X650080Y103240D01*
X650100Y103380D01*
Y103530D01*
X650140Y103840D01*
X650180Y103990D01*
X650230Y104120D01*
X650290Y104250D01*
X650380Y104370D01*
X650480Y104490D01*
X650590Y104620D01*
X650730Y104740D01*
X651030Y105020D01*
X651140Y105150D01*
X651220Y105290D01*
X651280Y105440D01*
X651320Y105630D01*
X651340Y105860D01*
X651350Y106130D01*
Y106470D01*
X651370Y107050D01*
X651390Y107270D01*
X651430Y107460D01*
X651480Y107620D01*
X651550Y107770D01*
X651630Y107900D01*
X651740Y108030D01*
X651880Y108150D01*
X652080Y108370D01*
X652160Y108490D01*
X652230Y108610D01*
X652290Y108740D01*
X652340Y108860D01*
X652370Y108990D01*
X652390Y109130D01*
X652400Y109260D01*
X652430Y109520D01*
X652470Y109660D01*
X652520Y109790D01*
X652590Y109930D01*
X652670Y110060D01*
X652770Y110200D01*
X652890Y110330D01*
X653020Y110460D01*
X653280Y110740D01*
X653380Y110870D01*
X653460Y111010D01*
X653530Y111140D01*
X653580Y111280D01*
X653620Y111420D01*
X653640Y111560D01*
X653650Y111710D01*
X653680Y112010D01*
X653710Y112150D01*
X653760Y112290D01*
X653830Y112420D01*
X653920Y112550D01*
X654020Y112690D01*
X654140Y112820D01*
X654270Y112960D01*
X654570Y113280D01*
X654680Y113430D01*
X654760Y113580D01*
X654820Y113750D01*
X654860Y113930D01*
X654880Y114160D01*
X654890Y114420D01*
X654900Y114730D01*
X654910Y115290D01*
X654940Y115510D01*
X654970Y115690D01*
X655020Y115850D01*
X655090Y116000D01*
X655180Y116130D01*
X655290Y116260D01*
X655420Y116400D01*
X655660Y116660D01*
X655750Y116800D01*
X655820Y116940D01*
X655870Y117100D01*
X655900Y117290D01*
X655930Y117500D01*
X655940Y117760D01*
Y118060D01*
X655960Y118640D01*
X655980Y118870D01*
X656020Y119060D01*
X656080Y119220D01*
X656160Y119380D01*
X656270Y119530D01*
X656400Y119680D01*
X656570Y119850D01*
X656810Y120120D01*
X656910Y120250D01*
X657000Y120390D01*
X657070Y120530D01*
X657120Y120670D01*
X657160Y120810D01*
X657180Y120960D01*
X657190Y121100D01*
X657220Y121380D01*
X657260Y121520D01*
X657320Y121650D01*
X657380Y121790D01*
X657470Y121930D01*
X657570Y122060D01*
X657690Y122200D01*
X657820Y122330D01*
X658110Y122640D01*
X658220Y122790D01*
X658300Y122940D01*
X658360Y123110D01*
X658400Y123300D01*
X658430Y123520D01*
X658440Y123790D01*
Y124100D01*
X658460Y124650D01*
X658480Y124870D01*
X658520Y125060D01*
X658570Y125220D01*
X658630Y125360D01*
X658720Y125500D01*
X658830Y125630D01*
X658960Y125760D01*
X659160Y125980D01*
X659250Y126100D01*
X659320Y126220D01*
X659380Y126350D01*
X659420Y126490D01*
X659460Y126620D01*
X659480Y126760D01*
X659490Y126910D01*
X659510Y127200D01*
X659550Y127340D01*
X659600Y127480D01*
X659670Y127610D01*
X659750Y127750D01*
X659860Y127880D01*
X659970Y128020D01*
X660110Y128160D01*
X660360Y128420D01*
X660460Y128560D01*
X660540Y128690D01*
X660610Y128820D01*
X660670Y128960D01*
X660710Y129090D01*
X660730Y129220D01*
X660740Y129340D01*
X660770Y129600D01*
X660800Y129720D01*
X660850Y129850D01*
X660910Y129980D01*
X660980Y130100D01*
X661070Y130210D01*
X661160Y130320D01*
X661260Y130420D01*
X661500Y130690D01*
X661590Y130820D01*
X661650Y130970D01*
X661710Y131130D01*
X661740Y131330D01*
X661760Y131550D01*
X661780Y131830D01*
Y132150D01*
X661790Y132760D01*
X661820Y132990D01*
X661850Y133180D01*
X661910Y133330D01*
X661990Y133470D01*
X662100Y133600D01*
X662230Y133740D01*
X662400Y133880D01*
X662670Y134130D01*
X662770Y134260D01*
X662850Y134390D01*
X662910Y134520D01*
X662960Y134650D01*
X663000Y134800D01*
X663020Y134960D01*
X663030Y135130D01*
X663060Y135460D01*
X663100Y135610D01*
X663150Y135740D01*
X663210Y135870D01*
X663290Y136000D01*
X663390Y136120D01*
X663510Y136250D01*
X663660Y136380D01*
X663920Y136610D01*
X664020Y136730D01*
X664100Y136850D01*
X664170Y136970D01*
X664220Y137100D01*
X664250Y137230D01*
X664270Y137370D01*
X664280Y137520D01*
X664310Y137810D01*
X664340Y137940D01*
X664390Y138080D01*
X664450Y138210D01*
X664520Y138330D01*
X664600Y138450D01*
X664700Y138560D01*
X664800Y138670D01*
X665040Y138930D01*
X665130Y139070D01*
X665200Y139210D01*
X665250Y139370D01*
X665290Y139560D01*
X665310Y139780D01*
X665320Y140030D01*
Y140330D01*
X665340Y140910D01*
X665360Y141130D01*
X665410Y141320D01*
X665460Y141490D01*
X665550Y141640D01*
X665650Y141790D01*
X665780Y141940D01*
X665950Y142100D01*
X666200Y142370D01*
X666310Y142510D01*
X666390Y142640D01*
X666460Y142780D01*
X666510Y142920D01*
X666550Y143060D01*
X666570Y143200D01*
Y143350D01*
X666600Y143640D01*
X666640Y143790D01*
X666690Y143920D01*
X666760Y144060D01*
X666840Y144190D01*
X666940Y144330D01*
X667060Y144460D01*
X667200Y144600D01*
X667450Y144870D01*
X667550Y145000D01*
X667630Y145140D01*
X667700Y145270D01*
X667760Y145410D01*
X667790Y145540D01*
X667820Y145670D01*
Y145810D01*
X667850Y146070D01*
X667890Y146200D01*
X667930Y146330D01*
X667990Y146450D01*
X668060Y146570D01*
X668150Y146690D01*
X668240Y146800D01*
X668350Y146910D01*
X668590Y147160D01*
X668680Y147300D01*
X668740Y147440D01*
X668790Y147600D01*
X668830Y147790D01*
X668850Y148020D01*
X668860Y148280D01*
X668870Y148600D01*
X668880Y149210D01*
X668900Y149430D01*
X668940Y149620D01*
X669000Y149780D01*
X669080Y149920D01*
X669190Y150050D01*
X669320Y150180D01*
X669490Y150320D01*
X669750Y150580D01*
X669840Y150700D01*
X669930Y150830D01*
X669990Y150950D01*
X670040Y151090D01*
X670080Y151230D01*
X670110Y151380D01*
X670120Y151550D01*
X670140Y151850D01*
X670170Y151980D01*
X670210Y152110D01*
X670270Y152230D01*
X670340Y152340D01*
X670420Y152450D01*
X670520Y152560D01*
X670640Y152650D01*
X670850Y152850D01*
X670930Y152960D01*
X671000Y153070D01*
X671060Y153180D01*
X671100Y153310D01*
X671140Y153440D01*
X671150Y153580D01*
X671160Y153740D01*
X671190Y154040D01*
X671230Y154190D01*
X671280Y154330D01*
X671350Y154460D01*
X671430Y154600D01*
X671530Y154730D01*
X671650Y154870D01*
X671790Y155010D01*
X672080Y155320D01*
X672190Y155470D01*
X672270Y155620D01*
X672330Y155790D01*
X672370Y155980D01*
X672400Y156200D01*
X672410Y156460D01*
Y156780D01*
X672430Y157350D01*
X672450Y157570D01*
X672490Y157760D01*
X672550Y157930D01*
X672630Y158080D01*
X672740Y158230D01*
X672870Y158380D01*
X673040Y158540D01*
X673290Y158820D01*
X673390Y158950D01*
X673480Y159090D01*
X673550Y159220D01*
X673600Y159360D01*
X673630Y159500D01*
X673660Y159640D01*
Y159790D01*
X673690Y160080D01*
X673720Y160210D01*
X673770Y160350D01*
X673830Y160480D01*
X673900Y160600D01*
X673980Y160720D01*
X674080Y160830D01*
X674180Y160940D01*
X674430Y161200D01*
X674510Y161340D01*
X674580Y161480D01*
X674630Y161640D01*
X674670Y161830D01*
X674690Y162050D01*
X674700Y162300D01*
X674710Y162600D01*
X674720Y163180D01*
X674750Y163400D01*
X674790Y163590D01*
X674850Y163760D01*
X674930Y163910D01*
X675030Y164060D01*
X675170Y164210D01*
X675330Y164370D01*
X675590Y164650D01*
X675690Y164780D01*
X675770Y164920D01*
X675840Y165050D01*
X675890Y165190D01*
X675930Y165340D01*
X675950Y165490D01*
X675960Y165640D01*
X675980Y165940D01*
X676010Y166070D01*
X676060Y166190D01*
X676110Y166310D01*
X676180Y166420D01*
X676270Y166530D01*
X676370Y166630D01*
X676480Y166720D01*
X676680Y166920D01*
X676760Y167020D01*
X676830Y167130D01*
X676890Y167250D01*
X676940Y167360D01*
X676970Y167490D01*
X676990Y167610D01*
X677000Y167740D01*
X677030Y168010D01*
X677070Y168150D01*
X677120Y168280D01*
X677190Y168420D01*
X677280Y168550D01*
X677380Y168690D01*
X677490Y168820D01*
X677620Y168950D01*
X677930Y169270D01*
X678040Y169420D01*
X678120Y169580D01*
X678170Y169750D01*
X678210Y169950D01*
X678240Y170190D01*
X678250Y170480D01*
Y170820D01*
X678260Y171480D01*
X678280Y171710D01*
X678320Y171910D01*
X678370Y172070D01*
X678450Y172200D01*
X678560Y172330D01*
X678700Y172460D01*
X678870Y172590D01*
X679140Y172820D01*
X679240Y172940D01*
X679320Y173050D01*
X679390Y173170D01*
X679440Y173300D01*
X679470Y173430D01*
X679490Y173580D01*
X679500Y173740D01*
X679530Y174020D01*
X679560Y174160D01*
X679610Y174290D01*
X679670Y174420D01*
X679740Y174540D01*
X679820Y174660D01*
X679920Y174780D01*
X680020Y174880D01*
X680260Y175150D01*
X680350Y175280D01*
X680420Y175430D01*
X680470Y175590D01*
X680510Y175770D01*
X680530Y175990D01*
X680540Y176250D01*
Y176550D01*
X680560Y177130D01*
X680580Y177350D01*
X680630Y177540D01*
X680680Y177710D01*
X680770Y177870D01*
X680870Y178010D01*
X681000Y178170D01*
X681170Y178340D01*
X681420Y178610D01*
X681520Y178740D01*
X681600Y178880D01*
X681670Y179020D01*
X681720Y179160D01*
X681760Y179300D01*
X681790Y179440D01*
Y179590D01*
X681820Y179860D01*
X681860Y180000D01*
X681920Y180140D01*
X681990Y180280D01*
X682070Y180410D01*
X682170Y180550D01*
X682290Y180680D01*
X682420Y180820D01*
X682720Y181130D01*
X682820Y181280D01*
X682900Y181430D01*
X682960Y181600D01*
X683000Y181790D01*
X683030Y182010D01*
X683040Y182270D01*
Y182580D01*
X683060Y183140D01*
X683080Y183360D01*
X683120Y183540D01*
X683170Y183710D01*
X683240Y183850D01*
X683320Y183980D01*
X683430Y184120D01*
X683570Y184250D01*
X683770Y184470D01*
X683850Y184590D01*
X683920Y184710D01*
X683980Y184840D01*
X684030Y184970D01*
X684060Y185110D01*
X684080Y185250D01*
X684090Y185390D01*
X684120Y185690D01*
X684150Y185830D01*
X684200Y185970D01*
X684270Y186100D01*
X684360Y186240D01*
X684460Y186370D01*
X684580Y186510D01*
X684710Y186640D01*
X684960Y186910D01*
X685060Y187040D01*
X685150Y187180D01*
X685210Y187310D01*
X685270Y187440D01*
X685310Y187570D01*
X685330Y187700D01*
X685340Y187830D01*
X685370Y188080D01*
X685400Y188210D01*
X685450Y188340D01*
X685510Y188460D01*
X685590Y188590D01*
X685670Y188700D01*
X685760Y188810D01*
X685860Y188910D01*
X686100Y189180D01*
X686190Y189310D01*
X686260Y189450D01*
X686310Y189620D01*
X686340Y189810D01*
X686370Y190040D01*
X686380Y190310D01*
Y190640D01*
X686390Y191250D01*
X686420Y191480D01*
X686460Y191660D01*
X686510Y191820D01*
X686590Y191960D01*
X686700Y192090D01*
X686840Y192220D01*
X687010Y192370D01*
X687270Y192620D01*
X687370Y192750D01*
X687450Y192870D01*
X687510Y193000D01*
X687560Y193140D01*
X687600Y193290D01*
X687620Y193440D01*
X687630Y193620D01*
X687670Y193950D01*
X687700Y194090D01*
X687750Y194230D01*
X687810Y194360D01*
X687900Y194490D01*
X688000Y194610D01*
X688120Y194740D01*
X688260Y194860D01*
X688560Y195140D01*
X688670Y195270D01*
X688750Y195410D01*
X688810Y195570D01*
X688850Y195760D01*
X688870Y195980D01*
X688880Y196260D01*
Y196590D01*
X688900Y197190D01*
X688920Y197420D01*
X688960Y197610D01*
X689010Y197780D01*
X689070Y197920D01*
X689160Y198060D01*
X689270Y198190D01*
X689400Y198320D01*
X689650Y198580D01*
X689730Y198720D01*
X689800Y198860D01*
X689850Y199020D01*
X689890Y199210D01*
X689910Y199440D01*
X689920Y199710D01*
X689930Y200030D01*
X689940Y200630D01*
X689960Y200860D01*
X690000Y201050D01*
X690060Y201220D01*
X690140Y201370D01*
X690240Y201520D01*
X690380Y201670D01*
X690550Y201840D01*
X690790Y202090D01*
X690890Y202230D01*
X690970Y202360D01*
X691050Y202500D01*
X691100Y202630D01*
X691140Y202770D01*
X691170Y202900D01*
X691180Y203020D01*
X691210Y203270D01*
X691250Y203410D01*
X691310Y203540D01*
X691380Y203680D01*
X691460Y203820D01*
X691560Y203960D01*
X691680Y204100D01*
X691800Y204230D01*
X692040Y204500D01*
X692140Y204640D01*
X692230Y204780D01*
X692300Y204920D01*
X692350Y205060D01*
X692390Y205200D01*
X692420Y205330D01*
X692430Y205460D01*
X692460Y205690D01*
X692490Y205820D01*
X692540Y205940D01*
X692600Y206070D01*
X692670Y206190D01*
X692760Y206310D01*
X692850Y206420D01*
X692950Y206520D01*
X693190Y206790D01*
X693280Y206920D01*
X693350Y207070D01*
X693400Y207240D01*
X693430Y207440D01*
X693450Y207670D01*
X693470Y207940D01*
Y208270D01*
X693490Y208900D01*
X693520Y209140D01*
X693560Y209330D01*
X693620Y209490D01*
X693700Y209640D01*
X693800Y209770D01*
X693930Y209910D01*
X694090Y210060D01*
X694360Y210290D01*
X694460Y210410D01*
X694540Y210530D01*
X694610Y210650D01*
X694660Y210780D01*
X694690Y210920D01*
X694710Y211060D01*
X694720Y211200D01*
X694750Y211490D01*
X694780Y211630D01*
X694830Y211760D01*
X694890Y211890D01*
X694960Y212010D01*
X695040Y212130D01*
X695140Y212240D01*
X695240Y212350D01*
X695480Y212610D01*
X695570Y212750D01*
X695640Y212890D01*
X695690Y213050D01*
X695720Y213240D01*
X695750Y213460D01*
X695760Y213710D01*
Y214010D01*
X695780Y214590D01*
X695800Y214810D01*
X695850Y215000D01*
X695900Y215170D01*
X695990Y215320D01*
X696090Y215470D01*
X696220Y215620D01*
X696390Y215780D01*
X696640Y216060D01*
X696750Y216190D01*
X696830Y216320D01*
X696900Y216460D01*
X696950Y216600D01*
X696990Y216740D01*
X697010Y216880D01*
Y217030D01*
X697040Y217330D01*
X697080Y217470D01*
X697130Y217600D01*
X697200Y217740D01*
X697280Y217870D01*
X697380Y218010D01*
X697500Y218140D01*
X697640Y218280D01*
X697950Y218610D01*
X698060Y218770D01*
X698140Y218940D01*
X698200Y219140D01*
X698230Y219390D01*
X698250Y219700D01*
X698260Y220090D01*
Y220570D01*
Y222260D01*
X697160Y223340D01*
X696050Y224420D01*
X665090D01*
X634110D01*
X633510Y223800D01*
G37*
G36*
G01X410860D02*
X410590Y223540D01*
X410450Y223440D01*
X410320Y223360D01*
X410180Y223290D01*
X410040Y223240D01*
X409900Y223200D01*
X409760Y223180D01*
X409610Y223170D01*
X409250Y223110D01*
X409060Y223010D01*
X408830Y222870D01*
X408560Y222660D01*
X408240Y222380D01*
X407850Y222020D01*
X407390Y221570D01*
X406840Y221030D01*
X405850Y220020D01*
X405500Y219640D01*
X405220Y219320D01*
X405010Y219050D01*
X404870Y218820D01*
X404770Y218610D01*
X404720Y218430D01*
X404710Y218260D01*
X404680Y217980D01*
X404640Y217840D01*
X404580Y217700D01*
X404520Y217570D01*
X404430Y217440D01*
X404330Y217300D01*
X404210Y217170D01*
X404080Y217030D01*
X403460Y216430D01*
Y212930D01*
Y209430D01*
X404600Y208310D01*
X405090Y207810D01*
X405280Y207590D01*
X405430Y207400D01*
X405550Y207220D01*
X405640Y207050D01*
X405700Y206890D01*
X405740Y206740D01*
X405750Y206580D01*
X406290Y205600D01*
X406870Y204890D01*
X407580Y204120D01*
X408350Y203350D01*
X409120Y202650D01*
X409830Y202070D01*
X410420Y201670D01*
X410820Y201530D01*
X411300Y201320D01*
X411700Y201010D01*
X412260Y200540D01*
X412990Y199860D01*
X413940Y198950D01*
X415130Y197780D01*
X416600Y196330D01*
X418390Y194550D01*
X421610Y191360D01*
X422800Y190190D01*
X423750Y189280D01*
X424490Y188600D01*
X425050Y188110D01*
X425460Y187800D01*
X425740Y187630D01*
X425930Y187580D01*
X426410Y187360D01*
X426820Y187040D01*
X427390Y186550D01*
X428140Y185850D01*
X429110Y184930D01*
X430320Y183750D01*
X431800Y182280D01*
X433580Y180500D01*
X436990Y177120D01*
X438220Y175920D01*
X439170Y175010D01*
X439900Y174340D01*
X440430Y173890D01*
X440820Y173610D01*
X441100Y173470D01*
X441300Y173430D01*
X441800Y173230D01*
X442210Y172930D01*
X442780Y172440D01*
X443550Y171730D01*
X444570Y170750D01*
X445880Y169470D01*
X447520Y167840D01*
X449530Y165830D01*
X453040Y162340D01*
X454340Y161080D01*
X455370Y160080D01*
X456170Y159340D01*
X456770Y158810D01*
X457210Y158470D01*
X457510Y158290D01*
X457710Y158230D01*
X459190Y157180D01*
X460440Y156050D01*
X461850Y154700D01*
X463300Y153250D01*
X464650Y151840D01*
X465780Y150590D01*
X466550Y149640D01*
X466840Y149120D01*
X466890Y148830D01*
X466960Y148680D01*
X467050Y148510D01*
X467170Y148320D01*
X467330Y148120D01*
X467510Y147910D01*
X467730Y147670D01*
X467990Y147410D01*
X468480Y146890D01*
X468670Y146670D01*
X468820Y146470D01*
X468930Y146280D01*
X469020Y146110D01*
X469080Y145950D01*
X469120Y145780D01*
X469130Y145620D01*
X469160Y145350D01*
X469190Y145220D01*
X469240Y145090D01*
X469300Y144960D01*
X469370Y144840D01*
X469450Y144720D01*
X469550Y144600D01*
X469650Y144500D01*
X469850Y144280D01*
X469930Y144160D01*
X470000Y144040D01*
X470060Y143910D01*
X470110Y143790D01*
X470150Y143660D01*
X470170Y143530D01*
Y143410D01*
X470220Y143110D01*
X470290Y142940D01*
X470380Y142770D01*
X470510Y142580D01*
X470680Y142380D01*
X470880Y142150D01*
X471130Y141890D01*
X471430Y141600D01*
X471980Y141050D01*
X472190Y140820D01*
X472350Y140610D01*
X472480Y140420D01*
X472570Y140250D01*
X472630Y140090D01*
X472670Y139930D01*
X472680Y139770D01*
X472700Y139510D01*
X472740Y139380D01*
X472780Y139250D01*
X472840Y139130D01*
X472910Y139000D01*
X473000Y138890D01*
X473090Y138770D01*
X473200Y138670D01*
X473400Y138450D01*
X473480Y138330D01*
X473550Y138210D01*
X473610Y138080D01*
X473660Y137940D01*
X473690Y137810D01*
X473710Y137670D01*
X473720Y137520D01*
X473750Y137230D01*
X473780Y137100D01*
X473830Y136970D01*
X473900Y136850D01*
X473980Y136730D01*
X474080Y136610D01*
X474200Y136500D01*
X474340Y136380D01*
X474600Y136130D01*
X474700Y136010D01*
X474780Y135890D01*
X474840Y135760D01*
X474900Y135630D01*
X474930Y135490D01*
X474960Y135350D01*
X474970Y135190D01*
X475000Y134890D01*
X475040Y134740D01*
X475090Y134600D01*
X475160Y134460D01*
X475250Y134310D01*
X475350Y134170D01*
X475460Y134020D01*
X475600Y133880D01*
X475910Y133530D01*
X476020Y133360D01*
X476100Y133180D01*
X476150Y132970D01*
X476190Y132720D01*
X476210Y132400D01*
X476220Y132000D01*
Y131510D01*
X476230Y130650D01*
X476250Y130340D01*
X476280Y130090D01*
X476330Y129890D01*
X476390Y129720D01*
X476480Y129580D01*
X476600Y129440D01*
X476740Y129300D01*
X477000Y129020D01*
X477090Y128870D01*
X477160Y128700D01*
X477200Y128490D01*
X477230Y128230D01*
X477250Y127910D01*
X477260Y127510D01*
Y127010D01*
X477270Y126080D01*
X477290Y125750D01*
X477330Y125490D01*
X477380Y125290D01*
X477460Y125110D01*
X477570Y124960D01*
X477710Y124800D01*
X477890Y124620D01*
X478510Y124010D01*
Y114110D01*
Y104180D01*
X477890Y103570D01*
X477580Y103230D01*
X477470Y103070D01*
X477390Y102900D01*
X477340Y102690D01*
X477310Y102430D01*
X477280Y102100D01*
X477270Y101690D01*
X477260Y101180D01*
X477250Y100290D01*
X477230Y99970D01*
X477200Y99710D01*
X477160Y99500D01*
X477090Y99330D01*
X477000Y99190D01*
X476890Y99050D01*
X476740Y98910D01*
X476500Y98650D01*
X476410Y98510D01*
X476340Y98370D01*
X476290Y98200D01*
X476260Y98010D01*
X476240Y97780D01*
X476220Y97520D01*
Y97210D01*
X476210Y96610D01*
X476180Y96390D01*
X476150Y96190D01*
X476090Y96030D01*
X476010Y95880D01*
X475900Y95730D01*
X475770Y95580D01*
X475600Y95420D01*
X475290Y95090D01*
X475180Y94940D01*
X475100Y94790D01*
X475050Y94620D01*
X475010Y94420D01*
X474980Y94190D01*
X474970Y93910D01*
Y93580D01*
X474950Y92980D01*
X474920Y92750D01*
X474880Y92550D01*
X474820Y92380D01*
X474740Y92230D01*
X474640Y92080D01*
X474510Y91920D01*
X474340Y91750D01*
X474110Y91490D01*
X474020Y91360D01*
X473930Y91220D01*
X473860Y91090D01*
X473800Y90950D01*
X473750Y90830D01*
X473730Y90700D01*
X473720Y90590D01*
X473690Y90360D01*
X473650Y90240D01*
X473600Y90120D01*
X473540Y90000D01*
X473470Y89880D01*
X473390Y89760D01*
X473300Y89650D01*
X473200Y89550D01*
X473000Y89330D01*
X472910Y89210D01*
X472840Y89080D01*
X472780Y88960D01*
X472740Y88820D01*
X472700Y88690D01*
X472680Y88550D01*
Y88400D01*
X472650Y88110D01*
X472610Y87970D01*
X472560Y87830D01*
X472490Y87690D01*
X472410Y87560D01*
X472310Y87430D01*
X472190Y87290D01*
X472050Y87150D01*
X471810Y86900D01*
X471710Y86760D01*
X471630Y86630D01*
X471560Y86490D01*
X471500Y86360D01*
X471460Y86220D01*
X471430Y86090D01*
Y85970D01*
X471390Y85720D01*
X471350Y85580D01*
X471300Y85450D01*
X471220Y85310D01*
X471140Y85170D01*
X471040Y85030D01*
X470930Y84890D01*
X470800Y84760D01*
X470560Y84490D01*
X470460Y84350D01*
X470380Y84210D01*
X470310Y84070D01*
X470250Y83930D01*
X470210Y83800D01*
X470180Y83670D01*
X470170Y83550D01*
X470130Y83260D01*
X470060Y83110D01*
X469970Y82940D01*
X469850Y82760D01*
X469700Y82570D01*
X469510Y82350D01*
X469290Y82110D01*
X469030Y81850D01*
X468520Y81330D01*
X468330Y81110D01*
X468180Y80910D01*
X468060Y80730D01*
X467980Y80560D01*
X467920Y80400D01*
X467890Y80240D01*
X467880Y80080D01*
X467820Y79740D01*
X467740Y79550D01*
X467620Y79350D01*
X467440Y79110D01*
X467210Y78840D01*
X466910Y78520D01*
X466550Y78140D01*
X466110Y77700D01*
X465330Y76910D01*
X465040Y76590D01*
X464800Y76320D01*
X464620Y76080D01*
X464490Y75870D01*
X464400Y75690D01*
X464350Y75530D01*
X464340Y75370D01*
X464240Y75010D01*
X464090Y74770D01*
X463880Y74480D01*
X463570Y74120D01*
X463180Y73680D01*
X462670Y73150D01*
X462050Y72520D01*
X461290Y71770D01*
X459900Y70390D01*
X459370Y69880D01*
X458930Y69480D01*
X458570Y69180D01*
X458280Y68970D01*
X458040Y68830D01*
X457850Y68760D01*
X457690Y68730D01*
X457360Y68670D01*
X457170Y68580D01*
X456970Y68450D01*
X456730Y68270D01*
X456460Y68040D01*
X456150Y67750D01*
X455780Y67390D01*
X455350Y66960D01*
X454530Y66140D01*
X454220Y65850D01*
X453950Y65620D01*
X453710Y65450D01*
X453510Y65320D01*
X453330Y65250D01*
X453150Y65210D01*
X452970Y65190D01*
X452650Y65150D01*
X452490Y65100D01*
X452320Y65010D01*
X452150Y64900D01*
X451950Y64740D01*
X451730Y64550D01*
X451480Y64320D01*
X451200Y64050D01*
X450670Y63540D01*
X450450Y63350D01*
X450260Y63200D01*
X450080Y63090D01*
X449910Y63000D01*
X449740Y62950D01*
X449580Y62910D01*
X449410Y62900D01*
X449110Y62880D01*
X448980Y62840D01*
X448860Y62790D01*
X448740Y62730D01*
X448630Y62650D01*
X448510Y62540D01*
X448400Y62420D01*
X448280Y62280D01*
X448050Y62020D01*
X447940Y61910D01*
X447830Y61830D01*
X447710Y61770D01*
X447580Y61720D01*
X447450Y61680D01*
X447310Y61660D01*
X447160D01*
X446830Y61620D01*
X446670Y61570D01*
X446510Y61490D01*
X446340Y61390D01*
X446160Y61260D01*
X445970Y61090D01*
X445750Y60890D01*
X445510Y60660D01*
X444920Y59960D01*
X444720Y59630D01*
X444590Y59320D01*
X444520Y59030D01*
Y58760D01*
X444580Y58510D01*
X444710Y58270D01*
X444910Y58050D01*
X445760Y57880D01*
X446970Y57820D01*
X448970Y57770D01*
X451980Y57740D01*
X456200Y57720D01*
X461840Y57710D01*
X469110Y57700D01*
X478220D01*
X511140Y57680D01*
X511600Y58220D01*
X511810Y58420D01*
X511920Y58500D01*
X512040Y58580D01*
X512160Y58630D01*
X512280Y58680D01*
X512410Y58710D01*
X512550Y58730D01*
X512690Y58740D01*
X513510Y59110D01*
X514040Y59520D01*
X514610Y60010D01*
X515170Y60560D01*
X515670Y61120D01*
X516080Y61650D01*
X516360Y62110D01*
X516460Y62470D01*
X516490Y62710D01*
X516530Y62840D01*
X516590Y62980D01*
X516660Y63110D01*
X516750Y63240D01*
X516850Y63380D01*
X516960Y63510D01*
X517090Y63630D01*
X517340Y63910D01*
X517440Y64040D01*
X517530Y64170D01*
X517590Y64310D01*
X517650Y64450D01*
X517680Y64590D01*
X517700Y64730D01*
X517710Y64880D01*
X517740Y65180D01*
X517780Y65320D01*
X517830Y65450D01*
X517900Y65590D01*
X517980Y65720D01*
X518080Y65860D01*
X518200Y65990D01*
X518340Y66130D01*
X518580Y66400D01*
X518680Y66530D01*
X518770Y66670D01*
X518840Y66800D01*
X518890Y66940D01*
X518930Y67070D01*
X518950Y67210D01*
X518960Y67340D01*
X518990Y67600D01*
X519020Y67730D01*
X519070Y67860D01*
X519130Y67980D01*
X519200Y68100D01*
X519280Y68220D01*
X519380Y68330D01*
X519480Y68440D01*
X519730Y68700D01*
X519810Y68840D01*
X519880Y68980D01*
X519930Y69140D01*
X519970Y69340D01*
X519990Y69560D01*
X520000Y69830D01*
Y70150D01*
X520020Y70750D01*
X520040Y70980D01*
X520080Y71170D01*
X520140Y71340D01*
X520220Y71490D01*
X520320Y71640D01*
X520460Y71790D01*
X520630Y71960D01*
X520870Y72220D01*
X520970Y72350D01*
X521050Y72480D01*
X521120Y72620D01*
X521180Y72750D01*
X521220Y72890D01*
X521250Y73020D01*
X521260Y73150D01*
X521290Y73390D01*
X521330Y73530D01*
X521390Y73660D01*
X521460Y73800D01*
X521540Y73940D01*
X521640Y74080D01*
X521750Y74220D01*
X521880Y74350D01*
X522180Y74690D01*
X522280Y74840D01*
X522360Y75000D01*
X522420Y75170D01*
X522460Y75370D01*
X522490Y75590D01*
X522500Y75850D01*
X522510Y76160D01*
X522520Y76720D01*
X522540Y76930D01*
X522580Y77110D01*
X522630Y77270D01*
X522700Y77410D01*
X522790Y77540D01*
X522890Y77670D01*
X523030Y77810D01*
X523230Y78020D01*
X523310Y78130D01*
X523380Y78260D01*
X523440Y78380D01*
X523490Y78510D01*
X523520Y78640D01*
X523540Y78760D01*
X523550Y78890D01*
X523580Y79160D01*
X523620Y79290D01*
X523670Y79430D01*
X523740Y79560D01*
X523830Y79700D01*
X523930Y79830D01*
X524040Y79960D01*
X524170Y80100D01*
X524420Y80360D01*
X524520Y80500D01*
X524610Y80640D01*
X524680Y80780D01*
X524730Y80920D01*
X524770Y81060D01*
X524790Y81200D01*
X524800Y81350D01*
X524830Y81610D01*
X524860Y81740D01*
X524910Y81870D01*
X524970Y82000D01*
X525040Y82130D01*
X525120Y82250D01*
X525220Y82360D01*
X525320Y82470D01*
X525560Y82730D01*
X525650Y82870D01*
X525720Y83010D01*
X525770Y83170D01*
X525800Y83360D01*
X525830Y83580D01*
X525840Y83830D01*
Y84130D01*
X525860Y84710D01*
X525880Y84930D01*
X525920Y85120D01*
X525980Y85290D01*
X526060Y85440D01*
X526170Y85590D01*
X526300Y85740D01*
X526470Y85900D01*
X526720Y86180D01*
X526820Y86310D01*
X526910Y86450D01*
X526980Y86580D01*
X527030Y86720D01*
X527060Y86860D01*
X527090Y87000D01*
Y87150D01*
X527120Y87450D01*
X527160Y87590D01*
X527210Y87720D01*
X527280Y87860D01*
X527360Y87990D01*
X527460Y88130D01*
X527580Y88260D01*
X527720Y88400D01*
X528020Y88720D01*
X528120Y88860D01*
X528200Y89020D01*
X528260Y89180D01*
X528300Y89370D01*
X528330Y89600D01*
X528340Y89860D01*
Y90170D01*
X528360Y90730D01*
X528380Y90940D01*
X528420Y91130D01*
X528470Y91290D01*
X528540Y91440D01*
X528620Y91570D01*
X528730Y91700D01*
X528870Y91840D01*
X529070Y92060D01*
X529150Y92170D01*
X529220Y92300D01*
X529280Y92430D01*
X529330Y92560D01*
X529360Y92700D01*
X529380Y92840D01*
X529390Y92980D01*
X529410Y93270D01*
X529450Y93400D01*
X529500Y93530D01*
X529560Y93650D01*
X529650Y93770D01*
X529750Y93890D01*
X529870Y94010D01*
X530010Y94130D01*
X530270Y94370D01*
X530360Y94490D01*
X530450Y94620D01*
X530510Y94740D01*
X530560Y94870D01*
X530600Y95010D01*
X530620Y95160D01*
X530640Y95310D01*
X530670Y95610D01*
X530710Y95760D01*
X530760Y95900D01*
X530830Y96050D01*
X530920Y96190D01*
X531020Y96330D01*
X531130Y96480D01*
X531260Y96620D01*
X531560Y96960D01*
X531670Y97120D01*
X531750Y97270D01*
X531810Y97440D01*
X531850Y97640D01*
X531870Y97860D01*
X531880Y98120D01*
X531890Y98430D01*
X531900Y98990D01*
X531930Y99200D01*
X531960Y99390D01*
X532010Y99540D01*
X532080Y99680D01*
X532170Y99820D01*
X532280Y99940D01*
X532410Y100080D01*
X532600Y100290D01*
X532680Y100410D01*
X532760Y100530D01*
X532820Y100650D01*
X532870Y100780D01*
X532900Y100910D01*
X532920Y101030D01*
X532930Y101160D01*
X532960Y101420D01*
X533000Y101550D01*
X533050Y101680D01*
X533120Y101810D01*
X533210Y101950D01*
X533310Y102080D01*
X533420Y102210D01*
X533560Y102350D01*
X533860Y102670D01*
X533970Y102820D01*
X534050Y102970D01*
X534110Y103140D01*
X534140Y103330D01*
X534170Y103560D01*
X534180Y103830D01*
Y104160D01*
X534200Y104740D01*
X534220Y104970D01*
X534250Y105160D01*
X534310Y105320D01*
X534370Y105470D01*
X534460Y105600D01*
X534570Y105730D01*
X534700Y105860D01*
X534900Y106080D01*
X534990Y106200D01*
X535060Y106320D01*
X535120Y106450D01*
X535160Y106580D01*
X535200Y106700D01*
X535220Y106840D01*
Y106970D01*
X535260Y107230D01*
X535290Y107370D01*
X535350Y107500D01*
X535420Y107640D01*
X535500Y107770D01*
X535600Y107910D01*
X535720Y108040D01*
X535850Y108170D01*
X536100Y108440D01*
X536200Y108580D01*
X536280Y108710D01*
X536350Y108850D01*
X536410Y108990D01*
X536440Y109130D01*
X536470Y109260D01*
X536480Y109400D01*
X536510Y109690D01*
X536540Y109830D01*
X536600Y109970D01*
X536670Y110110D01*
X536750Y110250D01*
X536850Y110380D01*
X536970Y110520D01*
X537100Y110650D01*
X537400Y110980D01*
X537500Y111120D01*
X537580Y111280D01*
X537640Y111450D01*
X537680Y111640D01*
X537710Y111860D01*
X537720Y112120D01*
X537730Y112440D01*
X537740Y113000D01*
X537760Y113220D01*
X537800Y113400D01*
X537850Y113560D01*
X537920Y113710D01*
X538000Y113840D01*
X538110Y113970D01*
X538250Y114110D01*
X538450Y114330D01*
X538530Y114450D01*
X538600Y114570D01*
X538660Y114700D01*
X538710Y114830D01*
X538740Y114970D01*
X538760Y115110D01*
X538770Y115250D01*
X538790Y115560D01*
X538830Y115690D01*
X538880Y115820D01*
X538940Y115940D01*
X539030Y116050D01*
X539130Y116170D01*
X539250Y116280D01*
X539390Y116400D01*
X539710Y116660D01*
X539820Y116790D01*
X539900Y116920D01*
X539950Y117080D01*
X539990Y117280D01*
X540010Y117510D01*
X540020Y117810D01*
Y118170D01*
X540030Y118790D01*
X540060Y119020D01*
X540090Y119220D01*
X540140Y119390D01*
X540210Y119540D01*
X540300Y119670D01*
X540410Y119800D01*
X540540Y119930D01*
X540730Y120150D01*
X540810Y120270D01*
X540890Y120390D01*
X540950Y120520D01*
X541000Y120640D01*
X541030Y120770D01*
X541050Y120900D01*
X541060Y121020D01*
X541090Y121270D01*
X541130Y121400D01*
X541190Y121530D01*
X541260Y121650D01*
X541340Y121780D01*
X541440Y121910D01*
X541560Y122040D01*
X541690Y122160D01*
X541990Y122460D01*
X542100Y122600D01*
X542180Y122750D01*
X542240Y122910D01*
X542280Y123110D01*
X542300Y123350D01*
X542310Y123640D01*
Y123990D01*
X542330Y124630D01*
X542350Y124860D01*
X542390Y125050D01*
X542450Y125210D01*
X542530Y125350D01*
X542630Y125490D01*
X542770Y125620D01*
X542940Y125760D01*
X543180Y126010D01*
X543280Y126130D01*
X543360Y126250D01*
X543430Y126380D01*
X543490Y126510D01*
X543520Y126640D01*
X543550Y126780D01*
X543560Y126930D01*
X543590Y127190D01*
X543620Y127330D01*
X543670Y127460D01*
X543730Y127590D01*
X543800Y127710D01*
X543880Y127830D01*
X543980Y127940D01*
X544090Y128050D01*
X544330Y128320D01*
X544410Y128450D01*
X544480Y128600D01*
X544530Y128770D01*
X544570Y128960D01*
X544590Y129200D01*
X544600Y129480D01*
X544610Y129820D01*
X544620Y130450D01*
X544640Y130690D01*
X544680Y130880D01*
X544740Y131040D01*
X544820Y131180D01*
X544930Y131310D01*
X545060Y131450D01*
X545230Y131590D01*
X545480Y131840D01*
X545570Y131960D01*
X545660Y132080D01*
X545730Y132200D01*
X545780Y132330D01*
X545820Y132470D01*
X545840Y132610D01*
X545860Y132760D01*
X545890Y133030D01*
X545930Y133170D01*
X545980Y133310D01*
X546050Y133450D01*
X546140Y133580D01*
X546240Y133720D01*
X546350Y133850D01*
X546480Y133980D01*
X546790Y134310D01*
X546900Y134450D01*
X546980Y134610D01*
X547030Y134780D01*
X547070Y134970D01*
X547090Y135200D01*
X547110Y135480D01*
Y135820D01*
X547120Y136410D01*
X547140Y136640D01*
X547170Y136820D01*
X547220Y136980D01*
X547290Y137110D01*
X547380Y137230D01*
X547490Y137350D01*
X547630Y137460D01*
X547840Y137660D01*
X547920Y137760D01*
X547990Y137870D01*
X548050Y137990D01*
X548090Y138110D01*
X548130Y138250D01*
X548140Y138390D01*
X548150Y138540D01*
X548180Y138850D01*
X548220Y138990D01*
X548270Y139130D01*
X548340Y139270D01*
X548420Y139400D01*
X548520Y139540D01*
X548640Y139670D01*
X548780Y139810D01*
X549020Y140080D01*
X549120Y140210D01*
X549210Y140350D01*
X549280Y140480D01*
X549330Y140610D01*
X549370Y140740D01*
X549390Y140870D01*
X549400Y141000D01*
X549430Y141250D01*
X549470Y141380D01*
X549520Y141510D01*
X549580Y141630D01*
X549650Y141750D01*
X549730Y141870D01*
X549820Y141980D01*
X549920Y142080D01*
X550170Y142340D01*
X550250Y142480D01*
X550320Y142620D01*
X550370Y142790D01*
X550410Y142980D01*
X550430Y143210D01*
X550440Y143480D01*
Y143810D01*
X550460Y144420D01*
X550480Y144650D01*
X550520Y144850D01*
X550580Y145020D01*
X550660Y145170D01*
X550760Y145320D01*
X550900Y145470D01*
X551070Y145640D01*
X551320Y145910D01*
X551420Y146040D01*
X551500Y146180D01*
X551570Y146310D01*
X551630Y146450D01*
X551660Y146590D01*
X551690Y146730D01*
X551700Y146870D01*
X551730Y147160D01*
X551770Y147290D01*
X551830Y147420D01*
X551890Y147540D01*
X551980Y147670D01*
X552080Y147790D01*
X552190Y147910D01*
X552320Y148030D01*
X552630Y148310D01*
X552730Y148440D01*
X552810Y148580D01*
X552870Y148750D01*
X552910Y148940D01*
X552930Y149180D01*
X552940Y149470D01*
X552950Y149820D01*
X552960Y150460D01*
X552980Y150700D01*
X553010Y150890D01*
X553060Y151050D01*
X553130Y151180D01*
X553220Y151300D01*
X553330Y151420D01*
X553470Y151530D01*
X553680Y151720D01*
X553760Y151830D01*
X553830Y151940D01*
X553890Y152050D01*
X553930Y152170D01*
X553960Y152290D01*
X553980Y152420D01*
X553990Y152550D01*
X554020Y152830D01*
X554060Y152970D01*
X554110Y153100D01*
X554180Y153240D01*
X554270Y153380D01*
X554370Y153510D01*
X554480Y153650D01*
X554610Y153780D01*
X554910Y154100D01*
X555010Y154250D01*
X555090Y154410D01*
X555150Y154580D01*
X555190Y154770D01*
X555210Y155000D01*
X555230Y155280D01*
X555240Y155610D01*
X555250Y156210D01*
X555280Y156450D01*
X555310Y156640D01*
X555370Y156810D01*
X555450Y156970D01*
X555560Y157120D01*
X555700Y157270D01*
X555860Y157440D01*
X556100Y157700D01*
X556200Y157830D01*
X556290Y157960D01*
X556360Y158090D01*
X556420Y158220D01*
X556460Y158350D01*
X556480Y158480D01*
X556490Y158610D01*
X556520Y158850D01*
X556560Y158980D01*
X556600Y159110D01*
X556670Y159230D01*
X556740Y159360D01*
X556820Y159480D01*
X556910Y159590D01*
X557010Y159690D01*
X557210Y159910D01*
X557290Y160030D01*
X557370Y160150D01*
X557430Y160280D01*
X557470Y160410D01*
X557510Y160550D01*
X557530Y160690D01*
Y160830D01*
X557560Y161130D01*
X557600Y161270D01*
X557650Y161410D01*
X557720Y161540D01*
X557800Y161680D01*
X557900Y161810D01*
X558020Y161950D01*
X558160Y162080D01*
X558460Y162400D01*
X558560Y162550D01*
X558640Y162700D01*
X558700Y162870D01*
X558740Y163060D01*
X558770Y163280D01*
X558780Y163540D01*
Y163850D01*
X558800Y164410D01*
X558820Y164630D01*
X558860Y164810D01*
X558910Y164970D01*
X558980Y165120D01*
X559060Y165250D01*
X559170Y165380D01*
X559300Y165520D01*
X559510Y165740D01*
X559590Y165860D01*
X559660Y165980D01*
X559720Y166110D01*
X559770Y166240D01*
X559800Y166380D01*
X559820Y166520D01*
X559830Y166660D01*
X559850Y166950D01*
X559890Y167080D01*
X559940Y167210D01*
X560000Y167330D01*
X560090Y167450D01*
X560190Y167570D01*
X560310Y167690D01*
X560450Y167810D01*
X560750Y168090D01*
X560850Y168230D01*
X560930Y168370D01*
X560990Y168530D01*
X561030Y168720D01*
X561050Y168950D01*
X561070Y169230D01*
X561080Y169580D01*
X561090Y170250D01*
X561120Y170500D01*
X561180Y170720D01*
X561280Y170920D01*
X561430Y171130D01*
X561630Y171360D01*
X561890Y171630D01*
X562220Y171970D01*
X562820Y172570D01*
X563020Y172800D01*
X563170Y173010D01*
X563260Y173200D01*
X563320Y173410D01*
X563360Y173640D01*
X563370Y173920D01*
Y174260D01*
X563390Y174830D01*
X563410Y175060D01*
X563450Y175250D01*
X563510Y175410D01*
X563590Y175560D01*
X563700Y175710D01*
X563830Y175860D01*
X564000Y176030D01*
X564300Y176340D01*
X564410Y176490D01*
X564490Y176640D01*
X564550Y176810D01*
X564580Y177000D01*
X564610Y177230D01*
X564620Y177510D01*
Y177840D01*
X564640Y178430D01*
X564660Y178650D01*
X564700Y178850D01*
X564760Y179020D01*
X564840Y179180D01*
X564950Y179330D01*
X565080Y179490D01*
X565250Y179670D01*
X565490Y179940D01*
X565590Y180080D01*
X565670Y180220D01*
X565740Y180360D01*
X565800Y180500D01*
X565840Y180640D01*
X565860Y180770D01*
X565870Y180900D01*
X565900Y181130D01*
X565940Y181260D01*
X565990Y181380D01*
X566050Y181510D01*
X566120Y181630D01*
X566200Y181750D01*
X566290Y181860D01*
X566390Y181960D01*
X566590Y182180D01*
X566680Y182300D01*
X566750Y182430D01*
X566810Y182560D01*
X566850Y182690D01*
X566890Y182820D01*
X566910Y182950D01*
Y183080D01*
X566950Y183370D01*
X566980Y183510D01*
X567040Y183650D01*
X567110Y183790D01*
X567190Y183930D01*
X567290Y184070D01*
X567410Y184200D01*
X567540Y184330D01*
X567840Y184660D01*
X567940Y184810D01*
X568020Y184960D01*
X568080Y185130D01*
X568120Y185320D01*
X568150Y185540D01*
X568160Y185810D01*
X568170Y186120D01*
X568180Y186680D01*
X568200Y186900D01*
X568240Y187080D01*
X568290Y187240D01*
X568360Y187390D01*
X568440Y187520D01*
X568550Y187650D01*
X568690Y187790D01*
X568890Y188010D01*
X568970Y188130D01*
X569040Y188250D01*
X569100Y188380D01*
X569150Y188510D01*
X569180Y188650D01*
X569200Y188790D01*
X569210Y188930D01*
X569230Y189220D01*
X569270Y189350D01*
X569320Y189480D01*
X569380Y189610D01*
X569470Y189730D01*
X569570Y189840D01*
X569690Y189960D01*
X569830Y190080D01*
X570080Y190320D01*
X570180Y190440D01*
X570260Y190570D01*
X570330Y190690D01*
X570380Y190820D01*
X570420Y190950D01*
X570450Y191090D01*
X570460Y191240D01*
X570490Y191520D01*
X570530Y191660D01*
X570580Y191800D01*
X570650Y191930D01*
X570740Y192070D01*
X570840Y192200D01*
X570950Y192340D01*
X571080Y192470D01*
X571390Y192790D01*
X571500Y192940D01*
X571580Y193090D01*
X571630Y193260D01*
X571670Y193450D01*
X571700Y193680D01*
X571710Y193950D01*
Y194280D01*
X571730Y194870D01*
X571750Y195090D01*
X571780Y195280D01*
X571830Y195450D01*
X571900Y195590D01*
X571990Y195730D01*
X572100Y195850D01*
X572230Y195990D01*
X572430Y196210D01*
X572510Y196330D01*
X572590Y196450D01*
X572650Y196570D01*
X572690Y196700D01*
X572730Y196830D01*
X572750Y196960D01*
Y197090D01*
X572780Y197360D01*
X572820Y197490D01*
X572880Y197630D01*
X572950Y197760D01*
X573030Y197900D01*
X573130Y198030D01*
X573250Y198170D01*
X573380Y198300D01*
X573680Y198620D01*
X573790Y198770D01*
X573870Y198920D01*
X573930Y199090D01*
X573970Y199280D01*
X573990Y199510D01*
X574000Y199780D01*
Y200110D01*
X574020Y200700D01*
X574040Y200920D01*
X574080Y201110D01*
X574130Y201280D01*
X574200Y201420D01*
X574280Y201550D01*
X574390Y201680D01*
X574520Y201820D01*
X574730Y202040D01*
X574810Y202150D01*
X574880Y202270D01*
X574940Y202400D01*
X574990Y202530D01*
X575020Y202660D01*
X575040Y202790D01*
X575050Y202920D01*
X575080Y203190D01*
X575120Y203320D01*
X575170Y203460D01*
X575240Y203590D01*
X575320Y203730D01*
X575420Y203860D01*
X575540Y203990D01*
X575670Y204130D01*
X575970Y204440D01*
X576070Y204590D01*
X576160Y204740D01*
X576210Y204910D01*
X576260Y205100D01*
X576280Y205320D01*
X576290Y205580D01*
X576300Y205900D01*
X576310Y206470D01*
X576340Y206690D01*
X576380Y206880D01*
X576440Y207050D01*
X576520Y207200D01*
X576620Y207350D01*
X576760Y207500D01*
X576920Y207670D01*
X577180Y207940D01*
X577280Y208070D01*
X577360Y208210D01*
X577430Y208340D01*
X577480Y208480D01*
X577520Y208620D01*
X577540Y208760D01*
X577550Y208910D01*
X577580Y209200D01*
X577610Y209340D01*
X577660Y209470D01*
X577710Y209600D01*
X577790Y209720D01*
X577870Y209840D01*
X577960Y209950D01*
X578070Y210060D01*
X578310Y210320D01*
X578400Y210460D01*
X578470Y210600D01*
X578520Y210760D01*
X578550Y210950D01*
X578580Y211170D01*
X578590Y211420D01*
Y211720D01*
X578610Y212300D01*
X578630Y212520D01*
X578670Y212710D01*
X578730Y212880D01*
X578810Y213030D01*
X578920Y213180D01*
X579050Y213330D01*
X579220Y213490D01*
X579460Y213760D01*
X579560Y213890D01*
X579650Y214030D01*
X579720Y214170D01*
X579770Y214310D01*
X579810Y214440D01*
X579830Y214580D01*
X579840Y214720D01*
X579870Y215010D01*
X579910Y215150D01*
X579960Y215290D01*
X580030Y215430D01*
X580120Y215570D01*
X580220Y215700D01*
X580340Y215840D01*
X580470Y215970D01*
X580760Y216290D01*
X580870Y216440D01*
X580950Y216600D01*
X581010Y216760D01*
X581050Y216950D01*
X581080Y217180D01*
X581090Y217440D01*
Y217760D01*
X581110Y218320D01*
X581130Y218530D01*
X581170Y218720D01*
X581220Y218880D01*
X581280Y219030D01*
X581370Y219160D01*
X581480Y219290D01*
X581610Y219430D01*
X581860Y219690D01*
X581940Y219820D01*
X582010Y219970D01*
X582060Y220130D01*
X582100Y220320D01*
X582120Y220540D01*
X582130Y220810D01*
Y221130D01*
X582120Y221780D01*
X582090Y222030D01*
X582030Y222240D01*
X581940Y222430D01*
X581810Y222630D01*
X581640Y222850D01*
X581410Y223100D01*
X581110Y223400D01*
X580110Y224420D01*
X495780D01*
X411460D01*
X410860Y223800D01*
G37*
G36*
G01X381500Y305700D02*
X381270Y305420D01*
X381120Y305330D01*
X380920Y305270D01*
X380630Y305220D01*
X380240Y305200D01*
X379710Y305180D01*
X379020D01*
X378150D01*
X375170D01*
X374560Y304550D01*
X374240Y304260D01*
X374080Y304160D01*
X373930Y304080D01*
X373760Y304020D01*
X373560Y303980D01*
X373330Y303950D01*
X373060Y303940D01*
X372730Y303930D01*
X372120Y303920D01*
X371890Y303890D01*
X371690Y303850D01*
X371520Y303800D01*
X371370Y303720D01*
X371220Y303610D01*
X371060Y303470D01*
X370890Y303310D01*
X370580Y303000D01*
X370430Y302890D01*
X370280Y302810D01*
X370110Y302760D01*
X369920Y302720D01*
X369690Y302690D01*
X369420Y302680D01*
X369100D01*
X368520Y302670D01*
X368290Y302640D01*
X368100Y302610D01*
X367940Y302560D01*
X367790Y302490D01*
X367650Y302400D01*
X367520Y302290D01*
X367390Y302160D01*
X367120Y301920D01*
X366990Y301830D01*
X366850Y301760D01*
X366690Y301710D01*
X366500Y301680D01*
X366290Y301660D01*
X366040Y301640D01*
X365740D01*
X365120Y301620D01*
X364890Y301590D01*
X364680Y301530D01*
X364480Y301430D01*
X364260Y301280D01*
X364020Y301070D01*
X363740Y300800D01*
X363390Y300450D01*
X362750Y299850D01*
X362510Y299640D01*
X362310Y299500D01*
X362110Y299400D01*
X361910Y299350D01*
X361680Y299320D01*
X361420D01*
X361090Y299330D01*
X360500Y299340D01*
X360270Y299310D01*
X360060Y299250D01*
X359860Y299140D01*
X359640Y298980D01*
X359380Y298760D01*
X359080Y298470D01*
X358690Y298100D01*
X358120Y297570D01*
X357880Y297360D01*
X357670Y297200D01*
X357470Y297070D01*
X357300Y296970D01*
X357130Y296900D01*
X356970Y296860D01*
X356820Y296850D01*
X356510Y296810D01*
X356360Y296750D01*
X356190Y296660D01*
X356010Y296540D01*
X355810Y296380D01*
X355600Y296200D01*
X355360Y295970D01*
X355090Y295710D01*
X354580Y295220D01*
X354370Y295030D01*
X354170Y294880D01*
X353980Y294760D01*
X353810Y294670D01*
X353660Y294610D01*
X353500Y294570D01*
X353360Y294560D01*
X353040Y294500D01*
X352850Y294410D01*
X352650Y294280D01*
X352410Y294110D01*
X352130Y293870D01*
X351810Y293580D01*
X351430Y293220D01*
X351000Y292790D01*
X350210Y292030D01*
X349890Y291730D01*
X349610Y291500D01*
X349370Y291320D01*
X349160Y291180D01*
X348980Y291090D01*
X348820Y291040D01*
X348670Y291020D01*
X348300Y290910D01*
X348050Y290750D01*
X347730Y290500D01*
X347340Y290160D01*
X346850Y289720D01*
X346270Y289160D01*
X345560Y288480D01*
X344730Y287650D01*
X343170Y286080D01*
X342600Y285490D01*
X342160Y285010D01*
X341820Y284610D01*
X341590Y284300D01*
X341430Y284050D01*
X341350Y283850D01*
X341330Y283680D01*
X341260Y283360D01*
X341180Y283170D01*
X341050Y282970D01*
X340870Y282730D01*
X340640Y282460D01*
X340340Y282140D01*
X339980Y281770D01*
X339550Y281350D01*
X338760Y280550D01*
X338470Y280240D01*
X338230Y279970D01*
X338050Y279730D01*
X337930Y279530D01*
X337840Y279340D01*
X337800Y279180D01*
X337780Y279020D01*
X337740Y278710D01*
X337680Y278550D01*
X337590Y278390D01*
X337470Y278210D01*
X337310Y278010D01*
X337130Y277800D01*
X336900Y277560D01*
X336640Y277290D01*
X336130Y276760D01*
X335940Y276540D01*
X335790Y276350D01*
X335670Y276170D01*
X335590Y276000D01*
X335530Y275840D01*
X335500Y275680D01*
X335490Y275520D01*
X335460Y275220D01*
X335420Y275080D01*
X335370Y274950D01*
X335300Y274810D01*
X335220Y274680D01*
X335120Y274540D01*
X335000Y274410D01*
X334860Y274270D01*
X334620Y274000D01*
X334520Y273870D01*
X334430Y273730D01*
X334360Y273600D01*
X334310Y273460D01*
X334270Y273330D01*
X334250Y273190D01*
X334240Y273060D01*
X334210Y272810D01*
X334180Y272680D01*
X334130Y272560D01*
X334070Y272450D01*
X334000Y272340D01*
X333920Y272230D01*
X333820Y272140D01*
X333720Y272040D01*
X333510Y271840D01*
X333420Y271740D01*
X333350Y271630D01*
X333300Y271510D01*
X333250Y271390D01*
X333220Y271260D01*
X333200Y271110D01*
Y270960D01*
X333170Y270650D01*
X333130Y270510D01*
X333080Y270370D01*
X333010Y270230D01*
X332930Y270100D01*
X332830Y269960D01*
X332710Y269830D01*
X332570Y269690D01*
X332320Y269420D01*
X332220Y269290D01*
X332140Y269150D01*
X332070Y269020D01*
X332010Y268880D01*
X331980Y268750D01*
X331950Y268620D01*
X331940Y268480D01*
X331920Y268220D01*
X331880Y268090D01*
X331840Y267960D01*
X331780Y267840D01*
X331710Y267720D01*
X331620Y267600D01*
X331530Y267490D01*
X331420Y267380D01*
X331180Y267120D01*
X331090Y266980D01*
X331030Y266840D01*
X330980Y266680D01*
X330940Y266490D01*
X330920Y266260D01*
X330910Y265990D01*
X330900Y265670D01*
X330890Y265070D01*
X330870Y264840D01*
X330830Y264650D01*
X330770Y264480D01*
X330690Y264330D01*
X330580Y264180D01*
X330450Y264030D01*
X330280Y263860D01*
X330030Y263600D01*
X329930Y263460D01*
X329840Y263320D01*
X329770Y263190D01*
X329720Y263050D01*
X329680Y262910D01*
X329660Y262770D01*
X329650Y262630D01*
X329610Y262350D01*
X329570Y262210D01*
X329520Y262080D01*
X329450Y261960D01*
X329370Y261840D01*
X329270Y261710D01*
X329160Y261590D01*
X329030Y261470D01*
X328760Y261230D01*
X328660Y261120D01*
X328580Y261000D01*
X328510Y260870D01*
X328460Y260750D01*
X328430Y260610D01*
X328410Y260470D01*
X328400Y260320D01*
X328370Y260040D01*
X328340Y259900D01*
X328290Y259770D01*
X328230Y259640D01*
X328160Y259520D01*
X328080Y259400D01*
X327980Y259290D01*
X327880Y259180D01*
X327640Y258910D01*
X327550Y258780D01*
X327480Y258640D01*
X327430Y258470D01*
X327400Y258290D01*
X327370Y258070D01*
X327360Y257820D01*
Y257510D01*
X327340Y256930D01*
X327320Y256710D01*
X327280Y256520D01*
X327220Y256350D01*
X327140Y256200D01*
X327030Y256050D01*
X326900Y255890D01*
X326730Y255720D01*
X326440Y255410D01*
X326330Y255260D01*
X326260Y255110D01*
X326200Y254940D01*
X326160Y254750D01*
X326130Y254520D01*
X326120Y254250D01*
X326110Y253930D01*
X326090Y253350D01*
X326070Y253120D01*
X326020Y252930D01*
X325970Y252760D01*
X325880Y252600D01*
X325780Y252440D01*
X325650Y252280D01*
X325480Y252100D01*
X325240Y251830D01*
X325140Y251690D01*
X325060Y251550D01*
X324990Y251410D01*
X324930Y251270D01*
X324890Y251140D01*
X324860Y251000D01*
Y250870D01*
X324830Y250640D01*
X324790Y250520D01*
X324740Y250390D01*
X324680Y250270D01*
X324610Y250140D01*
X324530Y250030D01*
X324440Y249920D01*
X324330Y249810D01*
X324090Y249550D01*
X324010Y249410D01*
X323940Y249260D01*
X323890Y249090D01*
X323850Y248900D01*
X323830Y248670D01*
X323820Y248390D01*
X323810Y248060D01*
X323790Y247430D01*
X323760Y247200D01*
X323720Y247010D01*
X323670Y246840D01*
X323590Y246700D01*
X323480Y246560D01*
X323350Y246420D01*
X323190Y246270D01*
X322920Y246040D01*
X322820Y245920D01*
X322740Y245800D01*
X322670Y245680D01*
X322620Y245550D01*
X322590Y245420D01*
X322570Y245280D01*
X322560Y245130D01*
X322540Y244850D01*
X322500Y244710D01*
X322460Y244580D01*
X322400Y244450D01*
X322320Y244320D01*
X322240Y244210D01*
X322150Y244090D01*
X322040Y243990D01*
X321840Y243770D01*
X321760Y243650D01*
X321690Y243520D01*
X321630Y243400D01*
X321580Y243260D01*
X321550Y243130D01*
X321530Y242980D01*
X321520Y242840D01*
X321490Y242550D01*
X321460Y242420D01*
X321410Y242290D01*
X321340Y242170D01*
X321260Y242050D01*
X321160Y241930D01*
X321040Y241810D01*
X320890Y241700D01*
X320600Y241410D01*
X320500Y241270D01*
X320420Y241130D01*
X320360Y240970D01*
X320320Y240770D01*
X320290Y240540D01*
X320280Y240250D01*
X320270Y239910D01*
X320260Y239280D01*
X320230Y239050D01*
X320190Y238850D01*
X320140Y238680D01*
X320060Y238520D01*
X319950Y238380D01*
X319810Y238220D01*
X319640Y238050D01*
X319400Y237790D01*
X319300Y237650D01*
X319210Y237520D01*
X319140Y237380D01*
X319090Y237250D01*
X319050Y237110D01*
X319030Y236980D01*
X319020Y236850D01*
X318990Y236580D01*
X318960Y236450D01*
X318910Y236330D01*
X318850Y236200D01*
X318780Y236080D01*
X318700Y235960D01*
X318600Y235850D01*
X318500Y235740D01*
X318250Y235480D01*
X318170Y235350D01*
X318100Y235200D01*
X318050Y235040D01*
X318010Y234850D01*
X317990Y234620D01*
X317980Y234360D01*
Y234040D01*
X317960Y233430D01*
X317940Y233210D01*
X317900Y233010D01*
X317840Y232850D01*
X317760Y232700D01*
X317660Y232550D01*
X317520Y232390D01*
X317350Y232230D01*
X317100Y231960D01*
X317000Y231830D01*
X316920Y231690D01*
X316850Y231560D01*
X316790Y231430D01*
X316760Y231290D01*
X316730Y231170D01*
X316720Y231040D01*
X316700Y230790D01*
X316660Y230660D01*
X316610Y230530D01*
X316550Y230400D01*
X316480Y230280D01*
X316400Y230170D01*
X316300Y230060D01*
X316200Y229960D01*
X316000Y229740D01*
X315920Y229620D01*
X315850Y229500D01*
X315790Y229370D01*
X315740Y229250D01*
X315710Y229120D01*
X315690Y228990D01*
X315680Y228850D01*
X315650Y228590D01*
X315610Y228450D01*
X315560Y228320D01*
X315490Y228180D01*
X315400Y228050D01*
X315300Y227910D01*
X315190Y227780D01*
X315060Y227650D01*
X314750Y227320D01*
X314640Y227180D01*
X314560Y227020D01*
X314510Y226850D01*
X314470Y226650D01*
X314450Y226420D01*
X314430Y226140D01*
Y225790D01*
X314410Y225160D01*
X314380Y224930D01*
X314340Y224730D01*
X314280Y224570D01*
X314200Y224430D01*
X314100Y224290D01*
X313970Y224150D01*
X313810Y224000D01*
X313540Y223770D01*
X313440Y223650D01*
X313360Y223530D01*
X313290Y223410D01*
X313240Y223280D01*
X313210Y223150D01*
X313190Y223010D01*
X313180Y222860D01*
X313150Y222570D01*
X313120Y222440D01*
X313070Y222300D01*
X313010Y222180D01*
X312940Y222050D01*
X312860Y221930D01*
X312770Y221820D01*
X312660Y221710D01*
X312420Y221450D01*
X312330Y221320D01*
X312260Y221170D01*
X312210Y221010D01*
X312180Y220820D01*
X312150Y220610D01*
X312140Y220350D01*
Y220050D01*
X312120Y219470D01*
X312100Y219250D01*
X312060Y219060D01*
X312000Y218900D01*
X311920Y218740D01*
X311810Y218600D01*
X311680Y218440D01*
X311510Y218280D01*
X311260Y218010D01*
X311160Y217870D01*
X311070Y217740D01*
X311000Y217600D01*
X310950Y217470D01*
X310920Y217330D01*
X310890Y217180D01*
Y217030D01*
X310860Y216740D01*
X310820Y216600D01*
X310770Y216460D01*
X310700Y216320D01*
X310620Y216190D01*
X310520Y216060D01*
X310400Y215920D01*
X310260Y215780D01*
X309960Y215470D01*
X309860Y215320D01*
X309780Y215170D01*
X309720Y215000D01*
X309680Y214810D01*
X309650Y214590D01*
X309640Y214330D01*
Y214010D01*
X309620Y213460D01*
X309600Y213240D01*
X309560Y213050D01*
X309510Y212890D01*
X309440Y212750D01*
X309360Y212610D01*
X309250Y212480D01*
X309110Y212350D01*
X308910Y212130D01*
X308830Y212010D01*
X308760Y211890D01*
X308700Y211760D01*
X308650Y211630D01*
X308620Y211490D01*
X308600Y211350D01*
X308590Y211200D01*
X308570Y210920D01*
X308530Y210780D01*
X308480Y210650D01*
X308420Y210530D01*
X308330Y210410D01*
X308230Y210290D01*
X308110Y210180D01*
X307970Y210060D01*
X307720Y209800D01*
X307620Y209680D01*
X307530Y209560D01*
X307470Y209430D01*
X307420Y209290D01*
X307380Y209150D01*
X307360Y209000D01*
X307340Y208830D01*
X307320Y208530D01*
X307290Y208400D01*
X307250Y208270D01*
X307190Y208150D01*
X307120Y208040D01*
X307040Y207930D01*
X306940Y207830D01*
X306820Y207730D01*
X306570Y207500D01*
X306480Y207390D01*
X306420Y207250D01*
X306370Y207100D01*
X306330Y206920D01*
X306310Y206700D01*
X306300Y206430D01*
Y206100D01*
X306280Y205500D01*
X306260Y205260D01*
X306220Y205060D01*
X306160Y204890D01*
X306080Y204730D01*
X305970Y204570D01*
X305840Y204410D01*
X305670Y204230D01*
X305440Y203960D01*
X305340Y203820D01*
X305250Y203680D01*
X305180Y203540D01*
X305120Y203410D01*
X305080Y203270D01*
X305060Y203150D01*
X305050Y203020D01*
X305020Y202770D01*
X304980Y202630D01*
X304920Y202500D01*
X304850Y202360D01*
X304760Y202230D01*
X304660Y202090D01*
X304550Y201960D01*
X304420Y201840D01*
X304120Y201520D01*
X304010Y201370D01*
X303930Y201220D01*
X303870Y201050D01*
X303840Y200860D01*
X303810Y200630D01*
X303800Y200360D01*
Y200030D01*
X303780Y199440D01*
X303760Y199210D01*
X303730Y199020D01*
X303670Y198860D01*
X303610Y198720D01*
X303520Y198580D01*
X303410Y198450D01*
X303280Y198320D01*
X303080Y198100D01*
X302990Y197980D01*
X302920Y197860D01*
X302860Y197740D01*
X302820Y197610D01*
X302780Y197480D01*
X302760Y197350D01*
Y197220D01*
X302730Y196950D01*
X302690Y196820D01*
X302630Y196680D01*
X302560Y196550D01*
X302480Y196410D01*
X302380Y196280D01*
X302260Y196140D01*
X302130Y196010D01*
X301820Y195690D01*
X301720Y195540D01*
X301640Y195380D01*
X301580Y195210D01*
X301540Y195020D01*
X301520Y194780D01*
X301510Y194500D01*
Y194160D01*
X301480Y193520D01*
X301450Y193290D01*
X301410Y193100D01*
X301360Y192930D01*
X301280Y192790D01*
X301170Y192650D01*
X301040Y192520D01*
X300880Y192370D01*
X300620Y192130D01*
X300510Y192010D01*
X300430Y191890D01*
X300360Y191770D01*
X300310Y191640D01*
X300280Y191510D01*
X300260Y191370D01*
X300250Y191220D01*
X300230Y190940D01*
X300190Y190800D01*
X300150Y190670D01*
X300090Y190540D01*
X300020Y190420D01*
X299930Y190300D01*
X299840Y190180D01*
X299730Y190080D01*
X299490Y189810D01*
X299400Y189680D01*
X299340Y189530D01*
X299280Y189370D01*
X299250Y189190D01*
X299230Y188970D01*
X299220Y188710D01*
X299210Y188410D01*
X299200Y187840D01*
X299170Y187620D01*
X299130Y187430D01*
X299070Y187260D01*
X298990Y187110D01*
X298880Y186960D01*
X298750Y186810D01*
X298590Y186640D01*
X298330Y186370D01*
X298230Y186240D01*
X298150Y186100D01*
X298080Y185970D01*
X298030Y185830D01*
X297990Y185690D01*
X297970Y185540D01*
X297960Y185390D01*
X297930Y185110D01*
X297900Y184970D01*
X297850Y184840D01*
X297790Y184710D01*
X297720Y184590D01*
X297640Y184470D01*
X297550Y184360D01*
X297440Y184250D01*
X297250Y184040D01*
X297170Y183920D01*
X297090Y183790D01*
X297030Y183670D01*
X296980Y183540D01*
X296950Y183410D01*
X296930Y183290D01*
X296920Y183170D01*
X296880Y182910D01*
X296840Y182780D01*
X296790Y182650D01*
X296720Y182520D01*
X296630Y182390D01*
X296530Y182260D01*
X296420Y182130D01*
X296290Y182000D01*
X295990Y181680D01*
X295880Y181530D01*
X295800Y181370D01*
X295740Y181200D01*
X295700Y181010D01*
X295680Y180780D01*
X295670Y180500D01*
Y180170D01*
X295640Y179560D01*
X295620Y179330D01*
X295580Y179140D01*
X295520Y178970D01*
X295440Y178810D01*
X295340Y178660D01*
X295210Y178510D01*
X295040Y178340D01*
X294810Y178080D01*
X294710Y177940D01*
X294630Y177810D01*
X294550Y177670D01*
X294500Y177540D01*
X294450Y177410D01*
X294430Y177290D01*
X294420Y177170D01*
X294390Y176950D01*
X294350Y176830D01*
X294300Y176710D01*
X294240Y176580D01*
X294170Y176460D01*
X294090Y176350D01*
X294000Y176230D01*
X293900Y176130D01*
X293690Y175910D01*
X293610Y175790D01*
X293540Y175670D01*
X293480Y175540D01*
X293430Y175410D01*
X293400Y175270D01*
X293380Y175130D01*
X293370Y174990D01*
X293350Y174690D01*
X293310Y174550D01*
X293260Y174420D01*
X293190Y174280D01*
X293110Y174150D01*
X293000Y174010D01*
X292890Y173880D01*
X292750Y173740D01*
X292450Y173420D01*
X292350Y173280D01*
X292260Y173130D01*
X292210Y172960D01*
X292160Y172780D01*
X292140Y172560D01*
X292130Y172310D01*
X292120Y172010D01*
X292100Y171460D01*
X292080Y171240D01*
X292030Y171040D01*
X291970Y170860D01*
X291890Y170690D01*
X291790Y170530D01*
X291660Y170350D01*
X291500Y170160D01*
X291260Y169860D01*
X291160Y169710D01*
X291070Y169560D01*
X291000Y169400D01*
X290950Y169260D01*
X290910Y169110D01*
X290880Y168980D01*
X290870Y168850D01*
X290840Y168590D01*
X290810Y168470D01*
X290760Y168360D01*
X290710Y168250D01*
X290630Y168140D01*
X290550Y168040D01*
X290460Y167940D01*
X290350Y167850D01*
X290130Y167650D01*
X290050Y167540D01*
X289980Y167430D01*
X289920Y167310D01*
X289880Y167180D01*
X289850Y167040D01*
X289840Y166900D01*
X289830Y166750D01*
X289790Y166430D01*
X289760Y166280D01*
X289700Y166150D01*
X289640Y166020D01*
X289560Y165900D01*
X289460Y165770D01*
X289340Y165650D01*
X289200Y165520D01*
X288900Y165240D01*
X288790Y165110D01*
X288710Y164970D01*
X288650Y164810D01*
X288620Y164630D01*
X288590Y164400D01*
X288580Y164120D01*
Y163790D01*
X288560Y163190D01*
X288540Y162960D01*
X288510Y162770D01*
X288450Y162600D01*
X288390Y162460D01*
X288300Y162330D01*
X288190Y162200D01*
X288060Y162060D01*
X287870Y161850D01*
X287780Y161740D01*
X287710Y161610D01*
X287650Y161490D01*
X287600Y161360D01*
X287570Y161230D01*
X287540Y161110D01*
Y160980D01*
X287510Y160720D01*
X287470Y160590D01*
X287410Y160460D01*
X287340Y160330D01*
X287260Y160190D01*
X287160Y160060D01*
X287040Y159930D01*
X286910Y159790D01*
X286600Y159480D01*
X286500Y159330D01*
X286420Y159180D01*
X286360Y159010D01*
X286320Y158820D01*
X286300Y158590D01*
X286290Y158310D01*
Y157980D01*
X286270Y157400D01*
X286240Y157170D01*
X286200Y156980D01*
X286140Y156800D01*
X286060Y156640D01*
X285960Y156490D01*
X285820Y156330D01*
X285660Y156150D01*
X285420Y155880D01*
X285320Y155740D01*
X285240Y155600D01*
X285160Y155460D01*
X285110Y155320D01*
X285070Y155180D01*
X285040Y155050D01*
X285030Y154920D01*
X285000Y154690D01*
X284970Y154560D01*
X284920Y154440D01*
X284860Y154310D01*
X284790Y154190D01*
X284700Y154070D01*
X284610Y153960D01*
X284510Y153860D01*
X284310Y153640D01*
X284230Y153520D01*
X284160Y153390D01*
X284100Y153270D01*
X284050Y153140D01*
X284020Y153000D01*
X284000Y152870D01*
X283990Y152740D01*
X283960Y152450D01*
X283920Y152310D01*
X283870Y152170D01*
X283800Y152030D01*
X283710Y151890D01*
X283610Y151760D01*
X283500Y151620D01*
X283370Y151490D01*
X283070Y151160D01*
X282960Y151020D01*
X282880Y150860D01*
X282820Y150700D01*
X282780Y150500D01*
X282760Y150280D01*
X282740Y150020D01*
Y149700D01*
X282730Y149140D01*
X282700Y148920D01*
X282670Y148740D01*
X282620Y148580D01*
X282550Y148430D01*
X282460Y148300D01*
X282350Y148170D01*
X282220Y148030D01*
X282030Y147820D01*
X281950Y147700D01*
X281870Y147580D01*
X281810Y147460D01*
X281760Y147330D01*
X281730Y147210D01*
X281710Y147090D01*
X281700Y146970D01*
X281670Y146710D01*
X281620Y146570D01*
X281570Y146440D01*
X281500Y146300D01*
X281410Y146150D01*
X281310Y146020D01*
X281200Y145880D01*
X281070Y145740D01*
X280830Y145470D01*
X280730Y145330D01*
X280650Y145190D01*
X280580Y145060D01*
X280520Y144920D01*
X280480Y144790D01*
X280460Y144660D01*
X280450Y144540D01*
X280410Y144280D01*
X280370Y144150D01*
X280320Y144010D01*
X280250Y143880D01*
X280160Y143740D01*
X280060Y143610D01*
X279950Y143480D01*
X279820Y143350D01*
X279520Y143030D01*
X279410Y142880D01*
X279330Y142730D01*
X279270Y142560D01*
X279230Y142370D01*
X279210Y142140D01*
X279200Y141870D01*
Y141540D01*
X279180Y140950D01*
X279160Y140730D01*
X279120Y140540D01*
X279070Y140370D01*
X279000Y140230D01*
X278920Y140100D01*
X278810Y139970D01*
X278680Y139830D01*
X278470Y139610D01*
X278390Y139500D01*
X278320Y139370D01*
X278260Y139250D01*
X278210Y139120D01*
X278180Y138990D01*
X278160Y138860D01*
X278150Y138730D01*
X278120Y138460D01*
X278080Y138330D01*
X278030Y138190D01*
X277960Y138060D01*
X277880Y137920D01*
X277780Y137790D01*
X277660Y137650D01*
X277530Y137520D01*
X277220Y137200D01*
X277120Y137050D01*
X277040Y136900D01*
X276980Y136730D01*
X276940Y136530D01*
X276920Y136290D01*
X276910Y136010D01*
X276900Y135670D01*
X276880Y135040D01*
X276850Y134800D01*
X276810Y134610D01*
X276750Y134450D01*
X276680Y134300D01*
X276570Y134170D01*
X276440Y134030D01*
X276280Y133880D01*
X276010Y133650D01*
X275910Y133530D01*
X275830Y133410D01*
X275760Y133280D01*
X275710Y133160D01*
X275680Y133020D01*
X275660Y132880D01*
X275650Y132740D01*
X275620Y132450D01*
X275590Y132310D01*
X275540Y132180D01*
X275490Y132050D01*
X275410Y131930D01*
X275330Y131810D01*
X275240Y131700D01*
X275130Y131590D01*
X274890Y131330D01*
X274800Y131190D01*
X274730Y131050D01*
X274680Y130890D01*
X274650Y130700D01*
X274620Y130480D01*
X274610Y130230D01*
Y129930D01*
X274590Y129350D01*
X274570Y129130D01*
X274530Y128940D01*
X274470Y128770D01*
X274390Y128620D01*
X274280Y128470D01*
X274150Y128320D01*
X273980Y128160D01*
X273730Y127880D01*
X273630Y127750D01*
X273540Y127610D01*
X273480Y127480D01*
X273420Y127340D01*
X273390Y127200D01*
X273370Y127060D01*
X273360Y126910D01*
X273330Y126620D01*
X273300Y126490D01*
X273250Y126350D01*
X273190Y126220D01*
X273120Y126100D01*
X273040Y125980D01*
X272940Y125870D01*
X272840Y125760D01*
X272650Y125550D01*
X272560Y125430D01*
X272490Y125310D01*
X272430Y125180D01*
X272380Y125060D01*
X272350Y124940D01*
X272320Y124820D01*
Y124700D01*
X272280Y124440D01*
X272240Y124300D01*
X272190Y124160D01*
X272110Y124020D01*
X272030Y123880D01*
X271930Y123740D01*
X271820Y123610D01*
X271690Y123470D01*
X271390Y123140D01*
X271290Y122980D01*
X271210Y122820D01*
X271150Y122650D01*
X271110Y122450D01*
X271080Y122230D01*
X271070Y121960D01*
Y121640D01*
X271040Y121060D01*
X271010Y120830D01*
X270970Y120640D01*
X270920Y120470D01*
X270840Y120320D01*
X270730Y120170D01*
X270600Y120020D01*
X270440Y119850D01*
X270190Y119590D01*
X270090Y119450D01*
X270010Y119320D01*
X269940Y119180D01*
X269880Y119050D01*
X269850Y118910D01*
X269820Y118780D01*
X269810Y118640D01*
X269790Y118390D01*
X269750Y118260D01*
X269710Y118130D01*
X269650Y118010D01*
X269580Y117890D01*
X269490Y117770D01*
X269400Y117660D01*
X269290Y117560D01*
X269050Y117300D01*
X268960Y117160D01*
X268900Y117020D01*
X268850Y116850D01*
X268810Y116660D01*
X268790Y116430D01*
X268780Y116160D01*
X268770Y115830D01*
X268760Y115220D01*
X268730Y115000D01*
X268700Y114810D01*
X268640Y114650D01*
X268560Y114510D01*
X268450Y114380D01*
X268320Y114250D01*
X268150Y114110D01*
X267900Y113860D01*
X267800Y113740D01*
X267720Y113620D01*
X267650Y113490D01*
X267600Y113360D01*
X267560Y113230D01*
X267530Y113090D01*
X267520Y112940D01*
X267490Y112660D01*
X267450Y112530D01*
X267400Y112390D01*
X267330Y112250D01*
X267240Y112110D01*
X267140Y111980D01*
X267030Y111850D01*
X266900Y111710D01*
X266640Y111440D01*
X266540Y111310D01*
X266450Y111170D01*
X266390Y111040D01*
X266330Y110900D01*
X266300Y110760D01*
X266280Y110610D01*
X266270Y110460D01*
X266240Y110180D01*
X266210Y110040D01*
X266160Y109910D01*
X266100Y109780D01*
X266030Y109660D01*
X265950Y109540D01*
X265850Y109430D01*
X265750Y109320D01*
X265490Y109040D01*
X265400Y108890D01*
X265330Y108720D01*
X265290Y108510D01*
X265260Y108250D01*
X265240Y107930D01*
X265230Y107530D01*
Y107030D01*
Y105240D01*
X266230Y104260D01*
X267230Y103280D01*
X346980D01*
X426750D01*
X427230Y103800D01*
X427440Y104000D01*
X427560Y104080D01*
X427680Y104150D01*
X427800Y104210D01*
X427930Y104260D01*
X428050Y104290D01*
X428170Y104320D01*
X428290D01*
X429250Y104850D01*
X429950Y105420D01*
X430710Y106120D01*
X431470Y106870D01*
X432170Y107630D01*
X432740Y108330D01*
X433130Y108900D01*
X433270Y109300D01*
X433310Y109550D01*
X433350Y109670D01*
X433400Y109810D01*
X433470Y109940D01*
X433560Y110070D01*
X433660Y110210D01*
X433770Y110340D01*
X433900Y110460D01*
X434220Y110800D01*
X434330Y110960D01*
X434410Y111130D01*
X434460Y111340D01*
X434490Y111600D01*
X434510Y111930D01*
X434520Y112340D01*
Y112860D01*
X434510Y113790D01*
X434490Y114120D01*
X434460Y114380D01*
X434410Y114580D01*
X434330Y114760D01*
X434220Y114910D01*
X434080Y115070D01*
X433900Y115250D01*
X433640Y115520D01*
X433540Y115660D01*
X433460Y115790D01*
X433390Y115930D01*
X433340Y116070D01*
X433300Y116210D01*
X433280Y116350D01*
X433270Y116500D01*
X433240Y116790D01*
X433210Y116920D01*
X433160Y117050D01*
X433110Y117180D01*
X433030Y117310D01*
X432950Y117430D01*
X432860Y117540D01*
X432750Y117650D01*
X432560Y117860D01*
X432480Y117980D01*
X432400Y118100D01*
X432340Y118220D01*
X432290Y118350D01*
X432260Y118470D01*
X432240Y118590D01*
X432230Y118710D01*
X431950Y119250D01*
X431540Y119760D01*
X430910Y120470D01*
X430000Y121430D01*
X428790Y122670D01*
X427240Y124250D01*
X425310Y126200D01*
X422950Y128550D01*
X418660Y132830D01*
X417080Y134380D01*
X415830Y135590D01*
X414870Y136500D01*
X414150Y137140D01*
X413640Y137550D01*
X413300Y137770D01*
X413090Y137830D01*
X412600Y138070D01*
X412160Y138410D01*
X411560Y138940D01*
X410760Y139690D01*
X409720Y140680D01*
X408430Y141950D01*
X406830Y143520D01*
X404920Y145430D01*
X401270Y149060D01*
X399960Y150340D01*
X398930Y151320D01*
X398160Y152040D01*
X397580Y152530D01*
X397180Y152830D01*
X396890Y152990D01*
X396680Y153030D01*
X396190Y153220D01*
X395780Y153530D01*
X395210Y154020D01*
X394430Y154730D01*
X393410Y155710D01*
X392100Y157000D01*
X390460Y158620D01*
X388450Y160630D01*
X384950Y164090D01*
X383660Y165360D01*
X382620Y166350D01*
X381820Y167100D01*
X381210Y167640D01*
X380770Y167980D01*
X380470Y168170D01*
X380270Y168220D01*
X379840Y168400D01*
X379500Y168650D01*
X379040Y169040D01*
X378440Y169570D01*
X377690Y170290D01*
X376770Y171190D01*
X375640Y172310D01*
X374290Y173660D01*
X371810Y176140D01*
X370900Y177070D01*
X370190Y177820D01*
X369660Y178410D01*
X369270Y178870D01*
X369020Y179210D01*
X368890Y179460D01*
X368850Y179650D01*
X368800Y179930D01*
X368740Y180080D01*
X368640Y180250D01*
X368520Y180430D01*
X368370Y180630D01*
X368180Y180840D01*
X367960Y181080D01*
X367700Y181340D01*
X367190Y181860D01*
X367010Y182080D01*
X366850Y182280D01*
X366740Y182460D01*
X366650Y182620D01*
X366600Y182780D01*
X366560Y182940D01*
X366550Y183100D01*
X366530Y183400D01*
X366490Y183540D01*
X366440Y183680D01*
X366370Y183810D01*
X366290Y183950D01*
X366180Y184080D01*
X366070Y184220D01*
X365930Y184350D01*
X365680Y184620D01*
X365580Y184750D01*
X365500Y184890D01*
X365430Y185020D01*
X365370Y185160D01*
X365330Y185290D01*
X365310Y185430D01*
X365300Y185560D01*
X365260Y185870D01*
X365200Y186030D01*
X365110Y186200D01*
X365000Y186370D01*
X364840Y186560D01*
X364650Y186770D01*
X364430Y187010D01*
X364160Y187270D01*
X363550Y187860D01*
X363350Y188080D01*
X363210Y188280D01*
X363110Y188480D01*
X363050Y188690D01*
X363020Y188930D01*
X363010Y189230D01*
Y189600D01*
X362990Y190200D01*
X362970Y190430D01*
X362940Y190620D01*
X362890Y190780D01*
X362820Y190930D01*
X362730Y191060D01*
X362620Y191190D01*
X362490Y191330D01*
X362250Y191590D01*
X362160Y191730D01*
X362090Y191870D01*
X362040Y192030D01*
X362010Y192220D01*
X361980Y192430D01*
X361970Y192690D01*
Y192990D01*
X361950Y193570D01*
X361930Y193790D01*
X361890Y193980D01*
X361830Y194140D01*
X361750Y194300D01*
X361640Y194440D01*
X361510Y194600D01*
X361340Y194760D01*
X361090Y195030D01*
X360990Y195170D01*
X360900Y195300D01*
X360830Y195440D01*
X360780Y195570D01*
X360750Y195720D01*
X360720Y195860D01*
Y196010D01*
X360690Y196300D01*
X360660Y196430D01*
X360610Y196560D01*
X360540Y196680D01*
X360460Y196800D01*
X360360Y196920D01*
X360230Y197040D01*
X360090Y197150D01*
X359490Y197670D01*
X359470Y200730D01*
X359460Y202330D01*
X359450Y202870D01*
X359420Y203280D01*
X359380Y203570D01*
X359310Y203780D01*
X359220Y203940D01*
X359100Y204070D01*
X358940Y204190D01*
X358420Y204610D01*
Y212910D01*
Y221240D01*
X358940Y221710D01*
X359210Y222000D01*
X359300Y222160D01*
X359370Y222360D01*
X359410Y222610D01*
X359440Y222950D01*
X359460Y223380D01*
Y223940D01*
X359470Y224630D01*
Y227040D01*
X360090Y227540D01*
X360390Y227830D01*
X360490Y227960D01*
X360570Y228110D01*
X360630Y228270D01*
X360670Y228470D01*
X360690Y228700D01*
X360710Y228990D01*
X360720Y229330D01*
X360730Y229960D01*
X360750Y230190D01*
X360790Y230390D01*
X360850Y230560D01*
X360930Y230710D01*
X361040Y230860D01*
X361170Y231020D01*
X361340Y231180D01*
X361660Y231510D01*
X361770Y231670D01*
X361850Y231840D01*
X361910Y232050D01*
X361940Y232300D01*
X361960Y232620D01*
X361970Y233030D01*
Y233540D01*
Y235290D01*
X363110Y236410D01*
X363710Y237020D01*
X363910Y237250D01*
X364060Y237450D01*
X364150Y237650D01*
X364210Y237860D01*
X364250Y238100D01*
X364260Y238380D01*
Y238740D01*
X364280Y239320D01*
X364300Y239540D01*
X364330Y239730D01*
X364380Y239900D01*
X364450Y240050D01*
X364540Y240180D01*
X364650Y240310D01*
X364780Y240450D01*
X364970Y240660D01*
X365060Y240780D01*
X365130Y240900D01*
X365190Y241030D01*
X365240Y241160D01*
X365270Y241280D01*
X365300Y241410D01*
Y241530D01*
X365350Y241830D01*
X365420Y241990D01*
X365520Y242170D01*
X365650Y242360D01*
X365810Y242570D01*
X366020Y242810D01*
X366260Y243080D01*
X366550Y243380D01*
X367070Y243930D01*
X367270Y244160D01*
X367440Y244380D01*
X367570Y244570D01*
X367680Y244750D01*
X367750Y244910D01*
X367790Y245060D01*
X367810Y245190D01*
X367880Y245500D01*
X367970Y245680D01*
X368110Y245900D01*
X368300Y246150D01*
X368530Y246430D01*
X368820Y246760D01*
X369170Y247130D01*
X369580Y247540D01*
X370360Y248360D01*
X370660Y248690D01*
X370890Y248970D01*
X371070Y249220D01*
X371200Y249430D01*
X371290Y249610D01*
X371330Y249780D01*
X371350Y249940D01*
X371440Y250310D01*
X371580Y250540D01*
X371780Y250830D01*
X372080Y251180D01*
X372460Y251610D01*
X372960Y252130D01*
X373580Y252770D01*
X374330Y253520D01*
X375730Y254900D01*
X376260Y255390D01*
X376680Y255780D01*
X377030Y256060D01*
X377310Y256260D01*
X377540Y256390D01*
X377740Y256450D01*
X377920Y256470D01*
X378260Y256530D01*
X378450Y256610D01*
X378660Y256740D01*
X378890Y256910D01*
X379170Y257150D01*
X379490Y257440D01*
X379870Y257800D01*
X380310Y258240D01*
X381130Y259050D01*
X381450Y259340D01*
X381730Y259570D01*
X381960Y259750D01*
X382170Y259870D01*
X382360Y259950D01*
X382540Y260000D01*
X382710Y260010D01*
X382990Y260050D01*
X383130Y260090D01*
X383250Y260140D01*
X383380Y260210D01*
X383500Y260290D01*
X383620Y260390D01*
X383740Y260510D01*
X383860Y260640D01*
X384090Y260890D01*
X384210Y260990D01*
X384330Y261080D01*
X384460Y261140D01*
X384580Y261200D01*
X384720Y261230D01*
X384860Y261250D01*
X385010Y261260D01*
X385330Y261300D01*
X385490Y261360D01*
X385660Y261440D01*
X385840Y261560D01*
X386040Y261710D01*
X386260Y261900D01*
X386500Y262130D01*
X386780Y262410D01*
X387300Y262900D01*
X387520Y263090D01*
X387710Y263240D01*
X387890Y263360D01*
X388060Y263450D01*
X388230Y263510D01*
X388390Y263540D01*
X388550Y263550D01*
X388830Y263580D01*
X388970Y263620D01*
X389100Y263670D01*
X389240Y263740D01*
X389380Y263830D01*
X389510Y263930D01*
X389650Y264040D01*
X389780Y264170D01*
X390110Y264470D01*
X390250Y264580D01*
X390410Y264660D01*
X390580Y264720D01*
X390770Y264760D01*
X390990Y264780D01*
X391260Y264800D01*
X391570D01*
X392130Y264810D01*
X392350Y264840D01*
X392530Y264870D01*
X392700Y264920D01*
X392840Y264990D01*
X392980Y265080D01*
X393110Y265190D01*
X393240Y265320D01*
X393460Y265520D01*
X393580Y265600D01*
X393700Y265670D01*
X393830Y265730D01*
X393970Y265780D01*
X394100Y265810D01*
X394240Y265830D01*
X394390Y265840D01*
X394680Y265870D01*
X394810Y265900D01*
X394940Y265950D01*
X395060Y266020D01*
X395180Y266100D01*
X395300Y266200D01*
X395420Y266320D01*
X395530Y266460D01*
X395830Y266780D01*
X395970Y266880D01*
X396140Y266960D01*
X396340Y267010D01*
X396600Y267050D01*
X396930Y267070D01*
X397350Y267080D01*
X397870Y267090D01*
X398810Y267100D01*
X399140Y267120D01*
X399410Y267150D01*
X399630Y267200D01*
X399810Y267280D01*
X399980Y267390D01*
X400140Y267530D01*
X400330Y267710D01*
X400980Y268340D01*
X403920D01*
X405440Y268350D01*
X405970Y268360D01*
X406360Y268390D01*
X406650Y268440D01*
X406870Y268500D01*
X407040Y268590D01*
X407190Y268710D01*
X407340Y268860D01*
X407810Y269380D01*
X562520D01*
X717220D01*
X718800Y270960D01*
X719470Y271660D01*
X719730Y271950D01*
X719930Y272210D01*
X720100Y272430D01*
X720220Y272630D01*
X720300Y272800D01*
X720350Y272960D01*
X720360Y273100D01*
X720400Y273350D01*
X720440Y273480D01*
X720500Y273610D01*
X720570Y273750D01*
X720650Y273880D01*
X720750Y274010D01*
X720860Y274140D01*
X720990Y274270D01*
X721300Y274590D01*
X721400Y274740D01*
X721480Y274900D01*
X721540Y275070D01*
X721580Y275270D01*
X721600Y275510D01*
X721610Y275790D01*
X721620Y276140D01*
X721630Y276790D01*
X721650Y277030D01*
X721680Y277220D01*
X721740Y277390D01*
X721820Y277520D01*
X721930Y277650D01*
X722070Y277780D01*
X722240Y277910D01*
X722510Y278140D01*
X722610Y278260D01*
X722690Y278370D01*
X722760Y278490D01*
X722810Y278620D01*
X722840Y278750D01*
X722860Y278900D01*
X722870Y279060D01*
X722890Y279340D01*
X722930Y279480D01*
X722970Y279610D01*
X723030Y279740D01*
X723100Y279860D01*
X723190Y279980D01*
X723280Y280090D01*
X723390Y280200D01*
X723630Y280470D01*
X723720Y280600D01*
X723790Y280750D01*
X723840Y280920D01*
X723870Y281110D01*
X723890Y281350D01*
X723910Y281630D01*
Y281970D01*
X723920Y282620D01*
X723940Y282860D01*
X723980Y283050D01*
X724030Y283210D01*
X724110Y283350D01*
X724220Y283480D01*
X724360Y283600D01*
X724530Y283740D01*
X724800Y283970D01*
X724900Y284080D01*
X724980Y284200D01*
X725050Y284320D01*
X725100Y284440D01*
X725130Y284580D01*
X725150Y284730D01*
X725160Y284880D01*
X725190Y285180D01*
X725220Y285320D01*
X725280Y285460D01*
X725340Y285590D01*
X725430Y285730D01*
X725530Y285860D01*
X725650Y286000D01*
X725790Y286130D01*
X726030Y286400D01*
X726130Y286530D01*
X726220Y286670D01*
X726290Y286800D01*
X726340Y286940D01*
X726380Y287070D01*
X726400Y287210D01*
X726410Y287340D01*
X726440Y287600D01*
X726470Y287730D01*
X726520Y287860D01*
X726580Y287990D01*
X726650Y288110D01*
X726730Y288220D01*
X726830Y288340D01*
X726930Y288440D01*
X727170Y288710D01*
X727260Y288840D01*
X727330Y288980D01*
X727380Y289150D01*
X727420Y289340D01*
X727440Y289560D01*
X727450Y289830D01*
Y290150D01*
X727470Y290750D01*
X727490Y290980D01*
X727530Y291170D01*
X727590Y291340D01*
X727670Y291490D01*
X727770Y291640D01*
X727910Y291790D01*
X728080Y291960D01*
X728380Y292280D01*
X728480Y292420D01*
X728560Y292580D01*
X728620Y292740D01*
X728660Y292930D01*
X728690Y293160D01*
X728700Y293420D01*
Y293730D01*
X728720Y294290D01*
X728740Y294500D01*
X728780Y294690D01*
X728830Y294850D01*
X728900Y295000D01*
X728980Y295130D01*
X729090Y295260D01*
X729230Y295400D01*
X729430Y295620D01*
X729510Y295730D01*
X729580Y295860D01*
X729640Y295990D01*
X729690Y296120D01*
X729720Y296260D01*
X729740Y296400D01*
X729750Y296540D01*
X729780Y296830D01*
X729810Y296980D01*
X729860Y297110D01*
X729930Y297250D01*
X730020Y297380D01*
X730120Y297520D01*
X730240Y297650D01*
X730370Y297790D01*
X730670Y298100D01*
X730780Y298250D01*
X730860Y298410D01*
X730920Y298570D01*
X730960Y298760D01*
X730980Y298980D01*
X730990Y299250D01*
X731000Y299560D01*
X731010Y300130D01*
X731040Y300350D01*
X731080Y300540D01*
X731140Y300710D01*
X731220Y300860D01*
X731330Y301010D01*
X731460Y301160D01*
X731620Y301330D01*
X732110Y301920D01*
X732220Y302190D01*
X732230Y302480D01*
X732130Y302800D01*
X731930Y303150D01*
X731610Y303560D01*
X731180Y304050D01*
X730620Y304620D01*
X729020Y306220D01*
X555450D01*
X381880Y306200D01*
X381500Y305700D01*
G37*
G36*
G01X875000Y615000D02*
Y645000D01*
X470000D01*
Y615000D01*
X875000D01*
G37*
G36*
G01X270000Y1305000D02*
Y1380000D01*
X255000D01*
Y1305000D01*
X270000D01*
G37*
G36*
G01X1433000Y1268000D02*
X1413000D01*
Y1193000D01*
X1403000Y1183000D01*
X1328000D01*
Y1163000D01*
X1433000D01*
Y1268000D01*
G37*
G54D10*
G01X875800Y480800D02*
X774200D01*
G01X875800Y379200D02*
X774200D01*
G01X824200Y480800D02*
Y379200D01*
G01X909200Y599200D02*
Y700800D01*
G01X1010800Y650800D02*
X909200D01*
G01X354200Y950800D02*
Y849200D01*
G01X455800Y950800D02*
Y849200D01*
G01X354200Y899200D02*
X455800D01*
G01X709200Y979200D02*
X854800D01*
G01X709200Y1080800D02*
X854800D01*
G01X760800Y979200D02*
Y1080800D01*
G01X855000Y980000D02*
Y1080000D01*
G01X524200Y1620800D02*
Y1519200D01*
G01X625800Y1620800D02*
Y1519200D01*
G01X524200Y1569200D02*
X625800D01*
G01Y1309200D02*
Y1410800D01*
G01X524200Y1309200D02*
Y1410800D01*
G01X625800Y1360800D02*
X524200D01*
G01X344200Y1074200D02*
X445800D01*
G01X344200Y1175800D02*
X445800D01*
G01X395800Y1074200D02*
Y1175800D01*
G01X534200Y979200D02*
X635800D01*
G01X534200Y1080800D02*
X635800D01*
G01X585800Y979200D02*
Y1080800D01*
G01X270000Y1790000D02*
Y2900000D01*
X560000D01*
Y1790000D01*
X270000D01*
G01X1010800Y599200D02*
Y700800D01*
G01X1339200Y684200D02*
X1484800D01*
G01X1339200Y785800D02*
X1484800D01*
G01X1390800Y684200D02*
Y785800D01*
G01X1485000Y685000D02*
Y785000D01*
G01X1129200Y684200D02*
X1230800D01*
G01X1129200Y785800D02*
X1230800D01*
G01X1180800Y684200D02*
Y785800D01*
G01X1230800Y665800D02*
X1129200D01*
G01X1230800Y564200D02*
X1129200D01*
G01X1179200Y665800D02*
Y564200D01*
G01X1440800Y665800D02*
X1339200D01*
G01X1440800Y564200D02*
X1339200D01*
G01X1389200Y665800D02*
Y564200D01*
G01X1250000Y1520000D02*
Y2760000D01*
X1400000D01*
Y1520000D01*
X1250000D01*
G01X1019400Y1259200D02*
Y1360800D01*
G01X917800Y1259200D02*
Y1360800D01*
G01X1019400Y1310800D02*
X917800D01*
G54D11*
G01X1150000Y1580000D02*
X1090000D01*
X1030000Y1520000D01*
Y1130000D01*
X1090000Y1070000D01*
X1150000D01*
X1170000Y1090000D01*
Y1120000D01*
X1150000Y1140000D01*
X1120000D01*
X1100000Y1160000D01*
Y1490000D01*
X1120000Y1510000D01*
X1150000D01*
X1170000Y1530000D01*
Y1560000D01*
X1150000Y1580000D01*
G54D12*
G01X0Y0D02*
X1750000D01*
Y410000D01*
X1830000D01*
Y0D01*
X2150000D01*
Y1310000D01*
X1830000D01*
Y950000D01*
X1750000D01*
Y3000000D01*
X1460000D01*
Y2860000D01*
X1400000Y2800000D01*
X1090000D01*
X1070000Y2780000D01*
Y2170000D01*
X650000D01*
Y2830000D01*
X480000Y3000000D01*
X0D01*
Y0D01*
G01X1830000Y530000D02*
X1750000D01*
Y820000D01*
X1830000D01*
Y530000D01*
G54D13*
G01X1240000Y1460000D02*
X1140000D01*
G01Y1280000D02*
Y1180000D01*
G01X1420000Y1370000D02*
Y1460000D01*
G01X1140000D02*
Y1370000D01*
G01Y1180000D02*
X1240000D01*
G01X1420000Y1460000D02*
X1320000D01*
G01X655000Y2835000D02*
X1065000D01*
Y2170000D01*
X655000D01*
Y2835000D01*
G54D14*
G01X813900Y619900D02*
X875000Y620000D01*
Y655000D01*
G01X820000Y620000D02*
X475000D01*
Y655000D01*
G01X605800Y384200D02*
X504200D01*
G01X605800Y485800D02*
X504200D01*
G01X605800Y504200D02*
X504200D01*
G01X605800Y605800D02*
X504200D01*
G01X774200D02*
X875800D01*
G01X774200Y504200D02*
X875800D01*
G01X875000Y935000D02*
Y970000D01*
X535000D01*
G01X540000D02*
X475000D01*
Y935000D01*
G01X678500Y1255000D02*
X780100D01*
G01X678500Y1356600D02*
X780100D01*
G01X249200Y1474200D02*
Y1575800D01*
G01X350800Y1474200D02*
Y1575800D01*
G01X385000Y1835710D02*
X306260D01*
Y1872710D01*
G01X344320Y1859080D02*
Y1835710D01*
G01X385000Y1929630D02*
X383690Y1921840D01*
X378440Y1915030D01*
X370570Y1909180D01*
X361380Y1905290D01*
X350880Y1903340D01*
X340380D01*
X329880Y1905290D01*
X320690Y1909180D01*
X312820Y1915030D01*
X307570Y1921840D01*
X306260Y1929630D01*
X307570Y1937420D01*
X312820Y1944230D01*
X320690Y1950080D01*
X329880Y1953970D01*
X340380Y1955920D01*
X350880D01*
X361380Y1953970D01*
X370570Y1950080D01*
X378440Y1944230D01*
X383690Y1937420D01*
X385000Y1929630D01*
G01Y1985580D02*
X306260D01*
Y2009920D01*
X310200Y2017710D01*
X315450Y2022580D01*
X325950Y2024520D01*
X336440Y2022580D01*
X343000Y2016730D01*
X346940Y2009920D01*
Y1985580D01*
G01Y2009920D02*
X385000Y2024520D01*
G01Y2175360D02*
Y2136420D01*
X306260D01*
Y2175360D01*
G01X344320Y2159780D02*
Y2136420D01*
G01X306260Y2206970D02*
X385000Y2231310D01*
X306260Y2255650D01*
G01X385000Y2282390D02*
X306260Y2306730D01*
X385000Y2331070D01*
G01X357440Y2322310D02*
Y2291150D01*
G01X306260Y2362680D02*
X385000D01*
Y2401620D01*
G01X306260Y2436150D02*
X362690D01*
X374500Y2440040D01*
X382380Y2447830D01*
X385000Y2457570D01*
X382380Y2467310D01*
X374500Y2475100D01*
X362690Y2478990D01*
X306260D01*
G01X385000Y2508650D02*
X306260Y2532990D01*
X385000Y2557330D01*
G01X357440Y2548570D02*
Y2517410D01*
G01X306260Y2608410D02*
X385000D01*
G01X306260Y2586020D02*
Y2630800D01*
G01Y2672150D02*
Y2695510D01*
G01Y2683830D02*
X385000D01*
G01Y2672150D02*
Y2695510D01*
G01Y2759250D02*
X383690Y2751460D01*
X378440Y2744650D01*
X370570Y2738800D01*
X361380Y2734910D01*
X350880Y2732960D01*
X340380D01*
X329880Y2734910D01*
X320690Y2738800D01*
X312820Y2744650D01*
X307570Y2751460D01*
X306260Y2759250D01*
X307570Y2767040D01*
X312820Y2773850D01*
X320690Y2779700D01*
X329880Y2783590D01*
X340380Y2785540D01*
X350880D01*
X361380Y2783590D01*
X370570Y2779700D01*
X378440Y2773850D01*
X383690Y2767040D01*
X385000Y2759250D01*
G01Y2812280D02*
X306260D01*
X385000Y2857060D01*
X306260D01*
G01X525000Y1884740D02*
X446260D01*
Y1908100D01*
X450200Y1915890D01*
X459380Y1921740D01*
X469880Y1923680D01*
X480380Y1921740D01*
X488260Y1916870D01*
X492190Y1908100D01*
Y1884740D01*
G01X446260Y1958210D02*
X502690D01*
X514500Y1962100D01*
X522380Y1969890D01*
X525000Y1979630D01*
X522380Y1989370D01*
X514500Y1997160D01*
X502690Y2001050D01*
X446260D01*
G01X525000Y2035580D02*
X446260D01*
Y2059920D01*
X450200Y2067710D01*
X455450Y2072580D01*
X465950Y2074520D01*
X476440Y2072580D01*
X483000Y2066730D01*
X486940Y2059920D01*
Y2035580D01*
G01Y2059920D02*
X525000Y2074520D01*
G01Y2111000D02*
X446260D01*
Y2134360D01*
X450200Y2142150D01*
X459380Y2148000D01*
X469880Y2149940D01*
X480380Y2148000D01*
X488260Y2143130D01*
X492190Y2134360D01*
Y2111000D01*
G01X525000Y2205890D02*
X523690Y2198100D01*
X518440Y2191290D01*
X510570Y2185440D01*
X501380Y2181550D01*
X490880Y2179600D01*
X480380D01*
X469880Y2181550D01*
X460690Y2185440D01*
X452820Y2191290D01*
X447570Y2198100D01*
X446260Y2205890D01*
X447570Y2213680D01*
X452820Y2220490D01*
X460690Y2226340D01*
X469880Y2230230D01*
X480380Y2232180D01*
X490880D01*
X501380Y2230230D01*
X510570Y2226340D01*
X518440Y2220490D01*
X523690Y2213680D01*
X525000Y2205890D01*
G01X514500Y2260860D02*
X521060Y2268650D01*
X525000Y2277420D01*
Y2285200D01*
X521060Y2292990D01*
X514500Y2298840D01*
X505310Y2301760D01*
X496130Y2299810D01*
X488260Y2294940D01*
X483000Y2286180D01*
X480380Y2274490D01*
X475130Y2267680D01*
X465950Y2264760D01*
X456760Y2266710D01*
X450200Y2271570D01*
X446260Y2278390D01*
Y2285200D01*
X448880Y2292020D01*
X455450Y2297860D01*
G01X525000Y2376200D02*
Y2337260D01*
X446260D01*
Y2376200D01*
G01X484320Y2360620D02*
Y2337260D01*
G01X514500Y2411700D02*
X521060Y2419490D01*
X525000Y2428260D01*
Y2436040D01*
X521060Y2443830D01*
X514500Y2449680D01*
X505310Y2452600D01*
X496130Y2450650D01*
X488260Y2445780D01*
X483000Y2437020D01*
X480380Y2425330D01*
X475130Y2418520D01*
X465950Y2415600D01*
X456760Y2417550D01*
X450200Y2422410D01*
X446260Y2429230D01*
Y2436040D01*
X448880Y2442860D01*
X455450Y2448700D01*
G01X525000Y2582990D02*
X523690Y2575200D01*
X518440Y2568390D01*
X510570Y2562540D01*
X501380Y2558650D01*
X490880Y2556700D01*
X480380D01*
X469880Y2558650D01*
X460690Y2562540D01*
X452820Y2568390D01*
X447570Y2575200D01*
X446260Y2582990D01*
X447570Y2590780D01*
X452820Y2597590D01*
X460690Y2603440D01*
X469880Y2607330D01*
X480380Y2609280D01*
X490880D01*
X501380Y2607330D01*
X510570Y2603440D01*
X518440Y2597590D01*
X523690Y2590780D01*
X525000Y2582990D01*
G01Y2636020D02*
X446260D01*
X525000Y2680800D01*
X446260D01*
G01Y2714360D02*
X525000D01*
Y2753300D01*
G01Y2809250D02*
X489570D01*
X446260Y2789780D01*
G01Y2828720D02*
X489570Y2809250D01*
G01X1539210Y40000D02*
X1531420Y41310D01*
X1524610Y46560D01*
X1518760Y54430D01*
X1514870Y63620D01*
X1512920Y74120D01*
Y84620D01*
X1514870Y95120D01*
X1518760Y104310D01*
X1524610Y112180D01*
X1531420Y117430D01*
X1539210Y118740D01*
X1547000Y117430D01*
X1553810Y112180D01*
X1559660Y104310D01*
X1563550Y95120D01*
X1565500Y84620D01*
Y74120D01*
X1563550Y63620D01*
X1559660Y54430D01*
X1553810Y46560D01*
X1547000Y41310D01*
X1539210Y40000D01*
G01X1596130D02*
Y118740D01*
X1633130D01*
G01X1619500Y80680D02*
X1596130D01*
G01X1671550Y40000D02*
Y118740D01*
X1708550D01*
G01X1694920Y80680D02*
X1671550D01*
G01X1099210Y40000D02*
X1091420Y41310D01*
X1084610Y46560D01*
X1078760Y54430D01*
X1074870Y63620D01*
X1072920Y74120D01*
Y84620D01*
X1074870Y95120D01*
X1078760Y104310D01*
X1084610Y112180D01*
X1091420Y117430D01*
X1099210Y118740D01*
X1107000Y117430D01*
X1113810Y112180D01*
X1119660Y104310D01*
X1123550Y95120D01*
X1125500Y84620D01*
Y74120D01*
X1123550Y63620D01*
X1119660Y54430D01*
X1113810Y46560D01*
X1107000Y41310D01*
X1099210Y40000D01*
G01X1152240D02*
Y118740D01*
X1197020Y40000D01*
Y118740D01*
G01X1079200Y300800D02*
Y199200D01*
G01X1180800Y300800D02*
Y199200D01*
G01Y369200D02*
Y470800D01*
G01X1079200Y369200D02*
Y470800D01*
G01X1354500Y1563760D02*
X1361060Y1571550D01*
X1365000Y1580320D01*
Y1588100D01*
X1361060Y1595890D01*
X1354500Y1601740D01*
X1345310Y1604660D01*
X1336130Y1602710D01*
X1328260Y1597840D01*
X1323000Y1589080D01*
X1320380Y1577390D01*
X1315130Y1570580D01*
X1305950Y1567660D01*
X1296760Y1569610D01*
X1290200Y1574470D01*
X1286260Y1581290D01*
Y1588100D01*
X1288880Y1594920D01*
X1295450Y1600760D01*
G01X1286260Y1659630D02*
X1365000D01*
G01X1286260Y1637240D02*
Y1682020D01*
G01X1365000Y1754520D02*
Y1715580D01*
X1286260D01*
Y1754520D01*
G01X1324320Y1738940D02*
Y1715580D01*
G01X1286260Y1786130D02*
X1365000Y1810470D01*
X1286260Y1834810D01*
G01X1365000Y1861550D02*
X1286260Y1885890D01*
X1365000Y1910230D01*
G01X1337440Y1901470D02*
Y1870310D01*
G01X1286260Y1941840D02*
X1365000D01*
Y1980780D01*
G01X1338750Y2024070D02*
Y2049390D01*
G01X1354500Y2091700D02*
X1361060Y2099490D01*
X1365000Y2108260D01*
Y2116040D01*
X1361060Y2123830D01*
X1354500Y2129680D01*
X1345310Y2132600D01*
X1336130Y2130650D01*
X1328260Y2125780D01*
X1323000Y2117020D01*
X1320380Y2105330D01*
X1315130Y2098520D01*
X1305950Y2095600D01*
X1296760Y2097550D01*
X1290200Y2102410D01*
X1286260Y2109230D01*
Y2116040D01*
X1288880Y2122860D01*
X1295450Y2128700D01*
G01X1286260Y2187570D02*
X1365000D01*
G01X1286260Y2165180D02*
Y2209960D01*
G01Y2243520D02*
X1365000D01*
Y2282460D01*
G01X1292820Y2359830D02*
X1288880Y2353990D01*
X1286260Y2347170D01*
Y2339380D01*
X1290200Y2330620D01*
X1296760Y2323810D01*
X1304630Y2318940D01*
X1317760Y2315040D01*
X1329570Y2314070D01*
X1341380Y2316020D01*
X1349250Y2318940D01*
X1357130Y2324780D01*
X1362380Y2331590D01*
X1365000Y2338410D01*
Y2345230D01*
X1362380Y2352040D01*
X1358440Y2357880D01*
X1353190Y2362750D01*
G01X1365000Y2394360D02*
X1286260D01*
Y2418700D01*
X1290200Y2426490D01*
X1295450Y2431360D01*
X1305950Y2433300D01*
X1316440Y2431360D01*
X1323000Y2425510D01*
X1326940Y2418700D01*
Y2394360D01*
G01Y2418700D02*
X1365000Y2433300D01*
G01X1286260Y2489250D02*
X1288880Y2481460D01*
X1295450Y2475620D01*
X1303320Y2471720D01*
X1313820Y2468800D01*
X1325630Y2467830D01*
X1337440Y2468800D01*
X1347940Y2471720D01*
X1355820Y2475620D01*
X1362380Y2481460D01*
X1365000Y2489250D01*
X1362380Y2497040D01*
X1355820Y2502880D01*
X1347940Y2506780D01*
X1337440Y2509700D01*
X1325630Y2510670D01*
X1313820Y2509700D01*
X1303320Y2506780D01*
X1295450Y2502880D01*
X1288880Y2497040D01*
X1286260Y2489250D01*
G01X1365000Y2564670D02*
X1286260D01*
X1302010Y2552990D01*
G01X1365000D02*
Y2576350D01*
G01X1286260Y2615750D02*
X1365000Y2640090D01*
X1286260Y2664430D01*
G01X1365000Y2715510D02*
X1286260D01*
X1302010Y2703830D01*
G01X1365000D02*
Y2727190D01*
G01X1269200Y1060800D02*
X1370800D01*
G01X1269200Y959200D02*
X1370800D01*
M02*
