G04 ================== begin FILE IDENTIFICATION RECORD ==================*
G04 Layout Name:  STEVAL-STLCR01V1.brd*
G04 Film Name:    STEVAL-STLCR01V1-15ASB.GBR*
G04 File Format:  Gerber RS274X*
G04 File Origin:  Cadence Allegro 16.5-P002*
G04 Origin Date:  Wed May 18 11:18:33 2016*
G04 *
G04 Layer:  REF DES/ASSEMBLY_BOTTOM*
G04 Layer:  PACKAGE GEOMETRY/ASSEMBLY_BOTTOM*
G04 Layer:  BOARD GEOMETRY/TOOLING_CORNERS*
G04 *
G04 Offset:    (0.0000 0.0000)*
G04 Mirror:    No*
G04 Mode:      Positive*
G04 Rotation:  0*
G04 FullContactRelief:  No*
G04 UndefLineWidth:     0.1000*
G04 ================== end FILE IDENTIFICATION RECORD ====================*
%FSLAX25Y25*MOMM*%
%IR0*IPPOS*OFA0.00000B0.00000*MIA0B0*SFA1.00000B1.00000*%
%ADD10C,.1*%
%ADD11C,.2*%
%ADD12C,.3*%
%ADD13C,.1524*%
G75*
%LPD*%
G75*
G54D10*
G01X126500Y120110D02*
G02X111500Y135100I-12J14988D01*
G01X156500Y-64900D02*
G02X145800Y-87900I-29984J-40D01*
G01X120800Y-108900D02*
X101500Y-86000D01*
G01X132300Y-99300D02*
X113000Y-76290D01*
G01X111490Y195100D02*
X111500Y135100D01*
G01X126500Y-64900D02*
Y450100D01*
G01X101500Y-86000D02*
X126500Y-64900D01*
G01X120800Y-108900D02*
X145800Y-87900D01*
G01X176500Y-49900D02*
X126500D01*
G01X111490Y195100D02*
G02X126500Y210110I15030J-20D01*
G01X307100Y450100D02*
X126500D01*
G01X281500Y100100D02*
G02X271500Y90100I-9977J-23D01*
G01Y120110D02*
G02X281500Y110100I-12J-10012D01*
G01X721490D02*
G02X731500Y120110I10030J-20D01*
G01Y90100D02*
G02X721490Y100100I-15J9995D01*
G01X784700Y60100D02*
G02X776000Y45100I-8655J-5003D01*
G01X702000D02*
G02X693400Y60100I27J9981D01*
G01X309700D02*
G02X301000Y45100I-8655J-5003D01*
G01X227000D02*
G02X218390Y60100I22J9984D01*
G01X891500Y135100D02*
G02X876500Y120110I-14974J-16D01*
G01X176500Y-49900D02*
G02X191500Y-64900I-8J-15008D01*
G01X811500D02*
G02X826500Y-49900I15023J-23D01*
G01X857200Y-87900D02*
G02X846500Y-64900I19308J22971D01*
G01X156500Y-49900D02*
Y-64900D01*
G01X176500Y450100D02*
Y-49900D01*
G01X191500Y-64900D02*
Y-101600D01*
G01X206500Y-85000D02*
Y-109900D01*
G01X221800Y46600D02*
Y66000D01*
G01X227000Y75100D02*
Y195090D01*
G01Y4100D02*
Y45100D01*
G01X232500D02*
Y90100D01*
G01X301000Y75100D02*
X309700Y60100D01*
G01X281500Y100100D02*
Y110100D01*
G01X301000Y4100D02*
Y45100D01*
G01Y195100D02*
Y75100D01*
G01X218390Y60100D02*
X227000Y75100D01*
G01X271500Y120110D02*
X227000Y120100D01*
G01X776000D02*
X731500Y120110D01*
G01X882200Y-108900D02*
X857200Y-87900D01*
G01X731500Y90100D02*
X776000D01*
G01X227000D02*
X271500D01*
G01X901500Y-86000D02*
X876500Y-64900D01*
G01X702000Y45100D02*
X776000D01*
G01X227000D02*
X301000D01*
G01X702000Y15100D02*
X776000D01*
G01X227000Y15110D02*
X301000Y15100D01*
G01X702000Y4100D02*
X776000D01*
G01X227000D02*
X301000D01*
G01X776000Y75100D02*
X784700Y60100D01*
G01X693400D02*
X702000Y75100D01*
G01X876500Y-49900D02*
X826500D01*
G01X702000Y75100D02*
Y195100D01*
G01Y4100D02*
Y45100D01*
G01X721490Y110100D02*
Y100100D01*
G01X811500Y-64900D02*
X191500D01*
G01X796500Y-85000D02*
X206500D01*
G01X796500Y-109900D02*
X206500D01*
G01X770500Y90100D02*
Y45100D01*
G01X776000Y4100D02*
Y45100D01*
G01Y195100D02*
Y75100D01*
G01X781300Y46600D02*
Y66000D01*
G01X796500Y-109900D02*
Y-85000D01*
G01X811500Y-101600D02*
Y-64900D01*
G01X826500Y450100D02*
Y-49900D01*
G01X846500Y-64900D02*
Y-49900D01*
G01X876500Y450100D02*
Y-64900D01*
G01X891500Y195100D02*
Y135100D01*
G01X890000Y-76300D02*
X870700Y-99300D01*
G01X901500Y-86000D02*
X882200Y-108900D01*
G01X186500Y360100D02*
G02X196500Y370100I10023J-23D01*
G01Y340100D02*
G02X186500Y350100I-8J9992D01*
G01X816500Y350110D02*
G02X806500Y340100I-9977J-33D01*
G01Y370100D02*
G02X816500Y360100I-8J-10008D01*
G01X876500Y210110D02*
G02X891500Y195100I-12J-15012D01*
G01X384000Y355100D02*
G02X368990Y340100I-14977J-23D01*
G01X439000Y370100D02*
G02X424000Y385090I-8J14992D01*
G01X579010Y385100D02*
G02X564000Y370100I-14980J-20D01*
G01X634000Y340100D02*
G02X619000Y355100I-8J14992D01*
G01X186500Y350100D02*
Y360100D01*
G01X691500Y450100D02*
X311500D01*
G01X876500D02*
X695900D01*
G01X225700D02*
Y370100D01*
G01X384000Y420100D02*
X311500D01*
G01X579000D02*
X424000D01*
G01X691500D02*
X619000D01*
G01X241000Y450100D02*
Y370100D01*
G01X263500D02*
Y375090D01*
G01X384000Y400110D02*
X359000Y400100D01*
G01X449000D02*
X424000D01*
G01X514000D02*
X489000D01*
G01X579000D02*
X554000Y400110D01*
G01X644000Y400100D02*
X619000Y400110D01*
G01X384010Y390100D02*
X359000D01*
G01X449000D02*
X424000D01*
G01X514000D02*
X489000D01*
G01X579000D02*
X553990D01*
G01X644000D02*
X619010D01*
G01X619000Y375100D02*
X739500D01*
G01X427900D02*
X575100D01*
G01X263500Y375090D02*
X384000Y375100D01*
G01X263500Y370100D02*
X196500D01*
G01X564000D02*
X439000D01*
G01X806500D02*
X739500D01*
G01X368990Y340100D02*
X196500D01*
G01X806500D02*
X634000D01*
G01X307100Y450100D02*
Y375090D01*
G01X311500Y450100D02*
Y420100D01*
G01X359000D02*
Y375100D01*
G01X384000Y450100D02*
Y355100D01*
G01X424000Y450100D02*
Y385090D01*
G01X449000Y420100D02*
Y375100D01*
G01X702000Y195100D02*
X776000D01*
G01X227000Y195090D02*
X301000Y195100D01*
G01X489000Y420100D02*
Y375100D01*
G01X514000Y420100D02*
Y375090D01*
G01X554000Y420100D02*
Y375100D01*
G01X579000Y450100D02*
X579010Y385100D01*
G01X619000Y450100D02*
Y355100D01*
G01X644000Y420100D02*
Y375100D01*
G01X691500Y450100D02*
Y420100D01*
G01X695900Y450100D02*
Y375100D01*
G01X739500Y370100D02*
Y375100D01*
G01X762000Y450100D02*
Y370100D01*
G01X777400Y450100D02*
Y370100D01*
G01X816500Y360100D02*
Y350110D01*
G01X1615000Y190000D02*
X1065000D01*
Y15000D01*
X1615000D01*
Y190000D01*
G01X655000Y2835000D02*
X1065000D01*
Y2170000D01*
X655000D01*
Y2835000D01*
G01X1040000Y315000D02*
Y765000D01*
X1580000D01*
Y315000D01*
X1040000D01*
G01X2132000Y1295000D02*
Y25000D01*
X1878000D01*
Y1295000D01*
X2132000D01*
G54D11*
G01X1150000Y1580000D02*
X1090000D01*
X1030000Y1520000D01*
Y1130000D01*
X1090000Y1070000D01*
X1150000D01*
X1170000Y1090000D01*
Y1120000D01*
X1150000Y1140000D01*
X1120000D01*
X1100000Y1160000D01*
Y1490000D01*
X1120000Y1510000D01*
X1150000D01*
X1170000Y1530000D01*
Y1560000D01*
X1150000Y1580000D01*
G54D12*
G01X0Y0D02*
X1750000D01*
Y410000D01*
X1830000D01*
Y0D01*
X2150000D01*
Y1310000D01*
X1830000D01*
Y950000D01*
X1750000D01*
Y3000000D01*
X1460000D01*
Y2860000D01*
X1400000Y2800000D01*
X1090000D01*
X1070000Y2780000D01*
Y2170000D01*
X650000D01*
Y2830000D01*
X480000Y3000000D01*
X0D01*
Y0D01*
G01X1830000Y530000D02*
X1750000D01*
Y820000D01*
X1830000D01*
Y530000D01*
G54D13*
G01X420000Y2150000D02*
X70000D01*
G03X-30000Y2050000I-25000J-75000D01*
G01Y1150000D01*
G03X70000Y1050000I100000J0D01*
G01X420000D01*
G01X596840Y323740D02*
Y267310D01*
X592950Y255500D01*
X585160Y247620D01*
X575420Y245000D01*
X565680Y247620D01*
X557890Y255500D01*
X554000Y267310D01*
Y323740D01*
G01X520450Y255500D02*
X512660Y248940D01*
X503890Y245000D01*
X496110D01*
X488320Y248940D01*
X482470Y255500D01*
X479550Y264690D01*
X481500Y273870D01*
X486370Y281740D01*
X495130Y287000D01*
X506820Y289620D01*
X513630Y294870D01*
X516550Y304050D01*
X514600Y313240D01*
X509740Y319800D01*
X502920Y323740D01*
X496110D01*
X489290Y321120D01*
X483450Y314550D01*
G01X416790Y287000D02*
X412900Y290930D01*
X409980Y297490D01*
X408030Y306680D01*
X409980Y314550D01*
X413870Y319800D01*
X420690Y323740D01*
X446970D01*
Y245000D01*
X414840D01*
X408030Y250250D01*
X404130Y258120D01*
X402190Y267310D01*
X404130Y276490D01*
X409980Y284370D01*
X416790Y287000D01*
X446970D01*
G01X420000Y2200000D02*
Y1005000D01*
X1565000D01*
Y2200000D01*
X420000D01*
G01X1435870Y70500D02*
X1428080Y63940D01*
X1419310Y60000D01*
X1411530D01*
X1403740Y63940D01*
X1397890Y70500D01*
X1394970Y79690D01*
X1396920Y88870D01*
X1401790Y96740D01*
X1410550Y102000D01*
X1422240Y104620D01*
X1429050Y109870D01*
X1431970Y119050D01*
X1430020Y128240D01*
X1425160Y134800D01*
X1418340Y138740D01*
X1411530D01*
X1404710Y136120D01*
X1398870Y129550D01*
G01X1369210Y138740D02*
X1355580Y60000D01*
X1340000Y138740D01*
X1324420Y60000D01*
X1310790Y138740D01*
G01X1264580Y60000D02*
Y138740D01*
X1276260Y122990D01*
G01Y60000D02*
X1252900D01*
G01X1392000Y449660D02*
X1395930Y453550D01*
X1402490Y456470D01*
X1411680Y458420D01*
X1419550Y456470D01*
X1424800Y452580D01*
X1428740Y445760D01*
Y419480D01*
X1350000D01*
Y451610D01*
X1355250Y458420D01*
X1363120Y462320D01*
X1372310Y464260D01*
X1381490Y462320D01*
X1389370Y456470D01*
X1392000Y449660D01*
Y419480D01*
G01X1350000Y492950D02*
X1428740Y517290D01*
X1350000Y541630D01*
G01X1377560Y532870D02*
Y501710D01*
G01X1428740Y592710D02*
X1350000D01*
G01X1428740Y570320D02*
Y615100D01*
G01Y668130D02*
X1350000D01*
G01X1428740Y645740D02*
Y690520D01*
G01X1385500Y1493760D02*
X1378940Y1501550D01*
X1375000Y1510320D01*
Y1518100D01*
X1378940Y1525890D01*
X1385500Y1531740D01*
X1394690Y1534660D01*
X1403870Y1532710D01*
X1411740Y1527840D01*
X1417000Y1519080D01*
X1419620Y1507390D01*
X1424870Y1500580D01*
X1434050Y1497660D01*
X1443240Y1499610D01*
X1449800Y1504470D01*
X1453740Y1511290D01*
Y1518100D01*
X1451120Y1524920D01*
X1444550Y1530760D01*
G01X1375000Y1568210D02*
X1453740D01*
Y1587680D01*
X1449800Y1595470D01*
X1444550Y1601310D01*
X1436680Y1606180D01*
X1427490Y1610080D01*
X1414370Y1611050D01*
X1401250Y1610080D01*
X1392060Y1606180D01*
X1384180Y1601310D01*
X1378940Y1595470D01*
X1375000Y1587680D01*
Y1568210D01*
G01X1909130Y776500D02*
X1916920Y783060D01*
X1925690Y787000D01*
X1933470D01*
X1941260Y783060D01*
X1947110Y776500D01*
X1950030Y767310D01*
X1948080Y758130D01*
X1943210Y750260D01*
X1934450Y745000D01*
X1922760Y742380D01*
X1915950Y737130D01*
X1913030Y727950D01*
X1914980Y718760D01*
X1919840Y712200D01*
X1926660Y708260D01*
X1933470D01*
X1940290Y710880D01*
X1946130Y717450D01*
G01X1975790Y708260D02*
X1989420Y787000D01*
X2005000Y708260D01*
X2020580Y787000D01*
X2034210Y708260D01*
G01X2059000Y787000D02*
Y708260D01*
X2078470D01*
X2086260Y712200D01*
X2092100Y717450D01*
X2096970Y725320D01*
X2100870Y734510D01*
X2101840Y747630D01*
X2100870Y760750D01*
X2096970Y769940D01*
X2092100Y777820D01*
X2086260Y783060D01*
X2078470Y787000D01*
X2059000D01*
M02*
