*
%LPD*%
%LNSTEVAL-STLCS01V1.crs*%
%FSLAX24Y24*%
%MOIN*%
%AD*%
%ADD10C,0.019685*%
%ADD45R,0.0185X0.00866*%
%ADD46R,0.02165X0.03622*%
%ADD47R,0.02756X0.03543*%
G54D10*
%SRX1Y1I0.0J0.0*%
G1X8315Y4309D2*
G1X8315Y4311D1*
G1X8315Y4313D1*
G1X8316Y4315D1*
G1X8318Y4317D1*
G1X8319Y4318D1*
G1X8321Y4319D1*
G1X8323Y4320D1*
G1X8325Y4320D1*
G1X8327Y4321D1*
G1X8329Y4320D1*
G1X8331Y4320D1*
G1X8333Y4319D1*
G1X8335Y4317D1*
G1X8336Y4316D1*
G1X8337Y4314D1*
G1X8338Y4312D1*
G1X8338Y4310D1*
G1X8338Y4308D1*
G1X8338Y4306D1*
G1X8337Y4304D1*
G1X8336Y4302D1*
G1X8335Y4300D1*
G1X8333Y4299D1*
G1X8331Y4298D1*
G1X8329Y4297D1*
G1X8327Y4297D1*
G1X8325Y4297D1*
G1X8323Y4298D1*
G1X8321Y4298D1*
G1X8319Y4300D1*
G1X8318Y4301D1*
G1X8316Y4303D1*
G1X8315Y4305D1*
G1X8315Y4307D1*
G1X8315Y4309D1*
G1X4043Y8935D2*
G1X4043Y8937D1*
G1X4044Y8939D1*
G1X4045Y8941D1*
G1X4046Y8942D1*
G1X4047Y8944D1*
G1X4049Y8945D1*
G1X4051Y8946D1*
G1X4053Y8946D1*
G1X4055Y8946D1*
G1X4057Y8946D1*
G1X4059Y8946D1*
G1X4061Y8944D1*
G1X4063Y8943D1*
G1X4064Y8942D1*
G1X4065Y8940D1*
G1X4066Y8938D1*
G1X4067Y8936D1*
G1X4067Y8934D1*
G1X4066Y8932D1*
G1X4065Y8930D1*
G1X4064Y8928D1*
G1X4063Y8926D1*
G1X4061Y8925D1*
G1X4059Y8924D1*
G1X4057Y8923D1*
G1X4055Y8923D1*
G1X4053Y8923D1*
G1X4051Y8923D1*
G1X4049Y8924D1*
G1X4047Y8925D1*
G1X4046Y8927D1*
G1X4045Y8929D1*
G1X4044Y8931D1*
G1X4043Y8933D1*
G1X4043Y8935D1*
G54D45*
G1X5480Y7547D3*
G1X5480Y7389D3*
G1X5480Y7232D3*
G1X5480Y7074D3*
G1X5480Y6917D3*
G1X5480Y6759D3*
G1X5480Y6602D3*
G1X5480Y6445D3*
G1X6586Y6445D3*
G1X6586Y6602D3*
G1X6586Y6759D3*
G1X6586Y6917D3*
G1X6586Y7074D3*
G1X6586Y7232D3*
G1X6586Y7389D3*
G1X6586Y7547D3*
G54D46*
G1X5496Y6149D3*
G1X6571Y6149D3*
G1X6571Y7842D3*
G1X5496Y7842D3*
G54D47*
G1X5256Y8846D3*
G1X4744Y8846D3*
M2*
