*
%LPD*%
%LNSTEVAL-STLCS01V1.l15*%
%FSLAX24Y24*%
%MOIN*%
%AD*%
%ADD25C,0.00394*%
%ADD37C,0.01591*%
%ADD48C,0.01787*%
%ADD49C,0.035*%
%ADD50C,0.03362*%
G54D48*
%SRX1Y1I0.0J0.0*%
G1X7136Y9206D3*
G1X7529Y9206D3*
G1X7923Y9206D3*
G54D37*
G1X7854Y8088D3*
G1X7569Y8088D3*
G1X7273Y8088D3*
G1X7608Y7793D3*
G1X7903Y7793D3*
G1X8208Y7793D3*
G1X8149Y8088D3*
G1X7992Y6838D3*
G1X7116Y5342D3*
G1X6889Y5342D3*
G1X6702Y4584D3*
G1X5600Y5785D3*
G1X5866Y6090D3*
G1X5866Y6317D3*
G1X5866Y6563D3*
G1X5049Y7271D3*
G1X4783Y7271D3*
G1X4517Y7271D3*
G1X4645Y7822D3*
G1X4931Y7822D3*
G1X4389Y7822D3*
G1X3779Y7350D3*
G1X4754Y6504D3*
G1X4636Y6287D3*
G1X4576Y4761D3*
G1X5029Y4752D3*
G1X5275Y4752D3*
G1X3691Y4348D3*
G1X6230Y7813D3*
G1X6269Y8384D3*
G1X6269Y8669D3*
G1X6269Y8964D3*
G1X6004Y8964D3*
G1X6004Y9269D3*
G1X6269Y9269D3*
G1X4744Y8846D3*
G1X3789Y9141D3*
G1X8386Y4840D3*
G1X3454Y4407D2*
G54D25*
G1X3454Y4230D1*
G1X8612Y4230D1*
G1X8612Y4407D1*
G1X8594Y4407D1*
G1X8457Y4544D1*
G1X8457Y4738D1*
G1X8594Y4875D1*
G1X8612Y4875D1*
G1X8612Y4907D1*
G1X8594Y4907D1*
G1X8457Y5044D1*
G1X8457Y5071D1*
G1X8028Y5500D1*
G1X7313Y5500D1*
G1X7313Y4749D1*
G1X7267Y4702D1*
G1X6942Y4378D1*
G1X6389Y4378D1*
G1X6387Y4375D1*
G1X5876Y4375D1*
G1X5864Y4388D1*
G1X5864Y4898D1*
G1X5864Y4899D1*
G1X5013Y4899D1*
G1X4727Y4614D1*
G1X4317Y4614D1*
G1X4271Y4660D1*
G1X3720Y5211D1*
G1X3720Y5241D1*
G1X3610Y5130D1*
G1X3610Y5044D1*
G1X3473Y4907D1*
G1X3454Y4907D1*
G1X3454Y4875D1*
G1X3473Y4875D1*
G1X3610Y4738D1*
G1X3610Y4544D1*
G1X3473Y4407D1*
G1X3454Y4407D1*
G1X3481Y4416D2*
G1X5864Y4416D1*
G1X5864Y4455D2*
G1X3520Y4455D1*
G1X3560Y4494D2*
G1X5864Y4494D1*
G1X5864Y4534D2*
G1X3599Y4534D1*
G1X3610Y4573D2*
G1X5864Y4573D1*
G1X5864Y4612D2*
G1X3610Y4612D1*
G1X3610Y4651D2*
G1X4280Y4651D1*
G1X4241Y4690D2*
G1X3610Y4690D1*
G1X3610Y4730D2*
G1X4202Y4730D1*
G1X4162Y4769D2*
G1X3579Y4769D1*
G1X3540Y4808D2*
G1X4123Y4808D1*
G1X4084Y4847D2*
G1X3501Y4847D1*
G1X3454Y4887D2*
G1X4045Y4887D1*
G1X4006Y4926D2*
G1X3491Y4926D1*
G1X3530Y4965D2*
G1X3966Y4965D1*
G1X3927Y5004D2*
G1X3570Y5004D1*
G1X3609Y5043D2*
G1X3888Y5043D1*
G1X3849Y5083D2*
G1X3610Y5083D1*
G1X3610Y5122D2*
G1X3809Y5122D1*
G1X3770Y5161D2*
G1X3641Y5161D1*
G1X3680Y5200D2*
G1X3731Y5200D1*
G1X3720Y5240D2*
G1X3719Y5240D1*
G1X3799Y5244D2*
G1X3799Y5319D1*
G1X3809Y5329D1*
G1X3809Y7211D1*
G1X3837Y7211D1*
G1X3918Y7293D1*
G1X3918Y7407D1*
G1X3837Y7489D1*
G1X3799Y7489D1*
G1X3799Y7960D1*
G1X3454Y7960D1*
G1X3454Y8315D1*
G1X3710Y8315D1*
G1X4389Y8994D1*
G1X5118Y8994D1*
G1X5492Y8620D1*
G1X5492Y7517D1*
G1X4652Y7517D1*
G1X4606Y7471D1*
G1X4545Y7410D1*
G1X4460Y7410D1*
G1X4379Y7329D1*
G1X4379Y7214D1*
G1X4460Y7133D1*
G1X4575Y7133D1*
G1X4650Y7208D1*
G1X4704Y7154D1*
G1X4704Y7111D1*
G1X4813Y7002D1*
G1X4859Y6956D1*
G1X5492Y6956D1*
G1X5492Y5873D1*
G1X5462Y5843D1*
G1X5462Y6310D1*
G1X5236Y6536D1*
G1X5190Y6582D1*
G1X4871Y6582D1*
G1X4811Y6642D1*
G1X4696Y6642D1*
G1X4615Y6561D1*
G1X4615Y6446D1*
G1X4696Y6365D1*
G1X4811Y6365D1*
G1X4871Y6425D1*
G1X5125Y6425D1*
G1X5305Y6245D1*
G1X5305Y5654D1*
G1X5351Y5608D1*
G1X5459Y5500D1*
G1X7234Y5500D1*
G1X7234Y4781D1*
G1X6909Y4456D1*
G1X6407Y4456D1*
G1X6407Y4978D1*
G1X4980Y4978D1*
G1X4695Y4693D1*
G1X4350Y4693D1*
G1X3799Y5244D1*
G1X3803Y5240D2*
G1X7234Y5240D1*
G1X7234Y5200D2*
G1X3842Y5200D1*
G1X3882Y5161D2*
G1X7234Y5161D1*
G1X7234Y5122D2*
G1X3921Y5122D1*
G1X3960Y5083D2*
G1X7234Y5083D1*
G1X7234Y5043D2*
G1X3999Y5043D1*
G1X4038Y5004D2*
G1X7234Y5004D1*
G1X7234Y4965D2*
G1X6407Y4965D1*
G1X6407Y4926D2*
G1X7234Y4926D1*
G1X7234Y4887D2*
G1X6407Y4887D1*
G1X6407Y4847D2*
G1X7234Y4847D1*
G1X7234Y4808D2*
G1X6407Y4808D1*
G1X6407Y4769D2*
G1X7222Y4769D1*
G1X7183Y4730D2*
G1X6407Y4730D1*
G1X6407Y4690D2*
G1X7143Y4690D1*
G1X7104Y4651D2*
G1X6407Y4651D1*
G1X6407Y4612D2*
G1X7065Y4612D1*
G1X7026Y4573D2*
G1X6407Y4573D1*
G1X6407Y4534D2*
G1X6986Y4534D1*
G1X6947Y4494D2*
G1X6407Y4494D1*
G1X6388Y4377D2*
G1X8612Y4377D1*
G1X8612Y4337D2*
G1X3454Y4337D1*
G1X3454Y4298D2*
G1X8612Y4298D1*
G1X8612Y4259D2*
G1X3454Y4259D1*
G1X3454Y4377D2*
G1X5875Y4377D1*
G1X5864Y4651D2*
G1X4765Y4651D1*
G1X4804Y4690D2*
G1X5864Y4690D1*
G1X5864Y4730D2*
G1X4843Y4730D1*
G1X4882Y4769D2*
G1X5864Y4769D1*
G1X5864Y4808D2*
G1X4922Y4808D1*
G1X4961Y4847D2*
G1X5864Y4847D1*
G1X5864Y4887D2*
G1X5000Y4887D1*
G1X4928Y4926D2*
G1X4117Y4926D1*
G1X4078Y4965D2*
G1X4967Y4965D1*
G1X4889Y4887D2*
G1X4156Y4887D1*
G1X4195Y4847D2*
G1X4849Y4847D1*
G1X4810Y4808D2*
G1X4235Y4808D1*
G1X4274Y4769D2*
G1X4771Y4769D1*
G1X4732Y4730D2*
G1X4313Y4730D1*
G1X3799Y5279D2*
G1X7234Y5279D1*
G1X7234Y5318D2*
G1X3799Y5318D1*
G1X3809Y5357D2*
G1X7234Y5357D1*
G1X7234Y5396D2*
G1X3809Y5396D1*
G1X3809Y5436D2*
G1X7234Y5436D1*
G1X7234Y5475D2*
G1X3809Y5475D1*
G1X3809Y5514D2*
G1X5445Y5514D1*
G1X5406Y5553D2*
G1X3809Y5553D1*
G1X3809Y5593D2*
G1X5366Y5593D1*
G1X5327Y5632D2*
G1X3809Y5632D1*
G1X3809Y5671D2*
G1X5305Y5671D1*
G1X5305Y5710D2*
G1X3809Y5710D1*
G1X3809Y5749D2*
G1X5305Y5749D1*
G1X5305Y5789D2*
G1X3809Y5789D1*
G1X3809Y5828D2*
G1X5305Y5828D1*
G1X5305Y5867D2*
G1X3809Y5867D1*
G1X3809Y5906D2*
G1X5305Y5906D1*
G1X5305Y5946D2*
G1X3809Y5946D1*
G1X3809Y5985D2*
G1X5305Y5985D1*
G1X5305Y6024D2*
G1X3809Y6024D1*
G1X3809Y6063D2*
G1X5305Y6063D1*
G1X5305Y6102D2*
G1X3809Y6102D1*
G1X3809Y6142D2*
G1X5305Y6142D1*
G1X5305Y6181D2*
G1X3809Y6181D1*
G1X3809Y6220D2*
G1X5305Y6220D1*
G1X5290Y6259D2*
G1X3809Y6259D1*
G1X3809Y6299D2*
G1X5251Y6299D1*
G1X5212Y6338D2*
G1X3809Y6338D1*
G1X3809Y6377D2*
G1X4684Y6377D1*
G1X4645Y6416D2*
G1X3809Y6416D1*
G1X3809Y6455D2*
G1X4615Y6455D1*
G1X4615Y6495D2*
G1X3809Y6495D1*
G1X3809Y6534D2*
G1X4615Y6534D1*
G1X4627Y6573D2*
G1X3809Y6573D1*
G1X3809Y6612D2*
G1X4666Y6612D1*
G1X4754Y6504D2*
G1X5157Y6504D1*
G1X5384Y6277D1*
G1X5384Y5687D1*
G1X5492Y5578D1*
G1X8061Y5578D1*
G1X8498Y5141D1*
G1X8691Y5141D1*
G1X8497Y5004D2*
G1X7313Y5004D1*
G1X7313Y4965D2*
G1X8536Y4965D1*
G1X8575Y4926D2*
G1X7313Y4926D1*
G1X7313Y4887D2*
G1X8612Y4887D1*
G1X8566Y4847D2*
G1X7313Y4847D1*
G1X7313Y4808D2*
G1X8526Y4808D1*
G1X8487Y4769D2*
G1X7313Y4769D1*
G1X7294Y4730D2*
G1X8457Y4730D1*
G1X8457Y4690D2*
G1X7255Y4690D1*
G1X7215Y4651D2*
G1X8457Y4651D1*
G1X8457Y4612D2*
G1X7176Y4612D1*
G1X7137Y4573D2*
G1X8457Y4573D1*
G1X8467Y4534D2*
G1X7098Y4534D1*
G1X7059Y4494D2*
G1X8507Y4494D1*
G1X8546Y4455D2*
G1X7019Y4455D1*
G1X6980Y4416D2*
G1X8585Y4416D1*
G1X8458Y5043D2*
G1X7313Y5043D1*
G1X7313Y5083D2*
G1X8445Y5083D1*
G1X8406Y5122D2*
G1X7313Y5122D1*
G1X7313Y5161D2*
G1X8367Y5161D1*
G1X8327Y5200D2*
G1X7313Y5200D1*
G1X7313Y5240D2*
G1X8288Y5240D1*
G1X8249Y5279D2*
G1X7313Y5279D1*
G1X7313Y5318D2*
G1X8210Y5318D1*
G1X8171Y5357D2*
G1X7313Y5357D1*
G1X7313Y5396D2*
G1X8131Y5396D1*
G1X8092Y5436D2*
G1X7313Y5436D1*
G1X7313Y5475D2*
G1X8053Y5475D1*
G1X8547Y5785D2*
G1X8691Y5641D1*
G1X8547Y5785D2*
G1X5600Y5785D1*
G1X5486Y5867D2*
G1X5462Y5867D1*
G1X5462Y5906D2*
G1X5492Y5906D1*
G1X5492Y5946D2*
G1X5462Y5946D1*
G1X5462Y5985D2*
G1X5492Y5985D1*
G1X5492Y6024D2*
G1X5462Y6024D1*
G1X5462Y6063D2*
G1X5492Y6063D1*
G1X5492Y6102D2*
G1X5462Y6102D1*
G1X5462Y6142D2*
G1X5492Y6142D1*
G1X5492Y6181D2*
G1X5462Y6181D1*
G1X5462Y6220D2*
G1X5492Y6220D1*
G1X5492Y6259D2*
G1X5462Y6259D1*
G1X5462Y6299D2*
G1X5492Y6299D1*
G1X5492Y6338D2*
G1X5434Y6338D1*
G1X5395Y6377D2*
G1X5492Y6377D1*
G1X5492Y6416D2*
G1X5356Y6416D1*
G1X5317Y6455D2*
G1X5492Y6455D1*
G1X5492Y6495D2*
G1X5277Y6495D1*
G1X5238Y6534D2*
G1X5492Y6534D1*
G1X5492Y6573D2*
G1X5199Y6573D1*
G1X5133Y6416D2*
G1X4862Y6416D1*
G1X4823Y6377D2*
G1X5172Y6377D1*
G1X5492Y6612D2*
G1X4841Y6612D1*
G1X4850Y6965D2*
G1X3809Y6965D1*
G1X3809Y7005D2*
G1X4811Y7005D1*
G1X4771Y7044D2*
G1X3809Y7044D1*
G1X3809Y7083D2*
G1X4732Y7083D1*
G1X4704Y7122D2*
G1X3809Y7122D1*
G1X3809Y7161D2*
G1X4431Y7161D1*
G1X4392Y7201D2*
G1X3809Y7201D1*
G1X3865Y7240D2*
G1X4379Y7240D1*
G1X4379Y7279D2*
G1X3904Y7279D1*
G1X3918Y7318D2*
G1X4379Y7318D1*
G1X4408Y7358D2*
G1X3918Y7358D1*
G1X3918Y7397D2*
G1X4447Y7397D1*
G1X4571Y7436D2*
G1X3889Y7436D1*
G1X3850Y7475D2*
G1X4610Y7475D1*
G1X4649Y7514D2*
G1X3799Y7514D1*
G1X3799Y7554D2*
G1X5492Y7554D1*
G1X5492Y7593D2*
G1X3799Y7593D1*
G1X3799Y7632D2*
G1X5492Y7632D1*
G1X5492Y7671D2*
G1X3799Y7671D1*
G1X3799Y7711D2*
G1X5492Y7711D1*
G1X5492Y7750D2*
G1X3799Y7750D1*
G1X3799Y7789D2*
G1X5492Y7789D1*
G1X5492Y7828D2*
G1X3799Y7828D1*
G1X3799Y7867D2*
G1X5492Y7867D1*
G1X5492Y7907D2*
G1X3799Y7907D1*
G1X3799Y7946D2*
G1X5492Y7946D1*
G1X5492Y7985D2*
G1X3454Y7985D1*
G1X3454Y8024D2*
G1X5492Y8024D1*
G1X5492Y8064D2*
G1X3454Y8064D1*
G1X3454Y8103D2*
G1X5492Y8103D1*
G1X5492Y8142D2*
G1X3454Y8142D1*
G1X3454Y8181D2*
G1X5492Y8181D1*
G1X5492Y8220D2*
G1X3454Y8220D1*
G1X3454Y8260D2*
G1X5492Y8260D1*
G1X5492Y8299D2*
G1X3454Y8299D1*
G1X3454Y8393D2*
G1X3454Y8414D1*
G1X3470Y8414D1*
G1X3603Y8547D1*
G1X3603Y8735D1*
G1X3470Y8869D1*
G1X3454Y8869D1*
G1X3454Y9378D1*
G1X6385Y9378D1*
G1X6385Y8187D1*
G1X6398Y8175D1*
G1X8385Y8175D1*
G1X8398Y8187D1*
G1X8398Y9378D1*
G1X8612Y9378D1*
G1X8612Y7875D1*
G1X8594Y7875D1*
G1X8457Y7738D1*
G1X8457Y7544D1*
G1X8469Y7532D1*
G1X8455Y7517D1*
G1X5571Y7517D1*
G1X5571Y8587D1*
G1X5571Y8652D1*
G1X5197Y9026D1*
G1X5150Y9072D1*
G1X4357Y9072D1*
G1X4311Y9026D1*
G1X3678Y8393D1*
G1X3454Y8393D1*
G1X3472Y8417D2*
G1X3701Y8417D1*
G1X3740Y8456D2*
G1X3511Y8456D1*
G1X3551Y8495D2*
G1X3779Y8495D1*
G1X3819Y8534D2*
G1X3590Y8534D1*
G1X3603Y8573D2*
G1X3858Y8573D1*
G1X3897Y8613D2*
G1X3603Y8613D1*
G1X3603Y8652D2*
G1X3936Y8652D1*
G1X3975Y8691D2*
G1X3603Y8691D1*
G1X3603Y8730D2*
G1X4015Y8730D1*
G1X4054Y8769D2*
G1X3569Y8769D1*
G1X3530Y8809D2*
G1X4093Y8809D1*
G1X4132Y8848D2*
G1X3490Y8848D1*
G1X3454Y8887D2*
G1X4172Y8887D1*
G1X4211Y8926D2*
G1X3454Y8926D1*
G1X3454Y8966D2*
G1X4250Y8966D1*
G1X4289Y9005D2*
G1X3454Y9005D1*
G1X3454Y9044D2*
G1X4328Y9044D1*
G1X4311Y9026D3*
G1X4361Y8966D2*
G1X5146Y8966D1*
G1X5185Y8926D2*
G1X4322Y8926D1*
G1X4283Y8887D2*
G1X5224Y8887D1*
G1X5264Y8848D2*
G1X4244Y8848D1*
G1X4204Y8809D2*
G1X5303Y8809D1*
G1X5342Y8769D2*
G1X4165Y8769D1*
G1X4126Y8730D2*
G1X5381Y8730D1*
G1X5421Y8691D2*
G1X4087Y8691D1*
G1X4048Y8652D2*
G1X5460Y8652D1*
G1X5492Y8613D2*
G1X4008Y8613D1*
G1X3969Y8573D2*
G1X5492Y8573D1*
G1X5492Y8534D2*
G1X3930Y8534D1*
G1X3891Y8495D2*
G1X5492Y8495D1*
G1X5492Y8456D2*
G1X3851Y8456D1*
G1X3812Y8417D2*
G1X5492Y8417D1*
G1X5492Y8377D2*
G1X3773Y8377D1*
G1X3734Y8338D2*
G1X5492Y8338D1*
G1X5571Y8338D2*
G1X6385Y8338D1*
G1X6385Y8299D2*
G1X5571Y8299D1*
G1X5571Y8260D2*
G1X6385Y8260D1*
G1X6385Y8220D2*
G1X5571Y8220D1*
G1X5571Y8181D2*
G1X6392Y8181D1*
G1X6385Y8377D2*
G1X5571Y8377D1*
G1X5571Y8417D2*
G1X6385Y8417D1*
G1X6385Y8456D2*
G1X5571Y8456D1*
G1X5571Y8495D2*
G1X6385Y8495D1*
G1X6385Y8534D2*
G1X5571Y8534D1*
G1X5571Y8573D2*
G1X6385Y8573D1*
G1X6385Y8613D2*
G1X5571Y8613D1*
G1X5571Y8652D2*
G1X6385Y8652D1*
G1X6385Y8691D2*
G1X5532Y8691D1*
G1X5493Y8730D2*
G1X6385Y8730D1*
G1X6385Y8769D2*
G1X5453Y8769D1*
G1X5414Y8809D2*
G1X6385Y8809D1*
G1X6385Y8848D2*
G1X5375Y8848D1*
G1X5336Y8887D2*
G1X6385Y8887D1*
G1X6385Y8926D2*
G1X5297Y8926D1*
G1X5257Y8966D2*
G1X6385Y8966D1*
G1X6385Y9005D2*
G1X5218Y9005D1*
G1X5179Y9044D2*
G1X6385Y9044D1*
G1X6385Y9083D2*
G1X3454Y9083D1*
G1X3454Y9122D2*
G1X6385Y9122D1*
G1X6385Y9162D2*
G1X3454Y9162D1*
G1X3454Y9201D2*
G1X6385Y9201D1*
G1X6385Y9240D2*
G1X3454Y9240D1*
G1X3454Y9279D2*
G1X6385Y9279D1*
G1X6385Y9319D2*
G1X3454Y9319D1*
G1X3454Y9358D2*
G1X6385Y9358D1*
G1X5571Y8142D2*
G1X8612Y8142D1*
G1X8612Y8103D2*
G1X5571Y8103D1*
G1X5571Y8064D2*
G1X8612Y8064D1*
G1X8612Y8024D2*
G1X5571Y8024D1*
G1X5571Y7985D2*
G1X8612Y7985D1*
G1X8612Y7946D2*
G1X5571Y7946D1*
G1X5571Y7907D2*
G1X8612Y7907D1*
G1X8586Y7867D2*
G1X5571Y7867D1*
G1X5571Y7828D2*
G1X8546Y7828D1*
G1X8507Y7789D2*
G1X5571Y7789D1*
G1X5571Y7750D2*
G1X8468Y7750D1*
G1X8457Y7711D2*
G1X5571Y7711D1*
G1X5571Y7671D2*
G1X8457Y7671D1*
G1X8457Y7632D2*
G1X5571Y7632D1*
G1X5571Y7593D2*
G1X8457Y7593D1*
G1X8457Y7554D2*
G1X5571Y7554D1*
G1X5492Y6926D2*
G1X3809Y6926D1*
G1X3809Y6887D2*
G1X5492Y6887D1*
G1X5492Y6848D2*
G1X3809Y6848D1*
G1X3809Y6808D2*
G1X5492Y6808D1*
G1X5492Y6769D2*
G1X3809Y6769D1*
G1X3809Y6730D2*
G1X5492Y6730D1*
G1X5492Y6691D2*
G1X3809Y6691D1*
G1X3809Y6652D2*
G1X5492Y6652D1*
G1X5866Y6563D2*
G1X6141Y6838D1*
G1X7992Y6838D1*
G1X8514Y6641D2*
G1X8051Y6179D1*
G1X6289Y6179D1*
G1X6151Y6317D1*
G1X5866Y6317D1*
G1X5866Y6090D2*
G1X5905Y6051D1*
G1X8504Y6051D1*
G1X8594Y6141D1*
G1X8691Y6141D1*
G1X8691Y6641D2*
G1X8514Y6641D1*
G1X8582Y7035D2*
G1X8691Y7143D1*
G1X8689Y7143D1*
G1X8691Y7141D1*
G1X8582Y7035D2*
G1X4891Y7035D1*
G1X4783Y7143D1*
G1X4783Y7271D1*
G1X4697Y7161D2*
G1X4604Y7161D1*
G1X4643Y7201D2*
G1X4658Y7201D1*
G1X4517Y7271D2*
G1X4685Y7439D1*
G1X8488Y7439D1*
G1X8691Y7641D1*
G1X8612Y8181D2*
G1X8391Y8181D1*
G1X8398Y8220D2*
G1X8612Y8220D1*
G1X8612Y8260D2*
G1X8398Y8260D1*
G1X8398Y8299D2*
G1X8612Y8299D1*
G1X8612Y8338D2*
G1X8398Y8338D1*
G1X8398Y8377D2*
G1X8612Y8377D1*
G1X8612Y8417D2*
G1X8398Y8417D1*
G1X8398Y8456D2*
G1X8612Y8456D1*
G1X8612Y8495D2*
G1X8398Y8495D1*
G1X8398Y8534D2*
G1X8612Y8534D1*
G1X8612Y8573D2*
G1X8398Y8573D1*
G1X8398Y8613D2*
G1X8612Y8613D1*
G1X8612Y8652D2*
G1X8398Y8652D1*
G1X8398Y8691D2*
G1X8612Y8691D1*
G1X8612Y8730D2*
G1X8398Y8730D1*
G1X8398Y8769D2*
G1X8612Y8769D1*
G1X8612Y8809D2*
G1X8398Y8809D1*
G1X8398Y8848D2*
G1X8612Y8848D1*
G1X8612Y8887D2*
G1X8398Y8887D1*
G1X8398Y8926D2*
G1X8612Y8926D1*
G1X8612Y8966D2*
G1X8398Y8966D1*
G1X8398Y9005D2*
G1X8612Y9005D1*
G1X8612Y9044D2*
G1X8398Y9044D1*
G1X8398Y9083D2*
G1X8612Y9083D1*
G1X8612Y9122D2*
G1X8398Y9122D1*
G1X8398Y9162D2*
G1X8612Y9162D1*
G1X8612Y9201D2*
G1X8398Y9201D1*
G1X8398Y9240D2*
G1X8612Y9240D1*
G1X8612Y9279D2*
G1X8398Y9279D1*
G1X8398Y9319D2*
G1X8612Y9319D1*
G1X8612Y9358D2*
G1X8398Y9358D1*
G1X3779Y7350D2*
G1X3730Y7301D1*
G1X3730Y5362D1*
G1X3510Y5141D1*
G1X3376Y5141D1*
G1X3530Y5318D2*
G1X3575Y5318D1*
G1X3552Y5296D2*
G1X3473Y5375D1*
G1X3454Y5375D1*
G1X3454Y5407D1*
G1X3473Y5407D1*
G1X3610Y5544D1*
G1X3610Y5738D1*
G1X3473Y5875D1*
G1X3454Y5875D1*
G1X3454Y5907D1*
G1X3473Y5907D1*
G1X3610Y6044D1*
G1X3610Y6238D1*
G1X3473Y6375D1*
G1X3454Y6375D1*
G1X3454Y6907D1*
G1X3473Y6907D1*
G1X3610Y7044D1*
G1X3610Y7238D1*
G1X3473Y7375D1*
G1X3454Y7375D1*
G1X3454Y7407D1*
G1X3473Y7407D1*
G1X3610Y7544D1*
G1X3610Y7738D1*
G1X3473Y7875D1*
G1X3454Y7875D1*
G1X3454Y7882D1*
G1X3720Y7882D1*
G1X3720Y7487D1*
G1X3641Y7407D1*
G1X3641Y7293D1*
G1X3651Y7282D1*
G1X3651Y5394D1*
G1X3552Y5296D1*
G1X3491Y5357D2*
G1X3614Y5357D1*
G1X3651Y5396D2*
G1X3454Y5396D1*
G1X3501Y5436D2*
G1X3651Y5436D1*
G1X3651Y5475D2*
G1X3540Y5475D1*
G1X3579Y5514D2*
G1X3651Y5514D1*
G1X3651Y5553D2*
G1X3610Y5553D1*
G1X3610Y5593D2*
G1X3651Y5593D1*
G1X3651Y5632D2*
G1X3610Y5632D1*
G1X3610Y5671D2*
G1X3651Y5671D1*
G1X3651Y5710D2*
G1X3610Y5710D1*
G1X3599Y5749D2*
G1X3651Y5749D1*
G1X3651Y5789D2*
G1X3559Y5789D1*
G1X3520Y5828D2*
G1X3651Y5828D1*
G1X3651Y5867D2*
G1X3481Y5867D1*
G1X3454Y5906D2*
G1X3651Y5906D1*
G1X3651Y5946D2*
G1X3511Y5946D1*
G1X3550Y5985D2*
G1X3651Y5985D1*
G1X3651Y6024D2*
G1X3589Y6024D1*
G1X3610Y6063D2*
G1X3651Y6063D1*
G1X3651Y6102D2*
G1X3610Y6102D1*
G1X3610Y6142D2*
G1X3651Y6142D1*
G1X3651Y6181D2*
G1X3610Y6181D1*
G1X3610Y6220D2*
G1X3651Y6220D1*
G1X3651Y6259D2*
G1X3589Y6259D1*
G1X3550Y6299D2*
G1X3651Y6299D1*
G1X3651Y6338D2*
G1X3510Y6338D1*
G1X3454Y6377D2*
G1X3651Y6377D1*
G1X3651Y6416D2*
G1X3454Y6416D1*
G1X3454Y6455D2*
G1X3651Y6455D1*
G1X3651Y6495D2*
G1X3454Y6495D1*
G1X3454Y6534D2*
G1X3651Y6534D1*
G1X3651Y6573D2*
G1X3454Y6573D1*
G1X3454Y6612D2*
G1X3651Y6612D1*
G1X3651Y6652D2*
G1X3454Y6652D1*
G1X3454Y6691D2*
G1X3651Y6691D1*
G1X3651Y6730D2*
G1X3454Y6730D1*
G1X3454Y6769D2*
G1X3651Y6769D1*
G1X3651Y6808D2*
G1X3454Y6808D1*
G1X3454Y6848D2*
G1X3651Y6848D1*
G1X3651Y6887D2*
G1X3454Y6887D1*
G1X3491Y6926D2*
G1X3651Y6926D1*
G1X3651Y6965D2*
G1X3531Y6965D1*
G1X3570Y7005D2*
G1X3651Y7005D1*
G1X3651Y7044D2*
G1X3609Y7044D1*
G1X3610Y7083D2*
G1X3651Y7083D1*
G1X3651Y7122D2*
G1X3610Y7122D1*
G1X3610Y7161D2*
G1X3651Y7161D1*
G1X3651Y7201D2*
G1X3610Y7201D1*
G1X3608Y7240D2*
G1X3651Y7240D1*
G1X3651Y7279D2*
G1X3569Y7279D1*
G1X3530Y7318D2*
G1X3641Y7318D1*
G1X3641Y7358D2*
G1X3491Y7358D1*
G1X3454Y7397D2*
G1X3641Y7397D1*
G1X3669Y7436D2*
G1X3501Y7436D1*
G1X3541Y7475D2*
G1X3708Y7475D1*
G1X3720Y7514D2*
G1X3580Y7514D1*
G1X3610Y7554D2*
G1X3720Y7554D1*
G1X3720Y7593D2*
G1X3610Y7593D1*
G1X3610Y7632D2*
G1X3720Y7632D1*
G1X3720Y7671D2*
G1X3610Y7671D1*
G1X3610Y7711D2*
G1X3720Y7711D1*
G1X3720Y7750D2*
G1X3598Y7750D1*
G1X3559Y7789D2*
G1X3720Y7789D1*
G1X3720Y7828D2*
G1X3520Y7828D1*
G1X3481Y7867D2*
G1X3720Y7867D1*
G54D49*
G1X3376Y7641D3*
G1X3376Y8141D3*
G1X3376Y7141D3*
G1X3376Y6641D3*
G1X3376Y6141D3*
G1X3376Y5641D3*
G1X3376Y5141D3*
G1X3376Y4641D3*
G1X8691Y4641D3*
G1X8691Y5141D3*
G1X8691Y5641D3*
G1X8691Y6141D3*
G1X8691Y6641D3*
G1X8691Y7141D3*
G1X8691Y7641D3*
G1X8691Y8141D3*
G1X8691Y8641D3*
G54D50*
G1X3376Y8641D3*
M2*
