*
%LPD*%
%LNSTEVAL-STLCS01V1.plc*%
%FSLAX24Y24*%
%MOIN*%
%AD*%
%ADD10C,0.019685*%
%ADD18C,0*%
%ADD25C,0.00394*%
%ADD40C,0.00197*%
%ADD53C,0.002*%
%ADD54R,0.01767X0.00014*%
%ADD55R,0.00751X0.00014*%
%ADD56R,0.01808X0.00014*%
%ADD57R,0.00904X0.00014*%
%ADD58R,0.01836X0.00014*%
%ADD59R,0.00987X0.00014*%
%ADD60R,0.0185X0.00014*%
%ADD61R,0.01057X0.00014*%
%ADD62R,0.01127X0.00014*%
%ADD63R,0.01169X0.00014*%
%ADD64R,0.01822X0.00014*%
%ADD65R,0.0121X0.00014*%
%ADD66R,0.01794X0.00014*%
%ADD67R,0.01252X0.00014*%
%ADD68R,0.0178X0.00014*%
%ADD69R,0.01294X0.00014*%
%ADD70R,0.01321X0.00014*%
%ADD71R,0.01752X0.00014*%
%ADD72R,0.01363X0.00014*%
%ADD73R,0.01739X0.00014*%
%ADD74R,0.01377X0.00014*%
%ADD75R,0.01724X0.00014*%
%ADD76R,0.01405X0.00014*%
%ADD77R,0.01419X0.00014*%
%ADD78R,0.01696X0.00014*%
%ADD79R,0.01446X0.00014*%
%ADD80R,0.01683X0.00014*%
%ADD81R,0.01461X0.00014*%
%ADD82R,0.01474X0.00014*%
%ADD83R,0.01655X0.00014*%
%ADD84R,0.01502X0.00014*%
%ADD85R,0.01516X0.00014*%
%ADD86R,0.01641X0.00014*%
%ADD87R,0.0153X0.00014*%
%ADD88R,0.01627X0.00014*%
%ADD89R,0.01544X0.00014*%
%ADD90R,0.01558X0.00014*%
%ADD91R,0.01613X0.00014*%
%ADD92R,0.01585X0.00014*%
%ADD93R,0.016X0.00014*%
%ADD94R,0.01586X0.00014*%
%ADD95R,0.01572X0.00014*%
%ADD96R,0.01557X0.00014*%
%ADD97R,0.01571X0.00014*%
%ADD98R,0.01669X0.00014*%
%ADD99R,0.01711X0.00014*%
%ADD100R,0.01725X0.00014*%
%ADD101R,0.01488X0.00014*%
%ADD102R,0.01766X0.00014*%
%ADD103R,0.0146X0.00014*%
%ADD104R,0.01822X0.00014*%
%ADD105R,0.01461X0.00014*%
%ADD106R,0.01808X0.00014*%
%ADD107R,0.01822X0.00014*%
%ADD108R,0.01446X0.00014*%
%ADD109R,0.01822X0.00014*%
%ADD110R,0.01446X0.00014*%
%ADD111R,0.01822X0.00014*%
%ADD112R,0.01446X0.00014*%
%ADD113R,0.01836X0.00014*%
%ADD114R,0.01836X0.00014*%
%ADD115R,0.0185X0.00014*%
%ADD116R,0.0185X0.00014*%
%ADD117R,0.01432X0.00014*%
%ADD118R,0.0185X0.00014*%
%ADD119R,0.01864X0.00014*%
%ADD120R,0.01461X0.00014*%
%ADD121R,0.01863X0.00014*%
%ADD122R,0.01863X0.00014*%
%ADD123R,0.01864X0.00014*%
%ADD124R,0.01864X0.00014*%
%ADD125R,0.01474X0.00014*%
%ADD126R,0.0185X0.00014*%
%ADD127R,0.01474X0.00014*%
%ADD128R,0.04158X0.00014*%
%ADD129R,0.01474X0.00014*%
%ADD130R,0.0427X0.00014*%
%ADD131R,0.04326X0.00014*%
%ADD132R,0.04367X0.00014*%
%ADD133R,0.04381X0.00014*%
%ADD134R,0.04422X0.00014*%
%ADD135R,0.04437X0.00014*%
%ADD136R,0.01502X0.00014*%
%ADD137R,0.0445X0.00014*%
%ADD138R,0.04464X0.00014*%
%ADD139R,0.0185X0.00014*%
%ADD140R,0.04464X0.00014*%
%ADD141R,0.04465X0.00014*%
%ADD142R,0.04478X0.00014*%
%ADD143R,0.01516X0.00014*%
%ADD144R,0.04465X0.00014*%
%ADD145R,0.01516X0.00014*%
%ADD146R,0.0153X0.00014*%
%ADD147R,0.04478X0.00014*%
%ADD148R,0.04464X0.00014*%
%ADD149R,0.0445X0.00014*%
%ADD150R,0.01544X0.00014*%
%ADD151R,0.04437X0.00014*%
%ADD152R,0.01558X0.00014*%
%ADD153R,0.0185X0.00014*%
%ADD154R,0.01572X0.00014*%
%ADD155R,0.04422X0.00014*%
%ADD156R,0.04409X0.00014*%
%ADD157R,0.04395X0.00014*%
%ADD158R,0.04395X0.00014*%
%ADD159R,0.016X0.00014*%
%ADD160R,0.04367X0.00014*%
%ADD161R,0.04353X0.00014*%
%ADD162R,0.01613X0.00014*%
%ADD163R,0.04339X0.00014*%
%ADD164R,0.04311X0.00014*%
%ADD165R,0.04311X0.00014*%
%ADD166R,0.04298X0.00014*%
%ADD167R,0.0427X0.00014*%
%ADD168R,0.04256X0.00014*%
%ADD169R,0.04242X0.00014*%
%ADD170R,0.01669X0.00014*%
%ADD171R,0.04228X0.00014*%
%ADD172R,0.042X0.00014*%
%ADD173R,0.01683X0.00014*%
%ADD174R,0.04172X0.00014*%
%ADD175R,0.01683X0.00014*%
%ADD176R,0.04158X0.00014*%
%ADD177R,0.04131X0.00014*%
%ADD178R,0.04117X0.00014*%
%ADD179R,0.01711X0.00014*%
%ADD180R,0.04103X0.00014*%
%ADD181R,0.04075X0.00014*%
%ADD182R,0.04061X0.00014*%
%ADD183R,0.04033X0.00014*%
%ADD184R,0.04019X0.00014*%
%ADD185R,0.04006X0.00014*%
%ADD186R,0.03978X0.00014*%
%ADD187R,0.03964X0.00014*%
%ADD188R,0.03936X0.00014*%
%ADD189R,0.03908X0.00014*%
%ADD190R,0.0388X0.00014*%
%ADD191R,0.03866X0.00014*%
%ADD192R,0.01822X0.00014*%
%ADD193R,0.03852X0.00014*%
%ADD194R,0.03825X0.00014*%
%ADD195R,0.03811X0.00014*%
%ADD196R,0.03783X0.00014*%
%ADD197R,0.01878X0.00014*%
%ADD198R,0.03769X0.00014*%
%ADD199R,0.01878X0.00014*%
%ADD200R,0.03755X0.00014*%
%ADD201R,0.01905X0.00014*%
%ADD202R,0.03727X0.00014*%
%ADD203R,0.01905X0.00014*%
%ADD204R,0.03713X0.00014*%
%ADD205R,0.01919X0.00014*%
%ADD206R,0.03686X0.00014*%
%ADD207R,0.01933X0.00014*%
%ADD208R,0.03672X0.00014*%
%ADD209R,0.03644X0.00014*%
%ADD210R,0.01961X0.00014*%
%ADD211R,0.01863X0.00014*%
%ADD212R,0.0363X0.00014*%
%ADD213R,0.01961X0.00014*%
%ADD214R,0.03602X0.00014*%
%ADD215R,0.01989X0.00014*%
%ADD216R,0.03574X0.00014*%
%ADD217R,0.01989X0.00014*%
%ADD218R,0.0356X0.00014*%
%ADD219R,0.02003X0.00014*%
%ADD220R,0.03533X0.00014*%
%ADD221R,0.02017X0.00014*%
%ADD222R,0.03519X0.00014*%
%ADD223R,0.02031X0.00014*%
%ADD224R,0.03505X0.00014*%
%ADD225R,0.02044X0.00014*%
%ADD226R,0.03477X0.00014*%
%ADD227R,0.02058X0.00014*%
%ADD228R,0.03463X0.00014*%
%ADD229R,0.02058X0.00014*%
%ADD230R,0.03435X0.00014*%
%ADD231R,0.02086X0.00014*%
%ADD232R,0.03421X0.00014*%
%ADD233R,0.021X0.00014*%
%ADD234R,0.03394X0.00014*%
%ADD235R,0.02114X0.00014*%
%ADD236R,0.0338X0.00014*%
%ADD237R,0.02128X0.00014*%
%ADD238R,0.03366X0.00014*%
%ADD239R,0.02128X0.00014*%
%ADD240R,0.03338X0.00014*%
%ADD241R,0.02156X0.00014*%
%ADD242R,0.0331X0.00014*%
%ADD243R,0.0217X0.00014*%
%ADD244R,0.03282X0.00014*%
%ADD245R,0.02183X0.00014*%
%ADD246R,0.03268X0.00014*%
%ADD247R,0.02197X0.00014*%
%ADD248R,0.03254X0.00014*%
%ADD249R,0.02226X0.00014*%
%ADD250R,0.03227X0.00014*%
%ADD251R,0.02226X0.00014*%
%ADD252R,0.03213X0.00014*%
%ADD253R,0.02239X0.00014*%
%ADD254R,0.03185X0.00014*%
%ADD255R,0.02267X0.00014*%
%ADD256R,0.03171X0.00014*%
%ADD257R,0.02281X0.00014*%
%ADD258R,0.03143X0.00014*%
%ADD259R,0.02295X0.00014*%
%ADD260R,0.03129X0.00014*%
%ADD261R,0.02309X0.00014*%
%ADD262R,0.03115X0.00014*%
%ADD263R,0.02322X0.00014*%
%ADD264R,0.03087X0.00014*%
%ADD265R,0.02351X0.00014*%
%ADD266R,0.0306X0.00014*%
%ADD267R,0.02365X0.00014*%
%ADD268R,0.03032X0.00014*%
%ADD269R,0.02392X0.00014*%
%ADD270R,0.03018X0.00014*%
%ADD271R,0.02392X0.00014*%
%ADD272R,0.0299X0.00014*%
%ADD273R,0.0242X0.00014*%
%ADD274R,0.02976X0.00014*%
%ADD275R,0.02434X0.00014*%
%ADD276R,0.02962X0.00014*%
%ADD277R,0.02448X0.00014*%
%ADD278R,0.02935X0.00014*%
%ADD279R,0.02476X0.00014*%
%ADD280R,0.0292X0.00014*%
%ADD281R,0.0249X0.00014*%
%ADD282R,0.02893X0.00014*%
%ADD283R,0.02517X0.00014*%
%ADD284R,0.02879X0.00014*%
%ADD285R,0.02531X0.00014*%
%ADD286R,0.02865X0.00014*%
%ADD287R,0.02559X0.00014*%
%ADD288R,0.02837X0.00014*%
%ADD289R,0.02587X0.00014*%
%ADD290R,0.02823X0.00014*%
%ADD291R,0.02601X0.00014*%
%ADD292R,0.02796X0.00014*%
%ADD293R,0.02629X0.00014*%
%ADD294R,0.02768X0.00014*%
%ADD295R,0.02643X0.00014*%
%ADD296R,0.02754X0.00014*%
%ADD297R,0.0267X0.00014*%
%ADD298R,0.02726X0.00014*%
%ADD299R,0.02684X0.00014*%
%ADD300R,0.02712X0.00014*%
%ADD301R,0.02698X0.00014*%
%ADD302R,0.02684X0.00014*%
%ADD303R,0.02726X0.00014*%
%ADD304R,0.01864X0.00014*%
%ADD305R,0.0267X0.00014*%
%ADD306R,0.0274X0.00014*%
%ADD307R,0.02643X0.00014*%
%ADD308R,0.02768X0.00014*%
%ADD309R,0.02629X0.00014*%
%ADD310R,0.02796X0.00014*%
%ADD311R,0.02615X0.00014*%
%ADD312R,0.02823X0.00014*%
%ADD313R,0.01863X0.00014*%
%ADD314R,0.02587X0.00014*%
%ADD315R,0.02837X0.00014*%
%ADD316R,0.02573X0.00014*%
%ADD317R,0.02851X0.00014*%
%ADD318R,0.02545X0.00014*%
%ADD319R,0.02879X0.00014*%
%ADD320R,0.02531X0.00014*%
%ADD321R,0.02893X0.00014*%
%ADD322R,0.02504X0.00014*%
%ADD323R,0.02476X0.00014*%
%ADD324R,0.02934X0.00014*%
%ADD325R,0.02462X0.00014*%
%ADD326R,0.02948X0.00014*%
%ADD327R,0.02434X0.00014*%
%ADD328R,0.02976X0.00014*%
%ADD329R,0.0242X0.00014*%
%ADD330R,0.0299X0.00014*%
%ADD331R,0.03018X0.00014*%
%ADD332R,0.02378X0.00014*%
%ADD333R,0.03032X0.00014*%
%ADD334R,0.02364X0.00014*%
%ADD335R,0.03074X0.00014*%
%ADD336R,0.02337X0.00014*%
%ADD337R,0.03087X0.00014*%
%ADD338R,0.02322X0.00014*%
%ADD339R,0.03101X0.00014*%
%ADD340R,0.02295X0.00014*%
%ADD341R,0.0313X0.00014*%
%ADD342R,0.02281X0.00014*%
%ADD343R,0.03143X0.00014*%
%ADD344R,0.02253X0.00014*%
%ADD345R,0.03171X0.00014*%
%ADD346R,0.02225X0.00014*%
%ADD347R,0.02211X0.00014*%
%ADD348R,0.03213X0.00014*%
%ADD349R,0.02183X0.00014*%
%ADD350R,0.03226X0.00014*%
%ADD351R,0.03241X0.00014*%
%ADD352R,0.02142X0.00014*%
%ADD353R,0.03269X0.00014*%
%ADD354R,0.02128X0.00014*%
%ADD355R,0.03282X0.00014*%
%ADD356R,0.021X0.00014*%
%ADD357R,0.02086X0.00014*%
%ADD358R,0.03338X0.00014*%
%ADD359R,0.02072X0.00014*%
%ADD360R,0.03365X0.00014*%
%ADD361R,0.02044X0.00014*%
%ADD362R,0.0338X0.00014*%
%ADD363R,0.0203X0.00014*%
%ADD364R,0.03393X0.00014*%
%ADD365R,0.02017X0.00014*%
%ADD366R,0.03421X0.00014*%
%ADD367R,0.03435X0.00014*%
%ADD368R,0.01975X0.00014*%
%ADD369R,0.03463X0.00014*%
%ADD370R,0.01961X0.00014*%
%ADD371R,0.03477X0.00014*%
%ADD372R,0.01947X0.00014*%
%ADD373R,0.03491X0.00014*%
%ADD374R,0.01933X0.00014*%
%ADD375R,0.03519X0.00014*%
%ADD376R,0.01919X0.00014*%
%ADD377R,0.03532X0.00014*%
%ADD378R,0.01892X0.00014*%
%ADD379R,0.03561X0.00014*%
%ADD380R,0.01892X0.00014*%
%ADD381R,0.03574X0.00014*%
%ADD382R,0.01878X0.00014*%
%ADD383R,0.03602X0.00014*%
%ADD384R,0.0363X0.00014*%
%ADD385R,0.03644X0.00014*%
%ADD386R,0.01808X0.00014*%
%ADD387R,0.03685X0.00014*%
%ADD388R,0.03713X0.00014*%
%ADD389R,0.03728X0.00014*%
%ADD390R,0.03741X0.00014*%
%ADD391R,0.01753X0.00014*%
%ADD392R,0.03769X0.00014*%
%ADD393R,0.01753X0.00014*%
%ADD394R,0.01724X0.00014*%
%ADD395R,0.03811X0.00014*%
%ADD396R,0.03824X0.00014*%
%ADD397R,0.01711X0.00014*%
%ADD398R,0.03839X0.00014*%
%ADD399R,0.01697X0.00014*%
%ADD400R,0.03867X0.00014*%
%ADD401R,0.03894X0.00014*%
%ADD402R,0.01669X0.00014*%
%ADD403R,0.03922X0.00014*%
%ADD404R,0.03936X0.00014*%
%ADD405R,0.03964X0.00014*%
%ADD406R,0.01641X0.00014*%
%ADD407R,0.03978X0.00014*%
%ADD408R,0.03991X0.00014*%
%ADD409R,0.0402X0.00014*%
%ADD410R,0.04033X0.00014*%
%ADD411R,0.01586X0.00014*%
%ADD412R,0.04061X0.00014*%
%ADD413R,0.01586X0.00014*%
%ADD414R,0.04075X0.00014*%
%ADD415R,0.04103X0.00014*%
%ADD416R,0.04117X0.00014*%
%ADD417R,0.01544X0.00014*%
%ADD418R,0.04159X0.00014*%
%ADD419R,0.04187X0.00014*%
%ADD420R,0.04214X0.00014*%
%ADD421R,0.04228X0.00014*%
%ADD422R,0.04242X0.00014*%
%ADD423R,0.04283X0.00014*%
%ADD424R,0.04326X0.00014*%
%ADD425R,0.04339X0.00014*%
%ADD426R,0.01432X0.00014*%
%ADD427R,0.01432X0.00014*%
%ADD428R,0.01419X0.00014*%
%ADD429R,0.01405X0.00014*%
%ADD430R,0.04493X0.00014*%
%ADD431R,0.01391X0.00014*%
%ADD432R,0.0452X0.00014*%
%ADD433R,0.01391X0.00014*%
%ADD434R,0.04534X0.00014*%
%ADD435R,0.01377X0.00014*%
%ADD436R,0.04562X0.00014*%
%ADD437R,0.04576X0.00014*%
%ADD438R,0.01377X0.00014*%
%ADD439R,0.04576X0.00014*%
%ADD440R,0.01363X0.00014*%
%ADD441R,0.04604X0.00014*%
%ADD442R,0.01349X0.00014*%
%ADD443R,0.04604X0.00014*%
%ADD444R,0.01349X0.00014*%
%ADD445R,0.04631X0.00014*%
%ADD446R,0.01335X0.00014*%
%ADD447R,0.01335X0.00014*%
%ADD448R,0.04645X0.00014*%
%ADD449R,0.01321X0.00014*%
%ADD450R,0.04659X0.00014*%
%ADD451R,0.04673X0.00014*%
%ADD452R,0.01307X0.00014*%
%ADD453R,0.04687X0.00014*%
%ADD454R,0.01307X0.00014*%
%ADD455R,0.04687X0.00014*%
%ADD456R,0.01307X0.00014*%
%ADD457R,0.04701X0.00014*%
%ADD458R,0.04701X0.00014*%
%ADD459R,0.01294X0.00014*%
%ADD460R,0.04701X0.00014*%
%ADD461R,0.0128X0.00014*%
%ADD462R,0.04715X0.00014*%
%ADD463R,0.0128X0.00014*%
%ADD464R,0.04715X0.00014*%
%ADD465R,0.0128X0.00014*%
%ADD466R,0.04715X0.00014*%
%ADD467R,0.01266X0.00014*%
%ADD468R,0.04729X0.00014*%
%ADD469R,0.01266X0.00014*%
%ADD470R,0.04715X0.00014*%
%ADD471R,0.04729X0.00014*%
%ADD472R,0.01252X0.00014*%
%ADD473R,0.04715X0.00014*%
%ADD474R,0.01238X0.00014*%
%ADD475R,0.04729X0.00014*%
%ADD476R,0.01252X0.00014*%
%ADD477R,0.01238X0.00014*%
%ADD478R,0.01224X0.00014*%
%ADD479R,0.04701X0.00014*%
%ADD480R,0.01224X0.00014*%
%ADD481R,0.04673X0.00014*%
%ADD482R,0.0121X0.00014*%
%ADD483R,0.04659X0.00014*%
%ADD484R,0.01808X0.00014*%
%ADD485R,0.01224X0.00014*%
%ADD486R,0.04631X0.00014*%
%ADD487R,0.0121X0.00014*%
%ADD488R,0.04562X0.00014*%
%ADD489R,0.04506X0.00014*%
%ADD490R,0.01196X0.00014*%
%ADD491R,0.00459X0.00014*%
%ADD492R,0.01196X0.00014*%
%ADD493R,0.01196X0.00014*%
%ADD494R,0.01182X0.00014*%
%ADD495R,0.01182X0.00014*%
%ADD496R,0.01182X0.00014*%
%ADD497R,0.01168X0.00014*%
%ADD498R,0.01168X0.00014*%
%ADD499R,0.01182X0.00014*%
%ADD500R,0.01169X0.00014*%
%ADD501R,0.01169X0.00014*%
%ADD502R,0.01154X0.00014*%
%ADD503R,0.01154X0.00014*%
%ADD504R,0.01169X0.00014*%
%ADD505R,0.01168X0.00014*%
%ADD506R,0.01182X0.00014*%
%ADD507R,0.01196X0.00014*%
%ADD508R,0.01224X0.00014*%
%ADD509R,0.01224X0.00014*%
%ADD510R,0.01224X0.00014*%
%ADD511R,0.01224X0.00014*%
%ADD512R,0.01252X0.00014*%
%ADD513R,0.01266X0.00014*%
%ADD514R,0.01265X0.00014*%
%ADD515R,0.01265X0.00014*%
%ADD516R,0.01321X0.00014*%
%ADD517R,0.01335X0.00014*%
%ADD518R,0.01349X0.00014*%
%ADD519R,0.01377X0.00014*%
%ADD520R,0.01419X0.00014*%
%ADD521R,0.01544X0.00014*%
%ADD522R,0.01585X0.00014*%
%ADD523R,0.01641X0.00014*%
%ADD524R,0.01697X0.00014*%
%ADD525R,0.0178X0.00014*%
%ADD526R,0.01891X0.00014*%
%ADD527R,0.01961X0.00014*%
%ADD528R,0.02072X0.00014*%
%ADD529R,0.1032X0.00014*%
%ADD530R,0.10348X0.00014*%
%ADD531R,0.10347X0.00014*%
%ADD532R,0.10347X0.00014*%
%ADD533R,0.10348X0.00014*%
%ADD534R,0.10348X0.00014*%
%ADD535R,0.10347X0.00014*%
%ADD536R,0.10333X0.00014*%
%ADD537R,0.10334X0.00014*%
%ADD538R,0.10334X0.00014*%
%ADD539R,0.10333X0.00014*%
%ADD540R,0.1032X0.00014*%
%ADD541R,0.1032X0.00014*%
%ADD542R,0.10306X0.00014*%
%ADD543R,0.1032X0.00014*%
%ADD544R,0.10306X0.00014*%
%ADD545R,0.10292X0.00014*%
%ADD546R,0.10292X0.00014*%
%ADD547R,0.10292X0.00014*%
%ADD548R,0.10278X0.00014*%
%ADD549R,0.10278X0.00014*%
%ADD550R,0.10264X0.00014*%
%ADD551R,0.10264X0.00014*%
%ADD552R,0.10264X0.00014*%
%ADD553R,0.1025X0.00014*%
%ADD554R,0.1025X0.00014*%
%ADD555R,0.10236X0.00014*%
%ADD556R,0.10222X0.00014*%
%ADD557R,0.10222X0.00014*%
%ADD558R,0.10208X0.00014*%
%ADD559R,0.10209X0.00014*%
%ADD560R,0.10194X0.00014*%
%ADD561R,0.10194X0.00014*%
%ADD562R,0.10181X0.00014*%
%ADD563R,0.10167X0.00014*%
%ADD564R,0.10139X0.00014*%
%ADD565R,0.10125X0.00014*%
%ADD566R,0.10125X0.00014*%
%ADD567R,0.10111X0.00014*%
%ADD568R,0.10097X0.00014*%
%ADD569R,0.10083X0.00014*%
%ADD570R,0.10083X0.00014*%
%ADD571R,0.10055X0.00014*%
%ADD572R,0.10041X0.00014*%
%ADD573R,0.10028X0.00014*%
%ADD574R,0.1X0.00014*%
%ADD575R,0.1X0.00014*%
%ADD576R,0.09972X0.00014*%
%ADD577R,0.09944X0.00014*%
%ADD578R,0.0993X0.00014*%
%ADD579R,0.09916X0.00014*%
%ADD580R,0.09902X0.00014*%
%ADD581R,0.09861X0.00014*%
%ADD582R,0.09833X0.00014*%
%ADD583R,0.09819X0.00014*%
%ADD584R,0.09777X0.00014*%
%ADD585R,0.09735X0.00014*%
%ADD586R,0.09694X0.00014*%
%ADD587R,0.09652X0.00014*%
%ADD588R,0.09596X0.00014*%
%ADD589R,0.09527X0.00014*%
%ADD590R,0.09443X0.00014*%
%ADD591R,0.09332X0.00014*%
G54D18*
%SRX1Y1I0.0J0.0*%
G1X3376Y9456D2*
G1X8691Y9456D1*
G1X8691Y4141D2*
G54D40*
G1X3376Y4141D1*
G54D54*
G1X7728Y7563D3*
G54D55*
G1X8002Y7563D3*
G54D56*
G1X7730Y7564D3*
G54D57*
G1X8007Y7564D3*
G54D58*
G1X8077Y7640D3*
G1X7731Y7565D3*
G54D59*
G1X8010Y7565D3*
G54D60*
G1X8085Y7654D3*
G1X8089Y7666D3*
G1X8097Y7686D3*
G1X8106Y7706D3*
G1X8111Y7718D3*
G1X8116Y7730D3*
G1X8124Y7750D3*
G1X8132Y7770D3*
G1X8136Y7778D3*
G1X8153Y7819D3*
G1X8157Y7830D3*
G1X8167Y7853D3*
G1X8180Y7882D3*
G1X8184Y7894D3*
G1X8217Y7974D3*
G1X8221Y7985D3*
G1X8225Y7994D3*
G1X7817Y7761D3*
G1X7732Y7567D3*
G1X7335Y7898D3*
G54D61*
G1X8013Y7567D3*
G54D60*
G1X8084Y7653D3*
G1X8086Y7660D3*
G1X8091Y7668D3*
G1X8095Y7679D3*
G1X8100Y7692D3*
G1X8104Y7703D3*
G1X8109Y7713D3*
G1X8110Y7717D3*
G1X8117Y7732D3*
G1X8118Y7735D3*
G1X8121Y7743D3*
G1X8122Y7745D3*
G1X8125Y7752D3*
G1X8127Y7756D3*
G1X8131Y7767D3*
G1X8134Y7773D3*
G1X8135Y7775D3*
G1X8135Y7777D3*
G1X8138Y7784D3*
G1X8142Y7792D3*
G1X8143Y7796D3*
G1X8146Y7803D3*
G1X8150Y7813D3*
G1X8152Y7816D3*
G1X8160Y7835D3*
G1X8160Y7837D3*
G1X8164Y7845D3*
G1X8168Y7856D3*
G1X8177Y7877D3*
G1X8178Y7880D3*
G1X8186Y7901D3*
G1X8195Y7920D3*
G1X8198Y7927D3*
G1X8202Y7937D3*
G1X8203Y7941D3*
G1X8206Y7948D3*
G1X8214Y7967D3*
G1X8214Y7969D3*
G1X8223Y7988D3*
G1X8224Y7991D3*
G1X8227Y7997D3*
G1X7734Y7568D3*
G54D62*
G1X8015Y7568D3*
G54D58*
G1X8079Y7642D3*
G1X7737Y7570D3*
G54D63*
G1X8017Y7570D3*
G1X7364Y8049D3*
G1X7365Y8054D3*
G54D64*
G1X7739Y7571D3*
G54D65*
G1X8020Y7571D3*
G1X7376Y8073D3*
G54D66*
G1X7740Y7572D3*
G1X8071Y7628D3*
G54D67*
G1X8022Y7572D3*
G1X7343Y7988D3*
G1X7343Y7991D3*
G54D68*
G1X7742Y7574D3*
G54D69*
G1X8024Y7574D3*
G1X7341Y7978D3*
G54D68*
G1X7335Y7905D3*
G1X7816Y7752D3*
G1X7744Y7575D3*
G54D70*
G1X8025Y7575D3*
G1X7391Y8095D3*
G1X7339Y7973D3*
G54D71*
G1X7816Y7748D3*
G1X7745Y7577D3*
G54D72*
G1X8027Y7577D3*
G1X7394Y8099D3*
G54D73*
G1X7747Y7578D3*
G54D74*
G1X8029Y7578D3*
G1X7338Y7962D3*
G54D75*
G1X7335Y7912D3*
G1X7816Y7743D3*
G1X7749Y7581D3*
G1X7748Y7579D3*
G1X8061Y7613D3*
G54D76*
G1X8031Y7579D3*
G1X7398Y8104D3*
G1X7337Y7956D3*
G54D77*
G1X8033Y7581D3*
G54D78*
G1X7750Y7582D3*
G54D79*
G1X7789Y7646D3*
G1X8034Y7582D3*
G54D80*
G1X8057Y7607D3*
G1X7751Y7583D3*
G54D81*
G1X7785Y7636D3*
G1X7801Y7675D3*
G1X7801Y7677D3*
G1X8036Y7583D3*
G54D80*
G1X7753Y7585D3*
G1X7334Y7916D3*
G54D82*
G1X7336Y7944D3*
G1X7802Y7681D3*
G1X7802Y7679D3*
G1X7781Y7628D3*
G1X8037Y7585D3*
G54D83*
G1X8053Y7602D3*
G1X7814Y7730D3*
G1X7754Y7586D3*
G54D84*
G1X8038Y7586D3*
G54D83*
G1X7814Y7731D3*
G1X7755Y7588D3*
G1X7334Y7919D3*
G54D85*
G1X7807Y7695D3*
G1X8040Y7588D3*
G54D86*
G1X8051Y7600D3*
G1X7756Y7589D3*
G1X7335Y7920D3*
G54D87*
G1X7335Y7935D3*
G1X7335Y7937D3*
G1X7809Y7703D3*
G1X7771Y7611D3*
G1X7769Y7607D3*
G1X8041Y7589D3*
G54D88*
G1X7814Y7727D3*
G1X7757Y7590D3*
G54D89*
G1X7810Y7706D3*
G1X8043Y7590D3*
G54D88*
G1X7814Y7728D3*
G1X7758Y7592D3*
G54D90*
G1X7767Y7604D3*
G1X7810Y7709D3*
G1X8044Y7592D3*
G54D91*
G1X7759Y7593D3*
G54D92*
G1X7812Y7716D3*
G1X8045Y7593D3*
G54D93*
G1X7812Y7718D3*
G1X7761Y7595D3*
G54D94*
G1X8047Y7595D3*
G54D92*
G1X7812Y7717D3*
G1X7762Y7596D3*
G54D93*
G1X7812Y7720D3*
G1X8047Y7596D3*
G1X7415Y8119D3*
G54D95*
G1X7334Y7930D3*
G1X7811Y7714D3*
G1X7762Y7597D3*
G54D91*
G1X7813Y7723D3*
G1X8049Y7597D3*
G1X7335Y7926D3*
G54D95*
G1X7764Y7599D3*
G54D88*
G1X7814Y7725D3*
G1X8050Y7599D3*
G1X7334Y7923D3*
G54D96*
G1X7335Y7931D3*
G1X7335Y7933D3*
G1X7411Y8116D3*
G1X7764Y7600D3*
G54D97*
G1X7765Y7602D3*
G54D96*
G1X7766Y7603D3*
G54D98*
G1X8054Y7603D3*
G1X8055Y7604D3*
G1X7814Y7732D3*
G1X7814Y7735D3*
G1X8232Y8008D3*
G54D89*
G1X7768Y7606D3*
G54D80*
G1X8056Y7606D3*
G54D87*
G1X7809Y7704D3*
G1X7770Y7609D3*
G54D78*
G1X8058Y7609D3*
G54D85*
G1X7771Y7610D3*
G1X7335Y7938D3*
G1X7408Y8113D3*
G54D99*
G1X8059Y7610D3*
G1X8060Y7611D3*
G1X7815Y7739D3*
G1X7815Y7741D3*
G54D85*
G1X7807Y7696D3*
G1X7772Y7613D3*
G54D84*
G1X7773Y7614D3*
G54D100*
G1X8062Y7614D3*
G54D84*
G1X7774Y7615D3*
G54D73*
G1X7815Y7745D3*
G1X8063Y7615D3*
G1X7423Y8124D3*
G54D101*
G1X7335Y7941D3*
G1X7804Y7688D3*
G1X7804Y7685D3*
G1X7778Y7621D3*
G1X7775Y7617D3*
G54D71*
G1X7816Y7749D3*
G1X8063Y7617D3*
G54D84*
G1X7807Y7698D3*
G1X7806Y7693D3*
G1X7775Y7618D3*
G54D71*
G1X7816Y7746D3*
G1X8065Y7618D3*
G54D101*
G1X7805Y7689D3*
G1X7776Y7620D3*
G54D102*
G1X8065Y7620D3*
G1X8067Y7621D3*
G54D101*
G1X7805Y7691D3*
G1X7804Y7686D3*
G1X7778Y7622D3*
G1X7335Y7942D3*
G54D68*
G1X7335Y7906D3*
G1X7816Y7750D3*
G1X8068Y7622D3*
G54D82*
G1X7778Y7624D3*
G54D54*
G1X8068Y7624D3*
G1X8230Y8005D3*
G54D82*
G1X7780Y7625D3*
G1X7336Y7945D3*
G54D68*
G1X8069Y7625D3*
G1X8229Y8003D3*
G54D82*
G1X7780Y7627D3*
G1X7404Y8111D3*
G54D66*
G1X7817Y7755D3*
G1X8070Y7627D3*
G54D103*
G1X7800Y7674D3*
G1X7798Y7670D3*
G1X7796Y7661D3*
G1X7783Y7634D3*
G1X7782Y7629D3*
G1X7335Y7946D3*
G54D56*
G1X8072Y7629D3*
G54D103*
G1X7800Y7672D3*
G1X7782Y7631D3*
G1X7403Y8109D3*
G54D66*
G1X7817Y7753D3*
G1X8072Y7631D3*
G54D103*
G1X7798Y7668D3*
G1X7783Y7632D3*
G54D56*
G1X7816Y7756D3*
G1X8073Y7632D3*
G1X7335Y7903D3*
G54D104*
G1X8074Y7634D3*
G54D105*
G1X7785Y7635D3*
G54D106*
G1X8075Y7635D3*
G54D107*
G1X8075Y7636D3*
G1X8228Y8001D3*
G1X7335Y7901D3*
G54D108*
G1X7336Y7949D3*
G1X7795Y7659D3*
G1X7791Y7650D3*
G1X7788Y7642D3*
G1X7785Y7638D3*
G54D109*
G1X7817Y7757D3*
G1X8077Y7638D3*
G54D110*
G1X7799Y7671D3*
G1X7796Y7664D3*
G1X7795Y7660D3*
G1X7794Y7656D3*
G1X7792Y7653D3*
G1X7791Y7649D3*
G1X7789Y7647D3*
G1X7789Y7645D3*
G1X7788Y7643D3*
G1X7787Y7639D3*
G1X7336Y7948D3*
G1X7401Y8108D3*
G54D111*
G1X8077Y7639D3*
G54D112*
G1X7798Y7667D3*
G1X7796Y7663D3*
G1X7794Y7657D3*
G1X7792Y7652D3*
G1X7787Y7640D3*
G54D113*
G1X8079Y7643D3*
G1X8080Y7645D3*
G1X8081Y7647D3*
G1X8081Y7649D3*
G1X8228Y7999D3*
G1X7429Y8127D3*
G54D114*
G1X8080Y7646D3*
G54D115*
G1X8082Y7650D3*
G1X8086Y7659D3*
G1X8088Y7661D3*
G1X8096Y7682D3*
G1X8100Y7693D3*
G1X8104Y7702D3*
G1X8113Y7723D3*
G1X8114Y7727D3*
G1X8117Y7734D3*
G1X8122Y7746D3*
G1X8127Y7757D3*
G1X8129Y7761D3*
G1X8131Y7766D3*
G1X8138Y7782D3*
G1X8139Y7787D3*
G1X8142Y7793D3*
G1X8146Y7802D3*
G1X8154Y7823D3*
G1X8156Y7825D3*
G1X8163Y7842D3*
G1X8164Y7846D3*
G1X8173Y7866D3*
G1X8181Y7887D3*
G1X8182Y7889D3*
G1X8189Y7906D3*
G1X8191Y7910D3*
G1X8193Y7917D3*
G1X8199Y7930D3*
G1X8210Y7958D3*
G1X8212Y7962D3*
G1X8216Y7970D3*
G1X8218Y7978D3*
G54D116*
G1X8218Y7977D3*
G1X8220Y7981D3*
G1X8223Y7987D3*
G1X8224Y7992D3*
G1X8216Y7971D3*
G1X8212Y7960D3*
G1X8207Y7951D3*
G1X8185Y7896D3*
G1X8177Y7876D3*
G1X8159Y7832D3*
G1X8154Y7821D3*
G1X8150Y7812D3*
G1X8143Y7795D3*
G1X8139Y7785D3*
G1X8129Y7763D3*
G1X8125Y7753D3*
G1X8118Y7736D3*
G1X8114Y7725D3*
G1X8110Y7716D3*
G1X8099Y7689D3*
G1X8092Y7672D3*
G1X8088Y7663D3*
G1X8084Y7652D3*
G54D117*
G1X7793Y7654D3*
G1X7401Y8106D3*
G54D118*
G1X7335Y7899D3*
G1X7817Y7760D3*
G1X8085Y7656D3*
G1X8089Y7664D3*
G1X8093Y7675D3*
G1X8097Y7685D3*
G1X8102Y7696D3*
G1X8107Y7709D3*
G1X8111Y7720D3*
G1X8120Y7739D3*
G1X8120Y7741D3*
G1X8124Y7749D3*
G1X8128Y7760D3*
G1X8145Y7799D3*
G1X8149Y7809D3*
G1X8153Y7820D3*
G1X8157Y7828D3*
G1X8161Y7839D3*
G1X8167Y7852D3*
G1X8170Y7860D3*
G1X8171Y7863D3*
G1X8175Y7873D3*
G1X8180Y7884D3*
G1X8188Y7903D3*
G1X8196Y7924D3*
G1X8205Y7944D3*
G1X8213Y7965D3*
G1X8221Y7984D3*
G1X8225Y7995D3*
G54D119*
G1X8205Y7945D3*
G1X8196Y7923D3*
G1X8183Y7891D3*
G1X8180Y7885D3*
G1X8179Y7881D3*
G1X8172Y7864D3*
G1X8168Y7855D3*
G1X8157Y7827D3*
G1X8152Y7817D3*
G1X8123Y7748D3*
G1X8116Y7731D3*
G1X8112Y7721D3*
G1X8105Y7704D3*
G1X8097Y7684D3*
G1X8090Y7667D3*
G1X8086Y7657D3*
G1X7817Y7763D3*
G54D120*
G1X7797Y7666D3*
G54D121*
G1X8091Y7670D3*
G1X8100Y7691D3*
G1X8109Y7714D3*
G1X8126Y7755D3*
G1X8151Y7814D3*
G1X8159Y7834D3*
G1X8177Y7878D3*
G1X8186Y7898D3*
G1X8202Y7938D3*
G1X8207Y7949D3*
G1X8223Y7990D3*
G54D122*
G1X8219Y7980D3*
G1X8211Y7959D3*
G1X8190Y7909D3*
G1X8186Y7899D3*
G1X8182Y7888D3*
G1X8173Y7869D3*
G1X8173Y7867D3*
G1X8155Y7824D3*
G1X8147Y7805D3*
G1X8130Y7764D3*
G1X8113Y7724D3*
G1X8095Y7681D3*
G1X8091Y7671D3*
G54D123*
G1X8093Y7674D3*
G1X8102Y7698D3*
G1X8119Y7738D3*
G1X8141Y7791D3*
G1X8144Y7798D3*
G1X8150Y7810D3*
G1X8166Y7851D3*
G1X8169Y7857D3*
G1X8170Y7862D3*
G1X8176Y7874D3*
G1X8193Y7914D3*
G1X8196Y7921D3*
G1X8197Y7926D3*
G1X8204Y7942D3*
G1X8205Y7946D3*
G1X8208Y7953D3*
G1X8221Y7983D3*
G54D124*
G1X8218Y7976D3*
G1X8216Y7973D3*
G1X8212Y7963D3*
G1X8209Y7956D3*
G1X8208Y7952D3*
G1X8201Y7935D3*
G1X8200Y7933D3*
G1X8200Y7931D3*
G1X8193Y7916D3*
G1X8191Y7912D3*
G1X8189Y7905D3*
G1X8184Y7895D3*
G1X8183Y7892D3*
G1X8175Y7871D3*
G1X8165Y7848D3*
G1X8162Y7841D3*
G1X8158Y7831D3*
G1X8148Y7807D3*
G1X8140Y7788D3*
G1X8137Y7781D3*
G1X8133Y7771D3*
G1X8115Y7728D3*
G1X8108Y7711D3*
G1X8107Y7707D3*
G1X8104Y7700D3*
G1X8098Y7688D3*
G1X8094Y7677D3*
G54D125*
G1X7802Y7678D3*
G54D126*
G1X8095Y7678D3*
G1X8121Y7742D3*
G1X8148Y7806D3*
G1X8174Y7870D3*
G1X8227Y7998D3*
G54D127*
G1X7803Y7682D3*
G54D128*
G1X7374Y7684D3*
G54D129*
G1X7803Y7684D3*
G54D130*
G1X7771Y7941D3*
G1X7376Y7685D3*
G54D131*
G1X7377Y7686D3*
G54D132*
G1X7378Y7688D3*
G1X7769Y7948D3*
G54D133*
G1X7388Y7721D3*
G1X7378Y7689D3*
G54D134*
G1X7379Y7691D3*
G1X7387Y7714D3*
G54D135*
G1X7387Y7713D3*
G1X7387Y7711D3*
G1X7380Y7692D3*
G1X7766Y7952D3*
G54D136*
G1X7806Y7692D3*
G1X7406Y8112D3*
G54D137*
G1X7381Y7693D3*
G54D138*
G1X7381Y7695D3*
G1X7385Y7704D3*
G54D139*
G1X8102Y7695D3*
G1X8103Y7699D3*
G1X8128Y7759D3*
G1X8132Y7768D3*
G1X8136Y7780D3*
G1X8141Y7789D3*
G1X8145Y7800D3*
G1X8166Y7849D3*
G1X8170Y7859D3*
G1X8192Y7913D3*
G1X8209Y7955D3*
G54D140*
G1X7381Y7696D3*
G54D141*
G1X7383Y7698D3*
G1X7384Y7702D3*
G1X7766Y7953D3*
G54D142*
G1X7766Y7955D3*
G1X7383Y7699D3*
G54D143*
G1X7335Y7940D3*
G1X7808Y7699D3*
G54D144*
G1X7384Y7700D3*
G54D145*
G1X7808Y7700D3*
G54D146*
G1X7809Y7702D3*
G54D147*
G1X7385Y7703D3*
G54D148*
G1X7385Y7706D3*
G54D149*
G1X7386Y7707D3*
G1X7386Y7709D3*
G54D150*
G1X7810Y7707D3*
G54D151*
G1X7387Y7710D3*
G54D152*
G1X7810Y7710D3*
G54D153*
G1X8107Y7710D3*
G1X8200Y7934D3*
G54D154*
G1X7811Y7713D3*
G1X7811Y7711D3*
G54D155*
G1X7767Y7951D3*
G1X7387Y7716D3*
G54D156*
G1X7388Y7717D3*
G54D157*
G1X7387Y7718D3*
G1X7767Y7949D3*
G54D158*
G1X7387Y7720D3*
G54D159*
G1X7812Y7721D3*
G54D160*
G1X7387Y7723D3*
G54D161*
G1X7388Y7724D3*
G54D162*
G1X7335Y7924D3*
G1X7813Y7724D3*
G54D163*
G1X7387Y7725D3*
G54D164*
G1X7387Y7727D3*
G54D165*
G1X7387Y7728D3*
G1X7770Y7944D3*
G54D166*
G1X7387Y7730D3*
G54D167*
G1X7387Y7731D3*
G54D168*
G1X7386Y7732D3*
G54D169*
G1X7387Y7734D3*
G54D170*
G1X7418Y8122D3*
G1X7814Y7734D3*
G54D171*
G1X7386Y7735D3*
G54D172*
G1X7385Y7736D3*
G54D173*
G1X7815Y7736D3*
G54D174*
G1X7385Y7738D3*
G54D175*
G1X7815Y7738D3*
G54D176*
G1X7384Y7739D3*
G54D177*
G1X7384Y7741D3*
G1X7773Y7933D3*
G54D178*
G1X7383Y7742D3*
G54D179*
G1X7815Y7742D3*
G54D180*
G1X7383Y7743D3*
G54D181*
G1X7383Y7745D3*
G54D182*
G1X7382Y7746D3*
G54D183*
G1X7382Y7748D3*
G54D184*
G1X7381Y7749D3*
G54D185*
G1X7381Y7750D3*
G54D186*
G1X7380Y7752D3*
G54D187*
G1X7380Y7753D3*
G54D188*
G1X7380Y7755D3*
G54D189*
G1X7378Y7756D3*
G54D190*
G1X7378Y7757D3*
G54D191*
G1X7378Y7759D3*
G54D192*
G1X7817Y7759D3*
G54D193*
G1X7377Y7760D3*
G54D194*
G1X7377Y7761D3*
G54D195*
G1X7376Y7763D3*
G54D196*
G1X7376Y7764D3*
G1X7781Y7909D3*
G54D197*
G1X7817Y7764D3*
G54D198*
G1X7376Y7766D3*
G54D199*
G1X7817Y7766D3*
G54D200*
G1X7375Y7767D3*
G54D201*
G1X7817Y7767D3*
G54D202*
G1X7375Y7768D3*
G54D203*
G1X7817Y7768D3*
G54D204*
G1X7374Y7770D3*
G54D205*
G1X7817Y7770D3*
G54D206*
G1X7374Y7771D3*
G54D207*
G1X7817Y7771D3*
G1X7817Y7773D3*
G54D208*
G1X7784Y7901D3*
G1X7374Y7773D3*
G54D209*
G1X7374Y7774D3*
G54D210*
G1X7817Y7774D3*
G54D211*
G1X8134Y7774D3*
G54D212*
G1X7373Y7775D3*
G54D213*
G1X7817Y7775D3*
G54D214*
G1X7371Y7777D3*
G54D215*
G1X7817Y7777D3*
G54D216*
G1X7371Y7778D3*
G54D217*
G1X7817Y7778D3*
G54D218*
G1X7371Y7780D3*
G54D219*
G1X7337Y7885D3*
G1X7816Y7780D3*
G54D220*
G1X7371Y7781D3*
G54D221*
G1X7817Y7781D3*
G54D222*
G1X7370Y7782D3*
G54D223*
G1X7816Y7782D3*
G54D224*
G1X7369Y7784D3*
G54D225*
G1X7817Y7784D3*
G54D226*
G1X7369Y7785D3*
G54D227*
G1X7816Y7785D3*
G54D228*
G1X7369Y7787D3*
G54D229*
G1X7816Y7787D3*
G54D230*
G1X7369Y7788D3*
G54D231*
G1X7816Y7788D3*
G54D232*
G1X7368Y7789D3*
G54D233*
G1X7815Y7789D3*
G54D234*
G1X7368Y7791D3*
G54D235*
G1X7816Y7791D3*
G54D236*
G1X7367Y7792D3*
G54D237*
G1X7815Y7792D3*
G54D238*
G1X7367Y7793D3*
G54D239*
G1X7815Y7793D3*
G54D240*
G1X7367Y7795D3*
G54D241*
G1X7815Y7795D3*
G54D242*
G1X7792Y7877D3*
G1X7365Y7796D3*
G54D243*
G1X7340Y7873D3*
G1X7814Y7796D3*
G54D244*
G1X7365Y7798D3*
G54D245*
G1X7815Y7798D3*
G54D246*
G1X7365Y7799D3*
G54D247*
G1X7814Y7799D3*
G54D248*
G1X7364Y7800D3*
G54D249*
G1X7814Y7800D3*
G54D250*
G1X7364Y7802D3*
G54D251*
G1X7814Y7802D3*
G54D252*
G1X7363Y7803D3*
G54D253*
G1X7814Y7803D3*
G54D254*
G1X7794Y7869D3*
G1X7363Y7805D3*
G54D255*
G1X7814Y7805D3*
G54D256*
G1X7362Y7806D3*
G54D257*
G1X7813Y7806D3*
G54D258*
G1X7362Y7807D3*
G54D259*
G1X7814Y7807D3*
G54D260*
G1X7362Y7809D3*
G54D261*
G1X7813Y7809D3*
G54D262*
G1X7361Y7810D3*
G54D263*
G1X7812Y7810D3*
G54D264*
G1X7361Y7812D3*
G54D265*
G1X7812Y7812D3*
G54D266*
G1X7360Y7813D3*
G54D267*
G1X7812Y7813D3*
G54D268*
G1X7360Y7814D3*
G54D269*
G1X7346Y7857D3*
G1X7812Y7814D3*
G54D270*
G1X7359Y7816D3*
G54D271*
G1X7812Y7816D3*
G54D272*
G1X7359Y7817D3*
G54D273*
G1X7812Y7817D3*
G54D274*
G1X7358Y7819D3*
G54D275*
G1X7811Y7819D3*
G54D276*
G1X7358Y7820D3*
G54D277*
G1X7810Y7820D3*
G54D278*
G1X7358Y7821D3*
G54D279*
G1X7810Y7821D3*
G54D280*
G1X7801Y7851D3*
G1X7357Y7823D3*
G54D281*
G1X7810Y7823D3*
G54D282*
G1X7357Y7824D3*
G54D283*
G1X7810Y7824D3*
G54D284*
G1X7356Y7825D3*
G54D285*
G1X7809Y7825D3*
G54D286*
G1X7355Y7827D3*
G54D287*
G1X7809Y7827D3*
G54D288*
G1X7355Y7828D3*
G54D289*
G1X7807Y7828D3*
G54D290*
G1X7355Y7830D3*
G54D291*
G1X7807Y7830D3*
G54D292*
G1X7355Y7831D3*
G54D293*
G1X7807Y7831D3*
G54D294*
G1X7353Y7832D3*
G54D295*
G1X7806Y7832D3*
G54D296*
G1X7353Y7834D3*
G54D297*
G1X7806Y7834D3*
G54D298*
G1X7353Y7835D3*
G54D299*
G1X7805Y7835D3*
G54D300*
G1X7352Y7837D3*
G54D301*
G1X7805Y7837D3*
G54D302*
G1X7352Y7838D3*
G54D303*
G1X7805Y7838D3*
G54D304*
G1X8161Y7838D3*
G1X8187Y7902D3*
G1X8214Y7966D3*
G54D305*
G1X7351Y7839D3*
G54D306*
G1X7804Y7839D3*
G54D307*
G1X7351Y7841D3*
G54D308*
G1X7804Y7841D3*
G54D309*
G1X7351Y7842D3*
G54D310*
G1X7803Y7842D3*
G54D311*
G1X7350Y7844D3*
G54D312*
G1X7803Y7844D3*
G54D313*
G1X8164Y7844D3*
G1X8190Y7908D3*
G1X8194Y7919D3*
G1X8198Y7928D3*
G1X8202Y7940D3*
G54D314*
G1X7350Y7845D3*
G54D315*
G1X7802Y7845D3*
G54D316*
G1X7349Y7846D3*
G54D317*
G1X7801Y7846D3*
G54D318*
G1X7349Y7848D3*
G54D319*
G1X7801Y7848D3*
G54D320*
G1X7349Y7849D3*
G54D321*
G1X7801Y7849D3*
G54D322*
G1X7349Y7851D3*
G54D323*
G1X7347Y7852D3*
G54D324*
G1X7800Y7852D3*
G54D325*
G1X7346Y7853D3*
G54D326*
G1X7799Y7853D3*
G54D327*
G1X7346Y7855D3*
G54D328*
G1X7799Y7855D3*
G54D329*
G1X7346Y7856D3*
G54D330*
G1X7798Y7856D3*
G54D331*
G1X7798Y7857D3*
G54D332*
G1X7345Y7859D3*
G54D333*
G1X7798Y7859D3*
G54D334*
G1X7344Y7860D3*
G54D335*
G1X7797Y7860D3*
G54D336*
G1X7344Y7862D3*
G54D337*
G1X7796Y7862D3*
G54D338*
G1X7344Y7863D3*
G54D339*
G1X7796Y7863D3*
G54D340*
G1X7344Y7864D3*
G54D341*
G1X7796Y7864D3*
G54D342*
G1X7343Y7866D3*
G54D343*
G1X7795Y7866D3*
G54D344*
G1X7343Y7867D3*
G54D345*
G1X7795Y7867D3*
G54D346*
G1X7342Y7869D3*
G54D347*
G1X7341Y7870D3*
G54D348*
G1X7794Y7870D3*
G54D349*
G1X7341Y7871D3*
G54D350*
G1X7794Y7871D3*
G54D351*
G1X7793Y7873D3*
G54D352*
G1X7340Y7874D3*
G54D353*
G1X7793Y7874D3*
G54D354*
G1X7339Y7876D3*
G54D355*
G1X7792Y7876D3*
G54D356*
G1X7339Y7877D3*
G54D357*
G1X7339Y7878D3*
G54D358*
G1X7791Y7878D3*
G54D359*
G1X7338Y7880D3*
G54D360*
G1X7791Y7880D3*
G54D361*
G1X7338Y7881D3*
G54D362*
G1X7790Y7881D3*
G54D363*
G1X7337Y7882D3*
G54D364*
G1X7789Y7882D3*
G54D365*
G1X7338Y7884D3*
G54D366*
G1X7789Y7884D3*
G54D367*
G1X7789Y7885D3*
G54D368*
G1X7337Y7887D3*
G54D369*
G1X7789Y7887D3*
G54D370*
G1X7337Y7888D3*
G54D371*
G1X7788Y7888D3*
G54D372*
G1X7336Y7889D3*
G54D373*
G1X7787Y7889D3*
G54D374*
G1X7337Y7891D3*
G54D375*
G1X7787Y7891D3*
G54D376*
G1X7336Y7892D3*
G54D377*
G1X7787Y7892D3*
G54D378*
G1X7336Y7894D3*
G54D379*
G1X7787Y7894D3*
G54D380*
G1X7336Y7895D3*
G54D381*
G1X7786Y7895D3*
G54D382*
G1X7335Y7896D3*
G54D383*
G1X7786Y7896D3*
G54D384*
G1X7785Y7898D3*
G54D385*
G1X7784Y7899D3*
G54D386*
G1X7335Y7902D3*
G54D387*
G1X7783Y7902D3*
G54D388*
G1X7783Y7903D3*
G54D389*
G1X7782Y7905D3*
G54D390*
G1X7782Y7906D3*
G54D391*
G1X7335Y7908D3*
G54D392*
G1X7782Y7908D3*
G54D393*
G1X7335Y7909D3*
G54D394*
G1X7335Y7910D3*
G1X8230Y8006D3*
G54D395*
G1X7781Y7910D3*
G54D396*
G1X7780Y7912D3*
G54D397*
G1X7334Y7913D3*
G54D398*
G1X7780Y7913D3*
G54D399*
G1X7335Y7914D3*
G54D400*
G1X7780Y7914D3*
G54D401*
G1X7778Y7916D3*
G54D402*
G1X7335Y7917D3*
G54D403*
G1X7778Y7917D3*
G54D404*
G1X7778Y7919D3*
G54D405*
G1X7778Y7920D3*
G54D406*
G1X7335Y7921D3*
G54D407*
G1X7777Y7921D3*
G54D408*
G1X7776Y7923D3*
G54D409*
G1X7776Y7924D3*
G54D410*
G1X7775Y7926D3*
G54D411*
G1X7335Y7927D3*
G54D412*
G1X7775Y7927D3*
G54D413*
G1X7335Y7928D3*
G54D414*
G1X7775Y7928D3*
G54D415*
G1X7775Y7930D3*
G54D416*
G1X7774Y7931D3*
G54D417*
G1X7335Y7934D3*
G54D418*
G1X7773Y7934D3*
G54D419*
G1X7772Y7935D3*
G54D420*
G1X7772Y7937D3*
G54D421*
G1X7771Y7938D3*
G54D422*
G1X7771Y7940D3*
G54D423*
G1X7770Y7942D3*
G54D424*
G1X7769Y7945D3*
G54D425*
G1X7769Y7946D3*
G54D426*
G1X7337Y7951D3*
G54D427*
G1X7337Y7952D3*
G54D428*
G1X7336Y7953D3*
G54D429*
G1X7337Y7955D3*
G54D430*
G1X7765Y7956D3*
G54D431*
G1X7337Y7958D3*
G54D432*
G1X7765Y7958D3*
G54D433*
G1X7337Y7959D3*
G54D434*
G1X7764Y7959D3*
G54D435*
G1X7338Y7960D3*
G54D436*
G1X7764Y7960D3*
G54D437*
G1X7764Y7962D3*
G54D438*
G1X7395Y8101D3*
G1X7338Y7963D3*
G54D439*
G1X7764Y7963D3*
G54D440*
G1X7339Y7965D3*
G54D441*
G1X7764Y7965D3*
G1X7775Y8005D3*
G54D442*
G1X7338Y7966D3*
G54D443*
G1X7764Y7966D3*
G54D444*
G1X7338Y7967D3*
G54D445*
G1X7764Y7967D3*
G1X7764Y7969D3*
G54D446*
G1X7339Y7969D3*
G54D447*
G1X7339Y7970D3*
G54D448*
G1X7763Y7970D3*
G54D449*
G1X7339Y7971D3*
G54D450*
G1X7764Y7971D3*
G54D451*
G1X7763Y7973D3*
G54D452*
G1X7340Y7974D3*
G54D453*
G1X7764Y7974D3*
G54D454*
G1X7389Y8092D3*
G1X7387Y8091D3*
G1X7340Y7976D3*
G54D455*
G1X7764Y7976D3*
G1X7772Y7999D3*
G54D456*
G1X7340Y7977D3*
G54D457*
G1X7764Y7977D3*
G54D458*
G1X7764Y7978D3*
G54D459*
G1X7341Y7980D3*
G54D460*
G1X7764Y7980D3*
G54D461*
G1X7385Y8088D3*
G1X7342Y7981D3*
G54D462*
G1X7765Y7981D3*
G54D463*
G1X7386Y8090D3*
G1X7342Y7983D3*
G54D464*
G1X7765Y7983D3*
G1X7769Y7994D3*
G54D465*
G1X7342Y7984D3*
G54D466*
G1X7765Y7984D3*
G54D467*
G1X7342Y7985D3*
G54D468*
G1X7766Y7985D3*
G1X7767Y7990D3*
G54D469*
G1X7342Y7987D3*
G54D470*
G1X7766Y7987D3*
G54D471*
G1X7767Y7988D3*
G1X7770Y7995D3*
G54D472*
G1X7343Y7990D3*
G54D473*
G1X7768Y7991D3*
G1X7771Y7997D3*
G54D474*
G1X7344Y7992D3*
G54D475*
G1X7769Y7992D3*
G54D476*
G1X7380Y8081D3*
G1X7344Y7994D3*
G54D477*
G1X7345Y7995D3*
G1X7345Y7997D3*
G1X7380Y8080D3*
G54D478*
G1X7346Y7998D3*
G54D479*
G1X7771Y7998D3*
G54D480*
G1X7346Y7999D3*
G1X7346Y8001D3*
G54D481*
G1X7773Y8001D3*
G54D482*
G1X7374Y8070D3*
G1X7348Y8006D3*
G1X7346Y8002D3*
G54D483*
G1X7773Y8002D3*
G54D484*
G1X8229Y8002D3*
G54D485*
G1X7347Y8003D3*
G54D486*
G1X7775Y8003D3*
G54D487*
G1X7374Y8072D3*
G1X7348Y8008D3*
G1X7348Y8005D3*
G54D488*
G1X7775Y8006D3*
G54D489*
G1X7777Y8008D3*
G54D490*
G1X7372Y8067D3*
G1X7350Y8013D3*
G1X7349Y8009D3*
G54D491*
G1X8178Y8009D3*
G54D492*
G1X7372Y8066D3*
G1X7350Y8015D3*
G1X7349Y8010D3*
G54D493*
G1X7350Y8012D3*
G1X7374Y8069D3*
G54D494*
G1X7370Y8063D3*
G1X7369Y8061D3*
G1X7366Y8055D3*
G1X7352Y8020D3*
G1X7351Y8016D3*
G54D495*
G1X7351Y8017D3*
G1X7367Y8058D3*
G54D496*
G1X7352Y8019D3*
G54D497*
G1X7353Y8022D3*
G1X7354Y8026D3*
G1X7357Y8034D3*
G54D498*
G1X7357Y8033D3*
G1X7358Y8037D3*
G1X7361Y8044D3*
G1X7362Y8048D3*
G1X7354Y8027D3*
G1X7353Y8023D3*
G54D499*
G1X7353Y8024D3*
G54D500*
G1X7355Y8029D3*
G1X7355Y8031D3*
G1X7360Y8040D3*
G1X7365Y8052D3*
G1X7368Y8059D3*
G54D501*
G1X7355Y8030D3*
G54D502*
G1X7358Y8035D3*
G54D503*
G1X7359Y8038D3*
G1X7360Y8042D3*
G1X7362Y8045D3*
G54D504*
G1X7360Y8041D3*
G1X7364Y8051D3*
G54D505*
G1X7362Y8047D3*
G1X7367Y8056D3*
G54D506*
G1X7370Y8062D3*
G54D507*
G1X7371Y8065D3*
G54D508*
G1X7376Y8074D3*
G54D509*
G1X7378Y8076D3*
G54D510*
G1X7378Y8077D3*
G54D511*
G1X7379Y8079D3*
G54D512*
G1X7382Y8083D3*
G54D513*
G1X7383Y8084D3*
G54D514*
G1X7384Y8086D3*
G54D515*
G1X7384Y8087D3*
G54D516*
G1X7390Y8094D3*
G54D517*
G1X7392Y8097D3*
G54D518*
G1X7392Y8098D3*
G54D519*
G1X7397Y8102D3*
G54D520*
G1X7399Y8105D3*
G54D521*
G1X7409Y8115D3*
G54D522*
G1X7413Y8118D3*
G54D523*
G1X7417Y8120D3*
G54D524*
G1X7421Y8123D3*
G54D525*
G1X7426Y8126D3*
G54D526*
G1X7432Y8129D3*
G54D527*
G1X7437Y8130D3*
G54D528*
G1X7442Y8131D3*
G54D529*
G1X7856Y8133D3*
G1X7869Y8155D3*
G54D530*
G1X7862Y8143D3*
G1X7860Y8138D3*
G1X7858Y8134D3*
G54D531*
G1X7859Y8136D3*
G1X7863Y8144D3*
G54D532*
G1X7859Y8137D3*
G54D533*
G1X7860Y8140D3*
G54D534*
G1X7862Y8141D3*
G54D535*
G1X7863Y8145D3*
G54D536*
G1X7864Y8147D3*
G54D537*
G1X7865Y8148D3*
G54D538*
G1X7865Y8150D3*
G54D539*
G1X7867Y8151D3*
G54D540*
G1X7867Y8152D3*
G54D541*
G1X7867Y8154D3*
G54D542*
G1X7869Y8156D3*
G54D543*
G1X7870Y8158D3*
G54D544*
G1X7871Y8159D3*
G1X7872Y8161D3*
G54D545*
G1X7873Y8162D3*
G54D546*
G1X7873Y8163D3*
G54D547*
G1X7874Y8165D3*
G54D548*
G1X7875Y8166D3*
G54D549*
G1X7876Y8168D3*
G54D550*
G1X7877Y8169D3*
G54D551*
G1X7877Y8170D3*
G54D552*
G1X7878Y8172D3*
G54D553*
G1X7879Y8173D3*
G54D554*
G1X7880Y8175D3*
G54D555*
G1X7881Y8176D3*
G54D556*
G1X7882Y8177D3*
G54D557*
G1X7883Y8179D3*
G54D558*
G1X7884Y8180D3*
G54D559*
G1X7885Y8182D3*
G54D560*
G1X7886Y8183D3*
G54D561*
G1X7887Y8184D3*
G54D562*
G1X7888Y8186D3*
G54D563*
G1X7889Y8187D3*
G1X7890Y8188D3*
G54D564*
G1X7892Y8190D3*
G54D565*
G1X7892Y8191D3*
G54D566*
G1X7894Y8193D3*
G54D567*
G1X7894Y8194D3*
G54D568*
G1X7896Y8195D3*
G54D569*
G1X7897Y8197D3*
G54D570*
G1X7899Y8198D3*
G54D571*
G1X7900Y8200D3*
G54D572*
G1X7901Y8201D3*
G54D573*
G1X7903Y8202D3*
G54D574*
G1X7904Y8204D3*
G54D575*
G1X7906Y8205D3*
G54D576*
G1X7907Y8207D3*
G54D577*
G1X7908Y8208D3*
G54D578*
G1X7910Y8209D3*
G54D579*
G1X7911Y8211D3*
G54D580*
G1X7913Y8212D3*
G54D581*
G1X7915Y8213D3*
G54D582*
G1X7917Y8215D3*
G54D583*
G1X7919Y8216D3*
G54D584*
G1X7921Y8218D3*
G54D585*
G1X7923Y8219D3*
G54D586*
G1X7925Y8220D3*
G54D587*
G1X7927Y8222D3*
G54D588*
G1X7928Y8223D3*
G54D589*
G1X7932Y8225D3*
G54D590*
G1X7935Y8226D3*
G54D591*
G1X7939Y8227D3*
G1X6179Y8934D2*
G54D25*
G1X6179Y8347D1*
G1X6179Y8326D2*
G1X8395Y8326D1*
G1X8395Y8347D2*
G1X8395Y8708D1*
G1X7015Y9012D2*
G1X8099Y9012D1*
G1X6181Y8932D2*
G1X6180Y8996D1*
G1X6282Y8996D1*
G1X3376Y4141D2*
G54D53*
G1X3376Y9456D1*
G1X8691Y9456D1*
G1X8691Y4141D1*
G54D10*
G36*
G1X6793Y8837D2*
G1X6788Y8837D1*
G1X6788Y8839D1*
G1X6787Y8841D1*
G1X6787Y8843D1*
G1X6787Y8845D1*
G1X6786Y8847D1*
G1X6786Y8848D1*
G1X6785Y8850D1*
G1X6785Y8852D1*
G1X6784Y8853D1*
G1X6784Y8855D1*
G1X6783Y8857D1*
G1X6783Y8858D1*
G1X6782Y8860D1*
G1X6782Y8861D1*
G1X6781Y8863D1*
G1X6781Y8864D1*
G1X6780Y8865D1*
G1X6779Y8867D1*
G1X6779Y8868D1*
G1X6778Y8869D1*
G1X6777Y8870D1*
G1X6777Y8871D1*
G1X6776Y8872D1*
G1X6775Y8874D1*
G1X6775Y8875D1*
G1X6774Y8876D1*
G1X6773Y8877D1*
G1X6772Y8878D1*
G1X6771Y8879D1*
G1X6770Y8880D1*
G1X6769Y8881D1*
G1X6768Y8882D1*
G1X6767Y8882D1*
G1X6766Y8883D1*
G1X6765Y8884D1*
G1X6764Y8885D1*
G1X6763Y8886D1*
G1X6762Y8887D1*
G1X6760Y8887D1*
G1X6759Y8888D1*
G1X6757Y8889D1*
G1X6755Y8889D1*
G1X6754Y8890D1*
G1X6753Y8891D1*
G1X6752Y8891D1*
G1X6750Y8892D1*
G1X6749Y8892D1*
G1X6748Y8892D1*
G1X6746Y8893D1*
G1X6745Y8893D1*
G1X6744Y8894D1*
G1X6742Y8894D1*
G1X6741Y8894D1*
G1X6740Y8894D1*
G1X6739Y8895D1*
G1X6737Y8895D1*
G1X6736Y8895D1*
G1X6735Y8895D1*
G1X6733Y8895D1*
G1X6732Y8895D1*
G1X6730Y8895D1*
G1X6729Y8895D1*
G1X6727Y8895D1*
G1X6726Y8895D1*
G1X6724Y8894D1*
G1X6723Y8894D1*
G1X6722Y8894D1*
G1X6720Y8894D1*
G1X6719Y8893D1*
G1X6718Y8893D1*
G1X6716Y8892D1*
G1X6715Y8892D1*
G1X6714Y8891D1*
G1X6713Y8891D1*
G1X6711Y8890D1*
G1X6710Y8889D1*
G1X6709Y8888D1*
G1X6708Y8888D1*
G1X6707Y8887D1*
G1X6706Y8886D1*
G1X6705Y8885D1*
G1X6704Y8884D1*
G1X6703Y8883D1*
G1X6702Y8882D1*
G1X6702Y8881D1*
G1X6701Y8880D1*
G1X6700Y8879D1*
G1X6700Y8878D1*
G1X6699Y8877D1*
G1X6699Y8876D1*
G1X6698Y8874D1*
G1X6698Y8873D1*
G1X6697Y8872D1*
G1X6697Y8871D1*
G1X6697Y8870D1*
G1X6696Y8869D1*
G1X6696Y8868D1*
G1X6696Y8866D1*
G1X6696Y8865D1*
G1X6696Y8864D1*
G1X6696Y8863D1*
G1X6696Y8862D1*
G1X6696Y8861D1*
G1X6696Y8860D1*
G1X6697Y8859D1*
G1X6697Y8858D1*
G1X6697Y8857D1*
G1X6697Y8856D1*
G1X6697Y8855D1*
G1X6698Y8854D1*
G1X6699Y8853D1*
G1X6699Y8852D1*
G1X6699Y8851D1*
G1X6700Y8850D1*
G1X6700Y8849D1*
G1X6701Y8849D1*
G1X6701Y8848D1*
G1X6702Y8847D1*
G1X6703Y8846D1*
G1X6704Y8845D1*
G1X6705Y8844D1*
G1X6707Y8842D1*
G1X6708Y8841D1*
G1X6710Y8840D1*
G1X6711Y8838D1*
G1X6713Y8837D1*
G1X6715Y8836D1*
G1X6718Y8834D1*
G1X6720Y8833D1*
G1X6722Y8831D1*
G1X6725Y8830D1*
G1X6727Y8828D1*
G1X6730Y8827D1*
G1X6733Y8824D1*
G1X6736Y8822D1*
G1X6739Y8821D1*
G1X6743Y8819D1*
G1X6746Y8817D1*
G1X6749Y8816D1*
G1X6751Y8814D1*
G1X6754Y8813D1*
G1X6756Y8811D1*
G1X6760Y8810D1*
G1X6762Y8809D1*
G1X6764Y8807D1*
G1X6767Y8806D1*
G1X6769Y8805D1*
G1X6771Y8804D1*
G1X6772Y8803D1*
G1X6774Y8802D1*
G1X6776Y8800D1*
G1X6777Y8799D1*
G1X6779Y8798D1*
G1X6780Y8797D1*
G1X6782Y8797D1*
G1X6783Y8796D1*
G1X6784Y8795D1*
G1X6785Y8794D1*
G1X6786Y8793D1*
G1X6787Y8792D1*
G1X6788Y8792D1*
G1X6789Y8791D1*
G1X6790Y8790D1*
G1X6791Y8789D1*
G1X6792Y8788D1*
G1X6792Y8787D1*
G1X6793Y8786D1*
G1X6794Y8785D1*
G1X6795Y8784D1*
G1X6796Y8783D1*
G1X6796Y8782D1*
G1X6797Y8781D1*
G1X6798Y8780D1*
G1X6798Y8779D1*
G1X6799Y8778D1*
G1X6800Y8777D1*
G1X6800Y8776D1*
G1X6801Y8775D1*
G1X6801Y8774D1*
G1X6802Y8773D1*
G1X6802Y8772D1*
G1X6803Y8771D1*
G1X6803Y8769D1*
G1X6804Y8768D1*
G1X6804Y8767D1*
G1X6804Y8766D1*
G1X6804Y8765D1*
G1X6805Y8764D1*
G1X6805Y8763D1*
G1X6805Y8761D1*
G1X6805Y8760D1*
G1X6806Y8759D1*
G1X6806Y8758D1*
G1X6806Y8757D1*
G1X6806Y8756D1*
G1X6806Y8754D1*
G1X6806Y8753D1*
G1X6806Y8752D1*
G1X6806Y8749D1*
G1X6806Y8747D1*
G1X6806Y8745D1*
G1X6805Y8742D1*
G1X6805Y8740D1*
G1X6804Y8738D1*
G1X6804Y8736D1*
G1X6803Y8734D1*
G1X6802Y8732D1*
G1X6801Y8730D1*
G1X6801Y8728D1*
G1X6800Y8726D1*
G1X6798Y8725D1*
G1X6797Y8723D1*
G1X6796Y8721D1*
G1X6794Y8719D1*
G1X6793Y8717D1*
G1X6791Y8715D1*
G1X6790Y8714D1*
G1X6788Y8712D1*
G1X6786Y8710D1*
G1X6784Y8709D1*
G1X6783Y8708D1*
G1X6781Y8706D1*
G1X6779Y8705D1*
G1X6777Y8704D1*
G1X6775Y8703D1*
G1X6773Y8702D1*
G1X6770Y8701D1*
G1X6768Y8700D1*
G1X6766Y8700D1*
G1X6764Y8700D1*
G1X6761Y8699D1*
G1X6759Y8698D1*
G1X6755Y8698D1*
G1X6753Y8698D1*
G1X6750Y8697D1*
G1X6747Y8697D1*
G1X6745Y8697D1*
G1X6742Y8697D1*
G1X6741Y8697D1*
G1X6740Y8697D1*
G1X6739Y8697D1*
G1X6738Y8697D1*
G1X6737Y8697D1*
G1X6736Y8697D1*
G1X6735Y8697D1*
G1X6734Y8697D1*
G1X6733Y8697D1*
G1X6732Y8697D1*
G1X6731Y8697D1*
G1X6730Y8698D1*
G1X6729Y8698D1*
G1X6728Y8698D1*
G1X6727Y8698D1*
G1X6726Y8698D1*
G1X6725Y8698D1*
G1X6724Y8698D1*
G1X6724Y8699D1*
G1X6723Y8699D1*
G1X6722Y8699D1*
G1X6721Y8699D1*
G1X6720Y8700D1*
G1X6719Y8700D1*
G1X6718Y8700D1*
G1X6717Y8700D1*
G1X6716Y8700D1*
G1X6715Y8700D1*
G1X6713Y8701D1*
G1X6712Y8701D1*
G1X6711Y8702D1*
G1X6710Y8702D1*
G1X6708Y8703D1*
G1X6707Y8703D1*
G1X6706Y8703D1*
G1X6704Y8704D1*
G1X6703Y8704D1*
G1X6702Y8704D1*
G1X6701Y8705D1*
G1X6700Y8705D1*
G1X6698Y8705D1*
G1X6697Y8706D1*
G1X6696Y8706D1*
G1X6695Y8706D1*
G1X6694Y8706D1*
G1X6693Y8707D1*
G1X6692Y8707D1*
G1X6691Y8707D1*
G1X6690Y8707D1*
G1X6689Y8707D1*
G1X6688Y8707D1*
G1X6687Y8707D1*
G1X6686Y8707D1*
G1X6685Y8706D1*
G1X6684Y8706D1*
G1X6683Y8705D1*
G1X6682Y8704D1*
G1X6682Y8703D1*
G1X6680Y8702D1*
G1X6680Y8701D1*
G1X6680Y8700D1*
G1X6679Y8700D1*
G1X6679Y8699D1*
G1X6679Y8698D1*
G1X6679Y8697D1*
G1X6674Y8696D1*
G1X6674Y8765D1*
G1X6679Y8765D1*
G1X6679Y8763D1*
G1X6680Y8761D1*
G1X6680Y8759D1*
G1X6682Y8757D1*
G1X6682Y8755D1*
G1X6683Y8753D1*
G1X6683Y8751D1*
G1X6684Y8748D1*
G1X6684Y8746D1*
G1X6685Y8745D1*
G1X6685Y8743D1*
G1X6686Y8742D1*
G1X6686Y8740D1*
G1X6687Y8739D1*
G1X6687Y8737D1*
G1X6688Y8736D1*
G1X6688Y8735D1*
G1X6689Y8733D1*
G1X6689Y8732D1*
G1X6690Y8731D1*
G1X6691Y8730D1*
G1X6691Y8729D1*
G1X6692Y8728D1*
G1X6693Y8727D1*
G1X6694Y8726D1*
G1X6695Y8725D1*
G1X6696Y8724D1*
G1X6697Y8723D1*
G1X6698Y8722D1*
G1X6698Y8721D1*
G1X6700Y8720D1*
G1X6701Y8719D1*
G1X6702Y8718D1*
G1X6703Y8718D1*
G1X6704Y8717D1*
G1X6705Y8716D1*
G1X6706Y8715D1*
G1X6707Y8714D1*
G1X6709Y8714D1*
G1X6710Y8713D1*
G1X6711Y8712D1*
G1X6713Y8712D1*
G1X6714Y8711D1*
G1X6715Y8710D1*
G1X6717Y8710D1*
G1X6718Y8709D1*
G1X6719Y8709D1*
G1X6721Y8709D1*
G1X6722Y8708D1*
G1X6724Y8708D1*
G1X6725Y8707D1*
G1X6727Y8707D1*
G1X6728Y8707D1*
G1X6730Y8707D1*
G1X6731Y8706D1*
G1X6733Y8706D1*
G1X6734Y8706D1*
G1X6736Y8706D1*
G1X6737Y8706D1*
G1X6739Y8706D1*
G1X6741Y8706D1*
G1X6743Y8706D1*
G1X6744Y8706D1*
G1X6746Y8706D1*
G1X6748Y8707D1*
G1X6750Y8707D1*
G1X6751Y8707D1*
G1X6753Y8708D1*
G1X6754Y8708D1*
G1X6756Y8709D1*
G1X6757Y8709D1*
G1X6760Y8710D1*
G1X6761Y8710D1*
G1X6762Y8711D1*
G1X6763Y8712D1*
G1X6765Y8712D1*
G1X6766Y8713D1*
G1X6767Y8714D1*
G1X6768Y8715D1*
G1X6769Y8716D1*
G1X6770Y8717D1*
G1X6771Y8718D1*
G1X6772Y8719D1*
G1X6773Y8720D1*
G1X6774Y8721D1*
G1X6775Y8722D1*
G1X6775Y8723D1*
G1X6776Y8724D1*
G1X6777Y8726D1*
G1X6777Y8727D1*
G1X6778Y8728D1*
G1X6778Y8729D1*
G1X6779Y8730D1*
G1X6779Y8731D1*
G1X6779Y8733D1*
G1X6780Y8734D1*
G1X6780Y8735D1*
G1X6780Y8736D1*
G1X6780Y8738D1*
G1X6780Y8739D1*
G1X6780Y8740D1*
G1X6780Y8741D1*
G1X6780Y8742D1*
G1X6780Y8743D1*
G1X6780Y8744D1*
G1X6779Y8745D1*
G1X6779Y8746D1*
G1X6779Y8747D1*
G1X6779Y8748D1*
G1X6778Y8749D1*
G1X6778Y8751D1*
G1X6777Y8752D1*
G1X6777Y8753D1*
G1X6777Y8754D1*
G1X6776Y8754D1*
G1X6776Y8755D1*
G1X6776Y8756D1*
G1X6775Y8757D1*
G1X6774Y8758D1*
G1X6774Y8759D1*
G1X6773Y8760D1*
G1X6772Y8761D1*
G1X6772Y8762D1*
G1X6771Y8763D1*
G1X6770Y8763D1*
G1X6770Y8764D1*
G1X6769Y8765D1*
G1X6768Y8765D1*
G1X6768Y8766D1*
G1X6767Y8767D1*
G1X6766Y8767D1*
G1X6766Y8768D1*
G1X6765Y8768D1*
G1X6764Y8769D1*
G1X6763Y8770D1*
G1X6762Y8771D1*
G1X6761Y8771D1*
G1X6760Y8772D1*
G1X6759Y8773D1*
G1X6756Y8774D1*
G1X6755Y8774D1*
G1X6754Y8775D1*
G1X6752Y8776D1*
G1X6750Y8777D1*
G1X6749Y8778D1*
G1X6747Y8779D1*
G1X6745Y8780D1*
G1X6743Y8782D1*
G1X6741Y8783D1*
G1X6738Y8784D1*
G1X6736Y8785D1*
G1X6734Y8787D1*
G1X6731Y8788D1*
G1X6729Y8789D1*
G1X6726Y8791D1*
G1X6724Y8792D1*
G1X6722Y8794D1*
G1X6719Y8795D1*
G1X6717Y8796D1*
G1X6715Y8798D1*
G1X6713Y8799D1*
G1X6711Y8800D1*
G1X6710Y8801D1*
G1X6708Y8802D1*
G1X6706Y8803D1*
G1X6704Y8805D1*
G1X6703Y8806D1*
G1X6701Y8807D1*
G1X6700Y8808D1*
G1X6699Y8808D1*
G1X6697Y8809D1*
G1X6696Y8810D1*
G1X6695Y8811D1*
G1X6694Y8812D1*
G1X6693Y8813D1*
G1X6692Y8814D1*
G1X6691Y8815D1*
G1X6690Y8816D1*
G1X6689Y8816D1*
G1X6688Y8817D1*
G1X6687Y8818D1*
G1X6686Y8819D1*
G1X6686Y8820D1*
G1X6685Y8821D1*
G1X6684Y8822D1*
G1X6683Y8823D1*
G1X6683Y8824D1*
G1X6682Y8825D1*
G1X6680Y8827D1*
G1X6680Y8828D1*
G1X6679Y8829D1*
G1X6679Y8830D1*
G1X6678Y8831D1*
G1X6677Y8832D1*
G1X6677Y8833D1*
G1X6676Y8834D1*
G1X6676Y8835D1*
G1X6675Y8836D1*
G1X6675Y8837D1*
G1X6675Y8838D1*
G1X6674Y8839D1*
G1X6674Y8840D1*
G1X6673Y8841D1*
G1X6673Y8843D1*
G1X6673Y8844D1*
G1X6673Y8845D1*
G1X6673Y8846D1*
G1X6672Y8847D1*
G1X6672Y8848D1*
G1X6672Y8849D1*
G1X6672Y8851D1*
G1X6672Y8852D1*
G1X6672Y8853D1*
G1X6672Y8855D1*
G1X6672Y8857D1*
G1X6672Y8859D1*
G1X6673Y8861D1*
G1X6673Y8863D1*
G1X6674Y8865D1*
G1X6674Y8867D1*
G1X6675Y8869D1*
G1X6675Y8871D1*
G1X6676Y8873D1*
G1X6677Y8875D1*
G1X6678Y8876D1*
G1X6679Y8878D1*
G1X6680Y8880D1*
G1X6683Y8882D1*
G1X6684Y8883D1*
G1X6685Y8885D1*
G1X6687Y8887D1*
G1X6688Y8888D1*
G1X6690Y8890D1*
G1X6692Y8891D1*
G1X6693Y8893D1*
G1X6695Y8894D1*
G1X6697Y8895D1*
G1X6699Y8897D1*
G1X6700Y8898D1*
G1X6702Y8899D1*
G1X6704Y8900D1*
G1X6706Y8900D1*
G1X6708Y8901D1*
G1X6710Y8902D1*
G1X6712Y8904D1*
G1X6715Y8904D1*
G1X6717Y8905D1*
G1X6719Y8905D1*
G1X6721Y8905D1*
G1X6724Y8906D1*
G1X6726Y8906D1*
G1X6729Y8906D1*
G1X6731Y8906D1*
G1X6733Y8906D1*
G1X6734Y8906D1*
G1X6736Y8906D1*
G1X6737Y8906D1*
G1X6739Y8906D1*
G1X6741Y8905D1*
G1X6742Y8905D1*
G1X6744Y8905D1*
G1X6746Y8905D1*
G1X6748Y8904D1*
G1X6749Y8904D1*
G1X6751Y8902D1*
G1X6753Y8902D1*
G1X6754Y8902D1*
G1X6756Y8901D1*
G1X6759Y8901D1*
G1X6761Y8900D1*
G1X6762Y8899D1*
G1X6764Y8899D1*
G1X6766Y8898D1*
G1X6767Y8898D1*
G1X6768Y8897D1*
G1X6769Y8897D1*
G1X6770Y8896D1*
G1X6771Y8896D1*
G1X6772Y8895D1*
G1X6773Y8895D1*
G1X6774Y8895D1*
G1X6775Y8894D1*
G1X6776Y8894D1*
G1X6777Y8894D1*
G1X6778Y8894D1*
G1X6779Y8894D1*
G1X6780Y8894D1*
G1X6781Y8894D1*
G1X6782Y8895D1*
G1X6783Y8895D1*
G1X6784Y8896D1*
G1X6785Y8896D1*
G1X6785Y8897D1*
G1X6786Y8898D1*
G1X6786Y8899D1*
G1X6787Y8900D1*
G1X6787Y8901D1*
G1X6787Y8902D1*
G1X6788Y8902D1*
G1X6788Y8904D1*
G1X6788Y8905D1*
G1X6788Y8906D1*
G1X6793Y8906D1*
G1X6793Y8837D1*
G37*
G36*
G1X7003Y8855D2*
G1X6997Y8855D1*
G1X6997Y8856D1*
G1X6997Y8857D1*
G1X6997Y8858D1*
G1X6997Y8860D1*
G1X6996Y8861D1*
G1X6996Y8862D1*
G1X6996Y8863D1*
G1X6996Y8864D1*
G1X6995Y8865D1*
G1X6995Y8866D1*
G1X6995Y8867D1*
G1X6995Y8868D1*
G1X6994Y8869D1*
G1X6994Y8870D1*
G1X6994Y8871D1*
G1X6993Y8871D1*
G1X6993Y8872D1*
G1X6992Y8873D1*
G1X6992Y8874D1*
G1X6991Y8875D1*
G1X6990Y8876D1*
G1X6990Y8877D1*
G1X6989Y8878D1*
G1X6987Y8879D1*
G1X6986Y8880D1*
G1X6985Y8881D1*
G1X6985Y8882D1*
G1X6984Y8882D1*
G1X6983Y8883D1*
G1X6982Y8884D1*
G1X6981Y8884D1*
G1X6981Y8885D1*
G1X6980Y8885D1*
G1X6979Y8885D1*
G1X6978Y8886D1*
G1X6977Y8886D1*
G1X6976Y8887D1*
G1X6975Y8887D1*
G1X6974Y8887D1*
G1X6973Y8888D1*
G1X6972Y8888D1*
G1X6971Y8888D1*
G1X6970Y8888D1*
G1X6969Y8888D1*
G1X6967Y8889D1*
G1X6966Y8889D1*
G1X6965Y8889D1*
G1X6964Y8889D1*
G1X6963Y8889D1*
G1X6962Y8889D1*
G1X6960Y8889D1*
G1X6959Y8889D1*
G1X6931Y8889D1*
G1X6931Y8735D1*
G1X6931Y8733D1*
G1X6931Y8731D1*
G1X6931Y8730D1*
G1X6931Y8728D1*
G1X6931Y8726D1*
G1X6931Y8725D1*
G1X6931Y8723D1*
G1X6932Y8722D1*
G1X6932Y8721D1*
G1X6932Y8720D1*
G1X6932Y8718D1*
G1X6932Y8717D1*
G1X6933Y8716D1*
G1X6933Y8715D1*
G1X6933Y8714D1*
G1X6934Y8714D1*
G1X6934Y8713D1*
G1X6934Y8712D1*
G1X6935Y8712D1*
G1X6935Y8711D1*
G1X6936Y8710D1*
G1X6937Y8709D1*
G1X6938Y8709D1*
G1X6938Y8708D1*
G1X6939Y8708D1*
G1X6940Y8708D1*
G1X6941Y8707D1*
G1X6942Y8707D1*
G1X6943Y8706D1*
G1X6944Y8706D1*
G1X6945Y8706D1*
G1X6946Y8706D1*
G1X6947Y8705D1*
G1X6948Y8705D1*
G1X6949Y8705D1*
G1X6950Y8705D1*
G1X6951Y8705D1*
G1X6952Y8705D1*
G1X6959Y8705D1*
G1X6959Y8700D1*
G1X6874Y8700D1*
G1X6874Y8705D1*
G1X6881Y8705D1*
G1X6882Y8705D1*
G1X6884Y8705D1*
G1X6885Y8705D1*
G1X6886Y8705D1*
G1X6887Y8706D1*
G1X6888Y8706D1*
G1X6889Y8706D1*
G1X6890Y8706D1*
G1X6891Y8707D1*
G1X6892Y8707D1*
G1X6893Y8707D1*
G1X6894Y8708D1*
G1X6895Y8708D1*
G1X6895Y8709D1*
G1X6896Y8710D1*
G1X6897Y8710D1*
G1X6897Y8711D1*
G1X6898Y8711D1*
G1X6898Y8712D1*
G1X6899Y8713D1*
G1X6899Y8714D1*
G1X6900Y8714D1*
G1X6900Y8715D1*
G1X6900Y8716D1*
G1X6901Y8717D1*
G1X6901Y8718D1*
G1X6901Y8719D1*
G1X6901Y8720D1*
G1X6901Y8721D1*
G1X6901Y8722D1*
G1X6902Y8723D1*
G1X6902Y8725D1*
G1X6902Y8726D1*
G1X6902Y8727D1*
G1X6902Y8729D1*
G1X6902Y8730D1*
G1X6902Y8732D1*
G1X6902Y8733D1*
G1X6902Y8735D1*
G1X6902Y8889D1*
G1X6878Y8889D1*
G1X6877Y8889D1*
G1X6875Y8889D1*
G1X6874Y8889D1*
G1X6873Y8889D1*
G1X6872Y8889D1*
G1X6870Y8889D1*
G1X6869Y8889D1*
G1X6868Y8889D1*
G1X6867Y8889D1*
G1X6866Y8889D1*
G1X6865Y8888D1*
G1X6864Y8888D1*
G1X6863Y8888D1*
G1X6862Y8888D1*
G1X6861Y8888D1*
G1X6860Y8888D1*
G1X6859Y8887D1*
G1X6858Y8887D1*
G1X6857Y8887D1*
G1X6856Y8886D1*
G1X6855Y8886D1*
G1X6854Y8885D1*
G1X6853Y8885D1*
G1X6853Y8884D1*
G1X6852Y8884D1*
G1X6851Y8883D1*
G1X6850Y8882D1*
G1X6849Y8882D1*
G1X6849Y8881D1*
G1X6848Y8880D1*
G1X6847Y8879D1*
G1X6847Y8878D1*
G1X6846Y8878D1*
G1X6846Y8877D1*
G1X6845Y8876D1*
G1X6845Y8875D1*
G1X6844Y8874D1*
G1X6844Y8873D1*
G1X6843Y8873D1*
G1X6843Y8872D1*
G1X6842Y8871D1*
G1X6842Y8870D1*
G1X6842Y8869D1*
G1X6841Y8868D1*
G1X6841Y8867D1*
G1X6841Y8866D1*
G1X6840Y8865D1*
G1X6840Y8863D1*
G1X6840Y8862D1*
G1X6840Y8861D1*
G1X6840Y8860D1*
G1X6839Y8859D1*
G1X6839Y8858D1*
G1X6839Y8856D1*
G1X6839Y8855D1*
G1X6832Y8855D1*
G1X6835Y8901D1*
G1X7001Y8901D1*
G1X7003Y8855D1*
G37*
G36*
G1X7073Y8811D2*
G1X7113Y8811D1*
G1X7115Y8811D1*
G1X7116Y8811D1*
G1X7118Y8811D1*
G1X7119Y8811D1*
G1X7121Y8811D1*
G1X7122Y8811D1*
G1X7124Y8812D1*
G1X7125Y8812D1*
G1X7126Y8812D1*
G1X7127Y8812D1*
G1X7128Y8813D1*
G1X7129Y8813D1*
G1X7130Y8813D1*
G1X7131Y8813D1*
G1X7132Y8814D1*
G1X7133Y8814D1*
G1X7134Y8815D1*
G1X7135Y8815D1*
G1X7135Y8816D1*
G1X7136Y8816D1*
G1X7137Y8817D1*
G1X7138Y8817D1*
G1X7138Y8818D1*
G1X7139Y8819D1*
G1X7140Y8820D1*
G1X7140Y8821D1*
G1X7142Y8822D1*
G1X7142Y8823D1*
G1X7143Y8824D1*
G1X7143Y8825D1*
G1X7144Y8827D1*
G1X7144Y8829D1*
G1X7144Y8830D1*
G1X7145Y8831D1*
G1X7145Y8833D1*
G1X7145Y8834D1*
G1X7146Y8835D1*
G1X7146Y8837D1*
G1X7146Y8838D1*
G1X7146Y8840D1*
G1X7151Y8840D1*
G1X7151Y8772D1*
G1X7146Y8772D1*
G1X7146Y8773D1*
G1X7146Y8775D1*
G1X7145Y8776D1*
G1X7145Y8777D1*
G1X7145Y8778D1*
G1X7145Y8779D1*
G1X7145Y8781D1*
G1X7144Y8782D1*
G1X7144Y8783D1*
G1X7144Y8784D1*
G1X7144Y8785D1*
G1X7143Y8786D1*
G1X7143Y8787D1*
G1X7143Y8788D1*
G1X7143Y8789D1*
G1X7142Y8789D1*
G1X7142Y8790D1*
G1X7140Y8791D1*
G1X7140Y8792D1*
G1X7139Y8792D1*
G1X7139Y8793D1*
G1X7138Y8793D1*
G1X7137Y8794D1*
G1X7136Y8794D1*
G1X7136Y8795D1*
G1X7135Y8795D1*
G1X7134Y8796D1*
G1X7133Y8796D1*
G1X7133Y8797D1*
G1X7132Y8797D1*
G1X7131Y8797D1*
G1X7131Y8798D1*
G1X7130Y8798D1*
G1X7129Y8798D1*
G1X7128Y8799D1*
G1X7127Y8799D1*
G1X7126Y8799D1*
G1X7125Y8799D1*
G1X7124Y8799D1*
G1X7123Y8799D1*
G1X7122Y8800D1*
G1X7121Y8800D1*
G1X7120Y8800D1*
G1X7119Y8800D1*
G1X7118Y8800D1*
G1X7117Y8800D1*
G1X7116Y8800D1*
G1X7114Y8800D1*
G1X7113Y8800D1*
G1X7073Y8800D1*
G1X7073Y8733D1*
G1X7073Y8732D1*
G1X7073Y8731D1*
G1X7073Y8729D1*
G1X7073Y8728D1*
G1X7073Y8727D1*
G1X7073Y8726D1*
G1X7073Y8725D1*
G1X7073Y8724D1*
G1X7073Y8723D1*
G1X7073Y8722D1*
G1X7073Y8721D1*
G1X7073Y8720D1*
G1X7074Y8719D1*
G1X7074Y8718D1*
G1X7074Y8717D1*
G1X7074Y8716D1*
G1X7075Y8716D1*
G1X7075Y8715D1*
G1X7076Y8714D1*
G1X7077Y8714D1*
G1X7077Y8713D1*
G1X7078Y8713D1*
G1X7079Y8713D1*
G1X7079Y8712D1*
G1X7080Y8712D1*
G1X7081Y8712D1*
G1X7082Y8712D1*
G1X7083Y8711D1*
G1X7084Y8711D1*
G1X7085Y8711D1*
G1X7086Y8711D1*
G1X7087Y8711D1*
G1X7088Y8711D1*
G1X7089Y8711D1*
G1X7123Y8711D1*
G1X7125Y8711D1*
G1X7126Y8711D1*
G1X7128Y8711D1*
G1X7129Y8711D1*
G1X7131Y8711D1*
G1X7132Y8711D1*
G1X7133Y8711D1*
G1X7135Y8711D1*
G1X7136Y8711D1*
G1X7137Y8712D1*
G1X7138Y8712D1*
G1X7139Y8712D1*
G1X7140Y8712D1*
G1X7142Y8712D1*
G1X7144Y8712D1*
G1X7145Y8712D1*
G1X7146Y8713D1*
G1X7147Y8713D1*
G1X7148Y8713D1*
G1X7149Y8713D1*
G1X7150Y8714D1*
G1X7151Y8714D1*
G1X7152Y8715D1*
G1X7153Y8715D1*
G1X7153Y8716D1*
G1X7154Y8716D1*
G1X7155Y8717D1*
G1X7156Y8717D1*
G1X7156Y8718D1*
G1X7157Y8718D1*
G1X7158Y8719D1*
G1X7159Y8719D1*
G1X7159Y8720D1*
G1X7160Y8720D1*
G1X7161Y8721D1*
G1X7162Y8722D1*
G1X7163Y8723D1*
G1X7164Y8724D1*
G1X7165Y8725D1*
G1X7166Y8726D1*
G1X7167Y8727D1*
G1X7168Y8728D1*
G1X7168Y8729D1*
G1X7169Y8731D1*
G1X7170Y8732D1*
G1X7171Y8733D1*
G1X7172Y8735D1*
G1X7173Y8736D1*
G1X7174Y8737D1*
G1X7175Y8739D1*
G1X7176Y8741D1*
G1X7177Y8742D1*
G1X7177Y8744D1*
G1X7178Y8746D1*
G1X7179Y8747D1*
G1X7180Y8749D1*
G1X7181Y8752D1*
G1X7187Y8752D1*
G1X7170Y8700D1*
G1X7016Y8700D1*
G1X7016Y8705D1*
G1X7023Y8705D1*
G1X7024Y8705D1*
G1X7025Y8705D1*
G1X7026Y8705D1*
G1X7027Y8705D1*
G1X7028Y8705D1*
G1X7029Y8706D1*
G1X7030Y8706D1*
G1X7031Y8706D1*
G1X7032Y8706D1*
G1X7033Y8707D1*
G1X7034Y8707D1*
G1X7035Y8707D1*
G1X7035Y8708D1*
G1X7036Y8708D1*
G1X7037Y8709D1*
G1X7038Y8709D1*
G1X7038Y8710D1*
G1X7039Y8710D1*
G1X7039Y8711D1*
G1X7040Y8711D1*
G1X7040Y8712D1*
G1X7041Y8712D1*
G1X7041Y8713D1*
G1X7041Y8714D1*
G1X7042Y8715D1*
G1X7042Y8716D1*
G1X7042Y8717D1*
G1X7043Y8717D1*
G1X7043Y8718D1*
G1X7043Y8719D1*
G1X7043Y8720D1*
G1X7043Y8721D1*
G1X7043Y8722D1*
G1X7043Y8723D1*
G1X7044Y8724D1*
G1X7044Y8725D1*
G1X7044Y8726D1*
G1X7044Y8727D1*
G1X7044Y8728D1*
G1X7044Y8729D1*
G1X7044Y8731D1*
G1X7044Y8732D1*
G1X7044Y8734D1*
G1X7044Y8735D1*
G1X7044Y8866D1*
G1X7044Y8868D1*
G1X7044Y8870D1*
G1X7044Y8871D1*
G1X7044Y8873D1*
G1X7044Y8875D1*
G1X7044Y8876D1*
G1X7044Y8878D1*
G1X7043Y8879D1*
G1X7043Y8880D1*
G1X7043Y8882D1*
G1X7043Y8883D1*
G1X7043Y8884D1*
G1X7042Y8885D1*
G1X7042Y8886D1*
G1X7042Y8887D1*
G1X7041Y8887D1*
G1X7041Y8888D1*
G1X7041Y8889D1*
G1X7040Y8889D1*
G1X7040Y8890D1*
G1X7039Y8891D1*
G1X7038Y8892D1*
G1X7037Y8893D1*
G1X7036Y8893D1*
G1X7035Y8894D1*
G1X7034Y8894D1*
G1X7033Y8895D1*
G1X7032Y8895D1*
G1X7031Y8895D1*
G1X7030Y8895D1*
G1X7029Y8896D1*
G1X7028Y8896D1*
G1X7026Y8896D1*
G1X7025Y8896D1*
G1X7024Y8896D1*
G1X7023Y8896D1*
G1X7016Y8896D1*
G1X7016Y8901D1*
G1X7169Y8901D1*
G1X7171Y8857D1*
G1X7165Y8857D1*
G1X7165Y8859D1*
G1X7164Y8860D1*
G1X7164Y8862D1*
G1X7164Y8863D1*
G1X7163Y8864D1*
G1X7163Y8866D1*
G1X7163Y8867D1*
G1X7162Y8868D1*
G1X7162Y8869D1*
G1X7162Y8870D1*
G1X7161Y8872D1*
G1X7161Y8873D1*
G1X7161Y8874D1*
G1X7160Y8875D1*
G1X7160Y8876D1*
G1X7159Y8877D1*
G1X7159Y8878D1*
G1X7158Y8878D1*
G1X7158Y8879D1*
G1X7158Y8880D1*
G1X7157Y8880D1*
G1X7157Y8881D1*
G1X7156Y8882D1*
G1X7155Y8883D1*
G1X7154Y8884D1*
G1X7153Y8885D1*
G1X7152Y8886D1*
G1X7151Y8886D1*
G1X7151Y8887D1*
G1X7150Y8887D1*
G1X7149Y8887D1*
G1X7149Y8888D1*
G1X7148Y8888D1*
G1X7147Y8888D1*
G1X7146Y8889D1*
G1X7145Y8889D1*
G1X7144Y8889D1*
G1X7143Y8889D1*
G1X7142Y8889D1*
G1X7140Y8889D1*
G1X7139Y8890D1*
G1X7138Y8890D1*
G1X7137Y8890D1*
G1X7135Y8890D1*
G1X7134Y8890D1*
G1X7133Y8890D1*
G1X7132Y8890D1*
G1X7130Y8890D1*
G1X7129Y8890D1*
G1X7127Y8890D1*
G1X7126Y8890D1*
G1X7073Y8890D1*
G1X7073Y8811D1*
G37*
G36*
G1X7411Y8896D2*
G1X7410Y8896D1*
G1X7409Y8896D1*
G1X7408Y8895D1*
G1X7407Y8895D1*
G1X7406Y8895D1*
G1X7405Y8895D1*
G1X7404Y8894D1*
G1X7403Y8894D1*
G1X7402Y8893D1*
G1X7401Y8893D1*
G1X7400Y8893D1*
G1X7400Y8892D1*
G1X7399Y8892D1*
G1X7398Y8891D1*
G1X7397Y8890D1*
G1X7396Y8890D1*
G1X7396Y8889D1*
G1X7395Y8889D1*
G1X7394Y8888D1*
G1X7393Y8887D1*
G1X7393Y8886D1*
G1X7392Y8886D1*
G1X7391Y8885D1*
G1X7390Y8884D1*
G1X7390Y8883D1*
G1X7389Y8881D1*
G1X7388Y8880D1*
G1X7388Y8879D1*
G1X7387Y8878D1*
G1X7386Y8877D1*
G1X7385Y8876D1*
G1X7385Y8874D1*
G1X7384Y8873D1*
G1X7383Y8872D1*
G1X7383Y8870D1*
G1X7382Y8869D1*
G1X7382Y8867D1*
G1X7381Y8866D1*
G1X7312Y8696D1*
G1X7305Y8696D1*
G1X7230Y8869D1*
G1X7229Y8870D1*
G1X7229Y8872D1*
G1X7228Y8873D1*
G1X7228Y8874D1*
G1X7227Y8875D1*
G1X7227Y8876D1*
G1X7226Y8877D1*
G1X7226Y8878D1*
G1X7225Y8879D1*
G1X7225Y8880D1*
G1X7225Y8881D1*
G1X7224Y8881D1*
G1X7224Y8882D1*
G1X7224Y8883D1*
G1X7223Y8883D1*
G1X7223Y8884D1*
G1X7222Y8884D1*
G1X7222Y8885D1*
G1X7221Y8886D1*
G1X7220Y8887D1*
G1X7220Y8888D1*
G1X7219Y8888D1*
G1X7219Y8889D1*
G1X7217Y8889D1*
G1X7217Y8890D1*
G1X7216Y8890D1*
G1X7215Y8891D1*
G1X7214Y8891D1*
G1X7214Y8892D1*
G1X7213Y8892D1*
G1X7212Y8893D1*
G1X7211Y8893D1*
G1X7210Y8894D1*
G1X7209Y8894D1*
G1X7208Y8894D1*
G1X7207Y8894D1*
G1X7207Y8895D1*
G1X7206Y8895D1*
G1X7205Y8895D1*
G1X7204Y8895D1*
G1X7203Y8895D1*
G1X7202Y8895D1*
G1X7201Y8896D1*
G1X7200Y8896D1*
G1X7199Y8896D1*
G1X7198Y8896D1*
G1X7198Y8901D1*
G1X7280Y8901D1*
G1X7280Y8896D1*
G1X7279Y8896D1*
G1X7277Y8896D1*
G1X7276Y8896D1*
G1X7275Y8895D1*
G1X7274Y8895D1*
G1X7273Y8895D1*
G1X7271Y8895D1*
G1X7270Y8895D1*
G1X7269Y8894D1*
G1X7268Y8894D1*
G1X7267Y8894D1*
G1X7266Y8893D1*
G1X7265Y8893D1*
G1X7264Y8892D1*
G1X7263Y8892D1*
G1X7262Y8891D1*
G1X7261Y8890D1*
G1X7260Y8889D1*
G1X7259Y8888D1*
G1X7259Y8887D1*
G1X7258Y8886D1*
G1X7258Y8885D1*
G1X7258Y8884D1*
G1X7258Y8883D1*
G1X7258Y8882D1*
G1X7258Y8881D1*
G1X7258Y8880D1*
G1X7258Y8879D1*
G1X7259Y8878D1*
G1X7259Y8877D1*
G1X7259Y8875D1*
G1X7259Y8874D1*
G1X7260Y8873D1*
G1X7260Y8872D1*
G1X7261Y8871D1*
G1X7261Y8870D1*
G1X7261Y8868D1*
G1X7262Y8867D1*
G1X7262Y8866D1*
G1X7263Y8864D1*
G1X7264Y8863D1*
G1X7264Y8861D1*
G1X7265Y8860D1*
G1X7317Y8741D1*
G1X7363Y8858D1*
G1X7364Y8860D1*
G1X7364Y8861D1*
G1X7365Y8863D1*
G1X7366Y8864D1*
G1X7366Y8866D1*
G1X7367Y8867D1*
G1X7367Y8869D1*
G1X7367Y8870D1*
G1X7368Y8871D1*
G1X7368Y8872D1*
G1X7369Y8874D1*
G1X7369Y8875D1*
G1X7369Y8876D1*
G1X7369Y8877D1*
G1X7370Y8878D1*
G1X7370Y8879D1*
G1X7370Y8880D1*
G1X7370Y8881D1*
G1X7370Y8882D1*
G1X7370Y8883D1*
G1X7370Y8884D1*
G1X7370Y8885D1*
G1X7369Y8885D1*
G1X7369Y8886D1*
G1X7369Y8887D1*
G1X7368Y8887D1*
G1X7368Y8888D1*
G1X7367Y8888D1*
G1X7367Y8889D1*
G1X7366Y8890D1*
G1X7365Y8890D1*
G1X7365Y8891D1*
G1X7364Y8891D1*
G1X7364Y8892D1*
G1X7363Y8892D1*
G1X7362Y8893D1*
G1X7361Y8893D1*
G1X7360Y8893D1*
G1X7360Y8894D1*
G1X7359Y8894D1*
G1X7358Y8894D1*
G1X7357Y8894D1*
G1X7357Y8895D1*
G1X7356Y8895D1*
G1X7355Y8895D1*
G1X7354Y8895D1*
G1X7353Y8896D1*
G1X7352Y8896D1*
G1X7351Y8896D1*
G1X7350Y8896D1*
G1X7349Y8896D1*
G1X7349Y8901D1*
G1X7411Y8901D1*
G1X7411Y8896D1*
G37*
G36*
G1X7415Y8705D2*
G1X7415Y8700D1*
G1X7479Y8700D1*
G1X7479Y8705D1*
G1X7475Y8705D1*
G1X7474Y8706D1*
G1X7469Y8706D1*
G1X7468Y8707D1*
G1X7465Y8707D1*
G1X7465Y8708D1*
G1X7463Y8708D1*
G1X7462Y8709D1*
G1X7461Y8709D1*
G1X7461Y8710D1*
G1X7460Y8710D1*
G1X7457Y8713D1*
G1X7457Y8714D1*
G1X7456Y8715D1*
G1X7456Y8722D1*
G1X7457Y8722D1*
G1X7457Y8725D1*
G1X7458Y8726D1*
G1X7458Y8728D1*
G1X7459Y8729D1*
G1X7459Y8730D1*
G1X7460Y8732D1*
G1X7460Y8733D1*
G1X7461Y8734D1*
G1X7461Y8735D1*
G1X7474Y8767D1*
G1X7552Y8767D1*
G1X7564Y8738D1*
G1X7565Y8737D1*
G1X7565Y8735D1*
G1X7566Y8734D1*
G1X7566Y8733D1*
G1X7567Y8731D1*
G1X7567Y8729D1*
G1X7568Y8728D1*
G1X7568Y8726D1*
G1X7569Y8725D1*
G1X7569Y8722D1*
G1X7570Y8721D1*
G1X7570Y8714D1*
G1X7569Y8713D1*
G1X7569Y8712D1*
G1X7566Y8709D1*
G1X7565Y8709D1*
G1X7565Y8708D1*
G1X7563Y8708D1*
G1X7562Y8707D1*
G1X7559Y8707D1*
G1X7558Y8706D1*
G1X7555Y8706D1*
G1X7554Y8705D1*
G1X7549Y8705D1*
G1X7549Y8700D1*
G1X7629Y8700D1*
G1X7629Y8705D1*
G1X7626Y8705D1*
G1X7624Y8706D1*
G1X7621Y8706D1*
G1X7620Y8707D1*
G1X7618Y8707D1*
G1X7617Y8708D1*
G1X7616Y8708D1*
G1X7615Y8709D1*
G1X7614Y8709D1*
G1X7613Y8710D1*
G1X7612Y8710D1*
G1X7606Y8716D1*
G1X7606Y8717D1*
G1X7603Y8720D1*
G1X7603Y8722D1*
G1X7601Y8723D1*
G1X7600Y8724D1*
G1X7599Y8726D1*
G1X7599Y8727D1*
G1X7597Y8731D1*
G1X7596Y8732D1*
G1X7596Y8734D1*
G1X7594Y8738D1*
G1X7562Y8819D1*
G1X7532Y8819D1*
G1X7548Y8778D1*
G1X7479Y8778D1*
G1X7497Y8819D1*
G1X7483Y8819D1*
G1X7449Y8740D1*
G1X7447Y8738D1*
G1X7444Y8732D1*
G1X7444Y8730D1*
G1X7442Y8726D1*
G1X7441Y8725D1*
G1X7440Y8723D1*
G1X7440Y8722D1*
G1X7439Y8720D1*
G1X7436Y8717D1*
G1X7436Y8715D1*
G1X7434Y8713D1*
G1X7433Y8713D1*
G1X7433Y8712D1*
G1X7430Y8709D1*
G1X7429Y8709D1*
G1X7428Y8708D1*
G1X7426Y8708D1*
G1X7425Y8707D1*
G1X7423Y8707D1*
G1X7422Y8706D1*
G1X7419Y8706D1*
G1X7418Y8705D1*
G1X7415Y8705D1*
G37*
G36*
G1X7483Y8819D2*
G1X7497Y8819D1*
G1X7515Y8859D1*
G1X7532Y8819D1*
G1X7562Y8819D1*
G1X7527Y8906D1*
G1X7520Y8906D1*
G1X7483Y8819D1*
G37*
G36*
G1X7813Y8755D2*
G1X7796Y8700D1*
G1X7641Y8700D1*
G1X7641Y8705D1*
G1X7648Y8705D1*
G1X7649Y8705D1*
G1X7651Y8705D1*
G1X7652Y8705D1*
G1X7653Y8705D1*
G1X7654Y8706D1*
G1X7655Y8706D1*
G1X7656Y8706D1*
G1X7657Y8706D1*
G1X7658Y8707D1*
G1X7659Y8707D1*
G1X7660Y8707D1*
G1X7661Y8708D1*
G1X7662Y8708D1*
G1X7662Y8709D1*
G1X7663Y8710D1*
G1X7664Y8710D1*
G1X7664Y8711D1*
G1X7665Y8711D1*
G1X7665Y8712D1*
G1X7666Y8713D1*
G1X7666Y8714D1*
G1X7667Y8714D1*
G1X7667Y8715D1*
G1X7667Y8716D1*
G1X7668Y8717D1*
G1X7668Y8718D1*
G1X7668Y8719D1*
G1X7668Y8720D1*
G1X7668Y8721D1*
G1X7668Y8722D1*
G1X7669Y8723D1*
G1X7669Y8725D1*
G1X7669Y8726D1*
G1X7669Y8727D1*
G1X7669Y8729D1*
G1X7669Y8730D1*
G1X7669Y8732D1*
G1X7669Y8733D1*
G1X7669Y8735D1*
G1X7669Y8866D1*
G1X7669Y8868D1*
G1X7669Y8870D1*
G1X7669Y8871D1*
G1X7669Y8873D1*
G1X7669Y8875D1*
G1X7669Y8876D1*
G1X7669Y8878D1*
G1X7668Y8879D1*
G1X7668Y8880D1*
G1X7668Y8882D1*
G1X7668Y8883D1*
G1X7668Y8884D1*
G1X7667Y8885D1*
G1X7667Y8886D1*
G1X7667Y8887D1*
G1X7666Y8887D1*
G1X7666Y8888D1*
G1X7666Y8889D1*
G1X7665Y8889D1*
G1X7665Y8890D1*
G1X7664Y8891D1*
G1X7663Y8892D1*
G1X7662Y8892D1*
G1X7662Y8893D1*
G1X7661Y8893D1*
G1X7660Y8893D1*
G1X7659Y8894D1*
G1X7658Y8895D1*
G1X7657Y8895D1*
G1X7656Y8895D1*
G1X7655Y8895D1*
G1X7654Y8895D1*
G1X7653Y8896D1*
G1X7652Y8896D1*
G1X7651Y8896D1*
G1X7650Y8896D1*
G1X7649Y8896D1*
G1X7648Y8896D1*
G1X7641Y8896D1*
G1X7641Y8901D1*
G1X7731Y8901D1*
G1X7731Y8896D1*
G1X7729Y8896D1*
G1X7728Y8896D1*
G1X7726Y8896D1*
G1X7725Y8896D1*
G1X7724Y8896D1*
G1X7722Y8896D1*
G1X7721Y8896D1*
G1X7720Y8896D1*
G1X7719Y8895D1*
G1X7717Y8895D1*
G1X7716Y8895D1*
G1X7715Y8895D1*
G1X7714Y8895D1*
G1X7713Y8894D1*
G1X7712Y8894D1*
G1X7711Y8894D1*
G1X7710Y8894D1*
G1X7710Y8893D1*
G1X7709Y8893D1*
G1X7708Y8893D1*
G1X7708Y8892D1*
G1X7707Y8892D1*
G1X7706Y8891D1*
G1X7705Y8891D1*
G1X7705Y8890D1*
G1X7704Y8890D1*
G1X7703Y8889D1*
G1X7702Y8888D1*
G1X7702Y8887D1*
G1X7701Y8887D1*
G1X7701Y8886D1*
G1X7700Y8885D1*
G1X7700Y8884D1*
G1X7699Y8883D1*
G1X7699Y8882D1*
G1X7699Y8881D1*
G1X7699Y8880D1*
G1X7699Y8879D1*
G1X7699Y8878D1*
G1X7698Y8876D1*
G1X7698Y8875D1*
G1X7698Y8874D1*
G1X7698Y8873D1*
G1X7698Y8871D1*
G1X7698Y8870D1*
G1X7698Y8868D1*
G1X7698Y8866D1*
G1X7698Y8865D1*
G1X7698Y8863D1*
G1X7698Y8736D1*
G1X7698Y8735D1*
G1X7698Y8734D1*
G1X7698Y8733D1*
G1X7698Y8731D1*
G1X7698Y8730D1*
G1X7698Y8729D1*
G1X7698Y8728D1*
G1X7698Y8727D1*
G1X7699Y8726D1*
G1X7699Y8725D1*
G1X7699Y8724D1*
G1X7699Y8723D1*
G1X7699Y8722D1*
G1X7699Y8721D1*
G1X7700Y8720D1*
G1X7700Y8719D1*
G1X7700Y8718D1*
G1X7701Y8718D1*
G1X7701Y8717D1*
G1X7702Y8717D1*
G1X7702Y8716D1*
G1X7703Y8716D1*
G1X7704Y8715D1*
G1X7705Y8715D1*
G1X7705Y8714D1*
G1X7706Y8714D1*
G1X7707Y8714D1*
G1X7708Y8714D1*
G1X7709Y8714D1*
G1X7709Y8713D1*
G1X7710Y8713D1*
G1X7711Y8713D1*
G1X7712Y8713D1*
G1X7713Y8713D1*
G1X7714Y8713D1*
G1X7716Y8713D1*
G1X7717Y8713D1*
G1X7719Y8713D1*
G1X7720Y8713D1*
G1X7722Y8713D1*
G1X7723Y8713D1*
G1X7725Y8713D1*
G1X7727Y8713D1*
G1X7729Y8713D1*
G1X7743Y8713D1*
G1X7745Y8713D1*
G1X7747Y8713D1*
G1X7750Y8713D1*
G1X7752Y8713D1*
G1X7754Y8713D1*
G1X7757Y8713D1*
G1X7758Y8713D1*
G1X7760Y8713D1*
G1X7762Y8714D1*
G1X7763Y8714D1*
G1X7765Y8714D1*
G1X7767Y8714D1*
G1X7768Y8714D1*
G1X7769Y8714D1*
G1X7771Y8715D1*
G1X7772Y8715D1*
G1X7773Y8715D1*
G1X7774Y8715D1*
G1X7775Y8716D1*
G1X7776Y8716D1*
G1X7777Y8716D1*
G1X7778Y8717D1*
G1X7779Y8717D1*
G1X7780Y8718D1*
G1X7781Y8719D1*
G1X7782Y8719D1*
G1X7783Y8720D1*
G1X7784Y8720D1*
G1X7785Y8721D1*
G1X7786Y8722D1*
G1X7787Y8723D1*
G1X7788Y8724D1*
G1X7789Y8724D1*
G1X7790Y8725D1*
G1X7791Y8726D1*
G1X7792Y8727D1*
G1X7793Y8728D1*
G1X7794Y8729D1*
G1X7794Y8730D1*
G1X7795Y8731D1*
G1X7796Y8732D1*
G1X7797Y8733D1*
G1X7797Y8734D1*
G1X7798Y8735D1*
G1X7799Y8737D1*
G1X7800Y8738D1*
G1X7800Y8739D1*
G1X7801Y8741D1*
G1X7802Y8742D1*
G1X7803Y8744D1*
G1X7803Y8745D1*
G1X7804Y8747D1*
G1X7805Y8748D1*
G1X7806Y8751D1*
G1X7806Y8752D1*
G1X7807Y8754D1*
G1X7808Y8756D1*
G1X7813Y8755D1*
G37*
G36*
G1X6641Y8561D2*
G1X6636Y8561D1*
G1X6636Y8563D1*
G1X6635Y8565D1*
G1X6635Y8567D1*
G1X6635Y8569D1*
G1X6634Y8571D1*
G1X6634Y8572D1*
G1X6633Y8574D1*
G1X6633Y8576D1*
G1X6632Y8577D1*
G1X6632Y8579D1*
G1X6631Y8581D1*
G1X6631Y8582D1*
G1X6630Y8584D1*
G1X6630Y8585D1*
G1X6629Y8587D1*
G1X6629Y8588D1*
G1X6628Y8589D1*
G1X6627Y8591D1*
G1X6627Y8592D1*
G1X6626Y8593D1*
G1X6625Y8594D1*
G1X6625Y8595D1*
G1X6624Y8597D1*
G1X6623Y8599D1*
G1X6623Y8600D1*
G1X6622Y8601D1*
G1X6621Y8602D1*
G1X6620Y8603D1*
G1X6619Y8604D1*
G1X6618Y8605D1*
G1X6617Y8606D1*
G1X6616Y8607D1*
G1X6615Y8607D1*
G1X6614Y8608D1*
G1X6613Y8609D1*
G1X6612Y8610D1*
G1X6611Y8611D1*
G1X6610Y8612D1*
G1X6608Y8612D1*
G1X6607Y8613D1*
G1X6606Y8614D1*
G1X6603Y8614D1*
G1X6602Y8615D1*
G1X6601Y8616D1*
G1X6600Y8616D1*
G1X6598Y8617D1*
G1X6597Y8617D1*
G1X6596Y8617D1*
G1X6594Y8618D1*
G1X6593Y8618D1*
G1X6592Y8619D1*
G1X6590Y8619D1*
G1X6589Y8619D1*
G1X6588Y8619D1*
G1X6587Y8620D1*
G1X6585Y8620D1*
G1X6584Y8620D1*
G1X6583Y8620D1*
G1X6581Y8620D1*
G1X6580Y8620D1*
G1X6578Y8620D1*
G1X6577Y8620D1*
G1X6575Y8620D1*
G1X6574Y8620D1*
G1X6572Y8619D1*
G1X6571Y8619D1*
G1X6570Y8619D1*
G1X6568Y8619D1*
G1X6567Y8618D1*
G1X6566Y8618D1*
G1X6564Y8617D1*
G1X6563Y8617D1*
G1X6562Y8616D1*
G1X6561Y8616D1*
G1X6559Y8615D1*
G1X6558Y8614D1*
G1X6557Y8613D1*
G1X6556Y8613D1*
G1X6555Y8612D1*
G1X6554Y8611D1*
G1X6553Y8610D1*
G1X6552Y8609D1*
G1X6551Y8608D1*
G1X6550Y8607D1*
G1X6550Y8606D1*
G1X6549Y8605D1*
G1X6548Y8604D1*
G1X6548Y8603D1*
G1X6547Y8602D1*
G1X6547Y8601D1*
G1X6546Y8599D1*
G1X6546Y8598D1*
G1X6545Y8597D1*
G1X6545Y8595D1*
G1X6545Y8594D1*
G1X6544Y8593D1*
G1X6544Y8592D1*
G1X6544Y8590D1*
G1X6544Y8589D1*
G1X6544Y8588D1*
G1X6544Y8587D1*
G1X6544Y8586D1*
G1X6544Y8585D1*
G1X6544Y8584D1*
G1X6545Y8583D1*
G1X6545Y8582D1*
G1X6545Y8581D1*
G1X6545Y8580D1*
G1X6545Y8579D1*
G1X6546Y8578D1*
G1X6547Y8577D1*
G1X6547Y8576D1*
G1X6547Y8575D1*
G1X6548Y8574D1*
G1X6548Y8573D1*
G1X6549Y8573D1*
G1X6549Y8572D1*
G1X6550Y8571D1*
G1X6551Y8570D1*
G1X6552Y8569D1*
G1X6553Y8568D1*
G1X6555Y8566D1*
G1X6556Y8565D1*
G1X6558Y8564D1*
G1X6559Y8562D1*
G1X6561Y8561D1*
G1X6563Y8560D1*
G1X6566Y8558D1*
G1X6568Y8557D1*
G1X6570Y8555D1*
G1X6573Y8554D1*
G1X6575Y8552D1*
G1X6578Y8551D1*
G1X6581Y8549D1*
G1X6584Y8547D1*
G1X6587Y8546D1*
G1X6591Y8544D1*
G1X6594Y8542D1*
G1X6597Y8541D1*
G1X6599Y8539D1*
G1X6602Y8538D1*
G1X6605Y8536D1*
G1X6608Y8535D1*
G1X6610Y8534D1*
G1X6612Y8532D1*
G1X6615Y8531D1*
G1X6617Y8530D1*
G1X6619Y8529D1*
G1X6620Y8528D1*
G1X6622Y8527D1*
G1X6624Y8525D1*
G1X6625Y8524D1*
G1X6627Y8523D1*
G1X6628Y8522D1*
G1X6630Y8522D1*
G1X6631Y8521D1*
G1X6632Y8520D1*
G1X6633Y8518D1*
G1X6634Y8517D1*
G1X6635Y8516D1*
G1X6636Y8516D1*
G1X6637Y8515D1*
G1X6638Y8514D1*
G1X6639Y8513D1*
G1X6640Y8512D1*
G1X6640Y8511D1*
G1X6641Y8510D1*
G1X6642Y8509D1*
G1X6643Y8508D1*
G1X6644Y8507D1*
G1X6644Y8506D1*
G1X6645Y8505D1*
G1X6646Y8504D1*
G1X6646Y8503D1*
G1X6647Y8502D1*
G1X6648Y8501D1*
G1X6648Y8500D1*
G1X6649Y8499D1*
G1X6649Y8498D1*
G1X6650Y8497D1*
G1X6650Y8496D1*
G1X6651Y8495D1*
G1X6651Y8493D1*
G1X6652Y8492D1*
G1X6652Y8491D1*
G1X6652Y8490D1*
G1X6652Y8489D1*
G1X6653Y8488D1*
G1X6653Y8487D1*
G1X6653Y8485D1*
G1X6653Y8484D1*
G1X6654Y8483D1*
G1X6654Y8482D1*
G1X6654Y8481D1*
G1X6654Y8480D1*
G1X6654Y8478D1*
G1X6654Y8477D1*
G1X6654Y8476D1*
G1X6654Y8474D1*
G1X6654Y8472D1*
G1X6654Y8470D1*
G1X6653Y8467D1*
G1X6653Y8465D1*
G1X6652Y8463D1*
G1X6652Y8461D1*
G1X6651Y8459D1*
G1X6650Y8457D1*
G1X6649Y8455D1*
G1X6649Y8453D1*
G1X6648Y8451D1*
G1X6646Y8450D1*
G1X6645Y8448D1*
G1X6644Y8446D1*
G1X6642Y8444D1*
G1X6641Y8441D1*
G1X6639Y8439D1*
G1X6638Y8438D1*
G1X6636Y8436D1*
G1X6634Y8434D1*
G1X6632Y8433D1*
G1X6631Y8432D1*
G1X6629Y8430D1*
G1X6627Y8429D1*
G1X6625Y8428D1*
G1X6623Y8427D1*
G1X6621Y8426D1*
G1X6618Y8425D1*
G1X6616Y8424D1*
G1X6614Y8424D1*
G1X6612Y8424D1*
G1X6609Y8423D1*
G1X6607Y8422D1*
G1X6603Y8422D1*
G1X6601Y8422D1*
G1X6598Y8421D1*
G1X6595Y8421D1*
G1X6593Y8421D1*
G1X6590Y8421D1*
G1X6589Y8421D1*
G1X6588Y8421D1*
G1X6587Y8421D1*
G1X6586Y8421D1*
G1X6585Y8421D1*
G1X6584Y8421D1*
G1X6583Y8421D1*
G1X6582Y8421D1*
G1X6581Y8421D1*
G1X6580Y8421D1*
G1X6579Y8421D1*
G1X6578Y8422D1*
G1X6577Y8422D1*
G1X6576Y8422D1*
G1X6575Y8422D1*
G1X6574Y8422D1*
G1X6573Y8422D1*
G1X6572Y8422D1*
G1X6572Y8423D1*
G1X6571Y8423D1*
G1X6570Y8423D1*
G1X6569Y8423D1*
G1X6568Y8424D1*
G1X6567Y8424D1*
G1X6566Y8424D1*
G1X6565Y8424D1*
G1X6564Y8424D1*
G1X6563Y8424D1*
G1X6561Y8425D1*
G1X6560Y8425D1*
G1X6559Y8426D1*
G1X6558Y8426D1*
G1X6556Y8427D1*
G1X6555Y8427D1*
G1X6554Y8427D1*
G1X6552Y8428D1*
G1X6551Y8428D1*
G1X6550Y8428D1*
G1X6549Y8429D1*
G1X6548Y8429D1*
G1X6546Y8429D1*
G1X6545Y8430D1*
G1X6544Y8430D1*
G1X6543Y8430D1*
G1X6542Y8430D1*
G1X6541Y8431D1*
G1X6540Y8431D1*
G1X6539Y8431D1*
G1X6538Y8431D1*
G1X6537Y8431D1*
G1X6536Y8431D1*
G1X6535Y8431D1*
G1X6534Y8431D1*
G1X6533Y8430D1*
G1X6532Y8430D1*
G1X6531Y8429D1*
G1X6530Y8428D1*
G1X6530Y8427D1*
G1X6529Y8426D1*
G1X6529Y8425D1*
G1X6529Y8424D1*
G1X6528Y8424D1*
G1X6528Y8423D1*
G1X6528Y8422D1*
G1X6528Y8421D1*
G1X6522Y8420D1*
G1X6522Y8489D1*
G1X6528Y8489D1*
G1X6528Y8487D1*
G1X6529Y8485D1*
G1X6529Y8483D1*
G1X6530Y8481D1*
G1X6530Y8479D1*
G1X6531Y8477D1*
G1X6531Y8475D1*
G1X6532Y8473D1*
G1X6532Y8471D1*
G1X6533Y8470D1*
G1X6533Y8468D1*
G1X6534Y8467D1*
G1X6534Y8465D1*
G1X6535Y8464D1*
G1X6535Y8462D1*
G1X6536Y8461D1*
G1X6536Y8460D1*
G1X6537Y8458D1*
G1X6537Y8457D1*
G1X6538Y8456D1*
G1X6539Y8455D1*
G1X6539Y8454D1*
G1X6540Y8453D1*
G1X6541Y8452D1*
G1X6542Y8451D1*
G1X6543Y8450D1*
G1X6544Y8449D1*
G1X6545Y8448D1*
G1X6546Y8447D1*
G1X6546Y8446D1*
G1X6548Y8445D1*
G1X6549Y8444D1*
G1X6550Y8442D1*
G1X6551Y8442D1*
G1X6552Y8441D1*
G1X6553Y8440D1*
G1X6554Y8439D1*
G1X6555Y8438D1*
G1X6557Y8438D1*
G1X6558Y8437D1*
G1X6559Y8436D1*
G1X6561Y8436D1*
G1X6562Y8435D1*
G1X6563Y8434D1*
G1X6565Y8434D1*
G1X6566Y8433D1*
G1X6567Y8433D1*
G1X6569Y8433D1*
G1X6570Y8432D1*
G1X6572Y8432D1*
G1X6573Y8431D1*
G1X6575Y8431D1*
G1X6576Y8431D1*
G1X6578Y8431D1*
G1X6579Y8430D1*
G1X6581Y8430D1*
G1X6582Y8430D1*
G1X6584Y8430D1*
G1X6585Y8430D1*
G1X6587Y8430D1*
G1X6589Y8430D1*
G1X6591Y8430D1*
G1X6592Y8430D1*
G1X6594Y8430D1*
G1X6596Y8431D1*
G1X6598Y8431D1*
G1X6599Y8431D1*
G1X6601Y8432D1*
G1X6602Y8432D1*
G1X6605Y8433D1*
G1X6606Y8433D1*
G1X6608Y8434D1*
G1X6609Y8434D1*
G1X6610Y8435D1*
G1X6611Y8436D1*
G1X6613Y8436D1*
G1X6614Y8437D1*
G1X6615Y8438D1*
G1X6616Y8439D1*
G1X6617Y8440D1*
G1X6618Y8441D1*
G1X6619Y8442D1*
G1X6620Y8444D1*
G1X6621Y8445D1*
G1X6622Y8446D1*
G1X6623Y8447D1*
G1X6623Y8448D1*
G1X6624Y8449D1*
G1X6625Y8451D1*
G1X6625Y8452D1*
G1X6626Y8453D1*
G1X6626Y8454D1*
G1X6627Y8455D1*
G1X6627Y8456D1*
G1X6627Y8458D1*
G1X6628Y8459D1*
G1X6628Y8460D1*
G1X6628Y8461D1*
G1X6628Y8463D1*
G1X6628Y8464D1*
G1X6628Y8465D1*
G1X6628Y8466D1*
G1X6628Y8467D1*
G1X6628Y8468D1*
G1X6628Y8469D1*
G1X6627Y8470D1*
G1X6627Y8471D1*
G1X6627Y8472D1*
G1X6627Y8473D1*
G1X6626Y8474D1*
G1X6626Y8475D1*
G1X6625Y8476D1*
G1X6625Y8477D1*
G1X6625Y8478D1*
G1X6624Y8478D1*
G1X6624Y8479D1*
G1X6624Y8480D1*
G1X6623Y8481D1*
G1X6622Y8482D1*
G1X6622Y8483D1*
G1X6621Y8484D1*
G1X6620Y8485D1*
G1X6620Y8486D1*
G1X6619Y8487D1*
G1X6618Y8487D1*
G1X6618Y8488D1*
G1X6617Y8489D1*
G1X6616Y8489D1*
G1X6616Y8490D1*
G1X6615Y8491D1*
G1X6614Y8491D1*
G1X6614Y8492D1*
G1X6613Y8492D1*
G1X6612Y8493D1*
G1X6611Y8494D1*
G1X6610Y8495D1*
G1X6609Y8495D1*
G1X6608Y8496D1*
G1X6607Y8497D1*
G1X6605Y8498D1*
G1X6603Y8498D1*
G1X6602Y8499D1*
G1X6600Y8500D1*
G1X6598Y8501D1*
G1X6597Y8502D1*
G1X6595Y8503D1*
G1X6593Y8504D1*
G1X6591Y8506D1*
G1X6589Y8507D1*
G1X6586Y8508D1*
G1X6584Y8509D1*
G1X6582Y8511D1*
G1X6579Y8512D1*
G1X6577Y8513D1*
G1X6574Y8515D1*
G1X6572Y8516D1*
G1X6570Y8518D1*
G1X6567Y8520D1*
G1X6565Y8521D1*
G1X6563Y8523D1*
G1X6561Y8524D1*
G1X6559Y8525D1*
G1X6558Y8526D1*
G1X6556Y8527D1*
G1X6554Y8528D1*
G1X6552Y8530D1*
G1X6551Y8531D1*
G1X6549Y8532D1*
G1X6548Y8533D1*
G1X6547Y8533D1*
G1X6545Y8534D1*
G1X6544Y8535D1*
G1X6543Y8536D1*
G1X6542Y8537D1*
G1X6541Y8538D1*
G1X6540Y8539D1*
G1X6539Y8540D1*
G1X6538Y8541D1*
G1X6537Y8541D1*
G1X6536Y8542D1*
G1X6535Y8543D1*
G1X6534Y8544D1*
G1X6534Y8545D1*
G1X6533Y8546D1*
G1X6532Y8547D1*
G1X6531Y8548D1*
G1X6531Y8549D1*
G1X6530Y8550D1*
G1X6529Y8551D1*
G1X6529Y8552D1*
G1X6528Y8553D1*
G1X6528Y8554D1*
G1X6526Y8555D1*
G1X6525Y8556D1*
G1X6525Y8557D1*
G1X6524Y8558D1*
G1X6524Y8559D1*
G1X6523Y8560D1*
G1X6523Y8561D1*
G1X6523Y8562D1*
G1X6522Y8563D1*
G1X6522Y8564D1*
G1X6521Y8565D1*
G1X6521Y8567D1*
G1X6521Y8568D1*
G1X6521Y8569D1*
G1X6521Y8570D1*
G1X6520Y8571D1*
G1X6520Y8572D1*
G1X6520Y8573D1*
G1X6520Y8575D1*
G1X6520Y8576D1*
G1X6520Y8577D1*
G1X6520Y8579D1*
G1X6520Y8581D1*
G1X6520Y8583D1*
G1X6521Y8585D1*
G1X6521Y8587D1*
G1X6522Y8589D1*
G1X6522Y8591D1*
G1X6523Y8593D1*
G1X6523Y8595D1*
G1X6524Y8598D1*
G1X6525Y8600D1*
G1X6526Y8601D1*
G1X6528Y8603D1*
G1X6529Y8605D1*
G1X6531Y8607D1*
G1X6532Y8608D1*
G1X6533Y8610D1*
G1X6535Y8612D1*
G1X6536Y8613D1*
G1X6538Y8615D1*
G1X6540Y8616D1*
G1X6541Y8618D1*
G1X6543Y8619D1*
G1X6545Y8620D1*
G1X6547Y8622D1*
G1X6548Y8623D1*
G1X6550Y8624D1*
G1X6552Y8625D1*
G1X6554Y8625D1*
G1X6556Y8626D1*
G1X6558Y8627D1*
G1X6560Y8628D1*
G1X6563Y8628D1*
G1X6565Y8629D1*
G1X6567Y8629D1*
G1X6569Y8629D1*
G1X6572Y8630D1*
G1X6574Y8630D1*
G1X6577Y8630D1*
G1X6579Y8630D1*
G1X6581Y8630D1*
G1X6582Y8630D1*
G1X6584Y8630D1*
G1X6585Y8630D1*
G1X6587Y8630D1*
G1X6589Y8629D1*
G1X6590Y8629D1*
G1X6592Y8629D1*
G1X6594Y8629D1*
G1X6596Y8628D1*
G1X6597Y8628D1*
G1X6599Y8627D1*
G1X6601Y8627D1*
G1X6602Y8627D1*
G1X6605Y8626D1*
G1X6607Y8626D1*
G1X6609Y8625D1*
G1X6610Y8624D1*
G1X6612Y8624D1*
G1X6614Y8623D1*
G1X6615Y8623D1*
G1X6616Y8622D1*
G1X6617Y8622D1*
G1X6618Y8621D1*
G1X6619Y8621D1*
G1X6620Y8620D1*
G1X6621Y8620D1*
G1X6622Y8620D1*
G1X6623Y8619D1*
G1X6624Y8619D1*
G1X6625Y8619D1*
G1X6626Y8619D1*
G1X6627Y8619D1*
G1X6628Y8619D1*
G1X6629Y8619D1*
G1X6630Y8620D1*
G1X6631Y8620D1*
G1X6632Y8621D1*
G1X6633Y8621D1*
G1X6633Y8622D1*
G1X6634Y8623D1*
G1X6634Y8624D1*
G1X6635Y8625D1*
G1X6635Y8626D1*
G1X6635Y8627D1*
G1X6636Y8627D1*
G1X6636Y8628D1*
G1X6636Y8629D1*
G1X6636Y8630D1*
G1X6641Y8630D1*
G1X6641Y8561D1*
G37*
G36*
G1X6851Y8579D2*
G1X6845Y8579D1*
G1X6845Y8580D1*
G1X6845Y8581D1*
G1X6845Y8582D1*
G1X6845Y8584D1*
G1X6844Y8585D1*
G1X6844Y8586D1*
G1X6844Y8587D1*
G1X6844Y8588D1*
G1X6843Y8589D1*
G1X6843Y8590D1*
G1X6843Y8591D1*
G1X6843Y8592D1*
G1X6842Y8593D1*
G1X6842Y8594D1*
G1X6842Y8595D1*
G1X6841Y8595D1*
G1X6841Y8597D1*
G1X6840Y8598D1*
G1X6840Y8599D1*
G1X6839Y8600D1*
G1X6838Y8601D1*
G1X6838Y8602D1*
G1X6837Y8603D1*
G1X6836Y8604D1*
G1X6835Y8605D1*
G1X6833Y8606D1*
G1X6833Y8607D1*
G1X6832Y8607D1*
G1X6831Y8608D1*
G1X6830Y8609D1*
G1X6829Y8609D1*
G1X6829Y8610D1*
G1X6828Y8610D1*
G1X6827Y8610D1*
G1X6826Y8611D1*
G1X6825Y8611D1*
G1X6824Y8612D1*
G1X6823Y8612D1*
G1X6822Y8612D1*
G1X6821Y8613D1*
G1X6820Y8613D1*
G1X6819Y8613D1*
G1X6818Y8613D1*
G1X6817Y8613D1*
G1X6815Y8614D1*
G1X6814Y8614D1*
G1X6813Y8614D1*
G1X6812Y8614D1*
G1X6811Y8614D1*
G1X6810Y8614D1*
G1X6808Y8614D1*
G1X6807Y8614D1*
G1X6779Y8614D1*
G1X6779Y8460D1*
G1X6779Y8458D1*
G1X6779Y8456D1*
G1X6779Y8455D1*
G1X6779Y8453D1*
G1X6779Y8451D1*
G1X6779Y8450D1*
G1X6779Y8448D1*
G1X6780Y8447D1*
G1X6780Y8446D1*
G1X6780Y8445D1*
G1X6780Y8442D1*
G1X6780Y8441D1*
G1X6781Y8440D1*
G1X6781Y8439D1*
G1X6781Y8438D1*
G1X6782Y8438D1*
G1X6782Y8437D1*
G1X6782Y8436D1*
G1X6783Y8436D1*
G1X6783Y8435D1*
G1X6784Y8434D1*
G1X6785Y8433D1*
G1X6786Y8433D1*
G1X6786Y8432D1*
G1X6787Y8432D1*
G1X6788Y8432D1*
G1X6789Y8431D1*
G1X6790Y8431D1*
G1X6791Y8430D1*
G1X6792Y8430D1*
G1X6793Y8430D1*
G1X6794Y8430D1*
G1X6795Y8429D1*
G1X6796Y8429D1*
G1X6797Y8429D1*
G1X6798Y8429D1*
G1X6799Y8429D1*
G1X6800Y8429D1*
G1X6807Y8429D1*
G1X6807Y8424D1*
G1X6722Y8424D1*
G1X6722Y8429D1*
G1X6729Y8429D1*
G1X6730Y8429D1*
G1X6732Y8429D1*
G1X6733Y8429D1*
G1X6734Y8429D1*
G1X6735Y8430D1*
G1X6736Y8430D1*
G1X6737Y8430D1*
G1X6738Y8430D1*
G1X6739Y8431D1*
G1X6740Y8431D1*
G1X6741Y8431D1*
G1X6742Y8432D1*
G1X6743Y8432D1*
G1X6743Y8433D1*
G1X6744Y8434D1*
G1X6745Y8434D1*
G1X6745Y8435D1*
G1X6746Y8435D1*
G1X6746Y8436D1*
G1X6747Y8437D1*
G1X6747Y8438D1*
G1X6748Y8438D1*
G1X6748Y8439D1*
G1X6748Y8440D1*
G1X6749Y8441D1*
G1X6749Y8442D1*
G1X6749Y8444D1*
G1X6749Y8445D1*
G1X6749Y8446D1*
G1X6749Y8447D1*
G1X6750Y8448D1*
G1X6750Y8450D1*
G1X6750Y8451D1*
G1X6750Y8452D1*
G1X6750Y8454D1*
G1X6750Y8455D1*
G1X6750Y8457D1*
G1X6750Y8458D1*
G1X6750Y8460D1*
G1X6750Y8614D1*
G1X6726Y8614D1*
G1X6725Y8614D1*
G1X6723Y8614D1*
G1X6722Y8614D1*
G1X6721Y8614D1*
G1X6720Y8614D1*
G1X6718Y8614D1*
G1X6717Y8614D1*
G1X6716Y8614D1*
G1X6715Y8614D1*
G1X6714Y8614D1*
G1X6713Y8613D1*
G1X6712Y8613D1*
G1X6711Y8613D1*
G1X6710Y8613D1*
G1X6709Y8613D1*
G1X6708Y8613D1*
G1X6707Y8612D1*
G1X6706Y8612D1*
G1X6705Y8612D1*
G1X6704Y8611D1*
G1X6703Y8611D1*
G1X6702Y8610D1*
G1X6701Y8610D1*
G1X6701Y8609D1*
G1X6700Y8609D1*
G1X6699Y8608D1*
G1X6698Y8607D1*
G1X6697Y8607D1*
G1X6697Y8606D1*
G1X6696Y8605D1*
G1X6695Y8604D1*
G1X6695Y8603D1*
G1X6694Y8603D1*
G1X6694Y8602D1*
G1X6693Y8601D1*
G1X6693Y8600D1*
G1X6692Y8599D1*
G1X6692Y8598D1*
G1X6691Y8598D1*
G1X6691Y8597D1*
G1X6690Y8595D1*
G1X6690Y8594D1*
G1X6690Y8593D1*
G1X6689Y8592D1*
G1X6689Y8591D1*
G1X6689Y8590D1*
G1X6688Y8589D1*
G1X6688Y8587D1*
G1X6688Y8586D1*
G1X6688Y8585D1*
G1X6688Y8584D1*
G1X6687Y8583D1*
G1X6687Y8582D1*
G1X6687Y8580D1*
G1X6687Y8579D1*
G1X6680Y8579D1*
G1X6683Y8626D1*
G1X6849Y8626D1*
G1X6851Y8579D1*
G37*
G36*
G1X7036Y8479D2*
G1X7019Y8424D1*
G1X6864Y8424D1*
G1X6864Y8429D1*
G1X6871Y8429D1*
G1X6872Y8429D1*
G1X6874Y8429D1*
G1X6875Y8429D1*
G1X6876Y8429D1*
G1X6877Y8430D1*
G1X6878Y8430D1*
G1X6879Y8430D1*
G1X6880Y8430D1*
G1X6881Y8431D1*
G1X6882Y8431D1*
G1X6883Y8431D1*
G1X6884Y8432D1*
G1X6885Y8432D1*
G1X6885Y8433D1*
G1X6886Y8434D1*
G1X6887Y8434D1*
G1X6887Y8435D1*
G1X6888Y8435D1*
G1X6888Y8436D1*
G1X6889Y8437D1*
G1X6889Y8438D1*
G1X6890Y8438D1*
G1X6890Y8439D1*
G1X6890Y8440D1*
G1X6891Y8441D1*
G1X6891Y8442D1*
G1X6891Y8444D1*
G1X6891Y8445D1*
G1X6891Y8446D1*
G1X6891Y8447D1*
G1X6892Y8448D1*
G1X6892Y8450D1*
G1X6892Y8451D1*
G1X6892Y8452D1*
G1X6892Y8454D1*
G1X6892Y8455D1*
G1X6892Y8457D1*
G1X6892Y8458D1*
G1X6892Y8460D1*
G1X6892Y8590D1*
G1X6892Y8592D1*
G1X6892Y8594D1*
G1X6892Y8595D1*
G1X6892Y8598D1*
G1X6892Y8600D1*
G1X6892Y8601D1*
G1X6892Y8603D1*
G1X6891Y8604D1*
G1X6891Y8605D1*
G1X6891Y8607D1*
G1X6891Y8608D1*
G1X6891Y8609D1*
G1X6890Y8610D1*
G1X6890Y8611D1*
G1X6890Y8612D1*
G1X6889Y8612D1*
G1X6889Y8613D1*
G1X6889Y8614D1*
G1X6888Y8614D1*
G1X6888Y8615D1*
G1X6887Y8616D1*
G1X6886Y8617D1*
G1X6885Y8617D1*
G1X6885Y8618D1*
G1X6884Y8618D1*
G1X6883Y8618D1*
G1X6882Y8619D1*
G1X6881Y8620D1*
G1X6880Y8620D1*
G1X6879Y8620D1*
G1X6878Y8620D1*
G1X6877Y8620D1*
G1X6876Y8621D1*
G1X6875Y8621D1*
G1X6874Y8621D1*
G1X6873Y8621D1*
G1X6872Y8621D1*
G1X6871Y8621D1*
G1X6864Y8621D1*
G1X6864Y8626D1*
G1X6954Y8626D1*
G1X6954Y8621D1*
G1X6952Y8621D1*
G1X6951Y8621D1*
G1X6949Y8621D1*
G1X6948Y8621D1*
G1X6947Y8621D1*
G1X6945Y8621D1*
G1X6944Y8621D1*
G1X6943Y8621D1*
G1X6942Y8620D1*
G1X6940Y8620D1*
G1X6939Y8620D1*
G1X6938Y8620D1*
G1X6937Y8620D1*
G1X6936Y8619D1*
G1X6935Y8619D1*
G1X6934Y8619D1*
G1X6933Y8619D1*
G1X6933Y8618D1*
G1X6932Y8618D1*
G1X6931Y8618D1*
G1X6931Y8617D1*
G1X6930Y8617D1*
G1X6929Y8616D1*
G1X6928Y8616D1*
G1X6928Y8615D1*
G1X6927Y8615D1*
G1X6926Y8614D1*
G1X6925Y8613D1*
G1X6925Y8612D1*
G1X6924Y8612D1*
G1X6924Y8611D1*
G1X6923Y8610D1*
G1X6923Y8609D1*
G1X6922Y8608D1*
G1X6922Y8607D1*
G1X6922Y8606D1*
G1X6922Y8605D1*
G1X6922Y8604D1*
G1X6922Y8603D1*
G1X6921Y8601D1*
G1X6921Y8600D1*
G1X6921Y8599D1*
G1X6921Y8598D1*
G1X6921Y8595D1*
G1X6921Y8594D1*
G1X6921Y8592D1*
G1X6921Y8590D1*
G1X6921Y8589D1*
G1X6921Y8587D1*
G1X6921Y8461D1*
G1X6921Y8460D1*
G1X6921Y8459D1*
G1X6921Y8458D1*
G1X6921Y8456D1*
G1X6921Y8455D1*
G1X6921Y8454D1*
G1X6921Y8453D1*
G1X6921Y8452D1*
G1X6922Y8451D1*
G1X6922Y8450D1*
G1X6922Y8449D1*
G1X6922Y8448D1*
G1X6922Y8447D1*
G1X6922Y8446D1*
G1X6923Y8445D1*
G1X6923Y8444D1*
G1X6923Y8442D1*
G1X6924Y8442D1*
G1X6924Y8441D1*
G1X6925Y8441D1*
G1X6925Y8440D1*
G1X6926Y8440D1*
G1X6927Y8439D1*
G1X6928Y8439D1*
G1X6928Y8438D1*
G1X6929Y8438D1*
G1X6930Y8438D1*
G1X6931Y8438D1*
G1X6932Y8438D1*
G1X6932Y8437D1*
G1X6933Y8437D1*
G1X6934Y8437D1*
G1X6935Y8437D1*
G1X6936Y8437D1*
G1X6937Y8437D1*
G1X6939Y8437D1*
G1X6940Y8437D1*
G1X6942Y8437D1*
G1X6943Y8437D1*
G1X6945Y8437D1*
G1X6946Y8437D1*
G1X6948Y8437D1*
G1X6950Y8437D1*
G1X6952Y8437D1*
G1X6966Y8437D1*
G1X6968Y8437D1*
G1X6970Y8437D1*
G1X6973Y8437D1*
G1X6975Y8437D1*
G1X6977Y8437D1*
G1X6979Y8437D1*
G1X6980Y8437D1*
G1X6982Y8437D1*
G1X6984Y8438D1*
G1X6985Y8438D1*
G1X6988Y8438D1*
G1X6990Y8438D1*
G1X6991Y8438D1*
G1X6992Y8438D1*
G1X6994Y8439D1*
G1X6995Y8439D1*
G1X6996Y8439D1*
G1X6997Y8439D1*
G1X6998Y8440D1*
G1X6999Y8440D1*
G1X7000Y8440D1*
G1X7001Y8441D1*
G1X7002Y8441D1*
G1X7003Y8442D1*
G1X7004Y8444D1*
G1X7005Y8444D1*
G1X7006Y8445D1*
G1X7007Y8445D1*
G1X7008Y8446D1*
G1X7009Y8447D1*
G1X7010Y8448D1*
G1X7011Y8449D1*
G1X7012Y8449D1*
G1X7013Y8450D1*
G1X7014Y8451D1*
G1X7015Y8452D1*
G1X7016Y8453D1*
G1X7017Y8454D1*
G1X7017Y8455D1*
G1X7018Y8456D1*
G1X7019Y8457D1*
G1X7020Y8458D1*
G1X7020Y8459D1*
G1X7021Y8460D1*
G1X7022Y8462D1*
G1X7023Y8463D1*
G1X7023Y8464D1*
G1X7024Y8466D1*
G1X7025Y8467D1*
G1X7026Y8469D1*
G1X7026Y8470D1*
G1X7027Y8472D1*
G1X7028Y8473D1*
G1X7029Y8475D1*
G1X7029Y8476D1*
G1X7030Y8478D1*
G1X7031Y8480D1*
G1X7036Y8479D1*
G37*
G36*
G1X7230Y8561D2*
G1X7225Y8561D1*
G1X7224Y8564D1*
G1X7223Y8567D1*
G1X7222Y8570D1*
G1X7221Y8573D1*
G1X7220Y8575D1*
G1X7219Y8578D1*
G1X7217Y8580D1*
G1X7216Y8583D1*
G1X7214Y8585D1*
G1X7213Y8587D1*
G1X7212Y8590D1*
G1X7210Y8592D1*
G1X7209Y8594D1*
G1X7207Y8597D1*
G1X7206Y8598D1*
G1X7204Y8600D1*
G1X7203Y8602D1*
G1X7201Y8603D1*
G1X7200Y8605D1*
G1X7198Y8606D1*
G1X7196Y8607D1*
G1X7195Y8609D1*
G1X7193Y8610D1*
G1X7191Y8611D1*
G1X7190Y8612D1*
G1X7188Y8613D1*
G1X7186Y8614D1*
G1X7184Y8615D1*
G1X7182Y8616D1*
G1X7180Y8617D1*
G1X7178Y8617D1*
G1X7176Y8618D1*
G1X7174Y8618D1*
G1X7172Y8619D1*
G1X7170Y8619D1*
G1X7167Y8619D1*
G1X7165Y8620D1*
G1X7163Y8620D1*
G1X7160Y8620D1*
G1X7158Y8620D1*
G1X7156Y8620D1*
G1X7154Y8620D1*
G1X7152Y8620D1*
G1X7151Y8620D1*
G1X7149Y8619D1*
G1X7147Y8619D1*
G1X7145Y8619D1*
G1X7143Y8618D1*
G1X7142Y8618D1*
G1X7139Y8618D1*
G1X7137Y8617D1*
G1X7135Y8616D1*
G1X7134Y8616D1*
G1X7132Y8615D1*
G1X7130Y8614D1*
G1X7129Y8614D1*
G1X7127Y8613D1*
G1X7125Y8612D1*
G1X7124Y8611D1*
G1X7122Y8610D1*
G1X7120Y8609D1*
G1X7119Y8608D1*
G1X7117Y8607D1*
G1X7116Y8606D1*
G1X7114Y8604D1*
G1X7113Y8603D1*
G1X7112Y8602D1*
G1X7110Y8600D1*
G1X7109Y8599D1*
G1X7108Y8597D1*
G1X7107Y8594D1*
G1X7105Y8593D1*
G1X7104Y8591D1*
G1X7103Y8589D1*
G1X7102Y8587D1*
G1X7101Y8585D1*
G1X7100Y8583D1*
G1X7099Y8581D1*
G1X7098Y8579D1*
G1X7097Y8577D1*
G1X7096Y8575D1*
G1X7095Y8572D1*
G1X7095Y8570D1*
G1X7094Y8568D1*
G1X7093Y8565D1*
G1X7092Y8563D1*
G1X7092Y8560D1*
G1X7091Y8558D1*
G1X7091Y8555D1*
G1X7090Y8552D1*
G1X7090Y8549D1*
G1X7089Y8547D1*
G1X7089Y8544D1*
G1X7089Y8541D1*
G1X7089Y8538D1*
G1X7088Y8535D1*
G1X7088Y8532D1*
G1X7088Y8528D1*
G1X7088Y8525D1*
G1X7088Y8522D1*
G1X7088Y8518D1*
G1X7088Y8516D1*
G1X7088Y8513D1*
G1X7088Y8511D1*
G1X7089Y8508D1*
G1X7089Y8506D1*
G1X7089Y8504D1*
G1X7089Y8501D1*
G1X7090Y8499D1*
G1X7090Y8496D1*
G1X7091Y8494D1*
G1X7091Y8492D1*
G1X7092Y8490D1*
G1X7092Y8488D1*
G1X7093Y8485D1*
G1X7094Y8483D1*
G1X7095Y8481D1*
G1X7095Y8479D1*
G1X7096Y8477D1*
G1X7097Y8475D1*
G1X7098Y8473D1*
G1X7099Y8471D1*
G1X7100Y8469D1*
G1X7101Y8467D1*
G1X7102Y8466D1*
G1X7103Y8464D1*
G1X7104Y8462D1*
G1X7105Y8461D1*
G1X7106Y8459D1*
G1X7108Y8458D1*
G1X7109Y8456D1*
G1X7110Y8455D1*
G1X7112Y8453D1*
G1X7113Y8452D1*
G1X7115Y8451D1*
G1X7116Y8449D1*
G1X7118Y8448D1*
G1X7120Y8447D1*
G1X7121Y8446D1*
G1X7123Y8445D1*
G1X7125Y8444D1*
G1X7126Y8442D1*
G1X7128Y8441D1*
G1X7130Y8440D1*
G1X7132Y8439D1*
G1X7134Y8438D1*
G1X7136Y8438D1*
G1X7137Y8437D1*
G1X7139Y8436D1*
G1X7142Y8436D1*
G1X7144Y8435D1*
G1X7146Y8435D1*
G1X7148Y8434D1*
G1X7150Y8434D1*
G1X7152Y8434D1*
G1X7154Y8433D1*
G1X7157Y8433D1*
G1X7159Y8433D1*
G1X7161Y8433D1*
G1X7163Y8433D1*
G1X7165Y8433D1*
G1X7167Y8433D1*
G1X7169Y8433D1*
G1X7170Y8433D1*
G1X7172Y8434D1*
G1X7174Y8434D1*
G1X7176Y8434D1*
G1X7178Y8434D1*
G1X7179Y8435D1*
G1X7181Y8435D1*
G1X7183Y8435D1*
G1X7184Y8436D1*
G1X7186Y8436D1*
G1X7188Y8437D1*
G1X7189Y8438D1*
G1X7191Y8438D1*
G1X7192Y8439D1*
G1X7194Y8439D1*
G1X7195Y8440D1*
G1X7197Y8441D1*
G1X7199Y8442D1*
G1X7200Y8444D1*
G1X7202Y8445D1*
G1X7203Y8446D1*
G1X7205Y8447D1*
G1X7206Y8448D1*
G1X7208Y8450D1*
G1X7209Y8451D1*
G1X7211Y8453D1*
G1X7212Y8454D1*
G1X7214Y8456D1*
G1X7216Y8458D1*
G1X7217Y8460D1*
G1X7220Y8462D1*
G1X7222Y8464D1*
G1X7223Y8466D1*
G1X7225Y8468D1*
G1X7227Y8470D1*
G1X7228Y8473D1*
G1X7230Y8475D1*
G1X7235Y8473D1*
G1X7233Y8470D1*
G1X7232Y8468D1*
G1X7230Y8465D1*
G1X7229Y8463D1*
G1X7227Y8460D1*
G1X7226Y8458D1*
G1X7224Y8456D1*
G1X7222Y8454D1*
G1X7220Y8452D1*
G1X7219Y8450D1*
G1X7216Y8448D1*
G1X7214Y8446D1*
G1X7212Y8444D1*
G1X7211Y8442D1*
G1X7209Y8440D1*
G1X7207Y8438D1*
G1X7205Y8437D1*
G1X7203Y8436D1*
G1X7201Y8434D1*
G1X7199Y8433D1*
G1X7197Y8432D1*
G1X7195Y8431D1*
G1X7193Y8429D1*
G1X7191Y8428D1*
G1X7189Y8427D1*
G1X7186Y8426D1*
G1X7184Y8425D1*
G1X7182Y8425D1*
G1X7180Y8424D1*
G1X7177Y8424D1*
G1X7175Y8424D1*
G1X7172Y8423D1*
G1X7170Y8423D1*
G1X7168Y8422D1*
G1X7165Y8422D1*
G1X7163Y8422D1*
G1X7160Y8421D1*
G1X7157Y8421D1*
G1X7155Y8421D1*
G1X7152Y8421D1*
G1X7147Y8421D1*
G1X7142Y8421D1*
G1X7137Y8422D1*
G1X7132Y8422D1*
G1X7127Y8423D1*
G1X7123Y8424D1*
G1X7119Y8425D1*
G1X7115Y8426D1*
G1X7111Y8427D1*
G1X7107Y8429D1*
G1X7103Y8431D1*
G1X7099Y8433D1*
G1X7096Y8436D1*
G1X7092Y8438D1*
G1X7089Y8441D1*
G1X7086Y8445D1*
G1X7083Y8448D1*
G1X7080Y8451D1*
G1X7077Y8454D1*
G1X7074Y8458D1*
G1X7072Y8461D1*
G1X7070Y8463D1*
G1X7068Y8466D1*
G1X7067Y8469D1*
G1X7065Y8472D1*
G1X7063Y8475D1*
G1X7061Y8478D1*
G1X7060Y8481D1*
G1X7059Y8484D1*
G1X7058Y8487D1*
G1X7057Y8490D1*
G1X7056Y8494D1*
G1X7055Y8497D1*
G1X7055Y8500D1*
G1X7054Y8504D1*
G1X7054Y8507D1*
G1X7053Y8510D1*
G1X7053Y8514D1*
G1X7053Y8517D1*
G1X7053Y8522D1*
G1X7053Y8525D1*
G1X7053Y8528D1*
G1X7053Y8531D1*
G1X7054Y8534D1*
G1X7054Y8537D1*
G1X7054Y8540D1*
G1X7055Y8542D1*
G1X7055Y8545D1*
G1X7056Y8548D1*
G1X7056Y8551D1*
G1X7057Y8553D1*
G1X7058Y8556D1*
G1X7058Y8559D1*
G1X7059Y8562D1*
G1X7060Y8564D1*
G1X7061Y8567D1*
G1X7062Y8569D1*
G1X7065Y8572D1*
G1X7066Y8574D1*
G1X7067Y8577D1*
G1X7068Y8579D1*
G1X7070Y8582D1*
G1X7071Y8584D1*
G1X7073Y8587D1*
G1X7075Y8589D1*
G1X7076Y8591D1*
G1X7078Y8593D1*
G1X7080Y8595D1*
G1X7081Y8598D1*
G1X7083Y8600D1*
G1X7085Y8602D1*
G1X7087Y8604D1*
G1X7089Y8605D1*
G1X7091Y8607D1*
G1X7093Y8609D1*
G1X7095Y8610D1*
G1X7097Y8612D1*
G1X7099Y8613D1*
G1X7102Y8615D1*
G1X7104Y8616D1*
G1X7106Y8617D1*
G1X7109Y8619D1*
G1X7111Y8620D1*
G1X7113Y8621D1*
G1X7116Y8622D1*
G1X7118Y8623D1*
G1X7121Y8624D1*
G1X7123Y8625D1*
G1X7126Y8626D1*
G1X7128Y8627D1*
G1X7131Y8627D1*
G1X7133Y8628D1*
G1X7136Y8628D1*
G1X7139Y8629D1*
G1X7142Y8629D1*
G1X7145Y8629D1*
G1X7148Y8630D1*
G1X7150Y8630D1*
G1X7153Y8630D1*
G1X7156Y8630D1*
G1X7158Y8630D1*
G1X7160Y8630D1*
G1X7162Y8630D1*
G1X7164Y8630D1*
G1X7167Y8629D1*
G1X7169Y8629D1*
G1X7171Y8629D1*
G1X7173Y8628D1*
G1X7175Y8628D1*
G1X7177Y8627D1*
G1X7179Y8627D1*
G1X7181Y8626D1*
G1X7183Y8625D1*
G1X7185Y8625D1*
G1X7188Y8624D1*
G1X7190Y8623D1*
G1X7192Y8622D1*
G1X7194Y8621D1*
G1X7196Y8620D1*
G1X7198Y8619D1*
G1X7199Y8619D1*
G1X7199Y8618D1*
G1X7200Y8618D1*
G1X7201Y8618D1*
G1X7201Y8617D1*
G1X7202Y8617D1*
G1X7203Y8617D1*
G1X7204Y8617D1*
G1X7204Y8616D1*
G1X7205Y8616D1*
G1X7206Y8616D1*
G1X7207Y8616D1*
G1X7208Y8616D1*
G1X7209Y8616D1*
G1X7210Y8616D1*
G1X7210Y8617D1*
G1X7211Y8617D1*
G1X7212Y8617D1*
G1X7212Y8618D1*
G1X7213Y8618D1*
G1X7214Y8619D1*
G1X7215Y8620D1*
G1X7215Y8621D1*
G1X7216Y8622D1*
G1X7216Y8623D1*
G1X7217Y8624D1*
G1X7217Y8625D1*
G1X7219Y8626D1*
G1X7219Y8627D1*
G1X7219Y8628D1*
G1X7220Y8629D1*
G1X7220Y8630D1*
G1X7225Y8630D1*
G1X7230Y8561D1*
G37*
G36*
G1X7384Y8561D2*
G1X7379Y8561D1*
G1X7379Y8563D1*
G1X7378Y8565D1*
G1X7378Y8567D1*
G1X7378Y8569D1*
G1X7377Y8571D1*
G1X7377Y8572D1*
G1X7376Y8574D1*
G1X7376Y8576D1*
G1X7375Y8577D1*
G1X7375Y8579D1*
G1X7374Y8581D1*
G1X7374Y8582D1*
G1X7373Y8584D1*
G1X7373Y8585D1*
G1X7372Y8587D1*
G1X7372Y8588D1*
G1X7370Y8589D1*
G1X7369Y8591D1*
G1X7369Y8592D1*
G1X7368Y8593D1*
G1X7367Y8594D1*
G1X7367Y8595D1*
G1X7366Y8597D1*
G1X7365Y8599D1*
G1X7365Y8600D1*
G1X7364Y8601D1*
G1X7363Y8602D1*
G1X7362Y8603D1*
G1X7361Y8604D1*
G1X7360Y8605D1*
G1X7359Y8606D1*
G1X7358Y8607D1*
G1X7357Y8607D1*
G1X7356Y8608D1*
G1X7355Y8609D1*
G1X7354Y8610D1*
G1X7353Y8611D1*
G1X7352Y8612D1*
G1X7350Y8612D1*
G1X7349Y8613D1*
G1X7348Y8614D1*
G1X7346Y8614D1*
G1X7345Y8615D1*
G1X7344Y8616D1*
G1X7343Y8616D1*
G1X7341Y8617D1*
G1X7340Y8617D1*
G1X7339Y8617D1*
G1X7337Y8618D1*
G1X7336Y8618D1*
G1X7335Y8619D1*
G1X7333Y8619D1*
G1X7332Y8619D1*
G1X7331Y8619D1*
G1X7330Y8620D1*
G1X7328Y8620D1*
G1X7327Y8620D1*
G1X7326Y8620D1*
G1X7324Y8620D1*
G1X7323Y8620D1*
G1X7321Y8620D1*
G1X7320Y8620D1*
G1X7318Y8620D1*
G1X7317Y8620D1*
G1X7315Y8619D1*
G1X7314Y8619D1*
G1X7313Y8619D1*
G1X7311Y8619D1*
G1X7310Y8618D1*
G1X7309Y8618D1*
G1X7307Y8617D1*
G1X7306Y8617D1*
G1X7305Y8616D1*
G1X7304Y8616D1*
G1X7302Y8615D1*
G1X7301Y8614D1*
G1X7300Y8613D1*
G1X7299Y8613D1*
G1X7298Y8612D1*
G1X7297Y8611D1*
G1X7296Y8610D1*
G1X7295Y8609D1*
G1X7293Y8608D1*
G1X7292Y8607D1*
G1X7292Y8606D1*
G1X7291Y8605D1*
G1X7290Y8604D1*
G1X7290Y8603D1*
G1X7289Y8602D1*
G1X7289Y8601D1*
G1X7288Y8599D1*
G1X7288Y8598D1*
G1X7287Y8597D1*
G1X7287Y8595D1*
G1X7287Y8594D1*
G1X7286Y8593D1*
G1X7286Y8592D1*
G1X7286Y8590D1*
G1X7286Y8589D1*
G1X7286Y8588D1*
G1X7286Y8587D1*
G1X7286Y8586D1*
G1X7286Y8585D1*
G1X7286Y8584D1*
G1X7287Y8583D1*
G1X7287Y8582D1*
G1X7287Y8581D1*
G1X7287Y8580D1*
G1X7287Y8579D1*
G1X7288Y8578D1*
G1X7289Y8577D1*
G1X7289Y8576D1*
G1X7289Y8575D1*
G1X7290Y8574D1*
G1X7290Y8573D1*
G1X7291Y8573D1*
G1X7291Y8572D1*
G1X7292Y8571D1*
G1X7293Y8570D1*
G1X7295Y8569D1*
G1X7296Y8568D1*
G1X7298Y8566D1*
G1X7299Y8565D1*
G1X7301Y8564D1*
G1X7302Y8562D1*
G1X7304Y8561D1*
G1X7306Y8560D1*
G1X7309Y8558D1*
G1X7311Y8557D1*
G1X7313Y8555D1*
G1X7316Y8554D1*
G1X7318Y8552D1*
G1X7321Y8551D1*
G1X7324Y8549D1*
G1X7327Y8547D1*
G1X7330Y8546D1*
G1X7334Y8544D1*
G1X7337Y8542D1*
G1X7340Y8541D1*
G1X7342Y8539D1*
G1X7345Y8538D1*
G1X7347Y8536D1*
G1X7350Y8535D1*
G1X7352Y8534D1*
G1X7354Y8532D1*
G1X7357Y8531D1*
G1X7359Y8530D1*
G1X7361Y8529D1*
G1X7362Y8528D1*
G1X7364Y8527D1*
G1X7366Y8525D1*
G1X7367Y8524D1*
G1X7369Y8523D1*
G1X7370Y8522D1*
G1X7373Y8522D1*
G1X7374Y8521D1*
G1X7375Y8520D1*
G1X7376Y8518D1*
G1X7377Y8517D1*
G1X7378Y8516D1*
G1X7379Y8516D1*
G1X7380Y8515D1*
G1X7381Y8514D1*
G1X7382Y8513D1*
G1X7383Y8512D1*
G1X7383Y8511D1*
G1X7384Y8510D1*
G1X7385Y8509D1*
G1X7386Y8508D1*
G1X7387Y8507D1*
G1X7387Y8506D1*
G1X7388Y8505D1*
G1X7389Y8504D1*
G1X7389Y8503D1*
G1X7390Y8502D1*
G1X7391Y8501D1*
G1X7391Y8500D1*
G1X7392Y8499D1*
G1X7392Y8498D1*
G1X7393Y8497D1*
G1X7393Y8496D1*
G1X7394Y8495D1*
G1X7394Y8493D1*
G1X7395Y8492D1*
G1X7395Y8491D1*
G1X7395Y8490D1*
G1X7395Y8489D1*
G1X7396Y8488D1*
G1X7396Y8487D1*
G1X7396Y8485D1*
G1X7396Y8484D1*
G1X7397Y8483D1*
G1X7397Y8482D1*
G1X7397Y8481D1*
G1X7397Y8480D1*
G1X7397Y8478D1*
G1X7397Y8477D1*
G1X7397Y8476D1*
G1X7397Y8474D1*
G1X7397Y8472D1*
G1X7397Y8470D1*
G1X7396Y8467D1*
G1X7396Y8465D1*
G1X7395Y8463D1*
G1X7395Y8461D1*
G1X7394Y8459D1*
G1X7393Y8457D1*
G1X7392Y8455D1*
G1X7392Y8453D1*
G1X7391Y8451D1*
G1X7389Y8450D1*
G1X7388Y8448D1*
G1X7387Y8446D1*
G1X7385Y8444D1*
G1X7384Y8441D1*
G1X7382Y8439D1*
G1X7381Y8438D1*
G1X7379Y8436D1*
G1X7377Y8434D1*
G1X7375Y8433D1*
G1X7374Y8432D1*
G1X7372Y8430D1*
G1X7369Y8429D1*
G1X7367Y8428D1*
G1X7365Y8427D1*
G1X7363Y8426D1*
G1X7360Y8425D1*
G1X7358Y8424D1*
G1X7356Y8424D1*
G1X7354Y8424D1*
G1X7351Y8423D1*
G1X7349Y8422D1*
G1X7346Y8422D1*
G1X7344Y8422D1*
G1X7341Y8421D1*
G1X7338Y8421D1*
G1X7336Y8421D1*
G1X7333Y8421D1*
G1X7332Y8421D1*
G1X7331Y8421D1*
G1X7330Y8421D1*
G1X7329Y8421D1*
G1X7328Y8421D1*
G1X7327Y8421D1*
G1X7326Y8421D1*
G1X7325Y8421D1*
G1X7324Y8421D1*
G1X7323Y8421D1*
G1X7322Y8421D1*
G1X7321Y8422D1*
G1X7320Y8422D1*
G1X7319Y8422D1*
G1X7318Y8422D1*
G1X7317Y8422D1*
G1X7316Y8422D1*
G1X7315Y8422D1*
G1X7315Y8423D1*
G1X7314Y8423D1*
G1X7313Y8423D1*
G1X7312Y8423D1*
G1X7311Y8424D1*
G1X7310Y8424D1*
G1X7309Y8424D1*
G1X7308Y8424D1*
G1X7307Y8424D1*
G1X7306Y8424D1*
G1X7304Y8425D1*
G1X7303Y8425D1*
G1X7302Y8426D1*
G1X7301Y8426D1*
G1X7299Y8427D1*
G1X7298Y8427D1*
G1X7297Y8427D1*
G1X7295Y8428D1*
G1X7293Y8428D1*
G1X7292Y8428D1*
G1X7291Y8429D1*
G1X7290Y8429D1*
G1X7288Y8429D1*
G1X7287Y8430D1*
G1X7286Y8430D1*
G1X7285Y8430D1*
G1X7284Y8430D1*
G1X7283Y8431D1*
G1X7282Y8431D1*
G1X7281Y8431D1*
G1X7280Y8431D1*
G1X7279Y8431D1*
G1X7278Y8431D1*
G1X7277Y8431D1*
G1X7276Y8431D1*
G1X7275Y8430D1*
G1X7274Y8430D1*
G1X7273Y8429D1*
G1X7272Y8428D1*
G1X7272Y8427D1*
G1X7271Y8426D1*
G1X7271Y8425D1*
G1X7271Y8424D1*
G1X7270Y8424D1*
G1X7270Y8423D1*
G1X7270Y8422D1*
G1X7270Y8421D1*
G1X7265Y8420D1*
G1X7265Y8489D1*
G1X7270Y8489D1*
G1X7270Y8487D1*
G1X7271Y8485D1*
G1X7271Y8483D1*
G1X7272Y8481D1*
G1X7272Y8479D1*
G1X7273Y8477D1*
G1X7273Y8475D1*
G1X7274Y8473D1*
G1X7274Y8471D1*
G1X7275Y8470D1*
G1X7275Y8468D1*
G1X7276Y8467D1*
G1X7276Y8465D1*
G1X7277Y8464D1*
G1X7277Y8462D1*
G1X7278Y8461D1*
G1X7278Y8460D1*
G1X7279Y8458D1*
G1X7279Y8457D1*
G1X7280Y8456D1*
G1X7281Y8455D1*
G1X7281Y8454D1*
G1X7282Y8453D1*
G1X7283Y8452D1*
G1X7284Y8451D1*
G1X7285Y8450D1*
G1X7286Y8449D1*
G1X7287Y8448D1*
G1X7288Y8447D1*
G1X7288Y8446D1*
G1X7290Y8445D1*
G1X7291Y8444D1*
G1X7292Y8442D1*
G1X7293Y8442D1*
G1X7295Y8441D1*
G1X7296Y8440D1*
G1X7297Y8439D1*
G1X7298Y8438D1*
G1X7300Y8438D1*
G1X7301Y8437D1*
G1X7302Y8436D1*
G1X7304Y8436D1*
G1X7305Y8435D1*
G1X7306Y8434D1*
G1X7308Y8434D1*
G1X7309Y8433D1*
G1X7310Y8433D1*
G1X7312Y8433D1*
G1X7313Y8432D1*
G1X7315Y8432D1*
G1X7316Y8431D1*
G1X7318Y8431D1*
G1X7319Y8431D1*
G1X7321Y8431D1*
G1X7322Y8430D1*
G1X7324Y8430D1*
G1X7325Y8430D1*
G1X7327Y8430D1*
G1X7328Y8430D1*
G1X7330Y8430D1*
G1X7332Y8430D1*
G1X7334Y8430D1*
G1X7335Y8430D1*
G1X7337Y8430D1*
G1X7339Y8431D1*
G1X7341Y8431D1*
G1X7342Y8431D1*
G1X7344Y8432D1*
G1X7345Y8432D1*
G1X7347Y8433D1*
G1X7348Y8433D1*
G1X7350Y8434D1*
G1X7351Y8434D1*
G1X7352Y8435D1*
G1X7353Y8436D1*
G1X7355Y8436D1*
G1X7356Y8437D1*
G1X7357Y8438D1*
G1X7358Y8439D1*
G1X7359Y8440D1*
G1X7360Y8441D1*
G1X7361Y8442D1*
G1X7362Y8444D1*
G1X7363Y8445D1*
G1X7364Y8446D1*
G1X7365Y8447D1*
G1X7365Y8448D1*
G1X7366Y8449D1*
G1X7367Y8451D1*
G1X7367Y8452D1*
G1X7368Y8453D1*
G1X7368Y8454D1*
G1X7369Y8455D1*
G1X7369Y8456D1*
G1X7369Y8458D1*
G1X7370Y8459D1*
G1X7370Y8460D1*
G1X7370Y8461D1*
G1X7370Y8463D1*
G1X7370Y8464D1*
G1X7370Y8465D1*
G1X7370Y8466D1*
G1X7370Y8467D1*
G1X7370Y8468D1*
G1X7370Y8469D1*
G1X7369Y8470D1*
G1X7369Y8471D1*
G1X7369Y8472D1*
G1X7369Y8473D1*
G1X7368Y8474D1*
G1X7368Y8475D1*
G1X7367Y8476D1*
G1X7367Y8477D1*
G1X7367Y8478D1*
G1X7366Y8478D1*
G1X7366Y8479D1*
G1X7366Y8480D1*
G1X7365Y8481D1*
G1X7364Y8482D1*
G1X7364Y8483D1*
G1X7363Y8484D1*
G1X7362Y8485D1*
G1X7362Y8486D1*
G1X7361Y8487D1*
G1X7360Y8487D1*
G1X7360Y8488D1*
G1X7359Y8489D1*
G1X7358Y8489D1*
G1X7358Y8490D1*
G1X7357Y8491D1*
G1X7356Y8491D1*
G1X7356Y8492D1*
G1X7355Y8492D1*
G1X7354Y8493D1*
G1X7353Y8494D1*
G1X7352Y8495D1*
G1X7351Y8495D1*
G1X7350Y8496D1*
G1X7349Y8497D1*
G1X7347Y8498D1*
G1X7346Y8498D1*
G1X7345Y8499D1*
G1X7343Y8500D1*
G1X7341Y8501D1*
G1X7340Y8502D1*
G1X7338Y8503D1*
G1X7336Y8504D1*
G1X7334Y8506D1*
G1X7332Y8507D1*
G1X7329Y8508D1*
G1X7327Y8509D1*
G1X7325Y8511D1*
G1X7322Y8512D1*
G1X7320Y8513D1*
G1X7317Y8515D1*
G1X7315Y8516D1*
G1X7313Y8518D1*
G1X7310Y8520D1*
G1X7308Y8521D1*
G1X7306Y8523D1*
G1X7304Y8524D1*
G1X7302Y8525D1*
G1X7301Y8526D1*
G1X7299Y8527D1*
G1X7297Y8528D1*
G1X7295Y8530D1*
G1X7293Y8531D1*
G1X7291Y8532D1*
G1X7290Y8533D1*
G1X7289Y8533D1*
G1X7287Y8534D1*
G1X7286Y8535D1*
G1X7285Y8536D1*
G1X7284Y8537D1*
G1X7283Y8538D1*
G1X7282Y8539D1*
G1X7281Y8540D1*
G1X7280Y8541D1*
G1X7279Y8541D1*
G1X7278Y8542D1*
G1X7277Y8543D1*
G1X7276Y8544D1*
G1X7276Y8545D1*
G1X7275Y8546D1*
G1X7274Y8547D1*
G1X7273Y8548D1*
G1X7273Y8549D1*
G1X7272Y8550D1*
G1X7271Y8551D1*
G1X7271Y8552D1*
G1X7270Y8553D1*
G1X7270Y8554D1*
G1X7269Y8555D1*
G1X7268Y8556D1*
G1X7268Y8557D1*
G1X7267Y8558D1*
G1X7267Y8559D1*
G1X7266Y8560D1*
G1X7266Y8561D1*
G1X7266Y8562D1*
G1X7265Y8563D1*
G1X7265Y8564D1*
G1X7264Y8565D1*
G1X7264Y8567D1*
G1X7264Y8568D1*
G1X7264Y8569D1*
G1X7264Y8570D1*
G1X7263Y8571D1*
G1X7263Y8572D1*
G1X7263Y8573D1*
G1X7263Y8575D1*
G1X7263Y8576D1*
G1X7263Y8577D1*
G1X7263Y8579D1*
G1X7263Y8581D1*
G1X7263Y8583D1*
G1X7264Y8585D1*
G1X7264Y8587D1*
G1X7265Y8589D1*
G1X7265Y8591D1*
G1X7266Y8593D1*
G1X7266Y8595D1*
G1X7267Y8598D1*
G1X7268Y8600D1*
G1X7269Y8601D1*
G1X7270Y8603D1*
G1X7271Y8605D1*
G1X7273Y8607D1*
G1X7274Y8608D1*
G1X7275Y8610D1*
G1X7277Y8612D1*
G1X7278Y8613D1*
G1X7280Y8615D1*
G1X7282Y8616D1*
G1X7283Y8618D1*
G1X7285Y8619D1*
G1X7287Y8620D1*
G1X7289Y8622D1*
G1X7290Y8623D1*
G1X7292Y8624D1*
G1X7295Y8625D1*
G1X7297Y8625D1*
G1X7299Y8626D1*
G1X7301Y8627D1*
G1X7303Y8628D1*
G1X7306Y8628D1*
G1X7308Y8629D1*
G1X7310Y8629D1*
G1X7312Y8629D1*
G1X7315Y8630D1*
G1X7317Y8630D1*
G1X7320Y8630D1*
G1X7322Y8630D1*
G1X7324Y8630D1*
G1X7325Y8630D1*
G1X7327Y8630D1*
G1X7328Y8630D1*
G1X7330Y8630D1*
G1X7332Y8629D1*
G1X7333Y8629D1*
G1X7335Y8629D1*
G1X7337Y8629D1*
G1X7339Y8628D1*
G1X7340Y8628D1*
G1X7342Y8627D1*
G1X7344Y8627D1*
G1X7345Y8627D1*
G1X7347Y8626D1*
G1X7349Y8626D1*
G1X7351Y8625D1*
G1X7352Y8624D1*
G1X7354Y8624D1*
G1X7356Y8623D1*
G1X7357Y8623D1*
G1X7358Y8622D1*
G1X7359Y8622D1*
G1X7360Y8621D1*
G1X7361Y8621D1*
G1X7362Y8620D1*
G1X7363Y8620D1*
G1X7364Y8620D1*
G1X7365Y8619D1*
G1X7366Y8619D1*
G1X7367Y8619D1*
G1X7368Y8619D1*
G1X7369Y8619D1*
G1X7370Y8619D1*
G1X7372Y8619D1*
G1X7373Y8620D1*
G1X7374Y8620D1*
G1X7375Y8621D1*
G1X7376Y8621D1*
G1X7376Y8622D1*
G1X7377Y8623D1*
G1X7377Y8624D1*
G1X7378Y8625D1*
G1X7378Y8626D1*
G1X7378Y8627D1*
G1X7379Y8627D1*
G1X7379Y8628D1*
G1X7379Y8629D1*
G1X7379Y8630D1*
G1X7384Y8630D1*
G1X7384Y8561D1*
G37*
G36*
G1X7426Y8512D2*
G1X7427Y8508D1*
G1X7427Y8501D1*
G1X7428Y8497D1*
G1X7429Y8494D1*
G1X7429Y8490D1*
G1X7431Y8484D1*
G1X7432Y8480D1*
G1X7436Y8468D1*
G1X7438Y8465D1*
G1X7440Y8459D1*
G1X7446Y8450D1*
G1X7449Y8447D1*
G1X7451Y8444D1*
G1X7453Y8440D1*
G1X7455Y8438D1*
G1X7457Y8435D1*
G1X7461Y8431D1*
G1X7464Y8429D1*
G1X7466Y8428D1*
G1X7469Y8426D1*
G1X7471Y8425D1*
G1X7474Y8424D1*
G1X7476Y8424D1*
G1X7479Y8423D1*
G1X7482Y8423D1*
G1X7484Y8422D1*
G1X7496Y8422D1*
G1X7497Y8423D1*
G1X7500Y8423D1*
G1X7501Y8424D1*
G1X7506Y8424D1*
G1X7507Y8425D1*
G1X7509Y8426D1*
G1X7510Y8426D1*
G1X7512Y8427D1*
G1X7513Y8428D1*
G1X7515Y8429D1*
G1X7516Y8430D1*
G1X7518Y8431D1*
G1X7520Y8433D1*
G1X7522Y8434D1*
G1X7523Y8436D1*
G1X7526Y8437D1*
G1X7530Y8441D1*
G1X7531Y8444D1*
G1X7532Y8446D1*
G1X7534Y8447D1*
G1X7537Y8453D1*
G1X7539Y8455D1*
G1X7543Y8463D1*
G1X7544Y8466D1*
G1X7546Y8470D1*
G1X7547Y8473D1*
G1X7548Y8475D1*
G1X7549Y8478D1*
G1X7549Y8481D1*
G1X7550Y8483D1*
G1X7551Y8486D1*
G1X7551Y8489D1*
G1X7552Y8492D1*
G1X7552Y8495D1*
G1X7553Y8498D1*
G1X7553Y8501D1*
G1X7554Y8504D1*
G1X7554Y8510D1*
G1X7555Y8513D1*
G1X7555Y8525D1*
G1X7527Y8525D1*
G1X7527Y8510D1*
G1X7526Y8506D1*
G1X7526Y8495D1*
G1X7524Y8491D1*
G1X7524Y8488D1*
G1X7523Y8484D1*
G1X7523Y8478D1*
G1X7522Y8475D1*
G1X7522Y8472D1*
G1X7520Y8466D1*
G1X7520Y8464D1*
G1X7519Y8461D1*
G1X7519Y8459D1*
G1X7518Y8458D1*
G1X7518Y8456D1*
G1X7517Y8455D1*
G1X7517Y8453D1*
G1X7516Y8452D1*
G1X7516Y8450D1*
G1X7514Y8448D1*
G1X7514Y8446D1*
G1X7512Y8444D1*
G1X7512Y8442D1*
G1X7509Y8439D1*
G1X7509Y8438D1*
G1X7508Y8438D1*
G1X7505Y8435D1*
G1X7504Y8435D1*
G1X7504Y8434D1*
G1X7503Y8433D1*
G1X7502Y8433D1*
G1X7501Y8432D1*
G1X7500Y8432D1*
G1X7499Y8431D1*
G1X7498Y8431D1*
G1X7497Y8430D1*
G1X7495Y8430D1*
G1X7494Y8429D1*
G1X7485Y8429D1*
G1X7484Y8430D1*
G1X7482Y8430D1*
G1X7481Y8431D1*
G1X7479Y8432D1*
G1X7478Y8433D1*
G1X7477Y8433D1*
G1X7472Y8438D1*
G1X7471Y8440D1*
G1X7470Y8441D1*
G1X7469Y8444D1*
G1X7465Y8452D1*
G1X7464Y8455D1*
G1X7463Y8457D1*
G1X7461Y8463D1*
G1X7461Y8466D1*
G1X7459Y8472D1*
G1X7459Y8475D1*
G1X7458Y8478D1*
G1X7457Y8482D1*
G1X7457Y8489D1*
G1X7456Y8492D1*
G1X7456Y8499D1*
G1X7455Y8503D1*
G1X7455Y8525D1*
G1X7426Y8525D1*
G1X7426Y8512D1*
G37*
G36*
G1X7426Y8525D2*
G1X7455Y8525D1*
G1X7455Y8538D1*
G1X7456Y8541D1*
G1X7456Y8551D1*
G1X7457Y8554D1*
G1X7457Y8559D1*
G1X7458Y8562D1*
G1X7458Y8567D1*
G1X7459Y8569D1*
G1X7459Y8575D1*
G1X7460Y8577D1*
G1X7460Y8579D1*
G1X7461Y8582D1*
G1X7461Y8584D1*
G1X7463Y8588D1*
G1X7463Y8591D1*
G1X7465Y8595D1*
G1X7465Y8597D1*
G1X7468Y8603D1*
G1X7468Y8604D1*
G1X7469Y8606D1*
G1X7471Y8608D1*
G1X7472Y8610D1*
G1X7478Y8616D1*
G1X7479Y8616D1*
G1X7480Y8617D1*
G1X7481Y8617D1*
G1X7481Y8618D1*
G1X7482Y8618D1*
G1X7483Y8619D1*
G1X7486Y8619D1*
G1X7487Y8620D1*
G1X7496Y8620D1*
G1X7496Y8619D1*
G1X7499Y8619D1*
G1X7499Y8618D1*
G1X7501Y8618D1*
G1X7502Y8617D1*
G1X7503Y8617D1*
G1X7503Y8616D1*
G1X7504Y8616D1*
G1X7504Y8615D1*
G1X7505Y8615D1*
G1X7506Y8614D1*
G1X7507Y8614D1*
G1X7508Y8613D1*
G1X7508Y8612D1*
G1X7512Y8608D1*
G1X7512Y8607D1*
G1X7513Y8606D1*
G1X7514Y8604D1*
G1X7514Y8603D1*
G1X7515Y8602D1*
G1X7516Y8600D1*
G1X7516Y8599D1*
G1X7517Y8597D1*
G1X7517Y8595D1*
G1X7518Y8593D1*
G1X7518Y8592D1*
G1X7520Y8588D1*
G1X7520Y8585D1*
G1X7521Y8583D1*
G1X7522Y8580D1*
G1X7522Y8578D1*
G1X7523Y8575D1*
G1X7523Y8570D1*
G1X7524Y8567D1*
G1X7524Y8564D1*
G1X7526Y8561D1*
G1X7526Y8552D1*
G1X7527Y8549D1*
G1X7527Y8525D1*
G1X7555Y8525D1*
G1X7555Y8542D1*
G1X7554Y8547D1*
G1X7554Y8551D1*
G1X7553Y8556D1*
G1X7551Y8564D1*
G1X7551Y8568D1*
G1X7549Y8572D1*
G1X7547Y8580D1*
G1X7546Y8583D1*
G1X7544Y8587D1*
G1X7543Y8590D1*
G1X7539Y8598D1*
G1X7533Y8607D1*
G1X7527Y8613D1*
G1X7526Y8615D1*
G1X7523Y8617D1*
G1X7521Y8619D1*
G1X7519Y8620D1*
G1X7517Y8622D1*
G1X7509Y8626D1*
G1X7506Y8627D1*
G1X7502Y8629D1*
G1X7498Y8629D1*
G1X7496Y8630D1*
G1X7485Y8630D1*
G1X7484Y8629D1*
G1X7481Y8629D1*
G1X7480Y8628D1*
G1X7477Y8628D1*
G1X7475Y8626D1*
G1X7473Y8626D1*
G1X7471Y8624D1*
G1X7469Y8624D1*
G1X7467Y8622D1*
G1X7465Y8621D1*
G1X7464Y8620D1*
G1X7462Y8619D1*
G1X7459Y8616D1*
G1X7457Y8615D1*
G1X7453Y8611D1*
G1X7452Y8609D1*
G1X7449Y8606D1*
G1X7446Y8604D1*
G1X7443Y8598D1*
G1X7441Y8595D1*
G1X7440Y8592D1*
G1X7438Y8588D1*
G1X7437Y8585D1*
G1X7436Y8583D1*
G1X7435Y8580D1*
G1X7434Y8578D1*
G1X7433Y8575D1*
G1X7432Y8573D1*
G1X7432Y8570D1*
G1X7431Y8567D1*
G1X7430Y8565D1*
G1X7430Y8562D1*
G1X7429Y8559D1*
G1X7429Y8556D1*
G1X7428Y8553D1*
G1X7428Y8550D1*
G1X7427Y8547D1*
G1X7427Y8541D1*
G1X7426Y8538D1*
G1X7426Y8525D1*
G37*
G36*
G1X7691Y8424D2*
G1X7572Y8424D1*
G1X7572Y8429D1*
G1X7577Y8434D1*
G1X7582Y8438D1*
G1X7587Y8444D1*
G1X7592Y8448D1*
G1X7596Y8453D1*
G1X7600Y8457D1*
G1X7606Y8461D1*
G1X7610Y8465D1*
G1X7614Y8469D1*
G1X7617Y8473D1*
G1X7621Y8477D1*
G1X7624Y8481D1*
G1X7628Y8484D1*
G1X7631Y8488D1*
G1X7634Y8491D1*
G1X7636Y8495D1*
G1X7639Y8498D1*
G1X7641Y8501D1*
G1X7644Y8504D1*
G1X7646Y8507D1*
G1X7648Y8510D1*
G1X7650Y8513D1*
G1X7652Y8516D1*
G1X7654Y8520D1*
G1X7655Y8523D1*
G1X7657Y8526D1*
G1X7658Y8528D1*
G1X7659Y8531D1*
G1X7661Y8534D1*
G1X7662Y8537D1*
G1X7663Y8539D1*
G1X7664Y8542D1*
G1X7664Y8545D1*
G1X7665Y8548D1*
G1X7666Y8550D1*
G1X7666Y8553D1*
G1X7667Y8555D1*
G1X7667Y8558D1*
G1X7667Y8560D1*
G1X7667Y8563D1*
G1X7667Y8565D1*
G1X7667Y8567D1*
G1X7667Y8569D1*
G1X7667Y8570D1*
G1X7666Y8572D1*
G1X7666Y8574D1*
G1X7666Y8576D1*
G1X7665Y8577D1*
G1X7665Y8579D1*
G1X7664Y8580D1*
G1X7663Y8582D1*
G1X7663Y8584D1*
G1X7662Y8585D1*
G1X7661Y8587D1*
G1X7660Y8588D1*
G1X7659Y8590D1*
G1X7658Y8591D1*
G1X7657Y8592D1*
G1X7656Y8594D1*
G1X7655Y8595D1*
G1X7654Y8597D1*
G1X7653Y8598D1*
G1X7651Y8599D1*
G1X7650Y8600D1*
G1X7649Y8601D1*
G1X7647Y8602D1*
G1X7646Y8603D1*
G1X7645Y8604D1*
G1X7643Y8604D1*
G1X7642Y8605D1*
G1X7641Y8606D1*
G1X7639Y8606D1*
G1X7638Y8607D1*
G1X7636Y8607D1*
G1X7635Y8607D1*
G1X7633Y8608D1*
G1X7632Y8608D1*
G1X7630Y8608D1*
G1X7629Y8608D1*
G1X7627Y8608D1*
G1X7626Y8608D1*
G1X7624Y8608D1*
G1X7623Y8608D1*
G1X7621Y8608D1*
G1X7620Y8608D1*
G1X7618Y8607D1*
G1X7617Y8607D1*
G1X7615Y8607D1*
G1X7614Y8606D1*
G1X7613Y8606D1*
G1X7611Y8606D1*
G1X7610Y8605D1*
G1X7609Y8605D1*
G1X7607Y8604D1*
G1X7606Y8604D1*
G1X7605Y8603D1*
G1X7604Y8602D1*
G1X7602Y8602D1*
G1X7600Y8601D1*
G1X7599Y8600D1*
G1X7598Y8599D1*
G1X7597Y8598D1*
G1X7596Y8597D1*
G1X7594Y8595D1*
G1X7593Y8594D1*
G1X7592Y8593D1*
G1X7591Y8592D1*
G1X7591Y8591D1*
G1X7590Y8589D1*
G1X7589Y8588D1*
G1X7588Y8587D1*
G1X7587Y8586D1*
G1X7586Y8584D1*
G1X7586Y8583D1*
G1X7585Y8582D1*
G1X7584Y8580D1*
G1X7584Y8579D1*
G1X7583Y8577D1*
G1X7583Y8576D1*
G1X7582Y8574D1*
G1X7576Y8574D1*
G1X7576Y8577D1*
G1X7577Y8579D1*
G1X7577Y8582D1*
G1X7578Y8584D1*
G1X7579Y8587D1*
G1X7579Y8589D1*
G1X7580Y8591D1*
G1X7581Y8594D1*
G1X7582Y8597D1*
G1X7583Y8599D1*
G1X7584Y8601D1*
G1X7585Y8603D1*
G1X7586Y8605D1*
G1X7587Y8606D1*
G1X7588Y8608D1*
G1X7589Y8610D1*
G1X7591Y8612D1*
G1X7592Y8613D1*
G1X7594Y8615D1*
G1X7595Y8616D1*
G1X7597Y8617D1*
G1X7598Y8619D1*
G1X7600Y8620D1*
G1X7603Y8621D1*
G1X7604Y8622D1*
G1X7606Y8623D1*
G1X7608Y8624D1*
G1X7610Y8625D1*
G1X7612Y8626D1*
G1X7614Y8627D1*
G1X7616Y8627D1*
G1X7618Y8628D1*
G1X7620Y8628D1*
G1X7622Y8629D1*
G1X7624Y8629D1*
G1X7626Y8629D1*
G1X7628Y8630D1*
G1X7630Y8630D1*
G1X7633Y8630D1*
G1X7635Y8630D1*
G1X7637Y8630D1*
G1X7640Y8630D1*
G1X7642Y8630D1*
G1X7644Y8629D1*
G1X7647Y8629D1*
G1X7649Y8629D1*
G1X7651Y8628D1*
G1X7653Y8627D1*
G1X7655Y8627D1*
G1X7657Y8626D1*
G1X7659Y8625D1*
G1X7661Y8624D1*
G1X7663Y8623D1*
G1X7665Y8622D1*
G1X7667Y8621D1*
G1X7669Y8620D1*
G1X7671Y8618D1*
G1X7673Y8617D1*
G1X7674Y8616D1*
G1X7676Y8614D1*
G1X7679Y8612D1*
G1X7680Y8611D1*
G1X7681Y8609D1*
G1X7683Y8608D1*
G1X7684Y8606D1*
G1X7685Y8604D1*
G1X7686Y8603D1*
G1X7687Y8601D1*
G1X7688Y8599D1*
G1X7689Y8598D1*
G1X7690Y8595D1*
G1X7690Y8593D1*
G1X7691Y8591D1*
G1X7692Y8589D1*
G1X7692Y8587D1*
G1X7692Y8585D1*
G1X7693Y8583D1*
G1X7693Y8581D1*
G1X7693Y8579D1*
G1X7693Y8577D1*
G1X7693Y8575D1*
G1X7693Y8574D1*
G1X7693Y8572D1*
G1X7693Y8571D1*
G1X7693Y8569D1*
G1X7692Y8568D1*
G1X7692Y8566D1*
G1X7692Y8565D1*
G1X7692Y8563D1*
G1X7691Y8562D1*
G1X7691Y8560D1*
G1X7690Y8559D1*
G1X7690Y8557D1*
G1X7690Y8556D1*
G1X7689Y8554D1*
G1X7689Y8552D1*
G1X7688Y8551D1*
G1X7687Y8549D1*
G1X7687Y8548D1*
G1X7686Y8546D1*
G1X7685Y8544D1*
G1X7684Y8541D1*
G1X7682Y8539D1*
G1X7681Y8537D1*
G1X7680Y8534D1*
G1X7677Y8532D1*
G1X7676Y8529D1*
G1X7674Y8527D1*
G1X7672Y8524D1*
G1X7671Y8522D1*
G1X7669Y8518D1*
G1X7667Y8516D1*
G1X7665Y8513D1*
G1X7663Y8511D1*
G1X7661Y8508D1*
G1X7659Y8506D1*
G1X7657Y8503D1*
G1X7655Y8500D1*
G1X7652Y8498D1*
G1X7650Y8495D1*
G1X7646Y8491D1*
G1X7643Y8488D1*
G1X7640Y8484D1*
G1X7636Y8481D1*
G1X7633Y8477D1*
G1X7630Y8474D1*
G1X7627Y8471D1*
G1X7625Y8469D1*
G1X7622Y8466D1*
G1X7620Y8464D1*
G1X7617Y8461D1*
G1X7615Y8459D1*
G1X7613Y8457D1*
G1X7611Y8455D1*
G1X7610Y8453D1*
G1X7608Y8452D1*
G1X7607Y8450D1*
G1X7605Y8449D1*
G1X7604Y8448D1*
G1X7603Y8447D1*
G1X7655Y8447D1*
G1X7657Y8447D1*
G1X7658Y8447D1*
G1X7660Y8447D1*
G1X7661Y8447D1*
G1X7662Y8447D1*
G1X7664Y8447D1*
G1X7665Y8447D1*
G1X7666Y8447D1*
G1X7667Y8447D1*
G1X7669Y8447D1*
G1X7670Y8447D1*
G1X7671Y8447D1*
G1X7672Y8447D1*
G1X7673Y8447D1*
G1X7673Y8448D1*
G1X7674Y8448D1*
G1X7675Y8448D1*
G1X7676Y8448D1*
G1X7677Y8448D1*
G1X7679Y8448D1*
G1X7680Y8448D1*
G1X7681Y8449D1*
G1X7682Y8449D1*
G1X7683Y8449D1*
G1X7684Y8450D1*
G1X7685Y8450D1*
G1X7686Y8450D1*
G1X7686Y8451D1*
G1X7687Y8451D1*
G1X7688Y8452D1*
G1X7689Y8452D1*
G1X7689Y8453D1*
G1X7690Y8453D1*
G1X7691Y8454D1*
G1X7692Y8455D1*
G1X7693Y8456D1*
G1X7694Y8457D1*
G1X7695Y8458D1*
G1X7696Y8459D1*
G1X7697Y8460D1*
G1X7697Y8461D1*
G1X7698Y8461D1*
G1X7698Y8462D1*
G1X7699Y8462D1*
G1X7699Y8463D1*
G1X7705Y8463D1*
G1X7691Y8424D1*
G37*
G36*
G1X7935Y8621D2*
G1X7934Y8621D1*
G1X7933Y8621D1*
G1X7932Y8620D1*
G1X7931Y8620D1*
G1X7930Y8620D1*
G1X7929Y8620D1*
G1X7928Y8619D1*
G1X7927Y8619D1*
G1X7926Y8618D1*
G1X7925Y8618D1*
G1X7924Y8618D1*
G1X7924Y8617D1*
G1X7923Y8617D1*
G1X7922Y8616D1*
G1X7921Y8615D1*
G1X7920Y8615D1*
G1X7920Y8614D1*
G1X7919Y8614D1*
G1X7918Y8613D1*
G1X7917Y8612D1*
G1X7917Y8611D1*
G1X7916Y8611D1*
G1X7915Y8610D1*
G1X7914Y8609D1*
G1X7914Y8608D1*
G1X7913Y8606D1*
G1X7912Y8605D1*
G1X7912Y8604D1*
G1X7911Y8603D1*
G1X7910Y8602D1*
G1X7909Y8601D1*
G1X7909Y8599D1*
G1X7907Y8598D1*
G1X7906Y8597D1*
G1X7906Y8594D1*
G1X7905Y8593D1*
G1X7905Y8591D1*
G1X7904Y8590D1*
G1X7836Y8420D1*
G1X7828Y8420D1*
G1X7753Y8593D1*
G1X7752Y8594D1*
G1X7752Y8597D1*
G1X7751Y8598D1*
G1X7751Y8599D1*
G1X7750Y8600D1*
G1X7750Y8601D1*
G1X7749Y8602D1*
G1X7749Y8603D1*
G1X7748Y8604D1*
G1X7748Y8605D1*
G1X7748Y8606D1*
G1X7747Y8606D1*
G1X7747Y8607D1*
G1X7747Y8608D1*
G1X7746Y8608D1*
G1X7746Y8609D1*
G1X7745Y8609D1*
G1X7745Y8610D1*
G1X7744Y8611D1*
G1X7743Y8612D1*
G1X7743Y8613D1*
G1X7742Y8613D1*
G1X7742Y8614D1*
G1X7741Y8614D1*
G1X7741Y8615D1*
G1X7740Y8615D1*
G1X7739Y8616D1*
G1X7738Y8616D1*
G1X7738Y8617D1*
G1X7737Y8617D1*
G1X7736Y8618D1*
G1X7735Y8618D1*
G1X7734Y8619D1*
G1X7733Y8619D1*
G1X7732Y8619D1*
G1X7731Y8619D1*
G1X7731Y8620D1*
G1X7730Y8620D1*
G1X7729Y8620D1*
G1X7728Y8620D1*
G1X7727Y8620D1*
G1X7726Y8620D1*
G1X7725Y8621D1*
G1X7724Y8621D1*
G1X7723Y8621D1*
G1X7722Y8621D1*
G1X7722Y8626D1*
G1X7804Y8626D1*
G1X7804Y8621D1*
G1X7803Y8621D1*
G1X7801Y8621D1*
G1X7800Y8621D1*
G1X7799Y8620D1*
G1X7798Y8620D1*
G1X7797Y8620D1*
G1X7795Y8620D1*
G1X7794Y8620D1*
G1X7793Y8619D1*
G1X7792Y8619D1*
G1X7791Y8619D1*
G1X7790Y8618D1*
G1X7789Y8618D1*
G1X7788Y8617D1*
G1X7787Y8617D1*
G1X7786Y8616D1*
G1X7785Y8615D1*
G1X7784Y8614D1*
G1X7783Y8613D1*
G1X7783Y8612D1*
G1X7782Y8611D1*
G1X7782Y8610D1*
G1X7782Y8609D1*
G1X7782Y8608D1*
G1X7782Y8607D1*
G1X7782Y8606D1*
G1X7782Y8605D1*
G1X7782Y8604D1*
G1X7783Y8603D1*
G1X7783Y8602D1*
G1X7783Y8600D1*
G1X7783Y8599D1*
G1X7784Y8598D1*
G1X7784Y8597D1*
G1X7785Y8595D1*
G1X7785Y8594D1*
G1X7785Y8592D1*
G1X7786Y8591D1*
G1X7786Y8590D1*
G1X7787Y8588D1*
G1X7788Y8587D1*
G1X7788Y8585D1*
G1X7789Y8584D1*
G1X7841Y8466D1*
G1X7887Y8582D1*
G1X7888Y8584D1*
G1X7888Y8585D1*
G1X7889Y8587D1*
G1X7890Y8588D1*
G1X7890Y8590D1*
G1X7891Y8591D1*
G1X7891Y8593D1*
G1X7891Y8594D1*
G1X7892Y8595D1*
G1X7892Y8597D1*
G1X7893Y8599D1*
G1X7893Y8600D1*
G1X7893Y8601D1*
G1X7893Y8602D1*
G1X7894Y8603D1*
G1X7894Y8604D1*
G1X7894Y8605D1*
G1X7894Y8606D1*
G1X7894Y8607D1*
G1X7894Y8608D1*
G1X7894Y8609D1*
G1X7894Y8610D1*
G1X7893Y8610D1*
G1X7893Y8611D1*
G1X7893Y8612D1*
G1X7892Y8612D1*
G1X7892Y8613D1*
G1X7891Y8613D1*
G1X7891Y8614D1*
G1X7890Y8615D1*
G1X7889Y8615D1*
G1X7889Y8616D1*
G1X7888Y8616D1*
G1X7888Y8617D1*
G1X7887Y8617D1*
G1X7886Y8618D1*
G1X7885Y8618D1*
G1X7884Y8618D1*
G1X7884Y8619D1*
G1X7883Y8619D1*
G1X7882Y8619D1*
G1X7881Y8619D1*
G1X7881Y8620D1*
G1X7880Y8620D1*
G1X7879Y8620D1*
G1X7878Y8620D1*
G1X7877Y8621D1*
G1X7876Y8621D1*
G1X7875Y8621D1*
G1X7874Y8621D1*
G1X7873Y8621D1*
G1X7873Y8626D1*
G1X7935Y8626D1*
G1X7935Y8621D1*
G37*
G36*
G1X8022Y8630D2*
G1X8027Y8630D1*
G1X8027Y8460D1*
G1X8027Y8458D1*
G1X8027Y8457D1*
G1X8027Y8455D1*
G1X8027Y8454D1*
G1X8027Y8452D1*
G1X8027Y8451D1*
G1X8027Y8450D1*
G1X8027Y8448D1*
G1X8027Y8447D1*
G1X8027Y8446D1*
G1X8027Y8445D1*
G1X8027Y8444D1*
G1X8027Y8442D1*
G1X8028Y8441D1*
G1X8028Y8440D1*
G1X8028Y8439D1*
G1X8028Y8438D1*
G1X8028Y8437D1*
G1X8029Y8437D1*
G1X8029Y8436D1*
G1X8030Y8435D1*
G1X8031Y8435D1*
G1X8031Y8434D1*
G1X8032Y8433D1*
G1X8033Y8433D1*
G1X8033Y8432D1*
G1X8034Y8432D1*
G1X8035Y8432D1*
G1X8035Y8431D1*
G1X8036Y8431D1*
G1X8037Y8431D1*
G1X8038Y8430D1*
G1X8039Y8430D1*
G1X8040Y8430D1*
G1X8041Y8430D1*
G1X8042Y8430D1*
G1X8043Y8429D1*
G1X8044Y8429D1*
G1X8045Y8429D1*
G1X8046Y8429D1*
G1X8047Y8429D1*
G1X8048Y8429D1*
G1X8049Y8429D1*
G1X8051Y8429D1*
G1X8052Y8429D1*
G1X8052Y8424D1*
G1X7977Y8424D1*
G1X7977Y8429D1*
G1X7978Y8429D1*
G1X7980Y8429D1*
G1X7981Y8429D1*
G1X7982Y8429D1*
G1X7983Y8429D1*
G1X7984Y8429D1*
G1X7987Y8429D1*
G1X7988Y8429D1*
G1X7989Y8429D1*
G1X7990Y8429D1*
G1X7990Y8430D1*
G1X7991Y8430D1*
G1X7992Y8430D1*
G1X7993Y8430D1*
G1X7994Y8430D1*
G1X7995Y8430D1*
G1X7995Y8431D1*
G1X7996Y8431D1*
G1X7997Y8432D1*
G1X7998Y8433D1*
G1X7999Y8433D1*
G1X7999Y8434D1*
G1X8000Y8435D1*
G1X8000Y8436D1*
G1X8001Y8436D1*
G1X8001Y8437D1*
G1X8001Y8438D1*
G1X8002Y8439D1*
G1X8002Y8440D1*
G1X8002Y8441D1*
G1X8002Y8442D1*
G1X8002Y8444D1*
G1X8003Y8445D1*
G1X8003Y8447D1*
G1X8003Y8448D1*
G1X8003Y8449D1*
G1X8003Y8450D1*
G1X8003Y8452D1*
G1X8003Y8453D1*
G1X8003Y8455D1*
G1X8003Y8457D1*
G1X8003Y8458D1*
G1X8003Y8460D1*
G1X8003Y8569D1*
G1X8003Y8571D1*
G1X8003Y8573D1*
G1X8003Y8575D1*
G1X8003Y8577D1*
G1X8003Y8579D1*
G1X8003Y8580D1*
G1X8003Y8582D1*
G1X8003Y8584D1*
G1X8003Y8585D1*
G1X8003Y8586D1*
G1X8003Y8588D1*
G1X8003Y8589D1*
G1X8003Y8590D1*
G1X8003Y8592D1*
G1X8002Y8593D1*
G1X8002Y8594D1*
G1X8002Y8595D1*
G1X8002Y8597D1*
G1X8002Y8598D1*
G1X8002Y8599D1*
G1X8002Y8600D1*
G1X8001Y8600D1*
G1X8001Y8601D1*
G1X8001Y8602D1*
G1X8000Y8602D1*
G1X8000Y8603D1*
G1X7999Y8603D1*
G1X7999Y8604D1*
G1X7998Y8604D1*
G1X7997Y8605D1*
G1X7996Y8605D1*
G1X7996Y8606D1*
G1X7995Y8606D1*
G1X7994Y8606D1*
G1X7994Y8607D1*
G1X7993Y8607D1*
G1X7992Y8607D1*
G1X7991Y8607D1*
G1X7990Y8607D1*
G1X7989Y8607D1*
G1X7988Y8607D1*
G1X7987Y8606D1*
G1X7986Y8606D1*
G1X7984Y8606D1*
G1X7983Y8605D1*
G1X7982Y8605D1*
G1X7981Y8605D1*
G1X7980Y8604D1*
G1X7979Y8604D1*
G1X7978Y8603D1*
G1X7977Y8603D1*
G1X7976Y8602D1*
G1X7975Y8602D1*
G1X7973Y8607D1*
G1X8022Y8630D1*
G37*
M2*
