*
%LPD*%
%LNSTEVAL-STLCS01V1.plc*%
%FSLAX24Y24*%
%MOIN*%
%AD*%
%ADD10C,0.019685*%
%ADD18C,0*%
%ADD25C,0.00394*%
%ADD40C,0.00197*%
%ADD53C,0.002*%
%ADD54R,0.01767X0.00014*%
%ADD55R,0.00751X0.00014*%
%ADD56R,0.01808X0.00014*%
%ADD57R,0.00904X0.00014*%
%ADD58R,0.01836X0.00014*%
%ADD59R,0.00987X0.00014*%
%ADD60R,0.0185X0.00014*%
%ADD61R,0.01057X0.00014*%
%ADD62R,0.01127X0.00014*%
%ADD63R,0.01169X0.00014*%
%ADD64R,0.01822X0.00014*%
%ADD65R,0.0121X0.00014*%
%ADD66R,0.01794X0.00014*%
%ADD67R,0.01252X0.00014*%
%ADD68R,0.0178X0.00014*%
%ADD69R,0.01294X0.00014*%
%ADD70R,0.01321X0.00014*%
%ADD71R,0.01752X0.00014*%
%ADD72R,0.01363X0.00014*%
%ADD73R,0.01739X0.00014*%
%ADD74R,0.01377X0.00014*%
%ADD75R,0.01724X0.00014*%
%ADD76R,0.01405X0.00014*%
%ADD77R,0.01419X0.00014*%
%ADD78R,0.01696X0.00014*%
%ADD79R,0.01446X0.00014*%
%ADD80R,0.01683X0.00014*%
%ADD81R,0.01461X0.00014*%
%ADD82R,0.01474X0.00014*%
%ADD83R,0.01655X0.00014*%
%ADD84R,0.01502X0.00014*%
%ADD85R,0.01516X0.00014*%
%ADD86R,0.01641X0.00014*%
%ADD87R,0.0153X0.00014*%
%ADD88R,0.01627X0.00014*%
%ADD89R,0.01544X0.00014*%
%ADD90R,0.01558X0.00014*%
%ADD91R,0.01613X0.00014*%
%ADD92R,0.01585X0.00014*%
%ADD93R,0.016X0.00014*%
%ADD94R,0.01586X0.00014*%
%ADD95R,0.01572X0.00014*%
%ADD96R,0.01557X0.00014*%
%ADD97R,0.01571X0.00014*%
%ADD98R,0.01669X0.00014*%
%ADD99R,0.01711X0.00014*%
%ADD100R,0.01725X0.00014*%
%ADD101R,0.01488X0.00014*%
%ADD102R,0.01766X0.00014*%
%ADD103R,0.0146X0.00014*%
%ADD104R,0.01822X0.00014*%
%ADD105R,0.01461X0.00014*%
%ADD106R,0.01808X0.00014*%
%ADD107R,0.01822X0.00014*%
%ADD108R,0.01446X0.00014*%
%ADD109R,0.01822X0.00014*%
%ADD110R,0.01446X0.00014*%
%ADD111R,0.01822X0.00014*%
%ADD112R,0.01446X0.00014*%
%ADD113R,0.01836X0.00014*%
%ADD114R,0.01836X0.00014*%
%ADD115R,0.0185X0.00014*%
%ADD116R,0.0185X0.00014*%
%ADD117R,0.01432X0.00014*%
%ADD118R,0.0185X0.00014*%
%ADD119R,0.01864X0.00014*%
%ADD120R,0.01461X0.00014*%
%ADD121R,0.01863X0.00014*%
%ADD122R,0.01863X0.00014*%
%ADD123R,0.01864X0.00014*%
%ADD124R,0.01864X0.00014*%
%ADD125R,0.01474X0.00014*%
%ADD126R,0.0185X0.00014*%
%ADD127R,0.01474X0.00014*%
%ADD128R,0.04158X0.00014*%
%ADD129R,0.01474X0.00014*%
%ADD130R,0.0427X0.00014*%
%ADD131R,0.04326X0.00014*%
%ADD132R,0.04367X0.00014*%
%ADD133R,0.04381X0.00014*%
%ADD134R,0.04422X0.00014*%
%ADD135R,0.04437X0.00014*%
%ADD136R,0.01502X0.00014*%
%ADD137R,0.0445X0.00014*%
%ADD138R,0.04464X0.00014*%
%ADD139R,0.0185X0.00014*%
%ADD140R,0.04464X0.00014*%
%ADD141R,0.04465X0.00014*%
%ADD142R,0.04478X0.00014*%
%ADD143R,0.01516X0.00014*%
%ADD144R,0.04465X0.00014*%
%ADD145R,0.01516X0.00014*%
%ADD146R,0.0153X0.00014*%
%ADD147R,0.04478X0.00014*%
%ADD148R,0.04464X0.00014*%
%ADD149R,0.0445X0.00014*%
%ADD150R,0.01544X0.00014*%
%ADD151R,0.04437X0.00014*%
%ADD152R,0.01558X0.00014*%
%ADD153R,0.0185X0.00014*%
%ADD154R,0.01572X0.00014*%
%ADD155R,0.04422X0.00014*%
%ADD156R,0.04409X0.00014*%
%ADD157R,0.04395X0.00014*%
%ADD158R,0.04395X0.00014*%
%ADD159R,0.016X0.00014*%
%ADD160R,0.04367X0.00014*%
%ADD161R,0.04353X0.00014*%
%ADD162R,0.01613X0.00014*%
%ADD163R,0.04339X0.00014*%
%ADD164R,0.04311X0.00014*%
%ADD165R,0.04311X0.00014*%
%ADD166R,0.04298X0.00014*%
%ADD167R,0.0427X0.00014*%
%ADD168R,0.04256X0.00014*%
%ADD169R,0.04242X0.00014*%
%ADD170R,0.01669X0.00014*%
%ADD171R,0.04228X0.00014*%
%ADD172R,0.042X0.00014*%
%ADD173R,0.01683X0.00014*%
%ADD174R,0.04172X0.00014*%
%ADD175R,0.01683X0.00014*%
%ADD176R,0.04158X0.00014*%
%ADD177R,0.04131X0.00014*%
%ADD178R,0.04117X0.00014*%
%ADD179R,0.01711X0.00014*%
%ADD180R,0.04103X0.00014*%
%ADD181R,0.04075X0.00014*%
%ADD182R,0.04061X0.00014*%
%ADD183R,0.04033X0.00014*%
%ADD184R,0.04019X0.00014*%
%ADD185R,0.04006X0.00014*%
%ADD186R,0.03978X0.00014*%
%ADD187R,0.03964X0.00014*%
%ADD188R,0.03936X0.00014*%
%ADD189R,0.03908X0.00014*%
%ADD190R,0.0388X0.00014*%
%ADD191R,0.03866X0.00014*%
%ADD192R,0.01822X0.00014*%
%ADD193R,0.03852X0.00014*%
%ADD194R,0.03825X0.00014*%
%ADD195R,0.03811X0.00014*%
%ADD196R,0.03783X0.00014*%
%ADD197R,0.01878X0.00014*%
%ADD198R,0.03769X0.00014*%
%ADD199R,0.01878X0.00014*%
%ADD200R,0.03755X0.00014*%
%ADD201R,0.01905X0.00014*%
%ADD202R,0.03727X0.00014*%
%ADD203R,0.01905X0.00014*%
%ADD204R,0.03713X0.00014*%
%ADD205R,0.01919X0.00014*%
%ADD206R,0.03686X0.00014*%
%ADD207R,0.01933X0.00014*%
%ADD208R,0.03672X0.00014*%
%ADD209R,0.03644X0.00014*%
%ADD210R,0.01961X0.00014*%
%ADD211R,0.01863X0.00014*%
%ADD212R,0.0363X0.00014*%
%ADD213R,0.01961X0.00014*%
%ADD214R,0.03602X0.00014*%
%ADD215R,0.01989X0.00014*%
%ADD216R,0.03574X0.00014*%
%ADD217R,0.01989X0.00014*%
%ADD218R,0.0356X0.00014*%
%ADD219R,0.02003X0.00014*%
%ADD220R,0.03533X0.00014*%
%ADD221R,0.02017X0.00014*%
%ADD222R,0.03519X0.00014*%
%ADD223R,0.02031X0.00014*%
%ADD224R,0.03505X0.00014*%
%ADD225R,0.02044X0.00014*%
%ADD226R,0.03477X0.00014*%
%ADD227R,0.02058X0.00014*%
%ADD228R,0.03463X0.00014*%
%ADD229R,0.02058X0.00014*%
%ADD230R,0.03435X0.00014*%
%ADD231R,0.02086X0.00014*%
%ADD232R,0.03421X0.00014*%
%ADD233R,0.021X0.00014*%
%ADD234R,0.03394X0.00014*%
%ADD235R,0.02114X0.00014*%
%ADD236R,0.0338X0.00014*%
%ADD237R,0.02128X0.00014*%
%ADD238R,0.03366X0.00014*%
%ADD239R,0.02128X0.00014*%
%ADD240R,0.03338X0.00014*%
%ADD241R,0.02156X0.00014*%
%ADD242R,0.0331X0.00014*%
%ADD243R,0.0217X0.00014*%
%ADD244R,0.03282X0.00014*%
%ADD245R,0.02183X0.00014*%
%ADD246R,0.03268X0.00014*%
%ADD247R,0.02197X0.00014*%
%ADD248R,0.03254X0.00014*%
%ADD249R,0.02226X0.00014*%
%ADD250R,0.03227X0.00014*%
%ADD251R,0.02226X0.00014*%
%ADD252R,0.03213X0.00014*%
%ADD253R,0.02239X0.00014*%
%ADD254R,0.03185X0.00014*%
%ADD255R,0.02267X0.00014*%
%ADD256R,0.03171X0.00014*%
%ADD257R,0.02281X0.00014*%
%ADD258R,0.03143X0.00014*%
%ADD259R,0.02295X0.00014*%
%ADD260R,0.03129X0.00014*%
%ADD261R,0.02309X0.00014*%
%ADD262R,0.03115X0.00014*%
%ADD263R,0.02322X0.00014*%
%ADD264R,0.03087X0.00014*%
%ADD265R,0.02351X0.00014*%
%ADD266R,0.0306X0.00014*%
%ADD267R,0.02365X0.00014*%
%ADD268R,0.03032X0.00014*%
%ADD269R,0.02392X0.00014*%
%ADD270R,0.03018X0.00014*%
%ADD271R,0.02392X0.00014*%
%ADD272R,0.0299X0.00014*%
%ADD273R,0.0242X0.00014*%
%ADD274R,0.02976X0.00014*%
%ADD275R,0.02434X0.00014*%
%ADD276R,0.02962X0.00014*%
%ADD277R,0.02448X0.00014*%
%ADD278R,0.02935X0.00014*%
%ADD279R,0.02476X0.00014*%
%ADD280R,0.0292X0.00014*%
%ADD281R,0.0249X0.00014*%
%ADD282R,0.02893X0.00014*%
%ADD283R,0.02517X0.00014*%
%ADD284R,0.02879X0.00014*%
%ADD285R,0.02531X0.00014*%
%ADD286R,0.02865X0.00014*%
%ADD287R,0.02559X0.00014*%
%ADD288R,0.02837X0.00014*%
%ADD289R,0.02587X0.00014*%
%ADD290R,0.02823X0.00014*%
%ADD291R,0.02601X0.00014*%
%ADD292R,0.02796X0.00014*%
%ADD293R,0.02629X0.00014*%
%ADD294R,0.02768X0.00014*%
%ADD295R,0.02643X0.00014*%
%ADD296R,0.02754X0.00014*%
%ADD297R,0.0267X0.00014*%
%ADD298R,0.02726X0.00014*%
%ADD299R,0.02684X0.00014*%
%ADD300R,0.02712X0.00014*%
%ADD301R,0.02698X0.00014*%
%ADD302R,0.02684X0.00014*%
%ADD303R,0.02726X0.00014*%
%ADD304R,0.01864X0.00014*%
%ADD305R,0.0267X0.00014*%
%ADD306R,0.0274X0.00014*%
%ADD307R,0.02643X0.00014*%
%ADD308R,0.02768X0.00014*%
%ADD309R,0.02629X0.00014*%
%ADD310R,0.02796X0.00014*%
%ADD311R,0.02615X0.00014*%
%ADD312R,0.02823X0.00014*%
%ADD313R,0.01863X0.00014*%
%ADD314R,0.02587X0.00014*%
%ADD315R,0.02837X0.00014*%
%ADD316R,0.02573X0.00014*%
%ADD317R,0.02851X0.00014*%
%ADD318R,0.02545X0.00014*%
%ADD319R,0.02879X0.00014*%
%ADD320R,0.02531X0.00014*%
%ADD321R,0.02893X0.00014*%
%ADD322R,0.02504X0.00014*%
%ADD323R,0.02476X0.00014*%
%ADD324R,0.02934X0.00014*%
%ADD325R,0.02462X0.00014*%
%ADD326R,0.02948X0.00014*%
%ADD327R,0.02434X0.00014*%
%ADD328R,0.02976X0.00014*%
%ADD329R,0.0242X0.00014*%
%ADD330R,0.0299X0.00014*%
%ADD331R,0.03018X0.00014*%
%ADD332R,0.02378X0.00014*%
%ADD333R,0.03032X0.00014*%
%ADD334R,0.02364X0.00014*%
%ADD335R,0.03074X0.00014*%
%ADD336R,0.02337X0.00014*%
%ADD337R,0.03087X0.00014*%
%ADD338R,0.02322X0.00014*%
%ADD339R,0.03101X0.00014*%
%ADD340R,0.02295X0.00014*%
%ADD341R,0.0313X0.00014*%
%ADD342R,0.02281X0.00014*%
%ADD343R,0.03143X0.00014*%
%ADD344R,0.02253X0.00014*%
%ADD345R,0.03171X0.00014*%
%ADD346R,0.02225X0.00014*%
%ADD347R,0.02211X0.00014*%
%ADD348R,0.03213X0.00014*%
%ADD349R,0.02183X0.00014*%
%ADD350R,0.03226X0.00014*%
%ADD351R,0.03241X0.00014*%
%ADD352R,0.02142X0.00014*%
%ADD353R,0.03269X0.00014*%
%ADD354R,0.02128X0.00014*%
%ADD355R,0.03282X0.00014*%
%ADD356R,0.021X0.00014*%
%ADD357R,0.02086X0.00014*%
%ADD358R,0.03338X0.00014*%
%ADD359R,0.02072X0.00014*%
%ADD360R,0.03365X0.00014*%
%ADD361R,0.02044X0.00014*%
%ADD362R,0.0338X0.00014*%
%ADD363R,0.0203X0.00014*%
%ADD364R,0.03393X0.00014*%
%ADD365R,0.02017X0.00014*%
%ADD366R,0.03421X0.00014*%
%ADD367R,0.03435X0.00014*%
%ADD368R,0.01975X0.00014*%
%ADD369R,0.03463X0.00014*%
%ADD370R,0.01961X0.00014*%
%ADD371R,0.03477X0.00014*%
%ADD372R,0.01947X0.00014*%
%ADD373R,0.03491X0.00014*%
%ADD374R,0.01933X0.00014*%
%ADD375R,0.03519X0.00014*%
%ADD376R,0.01919X0.00014*%
%ADD377R,0.03532X0.00014*%
%ADD378R,0.01892X0.00014*%
%ADD379R,0.03561X0.00014*%
%ADD380R,0.01892X0.00014*%
%ADD381R,0.03574X0.00014*%
%ADD382R,0.01878X0.00014*%
%ADD383R,0.03602X0.00014*%
%ADD384R,0.0363X0.00014*%
%ADD385R,0.03644X0.00014*%
%ADD386R,0.01808X0.00014*%
%ADD387R,0.03685X0.00014*%
%ADD388R,0.03713X0.00014*%
%ADD389R,0.03728X0.00014*%
%ADD390R,0.03741X0.00014*%
%ADD391R,0.01753X0.00014*%
%ADD392R,0.03769X0.00014*%
%ADD393R,0.01753X0.00014*%
%ADD394R,0.01724X0.00014*%
%ADD395R,0.03811X0.00014*%
%ADD396R,0.03824X0.00014*%
%ADD397R,0.01711X0.00014*%
%ADD398R,0.03839X0.00014*%
%ADD399R,0.01697X0.00014*%
%ADD400R,0.03867X0.00014*%
%ADD401R,0.03894X0.00014*%
%ADD402R,0.01669X0.00014*%
%ADD403R,0.03922X0.00014*%
%ADD404R,0.03936X0.00014*%
%ADD405R,0.03964X0.00014*%
%ADD406R,0.01641X0.00014*%
%ADD407R,0.03978X0.00014*%
%ADD408R,0.03991X0.00014*%
%ADD409R,0.0402X0.00014*%
%ADD410R,0.04033X0.00014*%
%ADD411R,0.01586X0.00014*%
%ADD412R,0.04061X0.00014*%
%ADD413R,0.01586X0.00014*%
%ADD414R,0.04075X0.00014*%
%ADD415R,0.04103X0.00014*%
%ADD416R,0.04117X0.00014*%
%ADD417R,0.01544X0.00014*%
%ADD418R,0.04159X0.00014*%
%ADD419R,0.04187X0.00014*%
%ADD420R,0.04214X0.00014*%
%ADD421R,0.04228X0.00014*%
%ADD422R,0.04242X0.00014*%
%ADD423R,0.04283X0.00014*%
%ADD424R,0.04326X0.00014*%
%ADD425R,0.04339X0.00014*%
%ADD426R,0.01432X0.00014*%
%ADD427R,0.01432X0.00014*%
%ADD428R,0.01419X0.00014*%
%ADD429R,0.01405X0.00014*%
%ADD430R,0.04493X0.00014*%
%ADD431R,0.01391X0.00014*%
%ADD432R,0.0452X0.00014*%
%ADD433R,0.01391X0.00014*%
%ADD434R,0.04534X0.00014*%
%ADD435R,0.01377X0.00014*%
%ADD436R,0.04562X0.00014*%
%ADD437R,0.04576X0.00014*%
%ADD438R,0.01377X0.00014*%
%ADD439R,0.04576X0.00014*%
%ADD440R,0.01363X0.00014*%
%ADD441R,0.04604X0.00014*%
%ADD442R,0.01349X0.00014*%
%ADD443R,0.04604X0.00014*%
%ADD444R,0.01349X0.00014*%
%ADD445R,0.04631X0.00014*%
%ADD446R,0.01335X0.00014*%
%ADD447R,0.01335X0.00014*%
%ADD448R,0.04645X0.00014*%
%ADD449R,0.01321X0.00014*%
%ADD450R,0.04659X0.00014*%
%ADD451R,0.04673X0.00014*%
%ADD452R,0.01307X0.00014*%
%ADD453R,0.04687X0.00014*%
%ADD454R,0.01307X0.00014*%
%ADD455R,0.04687X0.00014*%
%ADD456R,0.01307X0.00014*%
%ADD457R,0.04701X0.00014*%
%ADD458R,0.04701X0.00014*%
%ADD459R,0.01294X0.00014*%
%ADD460R,0.04701X0.00014*%
%ADD461R,0.0128X0.00014*%
%ADD462R,0.04715X0.00014*%
%ADD463R,0.0128X0.00014*%
%ADD464R,0.04715X0.00014*%
%ADD465R,0.0128X0.00014*%
%ADD466R,0.04715X0.00014*%
%ADD467R,0.01266X0.00014*%
%ADD468R,0.04729X0.00014*%
%ADD469R,0.01266X0.00014*%
%ADD470R,0.04715X0.00014*%
%ADD471R,0.04729X0.00014*%
%ADD472R,0.01252X0.00014*%
%ADD473R,0.04715X0.00014*%
%ADD474R,0.01238X0.00014*%
%ADD475R,0.04729X0.00014*%
%ADD476R,0.01252X0.00014*%
%ADD477R,0.01238X0.00014*%
%ADD478R,0.01224X0.00014*%
%ADD479R,0.04701X0.00014*%
%ADD480R,0.01224X0.00014*%
%ADD481R,0.04673X0.00014*%
%ADD482R,0.0121X0.00014*%
%ADD483R,0.04659X0.00014*%
%ADD484R,0.01808X0.00014*%
%ADD485R,0.01224X0.00014*%
%ADD486R,0.04631X0.00014*%
%ADD487R,0.0121X0.00014*%
%ADD488R,0.04562X0.00014*%
%ADD489R,0.04506X0.00014*%
%ADD490R,0.01196X0.00014*%
%ADD491R,0.00459X0.00014*%
%ADD492R,0.01196X0.00014*%
%ADD493R,0.01196X0.00014*%
%ADD494R,0.01182X0.00014*%
%ADD495R,0.01182X0.00014*%
%ADD496R,0.01182X0.00014*%
%ADD497R,0.01168X0.00014*%
%ADD498R,0.01168X0.00014*%
%ADD499R,0.01182X0.00014*%
%ADD500R,0.01169X0.00014*%
%ADD501R,0.01169X0.00014*%
%ADD502R,0.01154X0.00014*%
%ADD503R,0.01154X0.00014*%
%ADD504R,0.01169X0.00014*%
%ADD505R,0.01168X0.00014*%
%ADD506R,0.01182X0.00014*%
%ADD507R,0.01196X0.00014*%
%ADD508R,0.01224X0.00014*%
%ADD509R,0.01224X0.00014*%
%ADD510R,0.01224X0.00014*%
%ADD511R,0.01224X0.00014*%
%ADD512R,0.01252X0.00014*%
%ADD513R,0.01266X0.00014*%
%ADD514R,0.01265X0.00014*%
%ADD515R,0.01265X0.00014*%
%ADD516R,0.01321X0.00014*%
%ADD517R,0.01335X0.00014*%
%ADD518R,0.01349X0.00014*%
%ADD519R,0.01377X0.00014*%
%ADD520R,0.01419X0.00014*%
%ADD521R,0.01544X0.00014*%
%ADD522R,0.01585X0.00014*%
%ADD523R,0.01641X0.00014*%
%ADD524R,0.01697X0.00014*%
%ADD525R,0.0178X0.00014*%
%ADD526R,0.01891X0.00014*%
%ADD527R,0.01961X0.00014*%
%ADD528R,0.02072X0.00014*%
%ADD529R,0.1032X0.00014*%
%ADD530R,0.10348X0.00014*%
%ADD531R,0.10347X0.00014*%
%ADD532R,0.10347X0.00014*%
%ADD533R,0.10348X0.00014*%
%ADD534R,0.10348X0.00014*%
%ADD535R,0.10347X0.00014*%
%ADD536R,0.10333X0.00014*%
%ADD537R,0.10334X0.00014*%
%ADD538R,0.10334X0.00014*%
%ADD539R,0.10333X0.00014*%
%ADD540R,0.1032X0.00014*%
%ADD541R,0.1032X0.00014*%
%ADD542R,0.10306X0.00014*%
%ADD543R,0.1032X0.00014*%
%ADD544R,0.10306X0.00014*%
%ADD545R,0.10292X0.00014*%
%ADD546R,0.10292X0.00014*%
%ADD547R,0.10292X0.00014*%
%ADD548R,0.10278X0.00014*%
%ADD549R,0.10278X0.00014*%
%ADD550R,0.10264X0.00014*%
%ADD551R,0.10264X0.00014*%
%ADD552R,0.10264X0.00014*%
%ADD553R,0.1025X0.00014*%
%ADD554R,0.1025X0.00014*%
%ADD555R,0.10236X0.00014*%
%ADD556R,0.10222X0.00014*%
%ADD557R,0.10222X0.00014*%
%ADD558R,0.10208X0.00014*%
%ADD559R,0.10209X0.00014*%
%ADD560R,0.10194X0.00014*%
%ADD561R,0.10194X0.00014*%
%ADD562R,0.10181X0.00014*%
%ADD563R,0.10167X0.00014*%
%ADD564R,0.10139X0.00014*%
%ADD565R,0.10125X0.00014*%
%ADD566R,0.10125X0.00014*%
%ADD567R,0.10111X0.00014*%
%ADD568R,0.10097X0.00014*%
%ADD569R,0.10083X0.00014*%
%ADD570R,0.10083X0.00014*%
%ADD571R,0.10055X0.00014*%
%ADD572R,0.10041X0.00014*%
%ADD573R,0.10028X0.00014*%
%ADD574R,0.1X0.00014*%
%ADD575R,0.1X0.00014*%
%ADD576R,0.09972X0.00014*%
%ADD577R,0.09944X0.00014*%
%ADD578R,0.0993X0.00014*%
%ADD579R,0.09916X0.00014*%
%ADD580R,0.09902X0.00014*%
%ADD581R,0.09861X0.00014*%
%ADD582R,0.09833X0.00014*%
%ADD583R,0.09819X0.00014*%
%ADD584R,0.09777X0.00014*%
%ADD585R,0.09735X0.00014*%
%ADD586R,0.09694X0.00014*%
%ADD587R,0.09652X0.00014*%
%ADD588R,0.09596X0.00014*%
%ADD589R,0.09527X0.00014*%
%ADD590R,0.09443X0.00014*%
%ADD591R,0.09332X0.00014*%
G54D18*
%SRX1Y1I0.0J0.0*%
G1X3376Y9456D2*
G1X8691Y9456D1*
G1X8691Y4141D2*
G54D40*
G1X3376Y4141D1*
G54D54*
G1X7728Y7563D3*
G54D55*
G1X8002Y7563D3*
G54D56*
G1X7730Y7564D3*
G54D57*
G1X8007Y7564D3*
G54D58*
G1X8077Y7640D3*
G1X7731Y7565D3*
G54D59*
G1X8010Y7565D3*
G54D60*
G1X8085Y7654D3*
G1X8089Y7666D3*
G1X8097Y7686D3*
G1X8106Y7706D3*
G1X8111Y7718D3*
G1X8116Y7730D3*
G1X8124Y7750D3*
G1X8132Y7770D3*
G1X8136Y7778D3*
G1X8153Y7819D3*
G1X8157Y7830D3*
G1X8167Y7853D3*
G1X8180Y7882D3*
G1X8184Y7894D3*
G1X8217Y7974D3*
G1X8221Y7985D3*
G1X8225Y7994D3*
G1X7817Y7761D3*
G1X7732Y7567D3*
G1X7335Y7898D3*
G54D61*
G1X8013Y7567D3*
G54D60*
G1X8084Y7653D3*
G1X8086Y7660D3*
G1X8091Y7668D3*
G1X8095Y7679D3*
G1X8100Y7692D3*
G1X8104Y7703D3*
G1X8109Y7713D3*
G1X8110Y7717D3*
G1X8117Y7732D3*
G1X8118Y7735D3*
G1X8121Y7743D3*
G1X8122Y7745D3*
G1X8125Y7752D3*
G1X8127Y7756D3*
G1X8131Y7767D3*
G1X8134Y7773D3*
G1X8135Y7775D3*
G1X8135Y7777D3*
G1X8138Y7784D3*
G1X8142Y7792D3*
G1X8143Y7796D3*
G1X8146Y7803D3*
G1X8150Y7813D3*
G1X8152Y7816D3*
G1X8160Y7835D3*
G1X8160Y7837D3*
G1X8164Y7845D3*
G1X8168Y7856D3*
G1X8177Y7877D3*
G1X8178Y7880D3*
G1X8186Y7901D3*
G1X8195Y7920D3*
G1X8198Y7927D3*
G1X8202Y7937D3*
G1X8203Y7941D3*
G1X8206Y7948D3*
G1X8214Y7967D3*
G1X8214Y7969D3*
G1X8223Y7988D3*
G1X8224Y7991D3*
G1X8227Y7997D3*
G1X7734Y7568D3*
G54D62*
G1X8015Y7568D3*
G54D58*
G1X8079Y7642D3*
G1X7737Y7570D3*
G54D63*
G1X8017Y7570D3*
G1X7364Y8049D3*
G1X7365Y8054D3*
G54D64*
G1X7739Y7571D3*
G54D65*
G1X8020Y7571D3*
G1X7376Y8073D3*
G54D66*
G1X7740Y7572D3*
G1X8071Y7628D3*
G54D67*
G1X8022Y7572D3*
G1X7343Y7988D3*
G1X7343Y7991D3*
G54D68*
G1X7742Y7574D3*
G54D69*
G1X8024Y7574D3*
G1X7341Y7978D3*
G54D68*
G1X7335Y7905D3*
G1X7816Y7752D3*
G1X7744Y7575D3*
G54D70*
G1X8025Y7575D3*
G1X7391Y8095D3*
G1X7339Y7973D3*
G54D71*
G1X7816Y7748D3*
G1X7745Y7577D3*
G54D72*
G1X8027Y7577D3*
G1X7394Y8099D3*
G54D73*
G1X7747Y7578D3*
G54D74*
G1X8029Y7578D3*
G1X7338Y7962D3*
G54D75*
G1X7335Y7912D3*
G1X7816Y7743D3*
G1X7749Y7581D3*
G1X7748Y7579D3*
G1X8061Y7613D3*
G54D76*
G1X8031Y7579D3*
G1X7398Y8104D3*
G1X7337Y7956D3*
G54D77*
G1X8033Y7581D3*
G54D78*
G1X7750Y7582D3*
G54D79*
G1X7789Y7646D3*
G1X8034Y7582D3*
G54D80*
G1X8057Y7607D3*
G1X7751Y7583D3*
G54D81*
G1X7785Y7636D3*
G1X7801Y7675D3*
G1X7801Y7677D3*
G1X8036Y7583D3*
G54D80*
G1X7753Y7585D3*
G1X7334Y7916D3*
G54D82*
G1X7336Y7944D3*
G1X7802Y7681D3*
G1X7802Y7679D3*
G1X7781Y7628D3*
G1X8037Y7585D3*
G54D83*
G1X8053Y7602D3*
G1X7814Y7730D3*
G1X7754Y7586D3*
G54D84*
G1X8038Y7586D3*
G54D83*
G1X7814Y7731D3*
G1X7755Y7588D3*
G1X7334Y7919D3*
G54D85*
G1X7807Y7695D3*
G1X8040Y7588D3*
G54D86*
G1X8051Y7600D3*
G1X7756Y7589D3*
G1X7335Y7920D3*
G54D87*
G1X7335Y7935D3*
G1X7335Y7937D3*
G1X7809Y7703D3*
G1X7771Y7611D3*
G1X7769Y7607D3*
G1X8041Y7589D3*
G54D88*
G1X7814Y7727D3*
G1X7757Y7590D3*
G54D89*
G1X7810Y7706D3*
G1X8043Y7590D3*
G54D88*
G1X7814Y7728D3*
G1X7758Y7592D3*
G54D90*
G1X7767Y7604D3*
G1X7810Y7709D3*
G1X8044Y7592D3*
G54D91*
G1X7759Y7593D3*
G54D92*
G1X7812Y7716D3*
G1X8045Y7593D3*
G54D93*
G1X7812Y7718D3*
G1X7761Y7595D3*
G54D94*
G1X8047Y7595D3*
G54D92*
G1X7812Y7717D3*
G1X7762Y7596D3*
G54D93*
G1X7812Y7720D3*
G1X8047Y7596D3*
G1X7415Y8119D3*
G54D95*
G1X7334Y7930D3*
G1X7811Y7714D3*
G1X7762Y7597D3*
G54D91*
G1X7813Y7723D3*
G1X8049Y7597D3*
G1X7335Y7926D3*
G54D95*
G1X7764Y7599D3*
G54D88*
G1X7814Y7725D3*
G1X8050Y7599D3*
G1X7334Y7923D3*
G54D96*
G1X7335Y7931D3*
G1X7335Y7933D3*
G1X7411Y8116D3*
G1X7764Y7600D3*
G54D97*
G1X7765Y7602D3*
G54D96*
G1X7766Y7603D3*
G54D98*
G1X8054Y7603D3*
G1X8055Y7604D3*
G1X7814Y7732D3*
G1X7814Y7735D3*
G1X8232Y8008D3*
G54D89*
G1X7768Y7606D3*
G54D80*
G1X8056Y7606D3*
G54D87*
G1X7809Y7704D3*
G1X7770Y7609D3*
G54D78*
G1X8058Y7609D3*
G54D85*
G1X7771Y7610D3*
G1X7335Y7938D3*
G1X7408Y8113D3*
G54D99*
G1X8059Y7610D3*
G1X8060Y7611D3*
G1X7815Y7739D3*
G1X7815Y7741D3*
G54D85*
G1X7807Y7696D3*
G1X7772Y7613D3*
G54D84*
G1X7773Y7614D3*
G54D100*
G1X8062Y7614D3*
G54D84*
G1X7774Y7615D3*
G54D73*
G1X7815Y7745D3*
G1X8063Y7615D3*
G1X7423Y8124D3*
G54D101*
G1X7335Y7941D3*
G1X7804Y7688D3*
G1X7804Y7685D3*
G1X7778Y7621D3*
G1X7775Y7617D3*
G54D71*
G1X7816Y7749D3*
G1X8063Y7617D3*
G54D84*
G1X7807Y7698D3*
G1X7806Y7693D3*
G1X7775Y7618D3*
G54D71*
G1X7816Y7746D3*
G1X8065Y7618D3*
G54D101*
G1X7805Y7689D3*
G1X7776Y7620D3*
G54D102*
G1X8065Y7620D3*
G1X8067Y7621D3*
G54D101*
G1X7805Y7691D3*
G1X7804Y7686D3*
G1X7778Y7622D3*
G1X7335Y7942D3*
G54D68*
G1X7335Y7906D3*
G1X7816Y7750D3*
G1X8068Y7622D3*
G54D82*
G1X7778Y7624D3*
G54D54*
G1X8068Y7624D3*
G1X8230Y8005D3*
G54D82*
G1X7780Y7625D3*
G1X7336Y7945D3*
G54D68*
G1X8069Y7625D3*
G1X8229Y8003D3*
G54D82*
G1X7780Y7627D3*
G1X7404Y8111D3*
G54D66*
G1X7817Y7755D3*
G1X8070Y7627D3*
G54D103*
G1X7800Y7674D3*
G1X7798Y7670D3*
G1X7796Y7661D3*
G1X7783Y7634D3*
G1X7782Y7629D3*
G1X7335Y7946D3*
G54D56*
G1X8072Y7629D3*
G54D103*
G1X7800Y7672D3*
G1X7782Y7631D3*
G1X7403Y8109D3*
G54D66*
G1X7817Y7753D3*
G1X8072Y7631D3*
G54D103*
G1X7798Y7668D3*
G1X7783Y7632D3*
G54D56*
G1X7816Y7756D3*
G1X8073Y7632D3*
G1X7335Y7903D3*
G54D104*
G1X8074Y7634D3*
G54D105*
G1X7785Y7635D3*
G54D106*
G1X8075Y7635D3*
G54D107*
G1X8075Y7636D3*
G1X8228Y8001D3*
G1X7335Y7901D3*
G54D108*
G1X7336Y7949D3*
G1X7795Y7659D3*
G1X7791Y7650D3*
G1X7788Y7642D3*
G1X7785Y7638D3*
G54D109*
G1X7817Y7757D3*
G1X8077Y7638D3*
G54D110*
G1X7799Y7671D3*
G1X7796Y7664D3*
G1X7795Y7660D3*
G1X7794Y7656D3*
G1X7792Y7653D3*
G1X7791Y7649D3*
G1X7789Y7647D3*
G1X7789Y7645D3*
G1X7788Y7643D3*
G1X7787Y7639D3*
G1X7336Y7948D3*
G1X7401Y8108D3*
G54D111*
G1X8077Y7639D3*
G54D112*
G1X7798Y7667D3*
G1X7796Y7663D3*
G1X7794Y7657D3*
G1X7792Y7652D3*
G1X7787Y7640D3*
G54D113*
G1X8079Y7643D3*
G1X8080Y7645D3*
G1X8081Y7647D3*
G1X8081Y7649D3*
G1X8228Y7999D3*
G1X7429Y8127D3*
G54D114*
G1X8080Y7646D3*
G54D115*
G1X8082Y7650D3*
G1X8086Y7659D3*
G1X8088Y7661D3*
G1X8096Y7682D3*
G1X8100Y7693D3*
G1X8104Y7702D3*
G1X8113Y7723D3*
G1X8114Y7727D3*
G1X8117Y7734D3*
G1X8122Y7746D3*
G1X8127Y7757D3*
G1X8129Y7761D3*
G1X8131Y7766D3*
G1X8138Y7782D3*
G1X8139Y7787D3*
G1X8142Y7793D3*
G1X8146Y7802D3*
G1X8154Y7823D3*
G1X8156Y7825D3*
G1X8163Y7842D3*
G1X8164Y7846D3*
G1X8173Y7866D3*
G1X8181Y7887D3*
G1X8182Y7889D3*
G1X8189Y7906D3*
G1X8191Y7910D3*
G1X8193Y7917D3*
G1X8199Y7930D3*
G1X8210Y7958D3*
G1X8212Y7962D3*
G1X8216Y7970D3*
G1X8218Y7978D3*
G54D116*
G1X8218Y7977D3*
G1X8220Y7981D3*
G1X8223Y7987D3*
G1X8224Y7992D3*
G1X8216Y7971D3*
G1X8212Y7960D3*
G1X8207Y7951D3*
G1X8185Y7896D3*
G1X8177Y7876D3*
G1X8159Y7832D3*
G1X8154Y7821D3*
G1X8150Y7812D3*
G1X8143Y7795D3*
G1X8139Y7785D3*
G1X8129Y7763D3*
G1X8125Y7753D3*
G1X8118Y7736D3*
G1X8114Y7725D3*
G1X8110Y7716D3*
G1X8099Y7689D3*
G1X8092Y7672D3*
G1X8088Y7663D3*
G1X8084Y7652D3*
G54D117*
G1X7793Y7654D3*
G1X7401Y8106D3*
G54D118*
G1X7335Y7899D3*
G1X7817Y7760D3*
G1X8085Y7656D3*
G1X8089Y7664D3*
G1X8093Y7675D3*
G1X8097Y7685D3*
G1X8102Y7696D3*
G1X8107Y7709D3*
G1X8111Y7720D3*
G1X8120Y7739D3*
G1X8120Y7741D3*
G1X8124Y7749D3*
G1X8128Y7760D3*
G1X8145Y7799D3*
G1X8149Y7809D3*
G1X8153Y7820D3*
G1X8157Y7828D3*
G1X8161Y7839D3*
G1X8167Y7852D3*
G1X8170Y7860D3*
G1X8171Y7863D3*
G1X8175Y7873D3*
G1X8180Y7884D3*
G1X8188Y7903D3*
G1X8196Y7924D3*
G1X8205Y7944D3*
G1X8213Y7965D3*
G1X8221Y7984D3*
G1X8225Y7995D3*
G54D119*
G1X8205Y7945D3*
G1X8196Y7923D3*
G1X8183Y7891D3*
G1X8180Y7885D3*
G1X8179Y7881D3*
G1X8172Y7864D3*
G1X8168Y7855D3*
G1X8157Y7827D3*
G1X8152Y7817D3*
G1X8123Y7748D3*
G1X8116Y7731D3*
G1X8112Y7721D3*
G1X8105Y7704D3*
G1X8097Y7684D3*
G1X8090Y7667D3*
G1X8086Y7657D3*
G1X7817Y7763D3*
G54D120*
G1X7797Y7666D3*
G54D121*
G1X8091Y7670D3*
G1X8100Y7691D3*
G1X8109Y7714D3*
G1X8126Y7755D3*
G1X8151Y7814D3*
G1X8159Y7834D3*
G1X8177Y7878D3*
G1X8186Y7898D3*
G1X8202Y7938D3*
G1X8207Y7949D3*
G1X8223Y7990D3*
G54D122*
G1X8219Y7980D3*
G1X8211Y7959D3*
G1X8190Y7909D3*
G1X8186Y7899D3*
G1X8182Y7888D3*
G1X8173Y7869D3*
G1X8173Y7867D3*
G1X8155Y7824D3*
G1X8147Y7805D3*
G1X8130Y7764D3*
G1X8113Y7724D3*
G1X8095Y7681D3*
G1X8091Y7671D3*
G54D123*
G1X8093Y7674D3*
G1X8102Y7698D3*
G1X8119Y7738D3*
G1X8141Y7791D3*
G1X8144Y7798D3*
G1X8150Y7810D3*
G1X8166Y7851D3*
G1X8169Y7857D3*
G1X8170Y7862D3*
G1X8176Y7874D3*
G1X8193Y7914D3*
G1X8196Y7921D3*
G1X8197Y7926D3*
G1X8204Y7942D3*
G1X8205Y7946D3*
G1X8208Y7953D3*
G1X8221Y7983D3*
G54D124*
G1X8218Y7976D3*
G1X8216Y7973D3*
G1X8212Y7963D3*
G1X8209Y7956D3*
G1X8208Y7952D3*
G1X8201Y7935D3*
G1X8200Y7933D3*
G1X8200Y7931D3*
G1X8193Y7916D3*
G1X8191Y7912D3*
G1X8189Y7905D3*
G1X8184Y7895D3*
G1X8183Y7892D3*
G1X8175Y7871D3*
G1X8165Y7848D3*
G1X8162Y7841D3*
G1X8158Y7831D3*
G1X8148Y7807D3*
G1X8140Y7788D3*
G1X8137Y7781D3*
G1X8133Y7771D3*
G1X8115Y7728D3*
G1X8108Y7711D3*
G1X8107Y7707D3*
G1X8104Y7700D3*
G1X8098Y7688D3*
G1X8094Y7677D3*
G54D125*
G1X7802Y7678D3*
G54D126*
G1X8095Y7678D3*
G1X8121Y7742D3*
G1X8148Y7806D3*
G1X8174Y7870D3*
G1X8227Y7998D3*
G54D127*
G1X7803Y7682D3*
G54D128*
G1X7374Y7684D3*
G54D129*
G1X7803Y7684D3*
G54D130*
G1X7771Y7941D3*
G1X7376Y7685D3*
G54D131*
G1X7377Y7686D3*
G54D132*
G1X7378Y7688D3*
G1X7769Y7948D3*
G54D133*
G1X7388Y7721D3*
G1X7378Y7689D3*
G54D134*
G1X7379Y7691D3*
G1X7387Y7714D3*
G54D135*
G1X7387Y7713D3*
G1X7387Y7711D3*
G1X7380Y7692D3*
G1X7766Y7952D3*
G54D136*
G1X7806Y7692D3*
G1X7406Y8112D3*
G54D137*
G1X7381Y7693D3*
G54D138*
G1X7381Y7695D3*
G1X7385Y7704D3*
G54D139*
G1X8102Y7695D3*
G1X8103Y7699D3*
G1X8128Y7759D3*
G1X8132Y7768D3*
G1X8136Y7780D3*
G1X8141Y7789D3*
G1X8145Y7800D3*
G1X8166Y7849D3*
G1X8170Y7859D3*
G1X8192Y7913D3*
G1X8209Y7955D3*
G54D140*
G1X7381Y7696D3*
G54D141*
G1X7383Y7698D3*
G1X7384Y7702D3*
G1X7766Y7953D3*
G54D142*
G1X7766Y7955D3*
G1X7383Y7699D3*
G54D143*
G1X7335Y7940D3*
G1X7808Y7699D3*
G54D144*
G1X7384Y7700D3*
G54D145*
G1X7808Y7700D3*
G54D146*
G1X7809Y7702D3*
G54D147*
G1X7385Y7703D3*
G54D148*
G1X7385Y7706D3*
G54D149*
G1X7386Y7707D3*
G1X7386Y7709D3*
G54D150*
G1X7810Y7707D3*
G54D151*
G1X7387Y7710D3*
G54D152*
G1X7810Y7710D3*
G54D153*
G1X8107Y7710D3*
G1X8200Y7934D3*
G54D154*
G1X7811Y7713D3*
G1X7811Y7711D3*
G54D155*
G1X7767Y7951D3*
G1X7387Y7716D3*
G54D156*
G1X7388Y7717D3*
G54D157*
G1X7387Y7718D3*
G1X7767Y7949D3*
G54D158*
G1X7387Y7720D3*
G54D159*
G1X7812Y7721D3*
G54D160*
G1X7387Y7723D3*
G54D161*
G1X7388Y7724D3*
G54D162*
G1X7335Y7924D3*
G1X7813Y7724D3*
G54D163*
G1X7387Y7725D3*
G54D164*
G1X7387Y7727D3*
G54D165*
G1X7387Y7728D3*
G1X7770Y7944D3*
G54D166*
G1X7387Y7730D3*
G54D167*
G1X7387Y7731D3*
G54D168*
G1X7386Y7732D3*
G54D169*
G1X7387Y7734D3*
G54D170*
G1X7418Y8122D3*
G1X7814Y7734D3*
G54D171*
G1X7386Y7735D3*
G54D172*
G1X7385Y7736D3*
G54D173*
G1X7815Y7736D3*
G54D174*
G1X7385Y7738D3*
G54D175*
G1X7815Y7738D3*
G54D176*
G1X7384Y7739D3*
G54D177*
G1X7384Y7741D3*
G1X7773Y7933D3*
G54D178*
G1X7383Y7742D3*
G54D179*
G1X7815Y7742D3*
G54D180*
G1X7383Y7743D3*
G54D181*
G1X7383Y7745D3*
G54D182*
G1X7382Y7746D3*
G54D183*
G1X7382Y7748D3*
G54D184*
G1X7381Y7749D3*
G54D185*
G1X7381Y7750D3*
G54D186*
G1X7380Y7752D3*
G54D187*
G1X7380Y7753D3*
G54D188*
G1X7380Y7755D3*
G54D189*
G1X7378Y7756D3*
G54D190*
G1X7378Y7757D3*
G54D191*
G1X7378Y7759D3*
G54D192*
G1X7817Y7759D3*
G54D193*
G1X7377Y7760D3*
G54D194*
G1X7377Y7761D3*
G54D195*
G1X7376Y7763D3*
G54D196*
G1X7376Y7764D3*
G1X7781Y7909D3*
G54D197*
G1X7817Y7764D3*
G54D198*
G1X7376Y7766D3*
G54D199*
G1X7817Y7766D3*
G54D200*
G1X7375Y7767D3*
G54D201*
G1X7817Y7767D3*
G54D202*
G1X7375Y7768D3*
G54D203*
G1X7817Y7768D3*
G54D204*
G1X7374Y7770D3*
G54D205*
G1X7817Y7770D3*
G54D206*
G1X7374Y7771D3*
G54D207*
G1X7817Y7771D3*
G1X7817Y7773D3*
G54D208*
G1X7784Y7901D3*
G1X7374Y7773D3*
G54D209*
G1X7374Y7774D3*
G54D210*
G1X7817Y7774D3*
G54D211*
G1X8134Y7774D3*
G54D212*
G1X7373Y7775D3*
G54D213*
G1X7817Y7775D3*
G54D214*
G1X7371Y7777D3*
G54D215*
G1X7817Y7777D3*
G54D216*
G1X7371Y7778D3*
G54D217*
G1X7817Y7778D3*
G54D218*
G1X7371Y7780D3*
G54D219*
G1X7337Y7885D3*
G1X7816Y7780D3*
G54D220*
G1X7371Y7781D3*
G54D221*
G1X7817Y7781D3*
G54D222*
G1X7370Y7782D3*
G54D223*
G1X7816Y7782D3*
G54D224*
G1X7369Y7784D3*
G54D225*
G1X7817Y7784D3*
G54D226*
G1X7369Y7785D3*
G54D227*
G1X7816Y7785D3*
G54D228*
G1X7369Y7787D3*
G54D229*
G1X7816Y7787D3*
G54D230*
G1X7369Y7788D3*
G54D231*
G1X7816Y7788D3*
G54D232*
G1X7368Y7789D3*
G54D233*
G1X7815Y7789D3*
G54D234*
G1X7368Y7791D3*
G54D235*
G1X7816Y7791D3*
G54D236*
G1X7367Y7792D3*
G54D237*
G1X7815Y7792D3*
G54D238*
G1X7367Y7793D3*
G54D239*
G1X7815Y7793D3*
G54D240*
G1X7367Y7795D3*
G54D241*
G1X7815Y7795D3*
G54D242*
G1X7792Y7877D3*
G1X7365Y7796D3*
G54D243*
G1X7340Y7873D3*
G1X7814Y7796D3*
G54D244*
G1X7365Y7798D3*
G54D245*
G1X7815Y7798D3*
G54D246*
G1X7365Y7799D3*
G54D247*
G1X7814Y7799D3*
G54D248*
G1X7364Y7800D3*
G54D249*
G1X7814Y7800D3*
G54D250*
G1X7364Y7802D3*
G54D251*
G1X7814Y7802D3*
G54D252*
G1X7363Y7803D3*
G54D253*
G1X7814Y7803D3*
G54D254*
G1X7794Y7869D3*
G1X7363Y7805D3*
G54D255*
G1X7814Y7805D3*
G54D256*
G1X7362Y7806D3*
G54D257*
G1X7813Y7806D3*
G54D258*
G1X7362Y7807D3*
G54D259*
G1X7814Y7807D3*
G54D260*
G1X7362Y7809D3*
G54D261*
G1X7813Y7809D3*
G54D262*
G1X7361Y7810D3*
G54D263*
G1X7812Y7810D3*
G54D264*
G1X7361Y7812D3*
G54D265*
G1X7812Y7812D3*
G54D266*
G1X7360Y7813D3*
G54D267*
G1X7812Y7813D3*
G54D268*
G1X7360Y7814D3*
G54D269*
G1X7346Y7857D3*
G1X7812Y7814D3*
G54D270*
G1X7359Y7816D3*
G54D271*
G1X7812Y7816D3*
G54D272*
G1X7359Y7817D3*
G54D273*
G1X7812Y7817D3*
G54D274*
G1X7358Y7819D3*
G54D275*
G1X7811Y7819D3*
G54D276*
G1X7358Y7820D3*
G54D277*
G1X7810Y7820D3*
G54D278*
G1X7358Y7821D3*
G54D279*
G1X7810Y7821D3*
G54D280*
G1X7801Y7851D3*
G1X7357Y7823D3*
G54D281*
G1X7810Y7823D3*
G54D282*
G1X7357Y7824D3*
G54D283*
G1X7810Y7824D3*
G54D284*
G1X7356Y7825D3*
G54D285*
G1X7809Y7825D3*
G54D286*
G1X7355Y7827D3*
G54D287*
G1X7809Y7827D3*
G54D288*
G1X7355Y7828D3*
G54D289*
G1X7807Y7828D3*
G54D290*
G1X7355Y7830D3*
G54D291*
G1X7807Y7830D3*
G54D292*
G1X7355Y7831D3*
G54D293*
G1X7807Y7831D3*
G54D294*
G1X7353Y7832D3*
G54D295*
G1X7806Y7832D3*
G54D296*
G1X7353Y7834D3*
G54D297*
G1X7806Y7834D3*
G54D298*
G1X7353Y7835D3*
G54D299*
G1X7805Y7835D3*
G54D300*
G1X7352Y7837D3*
G54D301*
G1X7805Y7837D3*
G54D302*
G1X7352Y7838D3*
G54D303*
G1X7805Y7838D3*
G54D304*
G1X8161Y7838D3*
G1X8187Y7902D3*
G1X8214Y7966D3*
G54D305*
G1X7351Y7839D3*
G54D306*
G1X7804Y7839D3*
G54D307*
G1X7351Y7841D3*
G54D308*
G1X7804Y7841D3*
G54D309*
G1X7351Y7842D3*
G54D310*
G1X7803Y7842D3*
G54D311*
G1X7350Y7844D3*
G54D312*
G1X7803Y7844D3*
G54D313*
G1X8164Y7844D3*
G1X8190Y7908D3*
G1X8194Y7919D3*
G1X8198Y7928D3*
G1X8202Y7940D3*
G54D314*
G1X7350Y7845D3*
G54D315*
G1X7802Y7845D3*
G54D316*
G1X7349Y7846D3*
G54D317*
G1X7801Y7846D3*
G54D318*
G1X7349Y7848D3*
G54D319*
G1X7801Y7848D3*
G54D320*
G1X7349Y7849D3*
G54D321*
G1X7801Y7849D3*
G54D322*
G1X7349Y7851D3*
G54D323*
G1X7347Y7852D3*
G54D324*
G1X7800Y7852D3*
G54D325*
G1X7346Y7853D3*
G54D326*
G1X7799Y7853D3*
G54D327*
G1X7346Y7855D3*
G54D328*
G1X7799Y7855D3*
G54D329*
G1X7346Y7856D3*
G54D330*
G1X7798Y7856D3*
G54D331*
G1X7798Y7857D3*
G54D332*
G1X7345Y7859D3*
G54D333*
G1X7798Y7859D3*
G54D334*
G1X7344Y7860D3*
G54D335*
G1X7797Y7860D3*
G54D336*
G1X7344Y7862D3*
G54D337*
G1X7796Y7862D3*
G54D338*
G1X7344Y7863D3*
G54D339*
G1X7796Y7863D3*
G54D340*
G1X7344Y7864D3*
G54D341*
G1X7796Y7864D3*
G54D342*
G1X7343Y7866D3*
G54D343*
G1X7795Y7866D3*
G54D344*
G1X7343Y7867D3*
G54D345*
G1X7795Y7867D3*
G54D346*
G1X7342Y7869D3*
G54D347*
G1X7341Y7870D3*
G54D348*
G1X7794Y7870D3*
G54D349*
G1X7341Y7871D3*
G54D350*
G1X7794Y7871D3*
G54D351*
G1X7793Y7873D3*
G54D352*
G1X7340Y7874D3*
G54D353*
G1X7793Y7874D3*
G54D354*
G1X7339Y7876D3*
G54D355*
G1X7792Y7876D3*
G54D356*
G1X7339Y7877D3*
G54D357*
G1X7339Y7878D3*
G54D358*
G1X7791Y7878D3*
G54D359*
G1X7338Y7880D3*
G54D360*
G1X7791Y7880D3*
G54D361*
G1X7338Y7881D3*
G54D362*
G1X7790Y7881D3*
G54D363*
G1X7337Y7882D3*
G54D364*
G1X7789Y7882D3*
G54D365*
G1X7338Y7884D3*
G54D366*
G1X7789Y7884D3*
G54D367*
G1X7789Y7885D3*
G54D368*
G1X7337Y7887D3*
G54D369*
G1X7789Y7887D3*
G54D370*
G1X7337Y7888D3*
G54D371*
G1X7788Y7888D3*
G54D372*
G1X7336Y7889D3*
G54D373*
G1X7787Y7889D3*
G54D374*
G1X7337Y7891D3*
G54D375*
G1X7787Y7891D3*
G54D376*
G1X7336Y7892D3*
G54D377*
G1X7787Y7892D3*
G54D378*
G1X7336Y7894D3*
G54D379*
G1X7787Y7894D3*
G54D380*
G1X7336Y7895D3*
G54D381*
G1X7786Y7895D3*
G54D382*
G1X7335Y7896D3*
G54D383*
G1X7786Y7896D3*
G54D384*
G1X7785Y7898D3*
G54D385*
G1X7784Y7899D3*
G54D386*
G1X7335Y7902D3*
G54D387*
G1X7783Y7902D3*
G54D388*
G1X7783Y7903D3*
G54D389*
G1X7782Y7905D3*
G54D390*
G1X7782Y7906D3*
G54D391*
G1X7335Y7908D3*
G54D392*
G1X7782Y7908D3*
G54D393*
G1X7335Y7909D3*
G54D394*
G1X7335Y7910D3*
G1X8230Y8006D3*
G54D395*
G1X7781Y7910D3*
G54D396*
G1X7780Y7912D3*
G54D397*
G1X7334Y7913D3*
G54D398*
G1X7780Y7913D3*
G54D399*
G1X7335Y7914D3*
G54D400*
G1X7780Y7914D3*
G54D401*
G1X7778Y7916D3*
G54D402*
G1X7335Y7917D3*
G54D403*
G1X7778Y7917D3*
G54D404*
G1X7778Y7919D3*
G54D405*
G1X7778Y7920D3*
G54D406*
G1X7335Y7921D3*
G54D407*
G1X7777Y7921D3*
G54D408*
G1X7776Y7923D3*
G54D409*
G1X7776Y7924D3*
G54D410*
G1X7775Y7926D3*
G54D411*
G1X7335Y7927D3*
G54D412*
G1X7775Y7927D3*
G54D413*
G1X7335Y7928D3*
G54D414*
G1X7775Y7928D3*
G54D415*
G1X7775Y7930D3*
G54D416*
G1X7774Y7931D3*
G54D417*
G1X7335Y7934D3*
G54D418*
G1X7773Y7934D3*
G54D419*
G1X7772Y7935D3*
G54D420*
G1X7772Y7937D3*
G54D421*
G1X7771Y7938D3*
G54D422*
G1X7771Y7940D3*
G54D423*
G1X7770Y7942D3*
G54D424*
G1X7769Y7945D3*
G54D425*
G1X7769Y7946D3*
G54D426*
G1X7337Y7951D3*
G54D427*
G1X7337Y7952D3*
G54D428*
G1X7336Y7953D3*
G54D429*
G1X7337Y7955D3*
G54D430*
G1X7765Y7956D3*
G54D431*
G1X7337Y7958D3*
G54D432*
G1X7765Y7958D3*
G54D433*
G1X7337Y7959D3*
G54D434*
G1X7764Y7959D3*
G54D435*
G1X7338Y7960D3*
G54D436*
G1X7764Y7960D3*
G54D437*
G1X7764Y7962D3*
G54D438*
G1X7395Y8101D3*
G1X7338Y7963D3*
G54D439*
G1X7764Y7963D3*
G54D440*
G1X7339Y7965D3*
G54D441*
G1X7764Y7965D3*
G1X7775Y8005D3*
G54D442*
G1X7338Y7966D3*
G54D443*
G1X7764Y7966D3*
G54D444*
G1X7338Y7967D3*
G54D445*
G1X7764Y7967D3*
G1X7764Y7969D3*
G54D446*
G1X7339Y7969D3*
G54D447*
G1X7339Y7970D3*
G54D448*
G1X7763Y7970D3*
G54D449*
G1X7339Y7971D3*
G54D450*
G1X7764Y7971D3*
G54D451*
G1X7763Y7973D3*
G54D452*
G1X7340Y7974D3*
G54D453*
G1X7764Y7974D3*
G54D454*
G1X7389Y8092D3*
G1X7387Y8091D3*
G1X7340Y7976D3*
G54D455*
G1X7764Y7976D3*
G1X7772Y7999D3*
G54D456*
G1X7340Y7977D3*
G54D457*
G1X7764Y7977D3*
G54D458*
G1X7764Y7978D3*
G54D459*
G1X7341Y7980D3*
G54D460*
G1X7764Y7980D3*
G54D461*
G1X7385Y8088D3*
G1X7342Y7981D3*
G54D462*
G1X7765Y7981D3*
G54D463*
G1X7386Y8090D3*
G1X7342Y7983D3*
G54D464*
G1X7765Y7983D3*
G1X7769Y7994D3*
G54D465*
G1X7342Y7984D3*
G54D466*
G1X7765Y7984D3*
G54D467*
G1X7342Y7985D3*
G54D468*
G1X7766Y7985D3*
G1X7767Y7990D3*
G54D469*
G1X7342Y7987D3*
G54D470*
G1X7766Y7987D3*
G54D471*
G1X7767Y7988D3*
G1X7770Y7995D3*
G54D472*
G1X7343Y7990D3*
G54D473*
G1X7768Y7991D3*
G1X7771Y7997D3*
G54D474*
G1X7344Y7992D3*
G54D475*
G1X7769Y7992D3*
G54D476*
G1X7380Y8081D3*
G1X7344Y7994D3*
G54D477*
G1X7345Y7995D3*
G1X7345Y7997D3*
G1X7380Y8080D3*
G54D478*
G1X7346Y7998D3*
G54D479*
G1X7771Y7998D3*
G54D480*
G1X7346Y7999D3*
G1X7346Y8001D3*
G54D481*
G1X7773Y8001D3*
G54D482*
G1X7374Y8070D3*
G1X7348Y8006D3*
G1X7346Y8002D3*
G54D483*
G1X7773Y8002D3*
G54D484*
G1X8229Y8002D3*
G54D485*
G1X7347Y8003D3*
G54D486*
G1X7775Y8003D3*
G54D487*
G1X7374Y8072D3*
G1X7348Y8008D3*
G1X7348Y8005D3*
G54D488*
G1X7775Y8006D3*
G54D489*
G1X7777Y8008D3*
G54D490*
G1X7372Y8067D3*
G1X7350Y8013D3*
G1X7349Y8009D3*
G54D491*
G1X8178Y8009D3*
G54D492*
G1X7372Y8066D3*
G1X7350Y8015D3*
G1X7349Y8010D3*
G54D493*
G1X7350Y8012D3*
G1X7374Y8069D3*
G54D494*
G1X7370Y8063D3*
G1X7369Y8061D3*
G1X7366Y8055D3*
G1X7352Y8020D3*
G1X7351Y8016D3*
G54D495*
G1X7351Y8017D3*
G1X7367Y8058D3*
G54D496*
G1X7352Y8019D3*
G54D497*
G1X7353Y8022D3*
G1X7354Y8026D3*
G1X7357Y8034D3*
G54D498*
G1X7357Y8033D3*
G1X7358Y8037D3*
G1X7361Y8044D3*
G1X7362Y8048D3*
G1X7354Y8027D3*
G1X7353Y8023D3*
G54D499*
G1X7353Y8024D3*
G54D500*
G1X7355Y8029D3*
G1X7355Y8031D3*
G1X7360Y8040D3*
G1X7365Y8052D3*
G1X7368Y8059D3*
G54D501*
G1X7355Y8030D3*
G54D502*
G1X7358Y8035D3*
G54D503*
G1X7359Y8038D3*
G1X7360Y8042D3*
G1X7362Y8045D3*
G54D504*
G1X7360Y8041D3*
G1X7364Y8051D3*
G54D505*
G1X7362Y8047D3*
G1X7367Y8056D3*
G54D506*
G1X7370Y8062D3*
G54D507*
G1X7371Y8065D3*
G54D508*
G1X7376Y8074D3*
G54D509*
G1X7378Y8076D3*
G54D510*
G1X7378Y8077D3*
G54D511*
G1X7379Y8079D3*
G54D512*
G1X7382Y8083D3*
G54D513*
G1X7383Y8084D3*
G54D514*
G1X7384Y8086D3*
G54D515*
G1X7384Y8087D3*
G54D516*
G1X7390Y8094D3*
G54D517*
G1X7392Y8097D3*
G54D518*
G1X7392Y8098D3*
G54D519*
G1X7397Y8102D3*
G54D520*
G1X7399Y8105D3*
G54D521*
G1X7409Y8115D3*
G54D522*
G1X7413Y8118D3*
G54D523*
G1X7417Y8120D3*
G54D524*
G1X7421Y8123D3*
G54D525*
G1X7426Y8126D3*
G54D526*
G1X7432Y8129D3*
G54D527*
G1X7437Y8130D3*
G54D528*
G1X7442Y8131D3*
G54D529*
G1X7856Y8133D3*
G1X7869Y8155D3*
G54D530*
G1X7862Y8143D3*
G1X7860Y8138D3*
G1X7858Y8134D3*
G54D531*
G1X7859Y8136D3*
G1X7863Y8144D3*
G54D532*
G1X7859Y8137D3*
G54D533*
G1X7860Y8140D3*
G54D534*
G1X7862Y8141D3*
G54D535*
G1X7863Y8145D3*
G54D536*
G1X7864Y8147D3*
G54D537*
G1X7865Y8148D3*
G54D538*
G1X7865Y8150D3*
G54D539*
G1X7867Y8151D3*
G54D540*
G1X7867Y8152D3*
G54D541*
G1X7867Y8154D3*
G54D542*
G1X7869Y8156D3*
G54D543*
G1X7870Y8158D3*
G54D544*
G1X7871Y8159D3*
G1X7872Y8161D3*
G54D545*
G1X7873Y8162D3*
G54D546*
G1X7873Y8163D3*
G54D547*
G1X7874Y8165D3*
G54D548*
G1X7875Y8166D3*
G54D549*
G1X7876Y8168D3*
G54D550*
G1X7877Y8169D3*
G54D551*
G1X7877Y8170D3*
G54D552*
G1X7878Y8172D3*
G54D553*
G1X7879Y8173D3*
G54D554*
G1X7880Y8175D3*
G54D555*
G1X7881Y8176D3*
G54D556*
G1X7882Y8177D3*
G54D557*
G1X7883Y8179D3*
G54D558*
G1X7884Y8180D3*
G54D559*
G1X7885Y8182D3*
G54D560*
G1X7886Y8183D3*
G54D561*
G1X7887Y8184D3*
G54D562*
G1X7888Y8186D3*
G54D563*
G1X7889Y8187D3*
G1X7890Y8188D3*
G54D564*
G1X7892Y8190D3*
G54D565*
G1X7892Y8191D3*
G54D566*
G1X7894Y8193D3*
G54D567*
G1X7894Y8194D3*
G54D568*
G1X7896Y8195D3*
G54D569*
G1X7897Y8197D3*
G54D570*
G1X7899Y8198D3*
G54D571*
G1X7900Y8200D3*
G54D572*
G1X7901Y8201D3*
G54D573*
G1X7903Y8202D3*
G54D574*
G1X7904Y8204D3*
G54D575*
G1X7906Y8205D3*
G54D576*
G1X7907Y8207D3*
G54D577*
G1X7908Y8208D3*
G54D578*
G1X7910Y8209D3*
G54D579*
G1X7911Y8211D3*
G54D580*
G1X7913Y8212D3*
G54D581*
G1X7915Y8213D3*
G54D582*
G1X7917Y8215D3*
G54D583*
G1X7919Y8216D3*
G54D584*
G1X7921Y8218D3*
G54D585*
G1X7923Y8219D3*
G54D586*
G1X7925Y8220D3*
G54D587*
G1X7927Y8222D3*
G54D588*
G1X7928Y8223D3*
G54D589*
G1X7932Y8225D3*
G54D590*
G1X7935Y8226D3*
G54D591*
G1X7939Y8227D3*
G54D10*
G36*
G1X6629Y8759D2*
G1X6629Y8757D1*
G1X6629Y8756D1*
G1X6630Y8754D1*
G1X6630Y8753D1*
G1X6630Y8751D1*
G1X6631Y8750D1*
G1X6631Y8748D1*
G1X6631Y8747D1*
G1X6632Y8746D1*
G1X6632Y8744D1*
G1X6633Y8743D1*
G1X6633Y8742D1*
G1X6634Y8740D1*
G1X6634Y8739D1*
G1X6635Y8738D1*
G1X6635Y8737D1*
G1X6636Y8735D1*
G1X6637Y8734D1*
G1X6637Y8733D1*
G1X6638Y8732D1*
G1X6639Y8732D1*
G1X6639Y8731D1*
G1X6640Y8730D1*
G1X6641Y8729D1*
G1X6642Y8728D1*
G1X6642Y8727D1*
G1X6643Y8726D1*
G1X6644Y8725D1*
G1X6645Y8725D1*
G1X6646Y8724D1*
G1X6647Y8723D1*
G1X6648Y8722D1*
G1X6650Y8721D1*
G1X6651Y8720D1*
G1X6652Y8720D1*
G1X6653Y8719D1*
G1X6655Y8718D1*
G1X6656Y8717D1*
G1X6658Y8717D1*
G1X6658Y8716D1*
G1X6659Y8715D1*
G1X6661Y8715D1*
G1X6662Y8714D1*
G1X6664Y8714D1*
G1X6665Y8713D1*
G1X6667Y8713D1*
G1X6668Y8713D1*
G1X6670Y8712D1*
G1X6671Y8712D1*
G1X6673Y8712D1*
G1X6675Y8711D1*
G1X6676Y8711D1*
G1X6678Y8711D1*
G1X6680Y8711D1*
G1X6681Y8710D1*
G1X6683Y8710D1*
G1X6685Y8710D1*
G1X6686Y8710D1*
G1X6688Y8710D1*
G1X6690Y8710D1*
G1X6692Y8710D1*
G1X6693Y8710D1*
G1X6695Y8710D1*
G1X6696Y8710D1*
G1X6698Y8710D1*
G1X6699Y8710D1*
G1X6701Y8711D1*
G1X6702Y8711D1*
G1X6704Y8711D1*
G1X6705Y8711D1*
G1X6706Y8712D1*
G1X6708Y8712D1*
G1X6709Y8712D1*
G1X6711Y8713D1*
G1X6712Y8713D1*
G1X6713Y8714D1*
G1X6715Y8714D1*
G1X6716Y8715D1*
G1X6717Y8715D1*
G1X6718Y8716D1*
G1X6719Y8716D1*
G1X6720Y8717D1*
G1X6722Y8717D1*
G1X6723Y8718D1*
G1X6724Y8718D1*
G1X6725Y8719D1*
G1X6726Y8719D1*
G1X6727Y8720D1*
G1X6727Y8721D1*
G1X6728Y8721D1*
G1X6729Y8722D1*
G1X6730Y8723D1*
G1X6731Y8723D1*
G1X6732Y8724D1*
G1X6732Y8725D1*
G1X6733Y8726D1*
G1X6734Y8726D1*
G1X6734Y8727D1*
G1X6735Y8728D1*
G1X6736Y8729D1*
G1X6736Y8730D1*
G1X6737Y8731D1*
G1X6737Y8732D1*
G1X6738Y8732D1*
G1X6738Y8733D1*
G1X6739Y8734D1*
G1X6739Y8735D1*
G1X6739Y8736D1*
G1X6740Y8737D1*
G1X6740Y8738D1*
G1X6740Y8739D1*
G1X6740Y8740D1*
G1X6741Y8741D1*
G1X6741Y8742D1*
G1X6741Y8743D1*
G1X6741Y8744D1*
G1X6741Y8745D1*
G1X6741Y8746D1*
G1X6741Y8747D1*
G1X6741Y8748D1*
G1X6741Y8749D1*
G1X6741Y8750D1*
G1X6741Y8751D1*
G1X6740Y8752D1*
G1X6740Y8753D1*
G1X6740Y8754D1*
G1X6739Y8755D1*
G1X6739Y8756D1*
G1X6739Y8757D1*
G1X6738Y8758D1*
G1X6738Y8759D1*
G1X6737Y8760D1*
G1X6737Y8761D1*
G1X6736Y8762D1*
G1X6735Y8763D1*
G1X6734Y8764D1*
G1X6734Y8765D1*
G1X6733Y8765D1*
G1X6733Y8766D1*
G1X6732Y8767D1*
G1X6731Y8768D1*
G1X6730Y8769D1*
G1X6729Y8770D1*
G1X6728Y8770D1*
G1X6727Y8771D1*
G1X6726Y8772D1*
G1X6725Y8772D1*
G1X6724Y8773D1*
G1X6723Y8773D1*
G1X6722Y8774D1*
G1X6721Y8774D1*
G1X6720Y8775D1*
G1X6718Y8775D1*
G1X6717Y8776D1*
G1X6716Y8776D1*
G1X6715Y8777D1*
G1X6714Y8777D1*
G1X6713Y8777D1*
G1X6711Y8778D1*
G1X6710Y8778D1*
G1X6709Y8779D1*
G1X6708Y8779D1*
G1X6706Y8780D1*
G1X6704Y8780D1*
G1X6702Y8781D1*
G1X6700Y8781D1*
G1X6698Y8782D1*
G1X6696Y8782D1*
G1X6694Y8783D1*
G1X6691Y8783D1*
G1X6689Y8783D1*
G1X6686Y8784D1*
G1X6684Y8784D1*
G1X6681Y8785D1*
G1X6678Y8786D1*
G1X6675Y8787D1*
G1X6673Y8787D1*
G1X6670Y8788D1*
G1X6668Y8789D1*
G1X6665Y8790D1*
G1X6663Y8790D1*
G1X6661Y8791D1*
G1X6658Y8792D1*
G1X6657Y8793D1*
G1X6655Y8793D1*
G1X6653Y8794D1*
G1X6651Y8795D1*
G1X6650Y8795D1*
G1X6648Y8796D1*
G1X6646Y8797D1*
G1X6645Y8797D1*
G1X6644Y8798D1*
G1X6642Y8798D1*
G1X6641Y8799D1*
G1X6639Y8800D1*
G1X6638Y8801D1*
G1X6636Y8801D1*
G1X6635Y8802D1*
G1X6634Y8803D1*
G1X6632Y8804D1*
G1X6631Y8805D1*
G1X6630Y8806D1*
G1X6628Y8807D1*
G1X6627Y8808D1*
G1X6626Y8809D1*
G1X6625Y8810D1*
G1X6624Y8811D1*
G1X6623Y8812D1*
G1X6622Y8813D1*
G1X6621Y8814D1*
G1X6620Y8815D1*
G1X6619Y8817D1*
G1X6619Y8818D1*
G1X6618Y8819D1*
G1X6617Y8820D1*
G1X6616Y8821D1*
G1X6616Y8823D1*
G1X6615Y8824D1*
G1X6615Y8825D1*
G1X6614Y8826D1*
G1X6613Y8828D1*
G1X6613Y8829D1*
G1X6612Y8830D1*
G1X6612Y8832D1*
G1X6612Y8833D1*
G1X6611Y8834D1*
G1X6611Y8835D1*
G1X6611Y8836D1*
G1X6611Y8838D1*
G1X6610Y8839D1*
G1X6610Y8841D1*
G1X6610Y8842D1*
G1X6610Y8844D1*
G1X6610Y8845D1*
G1X6610Y8847D1*
G1X6610Y8848D1*
G1X6610Y8850D1*
G1X6610Y8851D1*
G1X6611Y8853D1*
G1X6611Y8854D1*
G1X6611Y8856D1*
G1X6611Y8857D1*
G1X6612Y8859D1*
G1X6612Y8860D1*
G1X6613Y8862D1*
G1X6613Y8863D1*
G1X6614Y8865D1*
G1X6614Y8866D1*
G1X6615Y8868D1*
G1X6616Y8869D1*
G1X6617Y8871D1*
G1X6617Y8872D1*
G1X6618Y8874D1*
G1X6619Y8875D1*
G1X6620Y8876D1*
G1X6621Y8878D1*
G1X6622Y8879D1*
G1X6623Y8880D1*
G1X6624Y8882D1*
G1X6625Y8883D1*
G1X6626Y8884D1*
G1X6628Y8885D1*
G1X6629Y8885D1*
G1X6630Y8887D1*
G1X6632Y8888D1*
G1X6633Y8889D1*
G1X6635Y8890D1*
G1X6636Y8891D1*
G1X6638Y8892D1*
G1X6639Y8893D1*
G1X6641Y8893D1*
G1X6642Y8894D1*
G1X6644Y8895D1*
G1X6646Y8896D1*
G1X6648Y8897D1*
G1X6650Y8897D1*
G1X6651Y8898D1*
G1X6653Y8899D1*
G1X6655Y8899D1*
G1X6657Y8900D1*
G1X6658Y8900D1*
G1X6660Y8900D1*
G1X6662Y8901D1*
G1X6664Y8901D1*
G1X6666Y8902D1*
G1X6668Y8902D1*
G1X6670Y8902D1*
G1X6672Y8902D1*
G1X6674Y8903D1*
G1X6676Y8903D1*
G1X6678Y8903D1*
G1X6680Y8903D1*
G1X6682Y8903D1*
G1X6684Y8903D1*
G1X6686Y8903D1*
G1X6689Y8903D1*
G1X6691Y8903D1*
G1X6693Y8903D1*
G1X6696Y8903D1*
G1X6698Y8902D1*
G1X6700Y8902D1*
G1X6702Y8902D1*
G1X6704Y8901D1*
G1X6707Y8901D1*
G1X6709Y8901D1*
G1X6710Y8900D1*
G1X6712Y8900D1*
G1X6714Y8899D1*
G1X6716Y8899D1*
G1X6718Y8898D1*
G1X6719Y8897D1*
G1X6721Y8897D1*
G1X6723Y8896D1*
G1X6725Y8895D1*
G1X6727Y8894D1*
G1X6729Y8894D1*
G1X6730Y8893D1*
G1X6732Y8892D1*
G1X6734Y8891D1*
G1X6735Y8890D1*
G1X6737Y8889D1*
G1X6739Y8888D1*
G1X6740Y8887D1*
G1X6741Y8886D1*
G1X6743Y8885D1*
G1X6744Y8885D1*
G1X6745Y8884D1*
G1X6747Y8882D1*
G1X6748Y8881D1*
G1X6749Y8880D1*
G1X6750Y8878D1*
G1X6751Y8877D1*
G1X6752Y8875D1*
G1X6753Y8874D1*
G1X6754Y8872D1*
G1X6755Y8871D1*
G1X6756Y8869D1*
G1X6757Y8868D1*
G1X6757Y8866D1*
G1X6758Y8865D1*
G1X6759Y8863D1*
G1X6760Y8861D1*
G1X6760Y8860D1*
G1X6760Y8858D1*
G1X6760Y8856D1*
G1X6761Y8855D1*
G1X6761Y8853D1*
G1X6762Y8851D1*
G1X6762Y8849D1*
G1X6762Y8847D1*
G1X6762Y8846D1*
G1X6763Y8844D1*
G1X6763Y8842D1*
G1X6763Y8840D1*
G1X6735Y8839D1*
G1X6735Y8841D1*
G1X6735Y8843D1*
G1X6734Y8845D1*
G1X6734Y8847D1*
G1X6733Y8848D1*
G1X6733Y8850D1*
G1X6732Y8852D1*
G1X6732Y8853D1*
G1X6731Y8855D1*
G1X6730Y8856D1*
G1X6730Y8858D1*
G1X6729Y8859D1*
G1X6728Y8861D1*
G1X6727Y8862D1*
G1X6726Y8863D1*
G1X6725Y8865D1*
G1X6724Y8866D1*
G1X6723Y8867D1*
G1X6722Y8868D1*
G1X6721Y8869D1*
G1X6720Y8870D1*
G1X6718Y8871D1*
G1X6717Y8872D1*
G1X6715Y8873D1*
G1X6714Y8873D1*
G1X6712Y8874D1*
G1X6711Y8875D1*
G1X6709Y8875D1*
G1X6708Y8876D1*
G1X6707Y8877D1*
G1X6705Y8877D1*
G1X6703Y8877D1*
G1X6701Y8878D1*
G1X6699Y8878D1*
G1X6697Y8878D1*
G1X6695Y8879D1*
G1X6693Y8879D1*
G1X6690Y8879D1*
G1X6688Y8879D1*
G1X6686Y8879D1*
G1X6684Y8879D1*
G1X6681Y8879D1*
G1X6679Y8879D1*
G1X6677Y8879D1*
G1X6674Y8878D1*
G1X6672Y8878D1*
G1X6670Y8878D1*
G1X6668Y8878D1*
G1X6666Y8877D1*
G1X6664Y8877D1*
G1X6662Y8876D1*
G1X6661Y8876D1*
G1X6659Y8875D1*
G1X6658Y8875D1*
G1X6657Y8874D1*
G1X6655Y8873D1*
G1X6654Y8872D1*
G1X6653Y8872D1*
G1X6651Y8871D1*
G1X6650Y8870D1*
G1X6649Y8869D1*
G1X6648Y8868D1*
G1X6647Y8867D1*
G1X6646Y8866D1*
G1X6645Y8865D1*
G1X6644Y8864D1*
G1X6644Y8863D1*
G1X6643Y8862D1*
G1X6642Y8860D1*
G1X6642Y8859D1*
G1X6641Y8858D1*
G1X6641Y8857D1*
G1X6640Y8856D1*
G1X6640Y8855D1*
G1X6640Y8853D1*
G1X6639Y8852D1*
G1X6639Y8851D1*
G1X6639Y8850D1*
G1X6639Y8848D1*
G1X6639Y8847D1*
G1X6639Y8846D1*
G1X6639Y8845D1*
G1X6639Y8844D1*
G1X6639Y8842D1*
G1X6640Y8841D1*
G1X6640Y8840D1*
G1X6640Y8839D1*
G1X6640Y8838D1*
G1X6641Y8837D1*
G1X6641Y8836D1*
G1X6641Y8835D1*
G1X6642Y8834D1*
G1X6643Y8834D1*
G1X6644Y8833D1*
G1X6644Y8832D1*
G1X6645Y8831D1*
G1X6645Y8830D1*
G1X6646Y8830D1*
G1X6647Y8829D1*
G1X6648Y8828D1*
G1X6649Y8827D1*
G1X6650Y8827D1*
G1X6651Y8826D1*
G1X6653Y8825D1*
G1X6654Y8824D1*
G1X6656Y8823D1*
G1X6657Y8823D1*
G1X6658Y8822D1*
G1X6660Y8821D1*
G1X6662Y8820D1*
G1X6665Y8819D1*
G1X6667Y8819D1*
G1X6669Y8818D1*
G1X6672Y8817D1*
G1X6675Y8816D1*
G1X6678Y8815D1*
G1X6681Y8815D1*
G1X6684Y8814D1*
G1X6687Y8813D1*
G1X6690Y8812D1*
G1X6694Y8811D1*
G1X6697Y8811D1*
G1X6700Y8810D1*
G1X6703Y8809D1*
G1X6706Y8808D1*
G1X6708Y8808D1*
G1X6710Y8807D1*
G1X6712Y8806D1*
G1X6715Y8806D1*
G1X6717Y8805D1*
G1X6719Y8804D1*
G1X6721Y8804D1*
G1X6723Y8803D1*
G1X6725Y8803D1*
G1X6727Y8802D1*
G1X6729Y8802D1*
G1X6730Y8801D1*
G1X6732Y8801D1*
G1X6733Y8800D1*
G1X6735Y8799D1*
G1X6737Y8798D1*
G1X6738Y8797D1*
G1X6740Y8796D1*
G1X6742Y8795D1*
G1X6743Y8794D1*
G1X6745Y8793D1*
G1X6747Y8792D1*
G1X6748Y8791D1*
G1X6749Y8790D1*
G1X6751Y8789D1*
G1X6752Y8788D1*
G1X6753Y8787D1*
G1X6755Y8785D1*
G1X6756Y8784D1*
G1X6757Y8783D1*
G1X6758Y8783D1*
G1X6759Y8782D1*
G1X6760Y8780D1*
G1X6760Y8779D1*
G1X6761Y8778D1*
G1X6762Y8776D1*
G1X6762Y8775D1*
G1X6763Y8773D1*
G1X6764Y8772D1*
G1X6765Y8770D1*
G1X6765Y8769D1*
G1X6766Y8767D1*
G1X6766Y8766D1*
G1X6767Y8764D1*
G1X6767Y8763D1*
G1X6768Y8761D1*
G1X6768Y8760D1*
G1X6768Y8758D1*
G1X6768Y8756D1*
G1X6769Y8755D1*
G1X6769Y8753D1*
G1X6769Y8751D1*
G1X6769Y8750D1*
G1X6769Y8748D1*
G1X6769Y8746D1*
G1X6769Y8745D1*
G1X6769Y8743D1*
G1X6769Y8741D1*
G1X6768Y8740D1*
G1X6768Y8738D1*
G1X6768Y8736D1*
G1X6767Y8735D1*
G1X6767Y8733D1*
G1X6767Y8732D1*
G1X6766Y8731D1*
G1X6765Y8729D1*
G1X6765Y8728D1*
G1X6764Y8726D1*
G1X6763Y8725D1*
G1X6763Y8723D1*
G1X6762Y8722D1*
G1X6761Y8720D1*
G1X6760Y8719D1*
G1X6760Y8717D1*
G1X6759Y8716D1*
G1X6758Y8714D1*
G1X6757Y8713D1*
G1X6756Y8711D1*
G1X6755Y8710D1*
G1X6753Y8709D1*
G1X6752Y8707D1*
G1X6751Y8706D1*
G1X6749Y8705D1*
G1X6748Y8704D1*
G1X6747Y8702D1*
G1X6745Y8701D1*
G1X6744Y8700D1*
G1X6742Y8699D1*
G1X6741Y8698D1*
G1X6739Y8697D1*
G1X6737Y8696D1*
G1X6736Y8695D1*
G1X6734Y8694D1*
G1X6732Y8693D1*
G1X6730Y8692D1*
G1X6728Y8691D1*
G1X6726Y8691D1*
G1X6725Y8690D1*
G1X6723Y8690D1*
G1X6721Y8689D1*
G1X6719Y8688D1*
G1X6717Y8688D1*
G1X6715Y8688D1*
G1X6713Y8688D1*
G1X6711Y8688D1*
G1X6709Y8687D1*
G1X6707Y8687D1*
G1X6705Y8687D1*
G1X6703Y8686D1*
G1X6701Y8686D1*
G1X6699Y8686D1*
G1X6697Y8686D1*
G1X6694Y8686D1*
G1X6692Y8686D1*
G1X6689Y8686D1*
G1X6686Y8686D1*
G1X6684Y8686D1*
G1X6681Y8686D1*
G1X6678Y8687D1*
G1X6675Y8687D1*
G1X6673Y8687D1*
G1X6670Y8687D1*
G1X6668Y8688D1*
G1X6665Y8688D1*
G1X6663Y8688D1*
G1X6660Y8688D1*
G1X6658Y8689D1*
G1X6657Y8689D1*
G1X6655Y8690D1*
G1X6652Y8691D1*
G1X6650Y8692D1*
G1X6648Y8692D1*
G1X6646Y8693D1*
G1X6644Y8694D1*
G1X6642Y8695D1*
G1X6640Y8696D1*
G1X6638Y8697D1*
G1X6637Y8698D1*
G1X6635Y8699D1*
G1X6633Y8700D1*
G1X6632Y8701D1*
G1X6630Y8702D1*
G1X6629Y8703D1*
G1X6627Y8704D1*
G1X6626Y8706D1*
G1X6624Y8707D1*
G1X6623Y8708D1*
G1X6621Y8710D1*
G1X6620Y8711D1*
G1X6619Y8713D1*
G1X6617Y8714D1*
G1X6616Y8716D1*
G1X6615Y8717D1*
G1X6614Y8719D1*
G1X6613Y8721D1*
G1X6612Y8722D1*
G1X6611Y8724D1*
G1X6610Y8726D1*
G1X6609Y8728D1*
G1X6608Y8730D1*
G1X6608Y8732D1*
G1X6607Y8732D1*
G1X6607Y8734D1*
G1X6607Y8736D1*
G1X6606Y8738D1*
G1X6605Y8740D1*
G1X6605Y8742D1*
G1X6605Y8744D1*
G1X6604Y8746D1*
G1X6604Y8748D1*
G1X6604Y8751D1*
G1X6603Y8753D1*
G1X6603Y8755D1*
G1X6603Y8757D1*
G1X6629Y8759D1*
G37*
G36*
G1X6881Y8875D2*
G1X6811Y8875D1*
G1X6811Y8899D1*
G1X6979Y8899D1*
G1X6979Y8875D1*
G1X6910Y8875D1*
G1X6910Y8688D1*
G1X6881Y8688D1*
G1X6881Y8875D1*
G37*
G36*
G1X7026Y8899D2*
G1X7178Y8899D1*
G1X7178Y8875D1*
G1X7054Y8875D1*
G1X7054Y8810D1*
G1X7170Y8810D1*
G1X7170Y8785D1*
G1X7054Y8785D1*
G1X7054Y8713D1*
G1X7183Y8713D1*
G1X7183Y8688D1*
G1X7026Y8688D1*
G1X7026Y8899D1*
G37*
G36*
G1X7220Y8899D2*
G1X7250Y8899D1*
G1X7305Y8746D1*
G1X7306Y8744D1*
G1X7306Y8742D1*
G1X7307Y8740D1*
G1X7308Y8739D1*
G1X7308Y8737D1*
G1X7309Y8735D1*
G1X7310Y8733D1*
G1X7310Y8732D1*
G1X7311Y8731D1*
G1X7312Y8729D1*
G1X7312Y8727D1*
G1X7313Y8725D1*
G1X7313Y8724D1*
G1X7314Y8722D1*
G1X7314Y8720D1*
G1X7315Y8719D1*
G1X7315Y8717D1*
G1X7316Y8715D1*
G1X7316Y8714D1*
G1X7317Y8712D1*
G1X7318Y8714D1*
G1X7318Y8715D1*
G1X7319Y8717D1*
G1X7319Y8719D1*
G1X7320Y8721D1*
G1X7320Y8722D1*
G1X7321Y8724D1*
G1X7321Y8726D1*
G1X7322Y8728D1*
G1X7322Y8729D1*
G1X7323Y8731D1*
G1X7323Y8732D1*
G1X7324Y8734D1*
G1X7324Y8735D1*
G1X7325Y8737D1*
G1X7326Y8739D1*
G1X7326Y8741D1*
G1X7327Y8742D1*
G1X7327Y8744D1*
G1X7328Y8746D1*
G1X7386Y8899D1*
G1X7414Y8899D1*
G1X7332Y8688D1*
G1X7301Y8688D1*
G1X7220Y8899D1*
G37*
G36*
G1X7433Y8688D2*
G1X7463Y8688D1*
G1X7486Y8752D1*
G1X7574Y8752D1*
G1X7597Y8688D1*
G1X7629Y8688D1*
G1X7573Y8826D1*
G1X7546Y8826D1*
G1X7565Y8775D1*
G1X7493Y8775D1*
G1X7513Y8826D1*
G1X7485Y8826D1*
G1X7433Y8688D1*
G37*
G36*
G1X7485Y8826D2*
G1X7513Y8826D1*
G1X7517Y8836D1*
G1X7518Y8838D1*
G1X7518Y8840D1*
G1X7520Y8844D1*
G1X7520Y8846D1*
G1X7521Y8849D1*
G1X7522Y8851D1*
G1X7522Y8853D1*
G1X7524Y8857D1*
G1X7524Y8859D1*
G1X7525Y8861D1*
G1X7525Y8863D1*
G1X7526Y8865D1*
G1X7526Y8867D1*
G1X7527Y8869D1*
G1X7527Y8871D1*
G1X7528Y8873D1*
G1X7528Y8875D1*
G1X7529Y8877D1*
G1X7530Y8875D1*
G1X7530Y8874D1*
G1X7531Y8872D1*
G1X7531Y8870D1*
G1X7532Y8868D1*
G1X7532Y8866D1*
G1X7535Y8860D1*
G1X7535Y8857D1*
G1X7538Y8851D1*
G1X7538Y8848D1*
G1X7539Y8846D1*
G1X7539Y8843D1*
G1X7540Y8841D1*
G1X7541Y8838D1*
G1X7543Y8834D1*
G1X7546Y8826D1*
G1X7573Y8826D1*
G1X7544Y8899D1*
G1X7513Y8899D1*
G1X7485Y8826D1*
G37*
G36*
G1X7671Y8899D2*
G1X7699Y8899D1*
G1X7699Y8713D1*
G1X7803Y8713D1*
G1X7803Y8688D1*
G1X7671Y8688D1*
G1X7671Y8899D1*
G37*
G36*
G1X6392Y8488D2*
G1X6392Y8486D1*
G1X6392Y8485D1*
G1X6393Y8483D1*
G1X6393Y8482D1*
G1X6393Y8480D1*
G1X6394Y8479D1*
G1X6394Y8477D1*
G1X6394Y8476D1*
G1X6395Y8475D1*
G1X6395Y8473D1*
G1X6396Y8472D1*
G1X6396Y8471D1*
G1X6397Y8469D1*
G1X6397Y8468D1*
G1X6398Y8467D1*
G1X6398Y8466D1*
G1X6399Y8464D1*
G1X6400Y8463D1*
G1X6400Y8462D1*
G1X6401Y8461D1*
G1X6402Y8460D1*
G1X6402Y8459D1*
G1X6403Y8458D1*
G1X6404Y8457D1*
G1X6405Y8456D1*
G1X6405Y8455D1*
G1X6406Y8454D1*
G1X6407Y8453D1*
G1X6408Y8453D1*
G1X6409Y8452D1*
G1X6410Y8451D1*
G1X6411Y8450D1*
G1X6413Y8449D1*
G1X6414Y8448D1*
G1X6415Y8448D1*
G1X6416Y8447D1*
G1X6418Y8446D1*
G1X6419Y8445D1*
G1X6421Y8445D1*
G1X6422Y8444D1*
G1X6423Y8443D1*
G1X6425Y8443D1*
G1X6426Y8442D1*
G1X6428Y8442D1*
G1X6429Y8441D1*
G1X6431Y8441D1*
G1X6432Y8441D1*
G1X6434Y8441D1*
G1X6435Y8441D1*
G1X6437Y8441D1*
G1X6439Y8440D1*
G1X6440Y8440D1*
G1X6441Y8440D1*
G1X6443Y8440D1*
G1X6444Y8439D1*
G1X6446Y8439D1*
G1X6448Y8439D1*
G1X6449Y8439D1*
G1X6451Y8439D1*
G1X6453Y8439D1*
G1X6455Y8439D1*
G1X6456Y8439D1*
G1X6458Y8439D1*
G1X6459Y8439D1*
G1X6461Y8439D1*
G1X6462Y8439D1*
G1X6464Y8440D1*
G1X6465Y8440D1*
G1X6467Y8440D1*
G1X6468Y8440D1*
G1X6469Y8441D1*
G1X6471Y8441D1*
G1X6472Y8441D1*
G1X6473Y8441D1*
G1X6475Y8441D1*
G1X6476Y8441D1*
G1X6477Y8442D1*
G1X6479Y8442D1*
G1X6480Y8443D1*
G1X6481Y8443D1*
G1X6482Y8444D1*
G1X6483Y8444D1*
G1X6484Y8445D1*
G1X6486Y8445D1*
G1X6487Y8446D1*
G1X6488Y8446D1*
G1X6489Y8447D1*
G1X6490Y8447D1*
G1X6491Y8448D1*
G1X6491Y8449D1*
G1X6492Y8449D1*
G1X6492Y8450D1*
G1X6493Y8451D1*
G1X6494Y8451D1*
G1X6495Y8452D1*
G1X6495Y8453D1*
G1X6496Y8454D1*
G1X6497Y8454D1*
G1X6497Y8455D1*
G1X6498Y8456D1*
G1X6499Y8457D1*
G1X6499Y8458D1*
G1X6500Y8459D1*
G1X6500Y8460D1*
G1X6501Y8461D1*
G1X6501Y8462D1*
G1X6502Y8463D1*
G1X6502Y8464D1*
G1X6502Y8465D1*
G1X6503Y8466D1*
G1X6503Y8467D1*
G1X6503Y8468D1*
G1X6503Y8469D1*
G1X6504Y8470D1*
G1X6504Y8471D1*
G1X6504Y8472D1*
G1X6504Y8473D1*
G1X6504Y8474D1*
G1X6504Y8475D1*
G1X6504Y8476D1*
G1X6504Y8477D1*
G1X6504Y8478D1*
G1X6504Y8479D1*
G1X6504Y8480D1*
G1X6503Y8481D1*
G1X6503Y8482D1*
G1X6503Y8483D1*
G1X6502Y8484D1*
G1X6502Y8485D1*
G1X6502Y8486D1*
G1X6501Y8487D1*
G1X6501Y8488D1*
G1X6500Y8489D1*
G1X6500Y8490D1*
G1X6499Y8491D1*
G1X6498Y8492D1*
G1X6497Y8492D1*
G1X6497Y8493D1*
G1X6496Y8493D1*
G1X6496Y8494D1*
G1X6495Y8495D1*
G1X6494Y8496D1*
G1X6493Y8497D1*
G1X6492Y8498D1*
G1X6491Y8499D1*
G1X6490Y8500D1*
G1X6489Y8500D1*
G1X6488Y8501D1*
G1X6487Y8501D1*
G1X6486Y8502D1*
G1X6485Y8502D1*
G1X6484Y8503D1*
G1X6482Y8503D1*
G1X6481Y8504D1*
G1X6480Y8504D1*
G1X6479Y8505D1*
G1X6478Y8505D1*
G1X6477Y8505D1*
G1X6475Y8506D1*
G1X6474Y8506D1*
G1X6472Y8507D1*
G1X6471Y8507D1*
G1X6469Y8508D1*
G1X6467Y8508D1*
G1X6465Y8509D1*
G1X6463Y8509D1*
G1X6461Y8510D1*
G1X6459Y8510D1*
G1X6457Y8511D1*
G1X6454Y8511D1*
G1X6452Y8512D1*
G1X6449Y8513D1*
G1X6447Y8513D1*
G1X6444Y8514D1*
G1X6441Y8515D1*
G1X6439Y8516D1*
G1X6437Y8516D1*
G1X6434Y8517D1*
G1X6432Y8518D1*
G1X6429Y8519D1*
G1X6427Y8519D1*
G1X6425Y8520D1*
G1X6422Y8521D1*
G1X6420Y8522D1*
G1X6418Y8522D1*
G1X6416Y8523D1*
G1X6414Y8524D1*
G1X6413Y8524D1*
G1X6411Y8525D1*
G1X6409Y8526D1*
G1X6408Y8526D1*
G1X6407Y8527D1*
G1X6405Y8527D1*
G1X6404Y8528D1*
G1X6402Y8529D1*
G1X6401Y8530D1*
G1X6399Y8530D1*
G1X6398Y8531D1*
G1X6397Y8532D1*
G1X6395Y8533D1*
G1X6394Y8534D1*
G1X6393Y8535D1*
G1X6391Y8536D1*
G1X6390Y8537D1*
G1X6390Y8538D1*
G1X6389Y8539D1*
G1X6388Y8540D1*
G1X6387Y8541D1*
G1X6386Y8542D1*
G1X6385Y8543D1*
G1X6384Y8543D1*
G1X6383Y8545D1*
G1X6383Y8546D1*
G1X6382Y8547D1*
G1X6381Y8548D1*
G1X6380Y8549D1*
G1X6380Y8551D1*
G1X6379Y8552D1*
G1X6379Y8553D1*
G1X6378Y8554D1*
G1X6377Y8556D1*
G1X6377Y8557D1*
G1X6376Y8558D1*
G1X6376Y8560D1*
G1X6376Y8561D1*
G1X6375Y8562D1*
G1X6375Y8564D1*
G1X6375Y8565D1*
G1X6375Y8567D1*
G1X6374Y8568D1*
G1X6374Y8570D1*
G1X6374Y8571D1*
G1X6374Y8573D1*
G1X6374Y8574D1*
G1X6374Y8576D1*
G1X6374Y8577D1*
G1X6374Y8579D1*
G1X6374Y8580D1*
G1X6375Y8582D1*
G1X6375Y8583D1*
G1X6375Y8585D1*
G1X6375Y8586D1*
G1X6376Y8588D1*
G1X6376Y8589D1*
G1X6377Y8591D1*
G1X6377Y8592D1*
G1X6378Y8594D1*
G1X6379Y8596D1*
G1X6380Y8597D1*
G1X6381Y8599D1*
G1X6381Y8600D1*
G1X6382Y8602D1*
G1X6383Y8603D1*
G1X6384Y8604D1*
G1X6385Y8606D1*
G1X6386Y8607D1*
G1X6387Y8608D1*
G1X6388Y8610D1*
G1X6389Y8611D1*
G1X6390Y8612D1*
G1X6391Y8613D1*
G1X6392Y8614D1*
G1X6393Y8616D1*
G1X6395Y8617D1*
G1X6396Y8618D1*
G1X6398Y8619D1*
G1X6399Y8620D1*
G1X6401Y8621D1*
G1X6402Y8622D1*
G1X6404Y8622D1*
G1X6405Y8623D1*
G1X6407Y8624D1*
G1X6409Y8625D1*
G1X6411Y8626D1*
G1X6413Y8626D1*
G1X6414Y8627D1*
G1X6416Y8628D1*
G1X6418Y8628D1*
G1X6420Y8629D1*
G1X6422Y8629D1*
G1X6424Y8629D1*
G1X6426Y8630D1*
G1X6428Y8630D1*
G1X6430Y8631D1*
G1X6432Y8631D1*
G1X6434Y8631D1*
G1X6436Y8631D1*
G1X6438Y8632D1*
G1X6440Y8632D1*
G1X6441Y8632D1*
G1X6443Y8632D1*
G1X6445Y8632D1*
G1X6447Y8632D1*
G1X6449Y8632D1*
G1X6452Y8632D1*
G1X6454Y8632D1*
G1X6456Y8632D1*
G1X6459Y8632D1*
G1X6461Y8631D1*
G1X6463Y8631D1*
G1X6465Y8631D1*
G1X6467Y8630D1*
G1X6470Y8630D1*
G1X6472Y8630D1*
G1X6474Y8629D1*
G1X6476Y8629D1*
G1X6478Y8628D1*
G1X6480Y8628D1*
G1X6482Y8627D1*
G1X6483Y8626D1*
G1X6485Y8626D1*
G1X6487Y8625D1*
G1X6489Y8624D1*
G1X6491Y8623D1*
G1X6492Y8623D1*
G1X6493Y8622D1*
G1X6495Y8621D1*
G1X6497Y8620D1*
G1X6498Y8619D1*
G1X6500Y8618D1*
G1X6502Y8617D1*
G1X6503Y8616D1*
G1X6504Y8615D1*
G1X6506Y8614D1*
G1X6507Y8613D1*
G1X6508Y8612D1*
G1X6510Y8610D1*
G1X6511Y8609D1*
G1X6512Y8608D1*
G1X6513Y8606D1*
G1X6514Y8605D1*
G1X6515Y8603D1*
G1X6516Y8602D1*
G1X6517Y8600D1*
G1X6518Y8599D1*
G1X6519Y8597D1*
G1X6520Y8596D1*
G1X6520Y8594D1*
G1X6521Y8594D1*
G1X6522Y8592D1*
G1X6523Y8590D1*
G1X6523Y8589D1*
G1X6524Y8587D1*
G1X6524Y8585D1*
G1X6525Y8584D1*
G1X6525Y8582D1*
G1X6526Y8580D1*
G1X6526Y8578D1*
G1X6526Y8576D1*
G1X6526Y8575D1*
G1X6527Y8573D1*
G1X6527Y8571D1*
G1X6527Y8569D1*
G1X6498Y8568D1*
G1X6498Y8570D1*
G1X6498Y8572D1*
G1X6497Y8574D1*
G1X6497Y8576D1*
G1X6496Y8577D1*
G1X6496Y8579D1*
G1X6495Y8581D1*
G1X6495Y8582D1*
G1X6494Y8584D1*
G1X6493Y8585D1*
G1X6493Y8587D1*
G1X6492Y8588D1*
G1X6492Y8590D1*
G1X6491Y8591D1*
G1X6490Y8592D1*
G1X6489Y8594D1*
G1X6488Y8594D1*
G1X6487Y8595D1*
G1X6486Y8596D1*
G1X6485Y8597D1*
G1X6484Y8598D1*
G1X6482Y8599D1*
G1X6481Y8600D1*
G1X6479Y8601D1*
G1X6478Y8601D1*
G1X6476Y8602D1*
G1X6475Y8603D1*
G1X6473Y8603D1*
G1X6471Y8604D1*
G1X6470Y8605D1*
G1X6468Y8605D1*
G1X6466Y8605D1*
G1X6464Y8606D1*
G1X6462Y8606D1*
G1X6460Y8606D1*
G1X6458Y8607D1*
G1X6456Y8607D1*
G1X6453Y8607D1*
G1X6451Y8607D1*
G1X6449Y8607D1*
G1X6447Y8607D1*
G1X6444Y8607D1*
G1X6442Y8607D1*
G1X6441Y8607D1*
G1X6438Y8606D1*
G1X6436Y8606D1*
G1X6434Y8606D1*
G1X6432Y8606D1*
G1X6430Y8605D1*
G1X6428Y8605D1*
G1X6426Y8604D1*
G1X6425Y8604D1*
G1X6423Y8603D1*
G1X6421Y8603D1*
G1X6420Y8602D1*
G1X6418Y8601D1*
G1X6417Y8600D1*
G1X6416Y8600D1*
G1X6414Y8599D1*
G1X6413Y8598D1*
G1X6412Y8597D1*
G1X6411Y8596D1*
G1X6410Y8595D1*
G1X6409Y8594D1*
G1X6408Y8594D1*
G1X6407Y8593D1*
G1X6407Y8592D1*
G1X6406Y8591D1*
G1X6405Y8589D1*
G1X6405Y8588D1*
G1X6404Y8587D1*
G1X6404Y8586D1*
G1X6403Y8585D1*
G1X6403Y8584D1*
G1X6403Y8582D1*
G1X6402Y8581D1*
G1X6402Y8580D1*
G1X6402Y8579D1*
G1X6402Y8577D1*
G1X6402Y8576D1*
G1X6402Y8575D1*
G1X6402Y8574D1*
G1X6402Y8573D1*
G1X6402Y8571D1*
G1X6403Y8570D1*
G1X6403Y8569D1*
G1X6403Y8568D1*
G1X6403Y8567D1*
G1X6404Y8566D1*
G1X6404Y8565D1*
G1X6404Y8564D1*
G1X6405Y8563D1*
G1X6406Y8562D1*
G1X6407Y8561D1*
G1X6407Y8560D1*
G1X6408Y8559D1*
G1X6408Y8558D1*
G1X6409Y8558D1*
G1X6410Y8557D1*
G1X6411Y8556D1*
G1X6412Y8555D1*
G1X6413Y8555D1*
G1X6414Y8554D1*
G1X6416Y8553D1*
G1X6417Y8552D1*
G1X6419Y8551D1*
G1X6420Y8551D1*
G1X6422Y8550D1*
G1X6424Y8549D1*
G1X6426Y8548D1*
G1X6429Y8547D1*
G1X6431Y8547D1*
G1X6433Y8546D1*
G1X6436Y8545D1*
G1X6439Y8544D1*
G1X6441Y8543D1*
G1X6444Y8543D1*
G1X6447Y8543D1*
G1X6450Y8542D1*
G1X6453Y8541D1*
G1X6457Y8540D1*
G1X6460Y8540D1*
G1X6463Y8539D1*
G1X6466Y8538D1*
G1X6469Y8537D1*
G1X6471Y8537D1*
G1X6474Y8536D1*
G1X6476Y8535D1*
G1X6479Y8535D1*
G1X6481Y8534D1*
G1X6483Y8533D1*
G1X6485Y8533D1*
G1X6487Y8532D1*
G1X6489Y8532D1*
G1X6491Y8531D1*
G1X6492Y8531D1*
G1X6493Y8530D1*
G1X6495Y8530D1*
G1X6496Y8529D1*
G1X6498Y8528D1*
G1X6500Y8527D1*
G1X6501Y8526D1*
G1X6503Y8525D1*
G1X6505Y8524D1*
G1X6506Y8523D1*
G1X6508Y8522D1*
G1X6510Y8521D1*
G1X6511Y8520D1*
G1X6512Y8519D1*
G1X6514Y8518D1*
G1X6515Y8517D1*
G1X6516Y8516D1*
G1X6518Y8514D1*
G1X6519Y8513D1*
G1X6520Y8512D1*
G1X6521Y8511D1*
G1X6522Y8510D1*
G1X6523Y8508D1*
G1X6524Y8507D1*
G1X6525Y8506D1*
G1X6526Y8504D1*
G1X6526Y8503D1*
G1X6527Y8501D1*
G1X6528Y8500D1*
G1X6529Y8498D1*
G1X6529Y8497D1*
G1X6530Y8495D1*
G1X6530Y8494D1*
G1X6531Y8492D1*
G1X6532Y8490D1*
G1X6532Y8489D1*
G1X6532Y8487D1*
G1X6532Y8485D1*
G1X6533Y8484D1*
G1X6533Y8482D1*
G1X6533Y8480D1*
G1X6533Y8479D1*
G1X6533Y8477D1*
G1X6533Y8475D1*
G1X6533Y8474D1*
G1X6533Y8472D1*
G1X6533Y8470D1*
G1X6532Y8469D1*
G1X6532Y8467D1*
G1X6532Y8465D1*
G1X6531Y8464D1*
G1X6531Y8462D1*
G1X6531Y8461D1*
G1X6530Y8459D1*
G1X6529Y8457D1*
G1X6529Y8456D1*
G1X6528Y8454D1*
G1X6527Y8453D1*
G1X6527Y8451D1*
G1X6526Y8450D1*
G1X6525Y8448D1*
G1X6524Y8447D1*
G1X6523Y8445D1*
G1X6522Y8444D1*
G1X6521Y8442D1*
G1X6520Y8441D1*
G1X6519Y8440D1*
G1X6518Y8439D1*
G1X6516Y8438D1*
G1X6515Y8436D1*
G1X6514Y8435D1*
G1X6512Y8434D1*
G1X6511Y8433D1*
G1X6510Y8431D1*
G1X6508Y8430D1*
G1X6507Y8429D1*
G1X6505Y8428D1*
G1X6504Y8427D1*
G1X6502Y8426D1*
G1X6500Y8425D1*
G1X6499Y8424D1*
G1X6497Y8423D1*
G1X6495Y8422D1*
G1X6493Y8421D1*
G1X6492Y8420D1*
G1X6490Y8420D1*
G1X6489Y8419D1*
G1X6487Y8419D1*
G1X6485Y8418D1*
G1X6483Y8417D1*
G1X6481Y8417D1*
G1X6479Y8417D1*
G1X6477Y8417D1*
G1X6475Y8417D1*
G1X6473Y8416D1*
G1X6470Y8416D1*
G1X6468Y8416D1*
G1X6466Y8415D1*
G1X6464Y8415D1*
G1X6462Y8415D1*
G1X6460Y8415D1*
G1X6457Y8415D1*
G1X6455Y8415D1*
G1X6452Y8415D1*
G1X6449Y8415D1*
G1X6447Y8415D1*
G1X6444Y8415D1*
G1X6441Y8416D1*
G1X6439Y8416D1*
G1X6437Y8416D1*
G1X6434Y8416D1*
G1X6432Y8417D1*
G1X6429Y8417D1*
G1X6427Y8417D1*
G1X6424Y8417D1*
G1X6422Y8418D1*
G1X6420Y8418D1*
G1X6418Y8419D1*
G1X6415Y8420D1*
G1X6413Y8421D1*
G1X6411Y8421D1*
G1X6409Y8422D1*
G1X6407Y8423D1*
G1X6405Y8424D1*
G1X6403Y8425D1*
G1X6401Y8426D1*
G1X6400Y8427D1*
G1X6398Y8428D1*
G1X6396Y8429D1*
G1X6395Y8430D1*
G1X6393Y8431D1*
G1X6392Y8432D1*
G1X6390Y8433D1*
G1X6390Y8435D1*
G1X6388Y8436D1*
G1X6387Y8437D1*
G1X6385Y8439D1*
G1X6384Y8440D1*
G1X6383Y8441D1*
G1X6381Y8442D1*
G1X6380Y8444D1*
G1X6379Y8445D1*
G1X6378Y8447D1*
G1X6377Y8449D1*
G1X6376Y8450D1*
G1X6375Y8452D1*
G1X6374Y8454D1*
G1X6373Y8456D1*
G1X6372Y8458D1*
G1X6372Y8460D1*
G1X6371Y8461D1*
G1X6370Y8463D1*
G1X6370Y8465D1*
G1X6369Y8467D1*
G1X6368Y8469D1*
G1X6368Y8471D1*
G1X6368Y8473D1*
G1X6367Y8475D1*
G1X6367Y8477D1*
G1X6367Y8480D1*
G1X6366Y8482D1*
G1X6366Y8484D1*
G1X6366Y8486D1*
G1X6392Y8488D1*
G37*
G36*
G1X6645Y8603D2*
G1X6575Y8603D1*
G1X6575Y8628D1*
G1X6743Y8628D1*
G1X6743Y8603D1*
G1X6673Y8603D1*
G1X6673Y8417D1*
G1X6645Y8417D1*
G1X6645Y8603D1*
G37*
G36*
G1X6787Y8628D2*
G1X6815Y8628D1*
G1X6815Y8441D1*
G1X6919Y8441D1*
G1X6919Y8417D1*
G1X6787Y8417D1*
G1X6787Y8628D1*
G37*
G36*
G1X7147Y8485D2*
G1X7146Y8482D1*
G1X7145Y8478D1*
G1X7144Y8475D1*
G1X7143Y8472D1*
G1X7142Y8469D1*
G1X7140Y8465D1*
G1X7139Y8462D1*
G1X7138Y8460D1*
G1X7136Y8457D1*
G1X7135Y8454D1*
G1X7133Y8451D1*
G1X7131Y8449D1*
G1X7129Y8446D1*
G1X7128Y8444D1*
G1X7126Y8441D1*
G1X7124Y8440D1*
G1X7122Y8438D1*
G1X7119Y8436D1*
G1X7117Y8434D1*
G1X7115Y8432D1*
G1X7113Y8430D1*
G1X7110Y8429D1*
G1X7108Y8427D1*
G1X7105Y8426D1*
G1X7103Y8424D1*
G1X7101Y8423D1*
G1X7098Y8422D1*
G1X7095Y8420D1*
G1X7093Y8419D1*
G1X7090Y8419D1*
G1X7087Y8418D1*
G1X7084Y8417D1*
G1X7081Y8417D1*
G1X7078Y8417D1*
G1X7075Y8416D1*
G1X7072Y8416D1*
G1X7069Y8415D1*
G1X7066Y8415D1*
G1X7062Y8415D1*
G1X7059Y8415D1*
G1X7056Y8415D1*
G1X7053Y8415D1*
G1X7050Y8415D1*
G1X7047Y8416D1*
G1X7043Y8416D1*
G1X7040Y8416D1*
G1X7037Y8417D1*
G1X7034Y8417D1*
G1X7031Y8417D1*
G1X7028Y8417D1*
G1X7025Y8418D1*
G1X7023Y8419D1*
G1X7020Y8420D1*
G1X7017Y8421D1*
G1X7015Y8422D1*
G1X7012Y8423D1*
G1X7010Y8424D1*
G1X7008Y8425D1*
G1X7005Y8427D1*
G1X7003Y8428D1*
G1X7002Y8429D1*
G1X7000Y8431D1*
G1X6998Y8432D1*
G1X6996Y8434D1*
G1X6994Y8436D1*
G1X6992Y8438D1*
G1X6990Y8439D1*
G1X6988Y8441D1*
G1X6986Y8442D1*
G1X6985Y8444D1*
G1X6983Y8446D1*
G1X6981Y8448D1*
G1X6980Y8451D1*
G1X6978Y8453D1*
G1X6977Y8455D1*
G1X6975Y8458D1*
G1X6974Y8460D1*
G1X6972Y8463D1*
G1X6971Y8465D1*
G1X6970Y8468D1*
G1X6969Y8471D1*
G1X6968Y8473D1*
G1X6967Y8476D1*
G1X6966Y8479D1*
G1X6965Y8482D1*
G1X6964Y8485D1*
G1X6964Y8487D1*
G1X6963Y8490D1*
G1X6962Y8492D1*
G1X6962Y8495D1*
G1X6961Y8498D1*
G1X6961Y8501D1*
G1X6960Y8504D1*
G1X6960Y8507D1*
G1X6960Y8510D1*
G1X6959Y8513D1*
G1X6959Y8516D1*
G1X6959Y8519D1*
G1X6959Y8522D1*
G1X6959Y8525D1*
G1X6959Y8528D1*
G1X6959Y8532D1*
G1X6959Y8535D1*
G1X6960Y8538D1*
G1X6960Y8541D1*
G1X6960Y8543D1*
G1X6961Y8546D1*
G1X6961Y8549D1*
G1X6962Y8552D1*
G1X6962Y8555D1*
G1X6963Y8558D1*
G1X6964Y8561D1*
G1X6964Y8564D1*
G1X6965Y8566D1*
G1X6966Y8569D1*
G1X6967Y8572D1*
G1X6968Y8574D1*
G1X6970Y8577D1*
G1X6971Y8579D1*
G1X6972Y8582D1*
G1X6973Y8584D1*
G1X6975Y8587D1*
G1X6976Y8589D1*
G1X6978Y8592D1*
G1X6979Y8594D1*
G1X6981Y8595D1*
G1X6982Y8597D1*
G1X6984Y8599D1*
G1X6986Y8601D1*
G1X6987Y8603D1*
G1X6989Y8605D1*
G1X6991Y8607D1*
G1X6993Y8608D1*
G1X6995Y8610D1*
G1X6997Y8612D1*
G1X6999Y8613D1*
G1X7001Y8615D1*
G1X7003Y8616D1*
G1X7005Y8618D1*
G1X7007Y8619D1*
G1X7009Y8620D1*
G1X7012Y8621D1*
G1X7014Y8623D1*
G1X7017Y8624D1*
G1X7019Y8625D1*
G1X7022Y8626D1*
G1X7024Y8627D1*
G1X7027Y8627D1*
G1X7029Y8628D1*
G1X7032Y8629D1*
G1X7035Y8629D1*
G1X7037Y8630D1*
G1X7040Y8630D1*
G1X7043Y8631D1*
G1X7045Y8631D1*
G1X7048Y8631D1*
G1X7051Y8632D1*
G1X7053Y8632D1*
G1X7055Y8632D1*
G1X7058Y8632D1*
G1X7061Y8632D1*
G1X7064Y8632D1*
G1X7067Y8632D1*
G1X7070Y8631D1*
G1X7073Y8631D1*
G1X7076Y8630D1*
G1X7079Y8630D1*
G1X7082Y8629D1*
G1X7085Y8629D1*
G1X7087Y8628D1*
G1X7090Y8627D1*
G1X7093Y8626D1*
G1X7095Y8625D1*
G1X7098Y8624D1*
G1X7100Y8622D1*
G1X7103Y8621D1*
G1X7104Y8620D1*
G1X7107Y8618D1*
G1X7109Y8617D1*
G1X7111Y8615D1*
G1X7113Y8613D1*
G1X7115Y8612D1*
G1X7117Y8610D1*
G1X7119Y8608D1*
G1X7121Y8606D1*
G1X7123Y8604D1*
G1X7125Y8602D1*
G1X7127Y8600D1*
G1X7128Y8598D1*
G1X7130Y8596D1*
G1X7131Y8594D1*
G1X7133Y8592D1*
G1X7134Y8589D1*
G1X7135Y8587D1*
G1X7137Y8584D1*
G1X7138Y8581D1*
G1X7139Y8579D1*
G1X7140Y8576D1*
G1X7141Y8573D1*
G1X7142Y8570D1*
G1X7113Y8564D1*
G1X7112Y8566D1*
G1X7112Y8568D1*
G1X7111Y8571D1*
G1X7110Y8573D1*
G1X7109Y8575D1*
G1X7108Y8577D1*
G1X7107Y8579D1*
G1X7106Y8580D1*
G1X7105Y8582D1*
G1X7104Y8584D1*
G1X7104Y8585D1*
G1X7103Y8587D1*
G1X7102Y8588D1*
G1X7100Y8590D1*
G1X7099Y8591D1*
G1X7098Y8592D1*
G1X7096Y8594D1*
G1X7095Y8594D1*
G1X7093Y8595D1*
G1X7092Y8596D1*
G1X7091Y8597D1*
G1X7089Y8598D1*
G1X7088Y8599D1*
G1X7086Y8600D1*
G1X7085Y8601D1*
G1X7083Y8602D1*
G1X7081Y8602D1*
G1X7080Y8603D1*
G1X7078Y8604D1*
G1X7076Y8604D1*
G1X7074Y8605D1*
G1X7073Y8605D1*
G1X7071Y8606D1*
G1X7069Y8606D1*
G1X7067Y8606D1*
G1X7065Y8607D1*
G1X7063Y8607D1*
G1X7061Y8607D1*
G1X7059Y8607D1*
G1X7057Y8607D1*
G1X7055Y8607D1*
G1X7053Y8607D1*
G1X7051Y8607D1*
G1X7048Y8607D1*
G1X7046Y8606D1*
G1X7044Y8606D1*
G1X7042Y8606D1*
G1X7039Y8605D1*
G1X7037Y8605D1*
G1X7035Y8604D1*
G1X7033Y8603D1*
G1X7031Y8603D1*
G1X7029Y8602D1*
G1X7027Y8601D1*
G1X7026Y8600D1*
G1X7024Y8599D1*
G1X7022Y8598D1*
G1X7020Y8597D1*
G1X7019Y8596D1*
G1X7017Y8595D1*
G1X7015Y8594D1*
G1X7014Y8594D1*
G1X7012Y8592D1*
G1X7011Y8591D1*
G1X7009Y8590D1*
G1X7008Y8588D1*
G1X7006Y8587D1*
G1X7005Y8585D1*
G1X7004Y8584D1*
G1X7003Y8582D1*
G1X7002Y8581D1*
G1X7002Y8579D1*
G1X7001Y8577D1*
G1X7000Y8576D1*
G1X6999Y8574D1*
G1X6998Y8572D1*
G1X6997Y8571D1*
G1X6996Y8569D1*
G1X6996Y8567D1*
G1X6995Y8565D1*
G1X6994Y8563D1*
G1X6994Y8561D1*
G1X6993Y8559D1*
G1X6992Y8557D1*
G1X6992Y8555D1*
G1X6991Y8553D1*
G1X6991Y8551D1*
G1X6991Y8549D1*
G1X6990Y8547D1*
G1X6990Y8545D1*
G1X6989Y8543D1*
G1X6989Y8542D1*
G1X6989Y8540D1*
G1X6989Y8538D1*
G1X6988Y8535D1*
G1X6988Y8533D1*
G1X6988Y8531D1*
G1X6988Y8529D1*
G1X6988Y8527D1*
G1X6988Y8525D1*
G1X6988Y8522D1*
G1X6988Y8520D1*
G1X6988Y8517D1*
G1X6988Y8514D1*
G1X6989Y8512D1*
G1X6989Y8509D1*
G1X6989Y8507D1*
G1X6989Y8504D1*
G1X6990Y8502D1*
G1X6990Y8500D1*
G1X6990Y8497D1*
G1X6991Y8495D1*
G1X6991Y8492D1*
G1X6992Y8491D1*
G1X6993Y8489D1*
G1X6993Y8487D1*
G1X6994Y8484D1*
G1X6994Y8482D1*
G1X6995Y8480D1*
G1X6996Y8478D1*
G1X6997Y8476D1*
G1X6998Y8474D1*
G1X6999Y8472D1*
G1X7000Y8470D1*
G1X7001Y8469D1*
G1X7002Y8467D1*
G1X7002Y8465D1*
G1X7003Y8464D1*
G1X7004Y8462D1*
G1X7005Y8461D1*
G1X7007Y8459D1*
G1X7008Y8458D1*
G1X7009Y8456D1*
G1X7011Y8455D1*
G1X7012Y8454D1*
G1X7014Y8452D1*
G1X7015Y8451D1*
G1X7017Y8450D1*
G1X7018Y8449D1*
G1X7020Y8448D1*
G1X7022Y8447D1*
G1X7023Y8446D1*
G1X7025Y8445D1*
G1X7027Y8444D1*
G1X7029Y8444D1*
G1X7030Y8443D1*
G1X7032Y8442D1*
G1X7034Y8442D1*
G1X7036Y8441D1*
G1X7038Y8441D1*
G1X7040Y8441D1*
G1X7041Y8441D1*
G1X7043Y8440D1*
G1X7045Y8440D1*
G1X7047Y8440D1*
G1X7049Y8439D1*
G1X7051Y8439D1*
G1X7053Y8439D1*
G1X7054Y8439D1*
G1X7056Y8439D1*
G1X7058Y8439D1*
G1X7061Y8439D1*
G1X7063Y8439D1*
G1X7065Y8440D1*
G1X7068Y8440D1*
G1X7070Y8440D1*
G1X7072Y8441D1*
G1X7074Y8441D1*
G1X7076Y8441D1*
G1X7078Y8442D1*
G1X7080Y8442D1*
G1X7082Y8443D1*
G1X7084Y8444D1*
G1X7086Y8445D1*
G1X7088Y8446D1*
G1X7089Y8447D1*
G1X7091Y8448D1*
G1X7093Y8449D1*
G1X7094Y8451D1*
G1X7096Y8452D1*
G1X7098Y8453D1*
G1X7099Y8455D1*
G1X7101Y8456D1*
G1X7102Y8458D1*
G1X7104Y8459D1*
G1X7104Y8461D1*
G1X7106Y8463D1*
G1X7107Y8465D1*
G1X7108Y8467D1*
G1X7109Y8469D1*
G1X7110Y8471D1*
G1X7111Y8473D1*
G1X7112Y8475D1*
G1X7113Y8477D1*
G1X7114Y8479D1*
G1X7115Y8482D1*
G1X7116Y8484D1*
G1X7117Y8487D1*
G1X7117Y8489D1*
G1X7118Y8492D1*
G1X7147Y8485D1*
G37*
G36*
G1X7220Y8488D2*
G1X7220Y8486D1*
G1X7220Y8485D1*
G1X7221Y8483D1*
G1X7221Y8482D1*
G1X7221Y8480D1*
G1X7222Y8479D1*
G1X7222Y8477D1*
G1X7222Y8476D1*
G1X7223Y8475D1*
G1X7223Y8473D1*
G1X7224Y8472D1*
G1X7224Y8471D1*
G1X7225Y8469D1*
G1X7225Y8468D1*
G1X7226Y8467D1*
G1X7226Y8466D1*
G1X7227Y8464D1*
G1X7228Y8463D1*
G1X7228Y8462D1*
G1X7229Y8461D1*
G1X7230Y8460D1*
G1X7230Y8459D1*
G1X7231Y8458D1*
G1X7232Y8457D1*
G1X7233Y8456D1*
G1X7233Y8455D1*
G1X7234Y8454D1*
G1X7235Y8453D1*
G1X7236Y8453D1*
G1X7237Y8452D1*
G1X7238Y8451D1*
G1X7239Y8450D1*
G1X7241Y8449D1*
G1X7241Y8448D1*
G1X7242Y8448D1*
G1X7243Y8447D1*
G1X7245Y8446D1*
G1X7246Y8445D1*
G1X7248Y8445D1*
G1X7249Y8444D1*
G1X7250Y8443D1*
G1X7252Y8443D1*
G1X7253Y8442D1*
G1X7255Y8442D1*
G1X7256Y8441D1*
G1X7258Y8441D1*
G1X7259Y8441D1*
G1X7261Y8441D1*
G1X7262Y8441D1*
G1X7264Y8441D1*
G1X7266Y8440D1*
G1X7267Y8440D1*
G1X7269Y8440D1*
G1X7271Y8440D1*
G1X7272Y8439D1*
G1X7274Y8439D1*
G1X7276Y8439D1*
G1X7277Y8439D1*
G1X7279Y8439D1*
G1X7281Y8439D1*
G1X7283Y8439D1*
G1X7284Y8439D1*
G1X7286Y8439D1*
G1X7287Y8439D1*
G1X7289Y8439D1*
G1X7290Y8439D1*
G1X7292Y8440D1*
G1X7294Y8440D1*
G1X7295Y8440D1*
G1X7296Y8441D1*
G1X7298Y8441D1*
G1X7299Y8441D1*
G1X7300Y8441D1*
G1X7302Y8441D1*
G1X7303Y8441D1*
G1X7304Y8442D1*
G1X7306Y8442D1*
G1X7307Y8443D1*
G1X7308Y8443D1*
G1X7309Y8444D1*
G1X7310Y8444D1*
G1X7311Y8445D1*
G1X7313Y8445D1*
G1X7314Y8446D1*
G1X7315Y8446D1*
G1X7316Y8447D1*
G1X7317Y8447D1*
G1X7318Y8448D1*
G1X7318Y8449D1*
G1X7319Y8449D1*
G1X7320Y8450D1*
G1X7321Y8451D1*
G1X7322Y8451D1*
G1X7323Y8452D1*
G1X7323Y8453D1*
G1X7324Y8454D1*
G1X7325Y8454D1*
G1X7325Y8455D1*
G1X7326Y8456D1*
G1X7327Y8457D1*
G1X7327Y8458D1*
G1X7328Y8459D1*
G1X7328Y8460D1*
G1X7329Y8461D1*
G1X7329Y8462D1*
G1X7330Y8463D1*
G1X7330Y8464D1*
G1X7330Y8465D1*
G1X7331Y8466D1*
G1X7331Y8467D1*
G1X7331Y8468D1*
G1X7331Y8469D1*
G1X7332Y8470D1*
G1X7332Y8471D1*
G1X7332Y8472D1*
G1X7332Y8473D1*
G1X7332Y8474D1*
G1X7332Y8475D1*
G1X7332Y8476D1*
G1X7332Y8477D1*
G1X7332Y8478D1*
G1X7332Y8479D1*
G1X7332Y8480D1*
G1X7331Y8481D1*
G1X7331Y8482D1*
G1X7331Y8483D1*
G1X7330Y8484D1*
G1X7330Y8485D1*
G1X7330Y8486D1*
G1X7329Y8487D1*
G1X7329Y8488D1*
G1X7328Y8489D1*
G1X7328Y8490D1*
G1X7327Y8491D1*
G1X7326Y8492D1*
G1X7325Y8492D1*
G1X7325Y8493D1*
G1X7324Y8493D1*
G1X7324Y8494D1*
G1X7323Y8495D1*
G1X7322Y8496D1*
G1X7321Y8497D1*
G1X7320Y8498D1*
G1X7319Y8498D1*
G1X7318Y8499D1*
G1X7317Y8500D1*
G1X7316Y8500D1*
G1X7315Y8501D1*
G1X7314Y8501D1*
G1X7313Y8502D1*
G1X7312Y8502D1*
G1X7311Y8503D1*
G1X7309Y8503D1*
G1X7308Y8504D1*
G1X7307Y8504D1*
G1X7306Y8505D1*
G1X7305Y8505D1*
G1X7304Y8505D1*
G1X7302Y8506D1*
G1X7301Y8506D1*
G1X7299Y8507D1*
G1X7298Y8507D1*
G1X7296Y8508D1*
G1X7294Y8508D1*
G1X7292Y8509D1*
G1X7291Y8509D1*
G1X7289Y8510D1*
G1X7287Y8510D1*
G1X7285Y8511D1*
G1X7282Y8511D1*
G1X7280Y8512D1*
G1X7277Y8513D1*
G1X7275Y8513D1*
G1X7272Y8514D1*
G1X7269Y8515D1*
G1X7266Y8516D1*
G1X7264Y8516D1*
G1X7261Y8517D1*
G1X7259Y8518D1*
G1X7256Y8519D1*
G1X7254Y8519D1*
G1X7252Y8520D1*
G1X7249Y8521D1*
G1X7247Y8522D1*
G1X7245Y8522D1*
G1X7243Y8523D1*
G1X7241Y8524D1*
G1X7239Y8525D1*
G1X7237Y8526D1*
G1X7236Y8526D1*
G1X7235Y8527D1*
G1X7233Y8527D1*
G1X7232Y8528D1*
G1X7230Y8529D1*
G1X7229Y8530D1*
G1X7227Y8530D1*
G1X7226Y8531D1*
G1X7225Y8532D1*
G1X7223Y8533D1*
G1X7222Y8534D1*
G1X7221Y8535D1*
G1X7219Y8536D1*
G1X7218Y8537D1*
G1X7217Y8538D1*
G1X7216Y8539D1*
G1X7215Y8540D1*
G1X7214Y8541D1*
G1X7213Y8542D1*
G1X7212Y8543D1*
G1X7211Y8543D1*
G1X7210Y8545D1*
G1X7210Y8546D1*
G1X7209Y8547D1*
G1X7208Y8548D1*
G1X7207Y8549D1*
G1X7207Y8551D1*
G1X7206Y8552D1*
G1X7206Y8553D1*
G1X7205Y8554D1*
G1X7204Y8556D1*
G1X7204Y8557D1*
G1X7203Y8558D1*
G1X7203Y8560D1*
G1X7203Y8561D1*
G1X7202Y8562D1*
G1X7202Y8564D1*
G1X7202Y8565D1*
G1X7202Y8567D1*
G1X7201Y8568D1*
G1X7201Y8570D1*
G1X7201Y8571D1*
G1X7201Y8573D1*
G1X7201Y8574D1*
G1X7201Y8576D1*
G1X7201Y8577D1*
G1X7201Y8579D1*
G1X7201Y8580D1*
G1X7202Y8582D1*
G1X7202Y8583D1*
G1X7202Y8585D1*
G1X7202Y8586D1*
G1X7203Y8588D1*
G1X7203Y8589D1*
G1X7204Y8591D1*
G1X7204Y8592D1*
G1X7205Y8594D1*
G1X7206Y8596D1*
G1X7207Y8597D1*
G1X7208Y8599D1*
G1X7208Y8600D1*
G1X7209Y8602D1*
G1X7210Y8603D1*
G1X7211Y8604D1*
G1X7212Y8606D1*
G1X7213Y8607D1*
G1X7214Y8608D1*
G1X7215Y8610D1*
G1X7216Y8611D1*
G1X7217Y8612D1*
G1X7219Y8613D1*
G1X7220Y8614D1*
G1X7221Y8616D1*
G1X7223Y8617D1*
G1X7224Y8618D1*
G1X7226Y8619D1*
G1X7227Y8620D1*
G1X7229Y8621D1*
G1X7230Y8622D1*
G1X7232Y8622D1*
G1X7233Y8623D1*
G1X7235Y8624D1*
G1X7237Y8625D1*
G1X7239Y8626D1*
G1X7241Y8626D1*
G1X7241Y8627D1*
G1X7243Y8628D1*
G1X7245Y8628D1*
G1X7247Y8629D1*
G1X7249Y8629D1*
G1X7251Y8629D1*
G1X7253Y8630D1*
G1X7255Y8630D1*
G1X7257Y8631D1*
G1X7259Y8631D1*
G1X7261Y8631D1*
G1X7263Y8631D1*
G1X7265Y8632D1*
G1X7267Y8632D1*
G1X7269Y8632D1*
G1X7271Y8632D1*
G1X7273Y8632D1*
G1X7275Y8632D1*
G1X7277Y8632D1*
G1X7280Y8632D1*
G1X7282Y8632D1*
G1X7284Y8632D1*
G1X7287Y8632D1*
G1X7289Y8631D1*
G1X7291Y8631D1*
G1X7292Y8631D1*
G1X7294Y8630D1*
G1X7297Y8630D1*
G1X7299Y8630D1*
G1X7301Y8629D1*
G1X7303Y8629D1*
G1X7305Y8628D1*
G1X7307Y8628D1*
G1X7309Y8627D1*
G1X7310Y8626D1*
G1X7312Y8626D1*
G1X7314Y8625D1*
G1X7316Y8624D1*
G1X7318Y8623D1*
G1X7320Y8623D1*
G1X7321Y8622D1*
G1X7323Y8621D1*
G1X7325Y8620D1*
G1X7326Y8619D1*
G1X7328Y8618D1*
G1X7330Y8617D1*
G1X7331Y8616D1*
G1X7332Y8615D1*
G1X7334Y8614D1*
G1X7335Y8613D1*
G1X7336Y8612D1*
G1X7338Y8610D1*
G1X7339Y8609D1*
G1X7340Y8608D1*
G1X7341Y8606D1*
G1X7342Y8605D1*
G1X7343Y8603D1*
G1X7343Y8602D1*
G1X7344Y8600D1*
G1X7345Y8599D1*
G1X7346Y8597D1*
G1X7347Y8596D1*
G1X7347Y8594D1*
G1X7348Y8594D1*
G1X7349Y8592D1*
G1X7350Y8590D1*
G1X7350Y8589D1*
G1X7351Y8587D1*
G1X7351Y8585D1*
G1X7352Y8584D1*
G1X7352Y8582D1*
G1X7353Y8580D1*
G1X7353Y8578D1*
G1X7353Y8576D1*
G1X7353Y8575D1*
G1X7354Y8573D1*
G1X7354Y8571D1*
G1X7354Y8569D1*
G1X7326Y8568D1*
G1X7326Y8570D1*
G1X7326Y8572D1*
G1X7325Y8574D1*
G1X7325Y8576D1*
G1X7324Y8577D1*
G1X7324Y8579D1*
G1X7323Y8581D1*
G1X7323Y8582D1*
G1X7322Y8584D1*
G1X7321Y8585D1*
G1X7321Y8587D1*
G1X7320Y8588D1*
G1X7319Y8590D1*
G1X7318Y8591D1*
G1X7317Y8592D1*
G1X7316Y8594D1*
G1X7315Y8594D1*
G1X7314Y8595D1*
G1X7313Y8596D1*
G1X7312Y8597D1*
G1X7311Y8598D1*
G1X7309Y8599D1*
G1X7308Y8600D1*
G1X7306Y8601D1*
G1X7305Y8601D1*
G1X7303Y8602D1*
G1X7302Y8603D1*
G1X7300Y8603D1*
G1X7298Y8604D1*
G1X7297Y8605D1*
G1X7295Y8605D1*
G1X7293Y8605D1*
G1X7292Y8606D1*
G1X7290Y8606D1*
G1X7288Y8606D1*
G1X7286Y8607D1*
G1X7284Y8607D1*
G1X7281Y8607D1*
G1X7279Y8607D1*
G1X7277Y8607D1*
G1X7275Y8607D1*
G1X7272Y8607D1*
G1X7270Y8607D1*
G1X7268Y8607D1*
G1X7265Y8606D1*
G1X7263Y8606D1*
G1X7261Y8606D1*
G1X7259Y8606D1*
G1X7257Y8605D1*
G1X7255Y8605D1*
G1X7253Y8604D1*
G1X7252Y8604D1*
G1X7250Y8603D1*
G1X7248Y8603D1*
G1X7247Y8602D1*
G1X7245Y8601D1*
G1X7244Y8600D1*
G1X7243Y8600D1*
G1X7241Y8599D1*
G1X7241Y8598D1*
G1X7240Y8597D1*
G1X7239Y8596D1*
G1X7238Y8595D1*
G1X7237Y8594D1*
G1X7236Y8594D1*
G1X7235Y8593D1*
G1X7235Y8592D1*
G1X7234Y8591D1*
G1X7233Y8589D1*
G1X7233Y8588D1*
G1X7232Y8587D1*
G1X7232Y8586D1*
G1X7231Y8585D1*
G1X7231Y8584D1*
G1X7231Y8582D1*
G1X7230Y8581D1*
G1X7230Y8580D1*
G1X7230Y8579D1*
G1X7230Y8577D1*
G1X7230Y8576D1*
G1X7230Y8575D1*
G1X7230Y8574D1*
G1X7230Y8573D1*
G1X7230Y8571D1*
G1X7231Y8570D1*
G1X7231Y8569D1*
G1X7231Y8568D1*
G1X7231Y8567D1*
G1X7232Y8566D1*
G1X7232Y8565D1*
G1X7232Y8564D1*
G1X7233Y8563D1*
G1X7234Y8562D1*
G1X7235Y8561D1*
G1X7235Y8560D1*
G1X7236Y8559D1*
G1X7236Y8558D1*
G1X7237Y8558D1*
G1X7238Y8557D1*
G1X7239Y8556D1*
G1X7240Y8555D1*
G1X7241Y8555D1*
G1X7241Y8554D1*
G1X7243Y8553D1*
G1X7244Y8552D1*
G1X7246Y8551D1*
G1X7247Y8551D1*
G1X7249Y8550D1*
G1X7251Y8549D1*
G1X7253Y8548D1*
G1X7256Y8547D1*
G1X7258Y8547D1*
G1X7260Y8546D1*
G1X7263Y8545D1*
G1X7266Y8544D1*
G1X7269Y8543D1*
G1X7272Y8543D1*
G1X7275Y8543D1*
G1X7278Y8542D1*
G1X7281Y8541D1*
G1X7285Y8540D1*
G1X7288Y8540D1*
G1X7291Y8539D1*
G1X7293Y8538D1*
G1X7296Y8537D1*
G1X7298Y8537D1*
G1X7301Y8536D1*
G1X7303Y8535D1*
G1X7306Y8535D1*
G1X7308Y8534D1*
G1X7310Y8533D1*
G1X7312Y8533D1*
G1X7314Y8532D1*
G1X7316Y8532D1*
G1X7318Y8531D1*
G1X7320Y8531D1*
G1X7321Y8530D1*
G1X7323Y8530D1*
G1X7324Y8529D1*
G1X7326Y8528D1*
G1X7328Y8527D1*
G1X7329Y8526D1*
G1X7331Y8525D1*
G1X7333Y8524D1*
G1X7334Y8523D1*
G1X7336Y8522D1*
G1X7338Y8521D1*
G1X7339Y8520D1*
G1X7340Y8519D1*
G1X7342Y8518D1*
G1X7343Y8517D1*
G1X7343Y8516D1*
G1X7345Y8514D1*
G1X7346Y8513D1*
G1X7347Y8512D1*
G1X7348Y8511D1*
G1X7349Y8510D1*
G1X7350Y8508D1*
G1X7351Y8507D1*
G1X7352Y8506D1*
G1X7353Y8504D1*
G1X7353Y8503D1*
G1X7354Y8501D1*
G1X7355Y8500D1*
G1X7356Y8498D1*
G1X7356Y8497D1*
G1X7357Y8495D1*
G1X7357Y8494D1*
G1X7358Y8492D1*
G1X7359Y8490D1*
G1X7359Y8489D1*
G1X7359Y8487D1*
G1X7359Y8485D1*
G1X7360Y8484D1*
G1X7360Y8482D1*
G1X7360Y8480D1*
G1X7360Y8479D1*
G1X7360Y8477D1*
G1X7360Y8475D1*
G1X7360Y8474D1*
G1X7360Y8472D1*
G1X7360Y8470D1*
G1X7359Y8469D1*
G1X7359Y8467D1*
G1X7359Y8465D1*
G1X7358Y8464D1*
G1X7358Y8462D1*
G1X7358Y8461D1*
G1X7357Y8459D1*
G1X7356Y8457D1*
G1X7356Y8456D1*
G1X7355Y8454D1*
G1X7354Y8453D1*
G1X7354Y8451D1*
G1X7353Y8450D1*
G1X7352Y8448D1*
G1X7351Y8447D1*
G1X7350Y8445D1*
G1X7349Y8444D1*
G1X7348Y8442D1*
G1X7347Y8441D1*
G1X7346Y8440D1*
G1X7345Y8439D1*
G1X7343Y8438D1*
G1X7343Y8436D1*
G1X7342Y8435D1*
G1X7340Y8434D1*
G1X7339Y8433D1*
G1X7338Y8431D1*
G1X7336Y8430D1*
G1X7335Y8429D1*
G1X7333Y8428D1*
G1X7332Y8427D1*
G1X7330Y8426D1*
G1X7328Y8425D1*
G1X7327Y8424D1*
G1X7325Y8423D1*
G1X7323Y8422D1*
G1X7321Y8421D1*
G1X7319Y8420D1*
G1X7317Y8420D1*
G1X7316Y8419D1*
G1X7314Y8419D1*
G1X7312Y8418D1*
G1X7310Y8417D1*
G1X7308Y8417D1*
G1X7306Y8417D1*
G1X7304Y8417D1*
G1X7302Y8417D1*
G1X7300Y8416D1*
G1X7297Y8416D1*
G1X7295Y8416D1*
G1X7293Y8415D1*
G1X7292Y8415D1*
G1X7290Y8415D1*
G1X7288Y8415D1*
G1X7285Y8415D1*
G1X7283Y8415D1*
G1X7280Y8415D1*
G1X7277Y8415D1*
G1X7275Y8415D1*
G1X7272Y8415D1*
G1X7269Y8416D1*
G1X7266Y8416D1*
G1X7264Y8416D1*
G1X7261Y8416D1*
G1X7259Y8417D1*
G1X7256Y8417D1*
G1X7254Y8417D1*
G1X7251Y8417D1*
G1X7249Y8418D1*
G1X7247Y8418D1*
G1X7245Y8419D1*
G1X7242Y8420D1*
G1X7241Y8421D1*
G1X7239Y8421D1*
G1X7237Y8422D1*
G1X7235Y8423D1*
G1X7233Y8424D1*
G1X7231Y8425D1*
G1X7229Y8426D1*
G1X7228Y8427D1*
G1X7226Y8428D1*
G1X7224Y8429D1*
G1X7223Y8430D1*
G1X7221Y8431D1*
G1X7220Y8432D1*
G1X7218Y8433D1*
G1X7217Y8435D1*
G1X7215Y8436D1*
G1X7214Y8437D1*
G1X7212Y8439D1*
G1X7211Y8440D1*
G1X7210Y8441D1*
G1X7208Y8442D1*
G1X7207Y8444D1*
G1X7206Y8445D1*
G1X7205Y8447D1*
G1X7204Y8449D1*
G1X7203Y8450D1*
G1X7202Y8452D1*
G1X7201Y8454D1*
G1X7200Y8456D1*
G1X7199Y8458D1*
G1X7199Y8460D1*
G1X7198Y8461D1*
G1X7197Y8463D1*
G1X7197Y8465D1*
G1X7196Y8467D1*
G1X7195Y8469D1*
G1X7195Y8471D1*
G1X7195Y8473D1*
G1X7194Y8475D1*
G1X7194Y8477D1*
G1X7194Y8480D1*
G1X7193Y8482D1*
G1X7193Y8484D1*
G1X7193Y8486D1*
G1X7220Y8488D1*
G37*
G36*
G1X7409Y8504D2*
G1X7410Y8498D1*
G1X7410Y8493D1*
G1X7411Y8489D1*
G1X7412Y8484D1*
G1X7412Y8479D1*
G1X7413Y8475D1*
G1X7414Y8470D1*
G1X7415Y8466D1*
G1X7417Y8462D1*
G1X7419Y8454D1*
G1X7421Y8451D1*
G1X7422Y8447D1*
G1X7426Y8441D1*
G1X7428Y8439D1*
G1X7430Y8436D1*
G1X7440Y8426D1*
G1X7442Y8425D1*
G1X7445Y8422D1*
G1X7448Y8421D1*
G1X7450Y8419D1*
G1X7453Y8418D1*
G1X7455Y8418D1*
G1X7458Y8417D1*
G1X7461Y8417D1*
G1X7463Y8416D1*
G1X7466Y8416D1*
G1X7469Y8415D1*
G1X7487Y8415D1*
G1X7489Y8416D1*
G1X7493Y8416D1*
G1X7495Y8417D1*
G1X7498Y8417D1*
G1X7500Y8418D1*
G1X7502Y8418D1*
G1X7504Y8419D1*
G1X7505Y8420D1*
G1X7509Y8422D1*
G1X7510Y8423D1*
G1X7512Y8424D1*
G1X7513Y8425D1*
G1X7517Y8427D1*
G1X7518Y8429D1*
G1X7520Y8430D1*
G1X7521Y8432D1*
G1X7525Y8436D1*
G1X7526Y8438D1*
G1X7530Y8442D1*
G1X7536Y8454D1*
G1X7537Y8457D1*
G1X7537Y8459D1*
G1X7539Y8463D1*
G1X7540Y8466D1*
G1X7540Y8468D1*
G1X7541Y8471D1*
G1X7542Y8473D1*
G1X7542Y8476D1*
G1X7543Y8479D1*
G1X7543Y8482D1*
G1X7544Y8485D1*
G1X7544Y8491D1*
G1X7545Y8493D1*
G1X7545Y8500D1*
G1X7546Y8503D1*
G1X7546Y8521D1*
G1X7519Y8521D1*
G1X7519Y8501D1*
G1X7518Y8497D1*
G1X7518Y8489D1*
G1X7517Y8485D1*
G1X7517Y8482D1*
G1X7516Y8478D1*
G1X7515Y8475D1*
G1X7515Y8471D1*
G1X7513Y8465D1*
G1X7512Y8463D1*
G1X7511Y8460D1*
G1X7506Y8450D1*
G1X7504Y8449D1*
G1X7503Y8447D1*
G1X7502Y8446D1*
G1X7500Y8445D1*
G1X7499Y8443D1*
G1X7497Y8442D1*
G1X7496Y8441D1*
G1X7495Y8441D1*
G1X7494Y8440D1*
G1X7492Y8439D1*
G1X7491Y8439D1*
G1X7489Y8438D1*
G1X7488Y8438D1*
G1X7486Y8437D1*
G1X7485Y8437D1*
G1X7483Y8436D1*
G1X7473Y8436D1*
G1X7471Y8437D1*
G1X7469Y8437D1*
G1X7468Y8438D1*
G1X7466Y8438D1*
G1X7464Y8439D1*
G1X7463Y8439D1*
G1X7461Y8440D1*
G1X7460Y8441D1*
G1X7458Y8441D1*
G1X7457Y8442D1*
G1X7455Y8443D1*
G1X7454Y8445D1*
G1X7452Y8446D1*
G1X7451Y8447D1*
G1X7450Y8449D1*
G1X7448Y8450D1*
G1X7445Y8456D1*
G1X7445Y8458D1*
G1X7444Y8460D1*
G1X7443Y8463D1*
G1X7442Y8465D1*
G1X7440Y8471D1*
G1X7440Y8475D1*
G1X7439Y8478D1*
G1X7438Y8482D1*
G1X7438Y8485D1*
G1X7437Y8489D1*
G1X7437Y8497D1*
G1X7436Y8501D1*
G1X7436Y8521D1*
G1X7409Y8521D1*
G1X7409Y8504D1*
G37*
G36*
G1X7409Y8521D2*
G1X7436Y8521D1*
G1X7436Y8536D1*
G1X7437Y8541D1*
G1X7437Y8548D1*
G1X7438Y8552D1*
G1X7438Y8556D1*
G1X7439Y8560D1*
G1X7439Y8564D1*
G1X7440Y8568D1*
G1X7441Y8571D1*
G1X7441Y8574D1*
G1X7444Y8583D1*
G1X7445Y8585D1*
G1X7446Y8588D1*
G1X7448Y8592D1*
G1X7451Y8595D1*
G1X7453Y8596D1*
G1X7454Y8598D1*
G1X7455Y8599D1*
G1X7457Y8600D1*
G1X7458Y8601D1*
G1X7459Y8601D1*
G1X7461Y8602D1*
G1X7462Y8603D1*
G1X7464Y8604D1*
G1X7465Y8604D1*
G1X7467Y8605D1*
G1X7470Y8605D1*
G1X7472Y8606D1*
G1X7483Y8606D1*
G1X7484Y8605D1*
G1X7486Y8605D1*
G1X7488Y8604D1*
G1X7489Y8604D1*
G1X7491Y8603D1*
G1X7493Y8603D1*
G1X7494Y8602D1*
G1X7496Y8601D1*
G1X7496Y8600D1*
G1X7498Y8599D1*
G1X7503Y8594D1*
G1X7505Y8593D1*
G1X7506Y8592D1*
G1X7510Y8584D1*
G1X7511Y8581D1*
G1X7512Y8579D1*
G1X7515Y8570D1*
G1X7515Y8567D1*
G1X7516Y8563D1*
G1X7517Y8560D1*
G1X7517Y8556D1*
G1X7518Y8552D1*
G1X7518Y8544D1*
G1X7519Y8540D1*
G1X7519Y8521D1*
G1X7546Y8521D1*
G1X7546Y8539D1*
G1X7545Y8542D1*
G1X7545Y8548D1*
G1X7544Y8551D1*
G1X7544Y8558D1*
G1X7543Y8560D1*
G1X7543Y8562D1*
G1X7542Y8564D1*
G1X7542Y8566D1*
G1X7541Y8568D1*
G1X7541Y8570D1*
G1X7540Y8572D1*
G1X7540Y8574D1*
G1X7539Y8576D1*
G1X7539Y8577D1*
G1X7538Y8579D1*
G1X7538Y8581D1*
G1X7537Y8583D1*
G1X7537Y8584D1*
G1X7535Y8588D1*
G1X7535Y8589D1*
G1X7534Y8591D1*
G1X7533Y8592D1*
G1X7533Y8594D1*
G1X7532Y8594D1*
G1X7531Y8596D1*
G1X7530Y8597D1*
G1X7530Y8598D1*
G1X7529Y8600D1*
G1X7527Y8602D1*
G1X7526Y8604D1*
G1X7525Y8605D1*
G1X7525Y8606D1*
G1X7520Y8611D1*
G1X7519Y8613D1*
G1X7518Y8613D1*
G1X7517Y8614D1*
G1X7515Y8615D1*
G1X7510Y8620D1*
G1X7508Y8620D1*
G1X7506Y8622D1*
G1X7504Y8622D1*
G1X7502Y8624D1*
G1X7500Y8624D1*
G1X7499Y8625D1*
G1X7496Y8625D1*
G1X7495Y8626D1*
G1X7494Y8626D1*
G1X7492Y8627D1*
G1X7488Y8627D1*
G1X7486Y8628D1*
G1X7469Y8628D1*
G1X7467Y8627D1*
G1X7462Y8627D1*
G1X7460Y8626D1*
G1X7458Y8626D1*
G1X7454Y8624D1*
G1X7452Y8624D1*
G1X7451Y8623D1*
G1X7445Y8620D1*
G1X7445Y8619D1*
G1X7443Y8618D1*
G1X7442Y8617D1*
G1X7440Y8616D1*
G1X7433Y8609D1*
G1X7432Y8607D1*
G1X7430Y8606D1*
G1X7428Y8602D1*
G1X7427Y8601D1*
G1X7425Y8597D1*
G1X7422Y8594D1*
G1X7420Y8590D1*
G1X7420Y8588D1*
G1X7419Y8586D1*
G1X7418Y8583D1*
G1X7416Y8579D1*
G1X7415Y8576D1*
G1X7415Y8574D1*
G1X7414Y8571D1*
G1X7414Y8569D1*
G1X7412Y8563D1*
G1X7412Y8560D1*
G1X7411Y8557D1*
G1X7411Y8551D1*
G1X7410Y8548D1*
G1X7410Y8539D1*
G1X7409Y8536D1*
G1X7409Y8521D1*
G37*
G36*
G1X7659Y8417D2*
G1X7659Y8582D1*
G1X7658Y8581D1*
G1X7657Y8580D1*
G1X7656Y8579D1*
G1X7655Y8578D1*
G1X7654Y8577D1*
G1X7653Y8576D1*
G1X7652Y8575D1*
G1X7651Y8574D1*
G1X7649Y8573D1*
G1X7648Y8572D1*
G1X7647Y8571D1*
G1X7646Y8570D1*
G1X7644Y8569D1*
G1X7643Y8568D1*
G1X7642Y8568D1*
G1X7640Y8567D1*
G1X7639Y8566D1*
G1X7637Y8565D1*
G1X7636Y8564D1*
G1X7634Y8563D1*
G1X7634Y8562D1*
G1X7632Y8561D1*
G1X7631Y8560D1*
G1X7629Y8560D1*
G1X7628Y8559D1*
G1X7626Y8558D1*
G1X7625Y8557D1*
G1X7623Y8557D1*
G1X7622Y8556D1*
G1X7621Y8555D1*
G1X7619Y8555D1*
G1X7618Y8554D1*
G1X7617Y8553D1*
G1X7615Y8553D1*
G1X7614Y8552D1*
G1X7613Y8552D1*
G1X7612Y8551D1*
G1X7610Y8551D1*
G1X7609Y8550D1*
G1X7608Y8550D1*
G1X7608Y8575D1*
G1X7610Y8576D1*
G1X7612Y8577D1*
G1X7614Y8578D1*
G1X7617Y8580D1*
G1X7619Y8581D1*
G1X7621Y8582D1*
G1X7623Y8583D1*
G1X7625Y8584D1*
G1X7627Y8586D1*
G1X7629Y8587D1*
G1X7630Y8588D1*
G1X7632Y8589D1*
G1X7634Y8591D1*
G1X7635Y8592D1*
G1X7637Y8593D1*
G1X7638Y8594D1*
G1X7640Y8595D1*
G1X7642Y8596D1*
G1X7643Y8598D1*
G1X7645Y8599D1*
G1X7647Y8600D1*
G1X7648Y8602D1*
G1X7650Y8603D1*
G1X7651Y8605D1*
G1X7653Y8606D1*
G1X7654Y8608D1*
G1X7656Y8609D1*
G1X7657Y8611D1*
G1X7658Y8612D1*
G1X7659Y8614D1*
G1X7661Y8615D1*
G1X7662Y8617D1*
G1X7663Y8618D1*
G1X7664Y8620D1*
G1X7665Y8621D1*
G1X7666Y8622D1*
G1X7667Y8624D1*
G1X7668Y8625D1*
G1X7668Y8627D1*
G1X7669Y8628D1*
G1X7685Y8628D1*
G1X7685Y8417D1*
G1X7659Y8417D1*
G37*
G36*
G1X7758Y8628D2*
G1X7788Y8628D1*
G1X7843Y8475D1*
G1X7844Y8473D1*
G1X7844Y8471D1*
G1X7845Y8469D1*
G1X7846Y8468D1*
G1X7846Y8466D1*
G1X7847Y8464D1*
G1X7848Y8462D1*
G1X7848Y8460D1*
G1X7849Y8459D1*
G1X7850Y8457D1*
G1X7850Y8455D1*
G1X7851Y8453D1*
G1X7851Y8452D1*
G1X7852Y8450D1*
G1X7852Y8448D1*
G1X7853Y8447D1*
G1X7853Y8445D1*
G1X7854Y8443D1*
G1X7854Y8442D1*
G1X7855Y8441D1*
G1X7856Y8442D1*
G1X7856Y8443D1*
G1X7857Y8445D1*
G1X7857Y8447D1*
G1X7858Y8449D1*
G1X7858Y8450D1*
G1X7859Y8452D1*
G1X7859Y8454D1*
G1X7860Y8456D1*
G1X7860Y8457D1*
G1X7861Y8459D1*
G1X7861Y8461D1*
G1X7862Y8463D1*
G1X7862Y8464D1*
G1X7863Y8466D1*
G1X7864Y8468D1*
G1X7864Y8470D1*
G1X7865Y8471D1*
G1X7865Y8473D1*
G1X7866Y8475D1*
G1X7924Y8628D1*
G1X7952Y8628D1*
G1X7870Y8417D1*
G1X7839Y8417D1*
G1X7758Y8628D1*
G37*
G36*
G1X8055Y8417D2*
G1X8055Y8582D1*
G1X8054Y8581D1*
G1X8053Y8580D1*
G1X8052Y8579D1*
G1X8051Y8578D1*
G1X8050Y8577D1*
G1X8049Y8576D1*
G1X8048Y8575D1*
G1X8047Y8574D1*
G1X8045Y8573D1*
G1X8044Y8572D1*
G1X8043Y8571D1*
G1X8042Y8570D1*
G1X8040Y8569D1*
G1X8039Y8568D1*
G1X8038Y8568D1*
G1X8036Y8567D1*
G1X8035Y8566D1*
G1X8033Y8565D1*
G1X8032Y8564D1*
G1X8030Y8563D1*
G1X8029Y8562D1*
G1X8027Y8561D1*
G1X8026Y8560D1*
G1X8025Y8560D1*
G1X8024Y8559D1*
G1X8022Y8558D1*
G1X8021Y8557D1*
G1X8019Y8557D1*
G1X8018Y8556D1*
G1X8017Y8555D1*
G1X8015Y8555D1*
G1X8014Y8554D1*
G1X8013Y8553D1*
G1X8011Y8553D1*
G1X8010Y8552D1*
G1X8009Y8552D1*
G1X8008Y8551D1*
G1X8006Y8551D1*
G1X8005Y8550D1*
G1X8004Y8550D1*
G1X8004Y8575D1*
G1X8006Y8576D1*
G1X8008Y8577D1*
G1X8010Y8578D1*
G1X8013Y8580D1*
G1X8015Y8581D1*
G1X8017Y8582D1*
G1X8019Y8583D1*
G1X8021Y8584D1*
G1X8023Y8586D1*
G1X8025Y8587D1*
G1X8026Y8588D1*
G1X8027Y8589D1*
G1X8029Y8591D1*
G1X8031Y8592D1*
G1X8033Y8593D1*
G1X8034Y8594D1*
G1X8036Y8595D1*
G1X8038Y8596D1*
G1X8039Y8598D1*
G1X8041Y8599D1*
G1X8043Y8600D1*
G1X8044Y8602D1*
G1X8046Y8603D1*
G1X8047Y8605D1*
G1X8049Y8606D1*
G1X8050Y8608D1*
G1X8052Y8609D1*
G1X8053Y8611D1*
G1X8054Y8612D1*
G1X8055Y8614D1*
G1X8057Y8615D1*
G1X8058Y8617D1*
G1X8059Y8618D1*
G1X8060Y8620D1*
G1X8061Y8621D1*
G1X8062Y8622D1*
G1X8063Y8624D1*
G1X8064Y8625D1*
G1X8064Y8627D1*
G1X8065Y8628D1*
G1X8081Y8628D1*
G1X8081Y8417D1*
G1X8055Y8417D1*
G37*
G1X6179Y8934D2*
G54D25*
G1X6179Y8347D1*
G1X6179Y8326D2*
G1X8395Y8326D1*
G1X8395Y8347D2*
G1X8395Y8708D1*
G1X7015Y9012D2*
G1X8099Y9012D1*
G1X6181Y8932D2*
G1X6180Y8996D1*
G1X6282Y8996D1*
G1X3376Y4141D2*
G54D53*
G1X3376Y9456D1*
G1X8691Y9456D1*
G1X8691Y4141D1*
M2*
