*
%LPD*%
%LNSTEVAL-STLCS01V1.crc*%
%FSLAX24Y24*%
%MOIN*%
%AD*%
%ADD10C,0.019685*%
%ADD11C,0.00866*%
%ADD12R,0.01378X0.00984*%
%ADD13R,0.00984X0.01378*%
%ADD14R,0.02953X0.03346*%
%ADD15R,0.00984X0.01772*%
%ADD16R,0.01772X0.00984*%
%ADD17R,0.01102X0.01693*%
%ADD23C,0.00984*%
%ADD24R,0.00984X0.00984*%
%ADD26R,0.0374X0.01575*%
%ADD27R,0.01378X0.05118*%
%ADD28R,0.09055X0.01378*%
%ADD29C,0.01*%
%ADD30R,0.01083X0.00984*%
%ADD31R,0.00984X0.01083*%
%ADD32R,0.05512X0.02953*%
%ADD33R,0.01693X0.01102*%
%ADD43R,0.0065X0.02362*%
%ADD44R,0.01575X0.00591*%
G54D10*
%SRX1Y1I0.0J0.0*%
G1X6002Y5795D2*
G1X6002Y5797D1*
G1X6003Y5799D1*
G1X6003Y5801D1*
G1X6005Y5803D1*
G1X6006Y5804D1*
G1X6008Y5805D1*
G1X6010Y5806D1*
G1X6012Y5807D1*
G1X6014Y5807D1*
G1X6016Y5806D1*
G1X6018Y5806D1*
G1X6020Y5805D1*
G1X6022Y5803D1*
G1X6023Y5802D1*
G1X6024Y5800D1*
G1X6025Y5798D1*
G1X6025Y5796D1*
G1X6025Y5794D1*
G1X6025Y5792D1*
G1X6024Y5790D1*
G1X6023Y5788D1*
G1X6022Y5786D1*
G1X6020Y5785D1*
G1X6018Y5784D1*
G1X6016Y5783D1*
G1X6014Y5783D1*
G1X6012Y5783D1*
G1X6010Y5784D1*
G1X6008Y5785D1*
G1X6006Y5786D1*
G1X6005Y5787D1*
G1X6003Y5789D1*
G1X6003Y5791D1*
G1X6002Y5793D1*
G1X6002Y5795D1*
G1X8019Y7409D2*
G1X8020Y7411D1*
G1X8020Y7413D1*
G1X8021Y7415D1*
G1X8022Y7417D1*
G1X8024Y7418D1*
G1X8026Y7420D1*
G1X8028Y7420D1*
G1X8030Y7421D1*
G1X8032Y7421D1*
G1X8034Y7421D1*
G1X8036Y7420D1*
G1X8038Y7419D1*
G1X8039Y7418D1*
G1X8041Y7416D1*
G1X8042Y7414D1*
G1X8043Y7412D1*
G1X8043Y7410D1*
G1X8043Y7408D1*
G1X8043Y7406D1*
G1X8042Y7404D1*
G1X8041Y7402D1*
G1X8039Y7401D1*
G1X8038Y7399D1*
G1X8036Y7398D1*
G1X8034Y7398D1*
G1X8032Y7397D1*
G1X8030Y7397D1*
G1X8028Y7398D1*
G1X8026Y7399D1*
G1X8024Y7400D1*
G1X8022Y7401D1*
G1X8021Y7403D1*
G1X8020Y7405D1*
G1X8020Y7407D1*
G1X8019Y7409D1*
G54D11*
G1X7519Y7360D3*
G1X7362Y7360D3*
G1X7362Y6966D3*
G1X7519Y6966D3*
G1X4124Y7517D3*
G1X3966Y7517D3*
G1X3966Y7675D3*
G1X4124Y7675D3*
G54D12*
G1X4389Y7685D3*
G1X4389Y7488D3*
G1X4645Y7488D3*
G1X4645Y7685D3*
G1X4921Y7685D3*
G1X4921Y7488D3*
G1X5256Y7419D3*
G1X5256Y7616D3*
G1X6427Y5952D3*
G1X6427Y5756D3*
G1X6506Y5569D3*
G1X6663Y5756D3*
G1X6752Y5569D3*
G1X6752Y5372D3*
G1X6506Y5372D3*
G1X6240Y5372D3*
G1X6240Y5569D3*
G1X6663Y5952D3*
G1X7382Y5500D3*
G1X7382Y5303D3*
G1X7628Y5303D3*
G1X7628Y5500D3*
G1X7874Y5500D3*
G1X7874Y5303D3*
G1X8120Y5303D3*
G1X8120Y5500D3*
G1X8199Y5667D3*
G1X8199Y5864D3*
G1X8199Y6041D3*
G1X8199Y6238D3*
G1X8199Y6395D3*
G1X8199Y6592D3*
G1X8199Y6779D3*
G1X8199Y6976D3*
G1X6781Y4515D3*
G1X6781Y4319D3*
G1X5502Y4447D3*
G1X5502Y4643D3*
G1X5216Y4643D3*
G1X5216Y4447D3*
G1X5216Y4948D3*
G1X5216Y5145D3*
G1X5502Y5145D3*
G1X5502Y4948D3*
G54D13*
G1X6279Y6228D3*
G1X6476Y6228D3*
G1X6476Y7468D3*
G1X6269Y7468D3*
G1X6073Y7468D3*
G1X5748Y7616D3*
G1X5551Y7616D3*
G1X6693Y7468D3*
G1X5748Y8836D3*
G1X5551Y8836D3*
G1X5551Y9102D3*
G1X5748Y9102D3*
G1X4143Y5431D3*
G1X3947Y5431D3*
G54D14*
G1X6171Y6592D3*
G1X6584Y6592D3*
G1X6584Y7124D3*
G1X6171Y7124D3*
G54D15*
G1X4183Y4378D3*
G1X4380Y4378D3*
G1X4576Y4378D3*
G1X4576Y5106D3*
G1X4380Y5106D3*
G1X4183Y5106D3*
G54D16*
G1X3917Y5037D3*
G1X3917Y4840D3*
G1X3917Y4643D3*
G1X3917Y4447D3*
G1X4842Y4447D3*
G1X4842Y4643D3*
G1X4842Y4840D3*
G1X4842Y5037D3*
G54D17*
G1X6681Y8108D3*
G1X6882Y8108D3*
G1X8226Y8885D3*
G1X8427Y8885D3*
G1X8427Y9200D3*
G1X8226Y9200D3*
G54D43*
G1X6892Y9161D3*
G1X6394Y9161D3*
G54D44*
G1X6643Y9072D3*
G1X6643Y9250D3*
G54D23*
G1X5275Y7035D3*
G1X5275Y6878D3*
G1X5118Y6878D3*
G1X5118Y7035D3*
G1X4960Y7035D3*
G1X4960Y6878D3*
G1X4960Y6720D3*
G1X5118Y6720D3*
G1X5275Y6720D3*
G1X5275Y6563D3*
G1X5275Y6405D3*
G1X5275Y6248D3*
G1X5118Y6248D3*
G1X4960Y6248D3*
G1X4960Y6405D3*
G1X5118Y6405D3*
G1X5118Y6563D3*
G1X4960Y6563D3*
G1X4803Y6720D3*
G1X4803Y6878D3*
G1X4803Y7035D3*
G1X4645Y7035D3*
G1X4645Y6878D3*
G1X4645Y6720D3*
G1X4488Y6720D3*
G1X4488Y6878D3*
G1X4488Y7035D3*
G1X4330Y7035D3*
G1X4330Y6878D3*
G1X4330Y6720D3*
G1X4173Y6720D3*
G1X4173Y6878D3*
G1X4173Y7035D3*
G1X4015Y7035D3*
G1X4015Y6878D3*
G1X4015Y6720D3*
G1X4015Y6563D3*
G1X4015Y6405D3*
G1X4015Y6248D3*
G1X4173Y6248D3*
G1X4173Y6405D3*
G1X4173Y6563D3*
G1X4330Y6563D3*
G1X4330Y6405D3*
G1X4330Y6248D3*
G1X4330Y6090D3*
G1X4488Y6090D3*
G1X4488Y5933D3*
G1X4330Y5933D3*
G1X4173Y5933D3*
G1X4173Y6090D3*
G1X4015Y6090D3*
G1X4015Y5933D3*
G1X4015Y5775D3*
G1X4173Y5775D3*
G1X4330Y5775D3*
G1X4488Y5775D3*
G1X4645Y5775D3*
G1X4803Y5775D3*
G1X4803Y5933D3*
G1X4803Y6090D3*
G1X4645Y6090D3*
G1X4645Y5933D3*
G1X4960Y5933D3*
G1X4960Y6090D3*
G1X5118Y6090D3*
G1X5275Y6090D3*
G1X5275Y5933D3*
G1X5118Y5933D3*
G1X5118Y5775D3*
G1X5275Y5775D3*
G1X4960Y5775D3*
G54D24*
G1X5836Y4939D3*
G1X6033Y4939D3*
G1X6230Y4939D3*
G1X6427Y4939D3*
G1X6427Y4742D3*
G1X6427Y4545D3*
G1X6427Y4348D3*
G1X6230Y4348D3*
G1X6033Y4348D3*
G1X5836Y4348D3*
G1X5836Y4545D3*
G1X5836Y4742D3*
G54D26*
G1X4744Y8511D3*
G1X4744Y8846D3*
G1X4212Y8846D3*
G1X4212Y8511D3*
G54D27*
G1X3799Y8679D3*
G1X5157Y8679D3*
G54D28*
G1X4478Y8197D3*
G1X4478Y9161D3*
G54D29*
G1X7047Y6651D3*
G1X7204Y6651D3*
G1X7362Y6651D3*
G1X7204Y6494D3*
G1X7047Y6494D3*
G1X7047Y6336D3*
G1X7047Y6179D3*
G1X7047Y6021D3*
G1X7204Y6021D3*
G1X7204Y6179D3*
G1X7362Y6179D3*
G1X7362Y6021D3*
G1X7519Y6021D3*
G1X7677Y6021D3*
G1X7677Y6179D3*
G1X7519Y6179D3*
G1X7519Y6336D3*
G1X7677Y6336D3*
G1X7677Y6494D3*
G1X7519Y6494D3*
G1X7519Y6651D3*
G1X7677Y6651D3*
G1X7834Y6651D3*
G1X7834Y6494D3*
G1X7834Y6336D3*
G1X7834Y6179D3*
G1X7834Y6021D3*
G1X7834Y5864D3*
G1X7677Y5864D3*
G1X7519Y5864D3*
G1X7362Y5864D3*
G1X7204Y5864D3*
G1X7047Y5864D3*
G1X7204Y6336D3*
G54D30*
G1X7121Y4742D3*
G1X7121Y4545D3*
G1X7721Y4545D3*
G1X7721Y4742D3*
G54D31*
G1X7618Y4944D3*
G1X7421Y4944D3*
G1X7224Y4944D3*
G1X7224Y4343D3*
G1X7421Y4343D3*
G1X7618Y4343D3*
G54D32*
G1X5797Y7941D3*
G1X5797Y8511D3*
G54D33*
G1X8159Y4921D3*
G1X8159Y4720D3*
G1X8159Y4537D3*
G1X8159Y4336D3*
M2*
