G04 ================== begin FILE IDENTIFICATION RECORD ==================*
G04 Layout Name:  STEVAL-STLCX01V1.brd*
G04 Film Name:    STEVAL-STLCX01V1-11PMT.GBR*
G04 File Format:  Gerber RS274X*
G04 File Origin:  Cadence Allegro 16.5-P002*
G04 Origin Date:  Mon May 16 11:09:18 2016*
G04 *
G04 Layer:  VIA CLASS/PASTEMASK_TOP*
G04 Layer:  PIN/PASTEMASK_TOP*
G04 Layer:  PACKAGE GEOMETRY/PASTEMASK_TOP*
G04 Layer:  BOARD GEOMETRY/TOOLING_CORNERS*
G04 *
G04 Offset:    (0.0000 0.0000)*
G04 Mirror:    No*
G04 Mode:      Positive*
G04 Rotation:  0*
G04 FullContactRelief:  No*
G04 UndefLineWidth:     0.0000*
G04 ================== end FILE IDENTIFICATION RECORD ====================*
%FSLAX25Y25*MOMM*%
%IR0*IPPOS*OFA0.00000B0.00000*MIA0B0*SFA1.00000B1.00000*%
%ADD12R,1.1X.3*%
%ADD28R,1.15X.75*%
%ADD27R,.95X1.4*%
%ADD11R,.762X.762*%
%ADD18R,.4064X1.4478*%
%ADD21R,2.1X2.*%
%ADD29R,2.1X2.2*%
%ADD14O,.5989X1.1989*%
%ADD13R,.5989X1.1989*%
%ADD30R,2.1X2.7*%
%ADD23R,2.6X2.7*%
%ADD15R,1.15X1.45*%
%ADD22R,1.X1.*%
%ADD10C,1.016*%
%ADD17R,1.75X1.9*%
%ADD26R,.28X.85*%
%ADD19R,.59X.44*%
%ADD25R,.85X.28*%
%ADD24R,2.7X2.7*%
%ADD20R,.7366X.23*%
%ADD16R,.9906X.3048*%
%ADD31C,.5*%
G75*
%LPD*%
G75*
G36*
G01X737000Y1929200D02*
Y2030800D01*
X648100D01*
Y1929200D01*
X737000D01*
G37*
G36*
G01X571900D02*
Y2030800D01*
X483000D01*
Y1929200D01*
X571900D01*
G37*
G36*
G01X767000Y3609200D02*
Y3710800D01*
X678100D01*
Y3609200D01*
X767000D01*
G37*
G36*
G01X601900D02*
Y3710800D01*
X513000D01*
Y3609200D01*
X601900D01*
G37*
G36*
G01X1237000Y3909200D02*
Y4010800D01*
X1148100D01*
Y3909200D01*
X1237000D01*
G37*
G36*
G01X1071900D02*
Y4010800D01*
X983000D01*
Y3909200D01*
X1071900D01*
G37*
G36*
G01X983000Y4160800D02*
Y4059200D01*
X1071900D01*
Y4160800D01*
X983000D01*
G37*
G36*
G01X1148100D02*
Y4059200D01*
X1237000D01*
Y4160800D01*
X1148100D01*
G37*
G36*
G01X1861900Y2224200D02*
Y2325800D01*
X1773000D01*
Y2224200D01*
X1861900D01*
G37*
G36*
G01X2027000D02*
Y2325800D01*
X1938100D01*
Y2224200D01*
X2027000D01*
G37*
G36*
G01X1773000Y2485800D02*
Y2384200D01*
X1861900D01*
Y2485800D01*
X1773000D01*
G37*
G36*
G01X1938100D02*
Y2384200D01*
X2027000D01*
Y2485800D01*
X1938100D01*
G37*
G36*
G01X2058000Y3285800D02*
Y3184200D01*
X2146900D01*
Y3285800D01*
X2058000D01*
G37*
G36*
G01X2223100D02*
Y3184200D01*
X2312000D01*
Y3285800D01*
X2223100D01*
G37*
G36*
G01X2312000Y3024200D02*
Y3125800D01*
X2223100D01*
Y3024200D01*
X2312000D01*
G37*
G36*
G01X2146900D02*
Y3125800D01*
X2058000D01*
Y3024200D01*
X2146900D01*
G37*
G36*
G01X2058000Y2965800D02*
Y2864200D01*
X2146900D01*
Y2965800D01*
X2058000D01*
G37*
G36*
G01X2223100D02*
Y2864200D01*
X2312000D01*
Y2965800D01*
X2223100D01*
G37*
G36*
G01X2058000Y2805800D02*
Y2704200D01*
X2146900D01*
Y2805800D01*
X2058000D01*
G37*
G36*
G01X2223100D02*
Y2704200D01*
X2312000D01*
Y2805800D01*
X2223100D01*
G37*
G36*
G01X2058000Y2645800D02*
Y2544200D01*
X2146900D01*
Y2645800D01*
X2058000D01*
G37*
G36*
G01X2223100D02*
Y2544200D01*
X2312000D01*
Y2645800D01*
X2223100D01*
G37*
G36*
G01X1773000D02*
Y2544200D01*
X1861900D01*
Y2645800D01*
X1773000D01*
G37*
G36*
G01X1938100D02*
Y2544200D01*
X2027000D01*
Y2645800D01*
X1938100D01*
G37*
G36*
G01X2538000Y2875800D02*
Y2774200D01*
X2626900D01*
Y2875800D01*
X2538000D01*
G37*
G36*
G01X2703100D02*
Y2774200D01*
X2792000D01*
Y2875800D01*
X2703100D01*
G37*
G36*
G01X3092000Y2774200D02*
Y2875800D01*
X3003100D01*
Y2774200D01*
X3092000D01*
G37*
G36*
G01X2926900D02*
Y2875800D01*
X2838000D01*
Y2774200D01*
X2926900D01*
G37*
G36*
G01X3092000Y2434200D02*
Y2535800D01*
X3003100D01*
Y2434200D01*
X3092000D01*
G37*
G36*
G01X2926900D02*
Y2535800D01*
X2838000D01*
Y2434200D01*
X2926900D01*
G37*
G36*
G01X2792000D02*
Y2535800D01*
X2703100D01*
Y2434200D01*
X2792000D01*
G37*
G36*
G01X2626900D02*
Y2535800D01*
X2538000D01*
Y2434200D01*
X2626900D01*
G37*
G36*
G01X3092000Y2604200D02*
Y2705800D01*
X3003100D01*
Y2604200D01*
X3092000D01*
G37*
G36*
G01X2926900D02*
Y2705800D01*
X2838000D01*
Y2604200D01*
X2926900D01*
G37*
G36*
G01X2792000D02*
Y2705800D01*
X2703100D01*
Y2604200D01*
X2792000D01*
G37*
G36*
G01X2626900D02*
Y2705800D01*
X2538000D01*
Y2604200D01*
X2626900D01*
G37*
G36*
G01X3625800Y3562000D02*
X3524200D01*
Y3473100D01*
X3625800D01*
Y3562000D01*
G37*
G36*
G01Y3396900D02*
X3524200D01*
Y3308000D01*
X3625800D01*
Y3396900D01*
G37*
G36*
G01X3785800Y3562000D02*
X3684200D01*
Y3473100D01*
X3785800D01*
Y3562000D01*
G37*
G36*
G01Y3396900D02*
X3684200D01*
Y3308000D01*
X3785800D01*
Y3396900D01*
G37*
G36*
G01X4714200Y2603000D02*
X4815800D01*
Y2691900D01*
X4714200D01*
Y2603000D01*
G37*
G36*
G01Y2768100D02*
X4815800D01*
Y2857000D01*
X4714200D01*
Y2768100D01*
G37*
G36*
G01X4210800Y3567000D02*
X4109200D01*
Y3478100D01*
X4210800D01*
Y3567000D01*
G37*
G36*
G01Y3401900D02*
X4109200D01*
Y3313000D01*
X4210800D01*
Y3401900D01*
G37*
G36*
G01X4681900Y4589200D02*
Y4690800D01*
X4593000D01*
Y4589200D01*
X4681900D01*
G37*
G36*
G01X4847000D02*
Y4690800D01*
X4758100D01*
Y4589200D01*
X4847000D01*
G37*
G54D10*
X955000Y485000D03*
X470000Y4335000D03*
X5040000Y695000D03*
G54D20*
X2491500Y4210000D03*
X2708500D03*
X2491500Y4250000D03*
X2708500D03*
X2491500Y4290000D03*
X2708500D03*
X2491500Y4330000D03*
X2708500D03*
X2491500Y4370000D03*
X2708500D03*
X2491500Y4410000D03*
X2708500D03*
X2491500Y4450000D03*
X2708500D03*
X2491500Y4490000D03*
X2708500D03*
G54D11*
X928660Y2440000D03*
X781340D03*
X1423660Y650000D03*
X1276340D03*
X1120000Y901340D03*
X1615000Y1081340D03*
Y1228660D03*
X1423660Y1230000D03*
X1276340D03*
X1120000Y1048660D03*
X1373660Y2440000D03*
X1226340D03*
X2331340Y1100000D03*
X2478660D03*
X3695000Y2006340D03*
Y2153660D03*
X3240000Y2891340D03*
Y3038660D03*
X3880000Y3371340D03*
Y3518660D03*
X4430000Y2191340D03*
Y2338660D03*
X4015000Y3371340D03*
Y3518660D03*
X4440000Y3981340D03*
Y4128660D03*
G54D30*
X4465000Y1600000D03*
G54D21*
X3655000Y590000D03*
Y860000D03*
G54D12*
X780000Y2607500D03*
Y2672500D03*
Y2737500D03*
Y2802500D03*
Y2867500D03*
Y2932500D03*
Y2997500D03*
Y3062500D03*
Y3127500D03*
Y3192500D03*
X1420000D03*
Y3127500D03*
Y3062500D03*
Y2997500D03*
Y2932500D03*
Y2867500D03*
Y2802500D03*
Y2737500D03*
Y2672500D03*
Y2607500D03*
G54D31*
G01X5200000Y0D02*
Y5000000D01*
X3270000D01*
X3150000Y4880000D01*
Y4710000D01*
X3100000Y4660000D01*
X2260000D01*
X2130000Y4790000D01*
Y4970000D01*
X2100000Y5000000D01*
X0D01*
Y0D01*
X900000D01*
X1000000Y100000D01*
Y300000D01*
X1100000Y400000D01*
X4400000D01*
X4500000Y300000D01*
Y100000D01*
X4600000Y0D01*
X5200000D01*
G54D22*
X3530000Y2330000D03*
X3290000D03*
X3950000D03*
X3710000D03*
X3405000Y3130000D03*
Y2890000D03*
X4185000Y2540000D03*
X4425000D03*
X4225000Y2770000D03*
X4465000D03*
X4220000Y2980000D03*
X4460000D03*
G54D13*
X1275000Y815000D03*
G54D23*
X3955000Y2010000D03*
G54D14*
X1370000Y815000D03*
X1464990D03*
Y1045100D03*
X1275000Y1045000D03*
G54D24*
X3780000Y2870000D03*
G54D15*
X2448000Y788000D03*
X2912000D03*
G54D16*
X2340000Y1255000D03*
Y1305000D03*
Y1355000D03*
X2500000D03*
Y1305000D03*
Y1255000D03*
G54D25*
X3977500Y2970000D03*
Y2920000D03*
Y2870000D03*
Y2820000D03*
Y2770000D03*
X3582500D03*
Y2820000D03*
Y2870000D03*
Y2920000D03*
Y2970000D03*
G54D26*
X3880000Y2672500D03*
X3830000D03*
X3780000D03*
X3730000D03*
X3680000D03*
Y3067500D03*
X3730000D03*
X3780000D03*
X3830000D03*
X3880000D03*
G54D17*
X2792500Y565000D03*
X2567500D03*
G54D18*
X2550000Y830000D03*
X2615000D03*
X2680000D03*
X2745000D03*
X2810000D03*
G54D27*
X3880000Y4000000D03*
X4280000D03*
G54D19*
X2530500Y4153000D03*
X2669500D03*
X2530500Y4547000D03*
X2669500D03*
G54D28*
X3927500Y3842500D03*
Y4157500D03*
X4232500Y3842500D03*
Y4157500D03*
G54D29*
X4465000Y670000D03*
M02*
