G04 ================== begin FILE IDENTIFICATION RECORD ==================*
G04 Layout Name:  STEVAL-STLCX01V1.brd*
G04 Film Name:    STEVAL-STLCX01V1-10SMB.GBR*
G04 File Format:  Gerber RS274X*
G04 File Origin:  Cadence Allegro 16.5-P002*
G04 Origin Date:  Mon May 16 11:09:18 2016*
G04 *
G04 Layer:  VIA CLASS/SOLDERMASK_BOTTOM*
G04 Layer:  PIN/SOLDERMASK_BOTTOM*
G04 Layer:  PACKAGE GEOMETRY/SOLDERMASK_BOTTOM*
G04 Layer:  BOARD GEOMETRY/TOOLING_CORNERS*
G04 Layer:  BOARD GEOMETRY/SOLDERMASK_BOTTOM*
G04 *
G04 Offset:    (0.0000 0.0000)*
G04 Mirror:    No*
G04 Mode:      Positive*
G04 Rotation:  0*
G04 FullContactRelief:  No*
G04 UndefLineWidth:     0.0000*
G04 ================== end FILE IDENTIFICATION RECORD ====================*
%FSLAX25Y25*MOMM*%
%IR0*IPPOS*OFA0.00000B0.00000*MIA0B0*SFA1.00000B1.00000*%
%ADD17C,.9*%
%ADD15R,1.3X.99*%
%ADD14O,1.2X2.1*%
%ADD16C,1.8*%
%ADD13C,0.0*%
%ADD10C,1.9304*%
%ADD12C,4.3942*%
%ADD11R,1.9304X1.9304*%
%ADD18C,.5*%
G75*
%LPD*%
G75*
G54D10*
X200000Y207000D03*
Y461000D03*
Y715000D03*
Y969000D03*
Y1223000D03*
Y1477000D03*
Y1731000D03*
Y1985000D03*
Y2239000D03*
Y3153000D03*
Y2899000D03*
Y3915000D03*
Y3661000D03*
Y3407000D03*
Y4423000D03*
Y4169000D03*
X1980000Y566000D03*
Y820000D03*
X4720000Y3661000D03*
Y3915000D03*
Y4423000D03*
Y4169000D03*
X5026000Y1375000D03*
Y1629000D03*
Y1883000D03*
Y2137000D03*
Y2391000D03*
Y2645000D03*
Y2899000D03*
Y3661000D03*
Y3915000D03*
Y4169000D03*
Y4423000D03*
Y4677000D03*
G54D11*
X200000Y2493000D03*
Y4677000D03*
X1980000Y1074000D03*
X4720000Y3407000D03*
X5026000Y1121000D03*
Y3407000D03*
G54D12*
X600000Y300000D03*
Y4700000D03*
X4900000Y300000D03*
X4300000Y4700000D03*
G54D13*
X645000Y1370000D03*
Y2440000D03*
X465000Y2305000D03*
X555000Y2215000D03*
X905000Y2655000D03*
X877500Y3192500D03*
X637500Y2672500D03*
X630000Y2935000D03*
X620000Y3065000D03*
X877500Y3530000D03*
X1370000Y845000D03*
X1140000Y655000D03*
X1520000Y650000D03*
X1490000Y1365000D03*
X1175000Y1375000D03*
X1190000Y1140000D03*
X1610000Y985000D03*
X1190000Y1230000D03*
X1120000Y2440000D03*
X1030000Y2555000D03*
X1162000Y2738000D03*
X1312500Y2737500D03*
X1030000Y3960000D03*
X1312500Y3657500D03*
X1160000Y4295000D03*
X1024000Y4111000D03*
X2300000Y825000D03*
X2090000Y1260000D03*
X2175000Y1105000D03*
X1980000Y1540000D03*
X2230000Y1255000D03*
X2220000Y1425000D03*
X2360000Y2220000D03*
Y2600000D03*
X1982550Y2595000D03*
X2265000Y3075000D03*
X2255000Y2750000D03*
X2102450Y2762450D03*
X2025000Y3415000D03*
X2102450Y3235000D03*
X2057250Y4307750D03*
X3070000Y830000D03*
X2610000Y1280000D03*
X2790000Y985000D03*
X2910000Y970000D03*
X2507500Y990000D03*
X2690000Y1885000D03*
X3055000Y2342770D03*
X2540000Y1713000D03*
X2610000Y1815000D03*
X3155000Y1985000D03*
X2605000Y2482550D03*
X2585000Y2660000D03*
X2590000Y2825000D03*
X2747550Y2655000D03*
X2872500Y2822500D03*
X2745000Y2485000D03*
X3060000Y3435000D03*
X3155000Y3335000D03*
X2960000Y3415000D03*
X2700000Y3875000D03*
X2790000Y3752000D03*
X2600000Y4050000D03*
Y4335000D03*
X2872500Y4192500D03*
X3370000Y2190000D03*
Y1910000D03*
X3405000Y1775000D03*
X3475000Y2905000D03*
X3335000Y3010000D03*
X3405000Y3135000D03*
X3260000Y2475000D03*
X3870000Y3170000D03*
X3560000Y2590000D03*
X3780000Y2870000D03*
X3700000Y2950000D03*
X3695000Y2790000D03*
X3860000D03*
Y2950000D03*
X3735000Y3520000D03*
X3698000Y4133000D03*
X3405000Y4910000D03*
X4470000Y920000D03*
X4710000Y1655000D03*
X4255000Y1175000D03*
X4635000Y1980000D03*
X4250000D03*
X4350000Y2885000D03*
X4585000Y2880000D03*
X4015000Y3070000D03*
Y3371340D03*
X4558500Y4403500D03*
X4500000Y4260000D03*
G54D14*
X2322500Y565000D03*
X3037500D03*
G54D15*
X1935000Y3752000D03*
Y3879000D03*
Y4006000D03*
Y4133000D03*
Y4260000D03*
Y4387000D03*
Y4514000D03*
Y4641000D03*
Y4768000D03*
X3265000Y3879000D03*
Y3752000D03*
Y4641000D03*
Y4514000D03*
Y4387000D03*
Y4260000D03*
Y4133000D03*
Y4006000D03*
Y4768000D03*
G54D16*
X4060000Y780000D03*
Y1480000D03*
G54D17*
X4080000Y3910000D03*
Y4090000D03*
G54D18*
G01X5200000Y0D02*
Y5000000D01*
X3270000D01*
X3150000Y4880000D01*
Y4710000D01*
X3100000Y4660000D01*
X2260000D01*
X2130000Y4790000D01*
Y4970000D01*
X2100000Y5000000D01*
X0D01*
Y0D01*
X900000D01*
X1000000Y100000D01*
Y300000D01*
X1100000Y400000D01*
X4400000D01*
X4500000Y300000D01*
Y100000D01*
X4600000Y0D01*
X5200000D01*
M02*
