G04 ================== begin FILE IDENTIFICATION RECORD ==================*
G04 Layout Name:  STEVAL-STLCX01V1.brd*
G04 Film Name:    STEVAL-STLCX01V1-09SMT.GBR*
G04 File Format:  Gerber RS274X*
G04 File Origin:  Cadence Allegro 16.5-P002*
G04 Origin Date:  Mon May 16 11:09:18 2016*
G04 *
G04 Layer:  VIA CLASS/SOLDERMASK_TOP*
G04 Layer:  PIN/SOLDERMASK_TOP*
G04 Layer:  PACKAGE GEOMETRY/SOLDERMASK_TOP*
G04 Layer:  BOARD GEOMETRY/TOOLING_CORNERS*
G04 Layer:  BOARD GEOMETRY/SOLDERMASK_TOP*
G04 *
G04 Offset:    (0.0000 0.0000)*
G04 Mirror:    No*
G04 Mode:      Positive*
G04 Rotation:  0*
G04 FullContactRelief:  No*
G04 UndefLineWidth:     0.0000*
G04 ================== end FILE IDENTIFICATION RECORD ====================*
%FSLAX25Y25*MOMM*%
%IR0*IPPOS*OFA0.00000B0.00000*MIA0B0*SFA1.00000B1.00000*%
%ADD16R,1.1X.3*%
%ADD34R,1.25X.85*%
%ADD38C,.9*%
%ADD22R,1.3X.99*%
%ADD21R,1.1176X.4064*%
%ADD24R,.5588X1.6002*%
%ADD15R,.8636X.8636*%
%ADD19O,1.2X2.1*%
%ADD27R,2.1X2.*%
%ADD36R,2.1X2.2*%
%ADD18O,.5989X1.1989*%
%ADD17R,.5989X1.1989*%
%ADD37R,2.1X2.7*%
%ADD33R,1.05X1.5*%
%ADD20R,1.3X1.6*%
%ADD29R,2.6X2.7*%
%ADD13C,2.032*%
%ADD35C,1.8*%
%ADD14C,0.0*%
%ADD28R,1.4X1.4*%
%ADD23R,1.85X2.0066*%
%ADD32R,.38X.95*%
%ADD31R,.95X.38*%
%ADD30R,2.8X2.8*%
%ADD25R,.74X.59*%
%ADD10C,1.9304*%
%ADD12C,4.3942*%
%ADD11R,1.9304X1.9304*%
%ADD26R,.8382X.3456*%
%ADD39C,.5*%
G75*
%LPD*%
G75*
G36*
G01X749700Y1916500D02*
Y2043500D01*
X470300D01*
Y1916500D01*
X749700D01*
G37*
G36*
G01X779700Y3596500D02*
Y3723500D01*
X500300D01*
Y3596500D01*
X779700D01*
G37*
G36*
G01X1249700Y3896500D02*
Y4023500D01*
X970300D01*
Y3896500D01*
X1249700D01*
G37*
G36*
G01X970300Y4173500D02*
Y4046500D01*
X1249700D01*
Y4173500D01*
X970300D01*
G37*
G36*
G01X2039700Y2211500D02*
Y2338500D01*
X1760300D01*
Y2211500D01*
X2039700D01*
G37*
G36*
G01X1760300Y2498500D02*
Y2371500D01*
X2039700D01*
Y2498500D01*
X1760300D01*
G37*
G36*
G01X2045300Y3298500D02*
Y3171500D01*
X2324700D01*
Y3298500D01*
X2045300D01*
G37*
G36*
G01X2324700Y3011500D02*
Y3138500D01*
X2045300D01*
Y3011500D01*
X2324700D01*
G37*
G36*
G01X2045300Y2978500D02*
Y2851500D01*
X2324700D01*
Y2978500D01*
X2045300D01*
G37*
G36*
G01Y2818500D02*
Y2691500D01*
X2324700D01*
Y2818500D01*
X2045300D01*
G37*
G36*
G01Y2658500D02*
Y2531500D01*
X2324700D01*
Y2658500D01*
X2045300D01*
G37*
G36*
G01X1760300D02*
Y2531500D01*
X2039700D01*
Y2658500D01*
X1760300D01*
G37*
G36*
G01X3104700Y2421500D02*
Y2548500D01*
X2825300D01*
Y2421500D01*
X3104700D01*
G37*
G36*
G01X2804700D02*
Y2548500D01*
X2525300D01*
Y2421500D01*
X2804700D01*
G37*
G36*
G01X2525300Y2888500D02*
Y2761500D01*
X2804700D01*
Y2888500D01*
X2525300D01*
G37*
G36*
G01X3104700Y2761500D02*
Y2888500D01*
X2825300D01*
Y2761500D01*
X3104700D01*
G37*
G36*
G01Y2591500D02*
Y2718500D01*
X2825300D01*
Y2591500D01*
X3104700D01*
G37*
G36*
G01X2804700D02*
Y2718500D01*
X2525300D01*
Y2591500D01*
X2804700D01*
G37*
G36*
G01X3638500Y3574700D02*
X3511500D01*
Y3295300D01*
X3638500D01*
Y3574700D01*
G37*
G36*
G01X3798500D02*
X3671500D01*
Y3295300D01*
X3798500D01*
Y3574700D01*
G37*
G36*
G01X4701500Y2590300D02*
X4828500D01*
Y2869700D01*
X4701500D01*
Y2590300D01*
G37*
G36*
G01X4223500Y3579700D02*
X4096500D01*
Y3300300D01*
X4223500D01*
Y3579700D01*
G37*
G36*
G01X4859700Y4576500D02*
Y4703500D01*
X4580300D01*
Y4576500D01*
X4859700D01*
G37*
G54D10*
X200000Y207000D03*
Y461000D03*
Y715000D03*
Y969000D03*
Y1223000D03*
Y1477000D03*
Y1731000D03*
Y1985000D03*
Y2239000D03*
Y3153000D03*
Y2899000D03*
Y3915000D03*
Y3661000D03*
Y3407000D03*
Y4423000D03*
Y4169000D03*
X1980000Y566000D03*
Y820000D03*
X4720000Y3661000D03*
Y3915000D03*
Y4423000D03*
Y4169000D03*
X5026000Y1375000D03*
Y1629000D03*
Y1883000D03*
Y2137000D03*
Y2391000D03*
Y2645000D03*
Y2899000D03*
Y3661000D03*
Y3915000D03*
Y4169000D03*
Y4423000D03*
Y4677000D03*
G54D11*
X200000Y2493000D03*
Y4677000D03*
X1980000Y1074000D03*
X4720000Y3407000D03*
X5026000Y1121000D03*
Y3407000D03*
G54D20*
X2448000Y788000D03*
X2912000D03*
G54D12*
X600000Y300000D03*
Y4700000D03*
X4900000Y300000D03*
X4300000Y4700000D03*
G54D30*
X3780000Y2870000D03*
G54D21*
X2340000Y1255000D03*
Y1305000D03*
Y1355000D03*
X2500000D03*
Y1305000D03*
Y1255000D03*
G54D31*
X3977500Y2970000D03*
Y2920000D03*
Y2870000D03*
Y2820000D03*
Y2770000D03*
X3582500D03*
Y2820000D03*
Y2870000D03*
Y2920000D03*
Y2970000D03*
G54D13*
X955000Y485000D03*
X470000Y4335000D03*
X5040000Y695000D03*
G54D22*
X1935000Y3752000D03*
Y3879000D03*
Y4006000D03*
Y4133000D03*
Y4260000D03*
Y4387000D03*
Y4514000D03*
Y4641000D03*
Y4768000D03*
X3265000Y3879000D03*
Y3752000D03*
Y4641000D03*
Y4514000D03*
Y4387000D03*
Y4260000D03*
Y4133000D03*
Y4006000D03*
Y4768000D03*
G54D32*
X3880000Y2672500D03*
X3830000D03*
X3780000D03*
X3730000D03*
X3680000D03*
Y3067500D03*
X3730000D03*
X3780000D03*
X3830000D03*
X3880000D03*
G54D23*
X2792500Y565000D03*
X2567500D03*
G54D14*
X645000Y1370000D03*
Y2440000D03*
X465000Y2305000D03*
X555000Y2215000D03*
X905000Y2655000D03*
X877500Y3192500D03*
X637500Y2672500D03*
X630000Y2935000D03*
X620000Y3065000D03*
X877500Y3530000D03*
X1370000Y845000D03*
X1140000Y655000D03*
X1520000Y650000D03*
X1490000Y1365000D03*
X1175000Y1375000D03*
X1190000Y1140000D03*
X1610000Y985000D03*
X1190000Y1230000D03*
X1120000Y2440000D03*
X1030000Y2555000D03*
X1162000Y2738000D03*
X1312500Y2737500D03*
X1030000Y3960000D03*
X1312500Y3657500D03*
X1160000Y4295000D03*
X1024000Y4111000D03*
X2300000Y825000D03*
X2090000Y1260000D03*
X2175000Y1105000D03*
X1980000Y1540000D03*
X2230000Y1255000D03*
X2220000Y1425000D03*
X2360000Y2220000D03*
Y2600000D03*
X1982550Y2595000D03*
X2265000Y3075000D03*
X2255000Y2750000D03*
X2102450Y2762450D03*
X2025000Y3415000D03*
X2102450Y3235000D03*
X2057250Y4307750D03*
X3070000Y830000D03*
X2610000Y1280000D03*
X2790000Y985000D03*
X2910000Y970000D03*
X2507500Y990000D03*
X2690000Y1885000D03*
X3055000Y2342770D03*
X2540000Y1713000D03*
X2610000Y1815000D03*
X3155000Y1985000D03*
X2605000Y2482550D03*
X2585000Y2660000D03*
X2590000Y2825000D03*
X2747550Y2655000D03*
X2872500Y2822500D03*
X2745000Y2485000D03*
X3060000Y3435000D03*
X3155000Y3335000D03*
X2960000Y3415000D03*
X2700000Y3875000D03*
X2790000Y3752000D03*
X2600000Y4050000D03*
Y4335000D03*
X2872500Y4192500D03*
X3370000Y2190000D03*
Y1910000D03*
X3405000Y1775000D03*
X3475000Y2905000D03*
X3335000Y3010000D03*
X3405000Y3135000D03*
X3260000Y2475000D03*
X3870000Y3170000D03*
X3560000Y2590000D03*
X3780000Y2870000D03*
X3700000Y2950000D03*
X3695000Y2790000D03*
X3860000D03*
Y2950000D03*
X3735000Y3520000D03*
X3698000Y4133000D03*
X3405000Y4910000D03*
X4470000Y920000D03*
X4710000Y1655000D03*
X4255000Y1175000D03*
X4635000Y1980000D03*
X4250000D03*
X4350000Y2885000D03*
X4585000Y2880000D03*
X4015000Y3070000D03*
Y3371340D03*
X4558500Y4403500D03*
X4500000Y4260000D03*
G54D33*
X3880000Y4000000D03*
X4280000D03*
G54D15*
X928660Y2440000D03*
X781340D03*
X1423660Y650000D03*
X1276340D03*
X1120000Y901340D03*
X1615000Y1081340D03*
Y1228660D03*
X1423660Y1230000D03*
X1276340D03*
X1120000Y1048660D03*
X1373660Y2440000D03*
X1226340D03*
X2331340Y1100000D03*
X2478660D03*
X3695000Y2006340D03*
Y2153660D03*
X3240000Y2891340D03*
Y3038660D03*
X3880000Y3371340D03*
Y3518660D03*
X4430000Y2191340D03*
Y2338660D03*
X4015000Y3371340D03*
Y3518660D03*
X4440000Y3981340D03*
Y4128660D03*
G54D24*
X2550000Y830000D03*
X2615000D03*
X2680000D03*
X2745000D03*
X2810000D03*
G54D25*
X2530500Y4153000D03*
X2669500D03*
X2530500Y4547000D03*
X2669500D03*
G54D34*
X3927500Y3842500D03*
Y4157500D03*
X4232500Y3842500D03*
Y4157500D03*
G54D16*
X780000Y2607500D03*
Y2672500D03*
Y2737500D03*
Y2802500D03*
Y2867500D03*
Y2932500D03*
Y2997500D03*
Y3062500D03*
Y3127500D03*
Y3192500D03*
X1420000D03*
Y3127500D03*
Y3062500D03*
Y2997500D03*
Y2932500D03*
Y2867500D03*
Y2802500D03*
Y2737500D03*
Y2672500D03*
Y2607500D03*
G54D26*
X2491500Y4210000D03*
X2708500D03*
X2491500Y4250000D03*
X2708500D03*
X2491500Y4290000D03*
X2708500D03*
X2491500Y4330000D03*
X2708500D03*
X2491500Y4370000D03*
X2708500D03*
X2491500Y4410000D03*
X2708500D03*
X2491500Y4450000D03*
X2708500D03*
X2491500Y4490000D03*
X2708500D03*
G54D35*
X4060000Y780000D03*
Y1480000D03*
G54D17*
X1275000Y815000D03*
G54D18*
X1370000D03*
X1464990D03*
Y1045100D03*
X1275000Y1045000D03*
G54D36*
X4465000Y670000D03*
G54D27*
X3655000Y590000D03*
Y860000D03*
G54D28*
X3530000Y2330000D03*
X3290000D03*
X3950000D03*
X3710000D03*
X3405000Y3130000D03*
Y2890000D03*
X4185000Y2540000D03*
X4425000D03*
X4225000Y2770000D03*
X4465000D03*
X4220000Y2980000D03*
X4460000D03*
G54D37*
X4465000Y1600000D03*
G54D19*
X2322500Y565000D03*
X3037500D03*
G54D29*
X3955000Y2010000D03*
G54D38*
X4080000Y3910000D03*
Y4090000D03*
G54D39*
G01X5200000Y0D02*
Y5000000D01*
X3270000D01*
X3150000Y4880000D01*
Y4710000D01*
X3100000Y4660000D01*
X2260000D01*
X2130000Y4790000D01*
Y4970000D01*
X2100000Y5000000D01*
X0D01*
Y0D01*
X900000D01*
X1000000Y100000D01*
Y300000D01*
X1100000Y400000D01*
X4400000D01*
X4500000Y300000D01*
Y100000D01*
X4600000Y0D01*
X5200000D01*
M02*
